G04 #@! TF.GenerationSoftware,KiCad,Pcbnew,8.0.4*
G04 #@! TF.CreationDate,2024-09-22T21:37:46-05:00*
G04 #@! TF.ProjectId,ATX-PSU_8b,4154582d-5053-4555-9f38-622e6b696361,rev?*
G04 #@! TF.SameCoordinates,Original*
G04 #@! TF.FileFunction,Legend,Bot*
G04 #@! TF.FilePolarity,Positive*
%FSLAX46Y46*%
G04 Gerber Fmt 4.6, Leading zero omitted, Abs format (unit mm)*
G04 Created by KiCad (PCBNEW 8.0.4) date 2024-09-22 21:37:46*
%MOMM*%
%LPD*%
G01*
G04 APERTURE LIST*
G04 Aperture macros list*
%AMRoundRect*
0 Rectangle with rounded corners*
0 $1 Rounding radius*
0 $2 $3 $4 $5 $6 $7 $8 $9 X,Y pos of 4 corners*
0 Add a 4 corners polygon primitive as box body*
4,1,4,$2,$3,$4,$5,$6,$7,$8,$9,$2,$3,0*
0 Add four circle primitives for the rounded corners*
1,1,$1+$1,$2,$3*
1,1,$1+$1,$4,$5*
1,1,$1+$1,$6,$7*
1,1,$1+$1,$8,$9*
0 Add four rect primitives between the rounded corners*
20,1,$1+$1,$2,$3,$4,$5,0*
20,1,$1+$1,$4,$5,$6,$7,0*
20,1,$1+$1,$6,$7,$8,$9,0*
20,1,$1+$1,$8,$9,$2,$3,0*%
G04 Aperture macros list end*
%ADD10R,1.700000X1.700000*%
%ADD11O,1.700000X1.700000*%
%ADD12C,1.700000*%
%ADD13RoundRect,0.250000X0.600000X-0.600000X0.600000X0.600000X-0.600000X0.600000X-0.600000X-0.600000X0*%
%ADD14R,1.050000X1.500000*%
%ADD15O,1.050000X1.500000*%
%ADD16R,1.600000X1.600000*%
%ADD17O,1.600000X1.600000*%
%ADD18C,1.400000*%
%ADD19O,1.400000X1.400000*%
%ADD20C,1.600000*%
%ADD21C,0.800000*%
%ADD22C,6.400000*%
%ADD23C,3.000000*%
%ADD24RoundRect,0.250001X-1.099999X-1.599999X1.099999X-1.599999X1.099999X1.599999X-1.099999X1.599999X0*%
%ADD25O,2.700000X3.700000*%
%ADD26C,2.000000*%
%ADD27R,1.800000X1.800000*%
%ADD28C,1.800000*%
%ADD29RoundRect,0.250000X-1.550000X0.650000X-1.550000X-0.650000X1.550000X-0.650000X1.550000X0.650000X0*%
%ADD30O,3.600000X1.800000*%
%ADD31R,2.000000X2.000000*%
G04 APERTURE END LIST*
%LPC*%
D10*
X120650000Y-55880000D03*
D11*
X120650000Y-58420000D03*
X120650000Y-60960000D03*
X120650000Y-63500000D03*
X120650000Y-66040000D03*
X120650000Y-68580000D03*
D12*
X147320000Y-76200000D03*
D11*
X149860000Y-76200000D03*
X152399999Y-76200000D03*
X154940000Y-76200000D03*
X157480000Y-76200000D03*
X160020000Y-76200000D03*
X162560000Y-76200000D03*
X165100001Y-76200000D03*
X167640000Y-76200000D03*
X170180000Y-76200000D03*
X172720000Y-76200000D03*
D12*
X147320000Y-73660000D03*
D11*
X149860000Y-73660000D03*
X152399999Y-73660000D03*
X154940000Y-73660000D03*
X157480000Y-73660000D03*
X160020000Y-73660000D03*
X162560000Y-73660000D03*
X165100001Y-73660000D03*
X167640000Y-73660000D03*
X170180000Y-73660000D03*
X172720000Y-73660000D03*
D12*
X124460000Y-71120000D03*
D11*
X127000000Y-71120000D03*
X129539999Y-71120000D03*
X132080000Y-71120000D03*
X134620000Y-71120000D03*
X137160000Y-71120000D03*
X139700000Y-71120000D03*
X142240001Y-71120000D03*
X144780000Y-71120000D03*
X147320000Y-71120000D03*
X149860000Y-71120000D03*
X152399999Y-71120000D03*
X154940000Y-71120000D03*
X157480000Y-71120000D03*
X160020000Y-71120000D03*
X162559999Y-71120000D03*
X165100001Y-71120000D03*
X167640000Y-71120000D03*
X170180000Y-71120000D03*
X172720000Y-71120000D03*
D12*
X124460000Y-68580000D03*
D11*
X127000000Y-68580000D03*
X129539999Y-68580000D03*
X132080000Y-68580000D03*
X134620000Y-68580000D03*
X137160000Y-68580000D03*
X139700000Y-68580000D03*
X142240001Y-68580000D03*
X144780000Y-68580000D03*
X147320000Y-68580000D03*
X149860000Y-68580000D03*
X152399999Y-68580000D03*
X154940000Y-68580000D03*
X157480000Y-68580000D03*
X160020000Y-68580000D03*
X162559999Y-68580000D03*
X165100001Y-68580000D03*
X167640000Y-68580000D03*
X170180000Y-68580000D03*
X172720000Y-68580000D03*
D12*
X124460000Y-66040000D03*
D11*
X127000000Y-66040000D03*
X129539999Y-66040000D03*
X132080000Y-66040000D03*
X134620000Y-66040000D03*
X137160000Y-66040000D03*
X139700000Y-66040000D03*
X142240001Y-66040000D03*
X144780000Y-66040000D03*
X147320000Y-66040000D03*
X149860000Y-66040000D03*
X152399999Y-66040000D03*
X154940000Y-66040000D03*
X157480000Y-66040000D03*
X160020000Y-66040000D03*
X162559999Y-66040000D03*
X165100001Y-66040000D03*
X167640000Y-66040000D03*
X170180000Y-66040000D03*
X172720000Y-66040000D03*
D12*
X124460000Y-63500000D03*
D11*
X127000000Y-63500000D03*
X129539999Y-63500000D03*
X132080000Y-63500000D03*
X134620000Y-63500000D03*
X137160000Y-63500000D03*
X139700000Y-63500000D03*
X142240001Y-63500000D03*
X144780000Y-63500000D03*
X147320000Y-63500000D03*
X149860000Y-63500000D03*
X152399999Y-63500000D03*
X154940000Y-63500000D03*
X157480000Y-63500000D03*
X160020000Y-63500000D03*
X162559999Y-63500000D03*
X165100001Y-63500000D03*
X167640000Y-63500000D03*
X170180000Y-63500000D03*
X172720000Y-63500000D03*
D12*
X124460000Y-60960000D03*
D11*
X127000000Y-60960000D03*
X129539999Y-60960000D03*
X132080000Y-60960000D03*
X134620000Y-60960000D03*
X137160000Y-60960000D03*
X139700000Y-60960000D03*
X142240001Y-60960000D03*
X144780000Y-60960000D03*
X147320000Y-60960000D03*
X149860000Y-60960000D03*
X152399999Y-60960000D03*
X154940000Y-60960000D03*
X157480000Y-60960000D03*
X160020000Y-60960000D03*
X162559999Y-60960000D03*
X165100001Y-60960000D03*
X167640000Y-60960000D03*
X170180000Y-60960000D03*
X172720000Y-60960000D03*
D12*
X124460000Y-58420000D03*
D11*
X127000000Y-58420000D03*
X129539999Y-58420000D03*
X132080000Y-58420000D03*
X134620000Y-58420000D03*
X137160000Y-58420000D03*
X139700000Y-58420000D03*
X142240001Y-58420000D03*
X144780000Y-58420000D03*
X147320000Y-58420000D03*
X149860000Y-58420000D03*
X152399999Y-58420000D03*
X154940000Y-58420000D03*
X157480000Y-58420000D03*
X160020000Y-58420000D03*
X162559999Y-58420000D03*
X165100001Y-58420000D03*
X167640000Y-58420000D03*
X170180000Y-58420000D03*
X172720000Y-58420000D03*
D12*
X124460000Y-55880000D03*
D11*
X127000000Y-55880000D03*
X129539999Y-55880000D03*
X132080000Y-55880000D03*
X134620000Y-55880000D03*
X137160000Y-55880000D03*
X139700000Y-55880000D03*
X142240001Y-55880000D03*
X144780000Y-55880000D03*
X147320000Y-55880000D03*
X149860000Y-55880000D03*
X152399999Y-55880000D03*
X154940000Y-55880000D03*
X157480000Y-55880000D03*
X160020000Y-55880000D03*
X162559999Y-55880000D03*
X165100001Y-55880000D03*
D12*
X124460000Y-53340000D03*
D11*
X127000000Y-53340000D03*
X129539999Y-53340000D03*
X132080000Y-53340000D03*
X134620000Y-53340000D03*
X137160000Y-53340000D03*
X139700000Y-53340000D03*
X142240001Y-53340000D03*
X144780000Y-53340000D03*
X147320000Y-53340000D03*
X149860000Y-53340000D03*
X152399999Y-53340000D03*
X154940000Y-53340000D03*
X157480000Y-53340000D03*
X160020000Y-53340000D03*
X162559999Y-53340000D03*
X165100001Y-53340000D03*
D12*
X139700000Y-50800000D03*
D11*
X142240000Y-50800000D03*
X144779999Y-50800000D03*
X147320000Y-50800000D03*
X149860000Y-50800000D03*
X152400000Y-50800000D03*
X154940000Y-50800000D03*
X157480001Y-50800000D03*
X160020000Y-50800000D03*
X162560000Y-50800000D03*
X165100000Y-50800000D03*
D12*
X139700000Y-48260000D03*
D11*
X142240000Y-48260000D03*
X144779999Y-48260000D03*
X147320000Y-48260000D03*
X149860000Y-48260000D03*
X152400000Y-48260000D03*
X154940000Y-48260000D03*
X157480001Y-48260000D03*
X160020000Y-48260000D03*
X162560000Y-48260000D03*
X165100000Y-48260000D03*
D12*
X139700000Y-45720000D03*
D11*
X142240000Y-45720000D03*
X144779999Y-45720000D03*
X147320000Y-45720000D03*
X149860000Y-45720000D03*
X152400000Y-45720000D03*
X154940000Y-45720000D03*
X157480001Y-45720000D03*
X160020000Y-45720000D03*
X162560000Y-45720000D03*
X165100000Y-45720000D03*
X167639999Y-45720000D03*
X170180000Y-45720000D03*
X172720000Y-45720000D03*
D12*
X139700000Y-43180000D03*
D11*
X142240000Y-43180000D03*
X144779999Y-43180000D03*
X147320000Y-43180000D03*
X149860000Y-43180000D03*
X152400000Y-43180000D03*
X154940000Y-43180000D03*
X157480001Y-43180000D03*
X160020000Y-43180000D03*
X162560000Y-43180000D03*
X165100000Y-43180000D03*
X167639999Y-43180000D03*
X170180000Y-43180000D03*
X172720000Y-43180000D03*
D12*
X139700000Y-40640000D03*
D11*
X142240000Y-40640000D03*
X144779999Y-40640000D03*
X147320000Y-40640000D03*
X149860000Y-40640000D03*
X152400000Y-40640000D03*
X154940000Y-40640000D03*
X157480001Y-40640000D03*
X160020000Y-40640000D03*
X162560000Y-40640000D03*
X165100000Y-40640000D03*
X167639999Y-40640000D03*
X170180000Y-40640000D03*
X172720000Y-40640000D03*
D12*
X139700000Y-38100000D03*
D11*
X142240000Y-38100000D03*
X144779999Y-38100000D03*
X147320000Y-38100000D03*
X149860000Y-38100000D03*
X152400000Y-38100000D03*
X154940000Y-38100000D03*
X157480001Y-38100000D03*
X160020000Y-38100000D03*
X162560000Y-38100000D03*
X165100000Y-38100000D03*
X167639999Y-38100000D03*
X170180000Y-38100000D03*
X172720000Y-38100000D03*
D12*
X139700000Y-35560000D03*
D11*
X142240000Y-35560000D03*
X144779999Y-35560000D03*
X147320000Y-35560000D03*
X149860000Y-35560000D03*
X152400000Y-35560000D03*
X154940000Y-35560000D03*
X157480001Y-35560000D03*
X160020000Y-35560000D03*
X162560000Y-35560000D03*
X165100000Y-35560000D03*
X167639999Y-35560000D03*
X170180000Y-35560000D03*
X172720000Y-35560000D03*
D12*
X139700000Y-33020000D03*
D11*
X142240000Y-33020000D03*
X144779999Y-33020000D03*
X147320000Y-33020000D03*
X149860000Y-33020000D03*
X152400000Y-33020000D03*
X154940000Y-33020000D03*
X157480001Y-33020000D03*
X160020000Y-33020000D03*
X162560000Y-33020000D03*
X165100000Y-33020000D03*
X167639999Y-33020000D03*
X170180000Y-33020000D03*
X172720000Y-33020000D03*
D12*
X139700000Y-30480000D03*
D11*
X142240000Y-30480000D03*
X144779999Y-30480000D03*
X147320000Y-30480000D03*
X149860000Y-30480000D03*
X152400000Y-30480000D03*
X154940000Y-30480000D03*
X157480001Y-30480000D03*
X160020000Y-30480000D03*
X162560000Y-30480000D03*
X165100000Y-30480000D03*
X167639999Y-30480000D03*
X170180000Y-30480000D03*
X172720000Y-30480000D03*
D10*
X140970000Y-115570000D03*
D11*
X140970000Y-118110000D03*
X138430000Y-115570000D03*
X138430000Y-118110000D03*
X135890001Y-115570000D03*
X135890000Y-118110000D03*
X133350000Y-115570000D03*
X133350000Y-118110000D03*
X130810000Y-115570000D03*
X130810000Y-118110000D03*
X128270000Y-115570000D03*
X128270000Y-118110000D03*
X125730000Y-115570000D03*
X125730000Y-118110000D03*
X123189999Y-115570000D03*
X123190000Y-118110000D03*
X120650000Y-115570000D03*
X120650000Y-118110000D03*
X118110000Y-115570000D03*
X118110000Y-118110000D03*
X115570000Y-115570000D03*
X115570000Y-118110000D03*
X113030001Y-115570000D03*
X113030000Y-118110000D03*
X110490000Y-115570000D03*
X110490000Y-118110000D03*
X107950000Y-115570000D03*
X107950000Y-118110000D03*
X105410000Y-115570000D03*
X105410000Y-118110000D03*
X102870001Y-115570000D03*
X102870000Y-118110000D03*
X100329999Y-115570000D03*
X100330000Y-118110000D03*
X97790000Y-115570000D03*
X97790000Y-118110000D03*
X95250000Y-115570000D03*
X95250000Y-118110000D03*
X92710000Y-115570000D03*
X92710000Y-118110000D03*
D12*
X160020000Y-120650000D03*
X160020000Y-123190000D03*
X157480000Y-120650000D03*
X157480000Y-123190000D03*
X154940000Y-120650000D03*
X154939999Y-123190000D03*
X152400000Y-120650000D03*
X152400000Y-123190000D03*
X149860000Y-120650000D03*
D13*
X149860000Y-123190000D03*
D14*
X119380000Y-83820000D03*
D15*
X118109999Y-83820000D03*
X116840000Y-83820000D03*
D16*
X93980000Y-88900000D03*
D17*
X96520000Y-88900000D03*
X99059999Y-88900000D03*
X101600000Y-88900000D03*
X104140000Y-88900000D03*
X106680000Y-88900000D03*
X109220000Y-88900000D03*
X109220000Y-81280000D03*
X106680000Y-81280000D03*
X104140000Y-81280000D03*
X101600000Y-81280000D03*
X99060000Y-81280000D03*
X96520000Y-81280000D03*
X93980000Y-81280000D03*
D18*
X114300000Y-78740000D03*
D19*
X121920000Y-78740000D03*
D20*
X91440000Y-81280000D03*
X91440000Y-86280000D03*
D18*
X132080000Y-78740000D03*
D19*
X124460000Y-78740000D03*
D21*
X169050000Y-123190000D03*
X169752944Y-121492944D03*
X169752944Y-124887056D03*
X171450000Y-120790000D03*
D22*
X171450000Y-123190000D03*
D21*
X171450000Y-125590000D03*
X173147056Y-121492944D03*
X173147056Y-124887056D03*
X173850000Y-123190000D03*
D18*
X124460000Y-88900000D03*
D19*
X132080000Y-88900000D03*
D14*
X129540000Y-83820000D03*
D15*
X128269999Y-83820000D03*
X127000000Y-83820000D03*
D10*
X140970000Y-120650000D03*
D11*
X140970000Y-123190000D03*
X138430000Y-120650000D03*
X138430000Y-123190000D03*
X135890001Y-120650000D03*
X135890000Y-123190000D03*
X133350000Y-120650000D03*
X133350000Y-123190000D03*
X130810000Y-120650000D03*
X130810000Y-123190000D03*
X128270000Y-120650000D03*
X128270000Y-123190000D03*
X125730000Y-120650000D03*
X125730000Y-123190000D03*
X123189999Y-120650000D03*
X123190000Y-123190000D03*
X120650000Y-120650000D03*
X120650000Y-123190000D03*
X118110000Y-120650000D03*
X118110000Y-123190000D03*
X115570000Y-120650000D03*
X115570000Y-123190000D03*
X113030001Y-120650000D03*
X113030000Y-123190000D03*
X110490000Y-120650000D03*
X110490000Y-123190000D03*
X107950000Y-120650000D03*
X107950000Y-123190000D03*
X105410000Y-120650000D03*
X105410000Y-123190000D03*
X102870001Y-120650000D03*
X102870000Y-123190000D03*
X100329999Y-120650000D03*
X100330000Y-123190000D03*
X97790000Y-120650000D03*
X97790000Y-123190000D03*
X95250000Y-120650000D03*
X95250000Y-123190000D03*
X92710000Y-120650000D03*
X92710000Y-123190000D03*
D23*
X88660000Y-34075000D03*
X134860000Y-34075000D03*
D24*
X88660000Y-41375000D03*
D25*
X92860000Y-41375000D03*
X97060000Y-41375000D03*
X101260000Y-41375000D03*
X105460000Y-41375000D03*
X109660000Y-41375000D03*
X113860000Y-41375000D03*
X118060000Y-41375000D03*
X122260000Y-41375000D03*
X126460000Y-41375000D03*
X130660000Y-41375000D03*
X134860000Y-41375000D03*
X88660000Y-46875000D03*
X92860000Y-46875000D03*
X97060000Y-46875000D03*
X101260000Y-46875000D03*
X105460000Y-46875000D03*
X109660000Y-46875000D03*
X113860000Y-46875000D03*
X118060000Y-46875000D03*
X122260000Y-46875000D03*
X126460000Y-46875000D03*
X130660000Y-46875000D03*
X134860000Y-46875000D03*
D26*
X167930000Y-86435000D03*
X167930000Y-79935000D03*
X172430001Y-86435000D03*
X172430000Y-79934999D03*
D18*
X167640000Y-114300000D03*
D19*
X167640000Y-106680000D03*
D18*
X104140000Y-93980000D03*
D19*
X111760000Y-93980000D03*
D10*
X92710000Y-106680000D03*
D11*
X92710000Y-104140000D03*
X95250000Y-106680000D03*
X95250000Y-104140000D03*
X97790000Y-106680000D03*
X97790000Y-104140000D03*
X100330000Y-106680000D03*
X100330000Y-104140000D03*
X102870000Y-106680000D03*
X102870000Y-104140000D03*
X105410000Y-106680000D03*
X105410000Y-104140000D03*
X107950000Y-106680000D03*
X107950000Y-104140000D03*
X110490000Y-106680000D03*
X110490000Y-104140000D03*
D27*
X171450000Y-111760000D03*
D28*
X171450000Y-109220000D03*
D20*
X111760000Y-86360000D03*
X111760000Y-81360000D03*
X93980000Y-93980000D03*
X98980000Y-93980000D03*
D18*
X121920000Y-88900000D03*
D19*
X114300000Y-88900000D03*
D29*
X83700000Y-75475000D03*
D30*
X83700000Y-78975000D03*
X83700000Y-82474999D03*
X83700000Y-85975000D03*
X83700000Y-89475000D03*
X83700000Y-92975000D03*
X83700000Y-96474999D03*
X83700000Y-99975000D03*
X83700000Y-103475000D03*
X83700000Y-106975001D03*
X83700000Y-110475000D03*
X83700000Y-113975000D03*
D31*
X103967678Y-58420000D03*
D26*
X98967678Y-58420000D03*
D21*
X173850000Y-52070000D03*
X173147056Y-53767056D03*
X173147056Y-50372944D03*
X171450000Y-54470000D03*
D22*
X171450000Y-52070000D03*
D21*
X171450000Y-49670000D03*
X169752944Y-53767056D03*
X169752944Y-50372944D03*
X169050000Y-52070000D03*
X77610000Y-123190000D03*
X78312944Y-121492944D03*
X78312944Y-124887056D03*
X80010000Y-120790000D03*
D22*
X80010000Y-123190000D03*
D21*
X80010000Y-125590000D03*
X81707056Y-121492944D03*
X81707056Y-124887056D03*
X82410000Y-123190000D03*
D18*
X93980000Y-91440000D03*
D19*
X101600000Y-91440000D03*
D16*
X106680000Y-66040000D03*
D20*
X104180000Y-66040000D03*
D21*
X77610000Y-31750000D03*
X78312944Y-30052944D03*
X78312944Y-33447056D03*
X80010000Y-29350000D03*
D22*
X80010000Y-31750000D03*
D21*
X80010000Y-34150000D03*
X81707056Y-30052944D03*
X81707056Y-33447056D03*
X82410000Y-31750000D03*
D16*
X93980000Y-77430000D03*
D20*
X93980000Y-74930000D03*
D18*
X111760000Y-91440000D03*
D19*
X104140000Y-91440000D03*
%LPD*%
M02*
