M48
; DRILL file {KiCad 8.0.4} date 2024-09-22T21:37:48-0500
; FORMAT={-:-/ absolute / metric / decimal}
; #@! TF.CreationDate,2024-09-22T21:37:48-05:00
; #@! TF.GenerationSoftware,Kicad,Pcbnew,8.0.4
; #@! TF.FileFunction,Plated,1,2,PTH
FMAT,2
METRIC
; #@! TA.AperFunction,Plated,PTH,ComponentDrill
T1C0.500
; #@! TA.AperFunction,Plated,PTH,ComponentDrill
T2C0.700
; #@! TA.AperFunction,Plated,PTH,ComponentDrill
T3C0.750
; #@! TA.AperFunction,Plated,PTH,ComponentDrill
T4C0.800
; #@! TA.AperFunction,Plated,PTH,ComponentDrill
T5C0.900
; #@! TA.AperFunction,Plated,PTH,ComponentDrill
T6C1.000
; #@! TA.AperFunction,Plated,PTH,ComponentDrill
T7C1.100
; #@! TA.AperFunction,Plated,PTH,ComponentDrill
T8C1.200
; #@! TA.AperFunction,Plated,PTH,ComponentDrill
T9C1.800
; #@! TA.AperFunction,Plated,PTH,ComponentDrill
T10C3.200
%
G90
G05
T1
X77.61Y-31.75
X77.61Y-123.19
X78.313Y-30.053
X78.313Y-33.447
X78.313Y-121.493
X78.313Y-124.887
X80.01Y-29.35
X80.01Y-34.15
X80.01Y-120.79
X80.01Y-125.59
X81.707Y-30.053
X81.707Y-33.447
X81.707Y-121.493
X81.707Y-124.887
X82.41Y-31.75
X82.41Y-123.19
X169.05Y-52.07
X169.05Y-123.19
X169.753Y-50.373
X169.753Y-53.767
X169.753Y-121.493
X169.753Y-124.887
X171.45Y-49.67
X171.45Y-54.47
X171.45Y-120.79
X171.45Y-125.59
X173.147Y-50.373
X173.147Y-53.767
X173.147Y-121.493
X173.147Y-124.887
X173.85Y-52.07
X173.85Y-123.19
T2
X93.98Y-91.44
X101.6Y-91.44
X104.14Y-91.44
X104.14Y-93.98
X111.76Y-91.44
X111.76Y-93.98
X114.3Y-78.74
X114.3Y-88.9
X121.92Y-78.74
X121.92Y-88.9
X124.46Y-78.74
X124.46Y-88.9
X132.08Y-78.74
X132.08Y-88.9
X167.64Y-106.68
X167.64Y-114.3
T3
X116.84Y-83.82
X118.11Y-83.82
X119.38Y-83.82
X127.0Y-83.82
X128.27Y-83.82
X129.54Y-83.82
T4
X91.44Y-81.28
X91.44Y-86.28
X93.98Y-74.93
X93.98Y-77.43
X93.98Y-81.28
X93.98Y-88.9
X93.98Y-93.98
X96.52Y-81.28
X96.52Y-88.9
X98.98Y-93.98
X99.06Y-88.9
X99.06Y-81.28
X101.6Y-81.28
X101.6Y-88.9
X104.14Y-81.28
X104.14Y-88.9
X104.18Y-66.04
X106.68Y-66.04
X106.68Y-81.28
X106.68Y-88.9
X109.22Y-81.28
X109.22Y-88.9
X111.76Y-81.36
X111.76Y-86.36
T5
X171.45Y-109.22
X171.45Y-111.76
T6
X92.71Y-104.14
X92.71Y-106.68
X92.71Y-115.57
X92.71Y-118.11
X92.71Y-120.65
X92.71Y-123.19
X95.25Y-104.14
X95.25Y-106.68
X95.25Y-115.57
X95.25Y-118.11
X95.25Y-120.65
X95.25Y-123.19
X97.79Y-104.14
X97.79Y-106.68
X97.79Y-115.57
X97.79Y-118.11
X97.79Y-120.65
X97.79Y-123.19
X98.968Y-58.42
X100.33Y-115.57
X100.33Y-120.65
X100.33Y-104.14
X100.33Y-106.68
X100.33Y-118.11
X100.33Y-123.19
X102.87Y-104.14
X102.87Y-106.68
X102.87Y-118.11
X102.87Y-123.19
X102.87Y-115.57
X102.87Y-120.65
X103.968Y-58.42
X105.41Y-104.14
X105.41Y-106.68
X105.41Y-115.57
X105.41Y-118.11
X105.41Y-120.65
X105.41Y-123.19
X107.95Y-104.14
X107.95Y-106.68
X107.95Y-115.57
X107.95Y-118.11
X107.95Y-120.65
X107.95Y-123.19
X110.49Y-104.14
X110.49Y-106.68
X110.49Y-115.57
X110.49Y-118.11
X110.49Y-120.65
X110.49Y-123.19
X113.03Y-118.11
X113.03Y-123.19
X113.03Y-115.57
X113.03Y-120.65
X115.57Y-115.57
X115.57Y-118.11
X115.57Y-120.65
X115.57Y-123.19
X118.11Y-115.57
X118.11Y-118.11
X118.11Y-120.65
X118.11Y-123.19
X120.65Y-55.88
X120.65Y-58.42
X120.65Y-60.96
X120.65Y-63.5
X120.65Y-66.04
X120.65Y-68.58
X120.65Y-115.57
X120.65Y-118.11
X120.65Y-120.65
X120.65Y-123.19
X123.19Y-115.57
X123.19Y-120.65
X123.19Y-118.11
X123.19Y-123.19
X124.46Y-53.34
X124.46Y-55.88
X124.46Y-58.42
X124.46Y-60.96
X124.46Y-63.5
X124.46Y-66.04
X124.46Y-68.58
X124.46Y-71.12
X125.73Y-115.57
X125.73Y-118.11
X125.73Y-120.65
X125.73Y-123.19
X127.0Y-53.34
X127.0Y-55.88
X127.0Y-58.42
X127.0Y-60.96
X127.0Y-63.5
X127.0Y-66.04
X127.0Y-68.58
X127.0Y-71.12
X128.27Y-115.57
X128.27Y-118.11
X128.27Y-120.65
X128.27Y-123.19
X129.54Y-53.34
X129.54Y-55.88
X129.54Y-58.42
X129.54Y-60.96
X129.54Y-63.5
X129.54Y-66.04
X129.54Y-68.58
X129.54Y-71.12
X130.81Y-115.57
X130.81Y-118.11
X130.81Y-120.65
X130.81Y-123.19
X132.08Y-53.34
X132.08Y-55.88
X132.08Y-58.42
X132.08Y-60.96
X132.08Y-63.5
X132.08Y-66.04
X132.08Y-68.58
X132.08Y-71.12
X133.35Y-115.57
X133.35Y-118.11
X133.35Y-120.65
X133.35Y-123.19
X134.62Y-53.34
X134.62Y-55.88
X134.62Y-58.42
X134.62Y-60.96
X134.62Y-63.5
X134.62Y-66.04
X134.62Y-68.58
X134.62Y-71.12
X135.89Y-118.11
X135.89Y-123.19
X135.89Y-115.57
X135.89Y-120.65
X137.16Y-53.34
X137.16Y-55.88
X137.16Y-58.42
X137.16Y-60.96
X137.16Y-63.5
X137.16Y-66.04
X137.16Y-68.58
X137.16Y-71.12
X138.43Y-115.57
X138.43Y-118.11
X138.43Y-120.65
X138.43Y-123.19
X139.7Y-30.48
X139.7Y-33.02
X139.7Y-35.56
X139.7Y-38.1
X139.7Y-40.64
X139.7Y-43.18
X139.7Y-45.72
X139.7Y-48.26
X139.7Y-50.8
X139.7Y-53.34
X139.7Y-55.88
X139.7Y-58.42
X139.7Y-60.96
X139.7Y-63.5
X139.7Y-66.04
X139.7Y-68.58
X139.7Y-71.12
X140.97Y-115.57
X140.97Y-118.11
X140.97Y-120.65
X140.97Y-123.19
X142.24Y-30.48
X142.24Y-33.02
X142.24Y-35.56
X142.24Y-38.1
X142.24Y-40.64
X142.24Y-43.18
X142.24Y-45.72
X142.24Y-48.26
X142.24Y-50.8
X142.24Y-53.34
X142.24Y-55.88
X142.24Y-58.42
X142.24Y-60.96
X142.24Y-63.5
X142.24Y-66.04
X142.24Y-68.58
X142.24Y-71.12
X144.78Y-30.48
X144.78Y-33.02
X144.78Y-35.56
X144.78Y-38.1
X144.78Y-40.64
X144.78Y-43.18
X144.78Y-45.72
X144.78Y-48.26
X144.78Y-50.8
X144.78Y-53.34
X144.78Y-55.88
X144.78Y-58.42
X144.78Y-60.96
X144.78Y-63.5
X144.78Y-66.04
X144.78Y-68.58
X144.78Y-71.12
X147.32Y-30.48
X147.32Y-33.02
X147.32Y-35.56
X147.32Y-38.1
X147.32Y-40.64
X147.32Y-43.18
X147.32Y-45.72
X147.32Y-48.26
X147.32Y-50.8
X147.32Y-53.34
X147.32Y-55.88
X147.32Y-58.42
X147.32Y-60.96
X147.32Y-63.5
X147.32Y-66.04
X147.32Y-68.58
X147.32Y-71.12
X147.32Y-73.66
X147.32Y-76.2
X149.86Y-30.48
X149.86Y-33.02
X149.86Y-35.56
X149.86Y-38.1
X149.86Y-40.64
X149.86Y-43.18
X149.86Y-45.72
X149.86Y-48.26
X149.86Y-50.8
X149.86Y-53.34
X149.86Y-55.88
X149.86Y-58.42
X149.86Y-60.96
X149.86Y-63.5
X149.86Y-66.04
X149.86Y-68.58
X149.86Y-71.12
X149.86Y-73.66
X149.86Y-76.2
X149.86Y-120.65
X149.86Y-123.19
X152.4Y-53.34
X152.4Y-55.88
X152.4Y-58.42
X152.4Y-60.96
X152.4Y-63.5
X152.4Y-66.04
X152.4Y-68.58
X152.4Y-71.12
X152.4Y-73.66
X152.4Y-76.2
X152.4Y-30.48
X152.4Y-33.02
X152.4Y-35.56
X152.4Y-38.1
X152.4Y-40.64
X152.4Y-43.18
X152.4Y-45.72
X152.4Y-48.26
X152.4Y-50.8
X152.4Y-120.65
X152.4Y-123.19
X154.94Y-123.19
X154.94Y-30.48
X154.94Y-33.02
X154.94Y-35.56
X154.94Y-38.1
X154.94Y-40.64
X154.94Y-43.18
X154.94Y-45.72
X154.94Y-48.26
X154.94Y-50.8
X154.94Y-53.34
X154.94Y-55.88
X154.94Y-58.42
X154.94Y-60.96
X154.94Y-63.5
X154.94Y-66.04
X154.94Y-68.58
X154.94Y-71.12
X154.94Y-73.66
X154.94Y-76.2
X154.94Y-120.65
X157.48Y-53.34
X157.48Y-55.88
X157.48Y-58.42
X157.48Y-60.96
X157.48Y-63.5
X157.48Y-66.04
X157.48Y-68.58
X157.48Y-71.12
X157.48Y-73.66
X157.48Y-76.2
X157.48Y-120.65
X157.48Y-123.19
X157.48Y-30.48
X157.48Y-33.02
X157.48Y-35.56
X157.48Y-38.1
X157.48Y-40.64
X157.48Y-43.18
X157.48Y-45.72
X157.48Y-48.26
X157.48Y-50.8
X160.02Y-30.48
X160.02Y-33.02
X160.02Y-35.56
X160.02Y-38.1
X160.02Y-40.64
X160.02Y-43.18
X160.02Y-45.72
X160.02Y-48.26
X160.02Y-50.8
X160.02Y-53.34
X160.02Y-55.88
X160.02Y-58.42
X160.02Y-60.96
X160.02Y-63.5
X160.02Y-66.04
X160.02Y-68.58
X160.02Y-71.12
X160.02Y-73.66
X160.02Y-76.2
X160.02Y-120.65
X160.02Y-123.19
X162.56Y-53.34
X162.56Y-55.88
X162.56Y-58.42
X162.56Y-60.96
X162.56Y-63.5
X162.56Y-66.04
X162.56Y-68.58
X162.56Y-71.12
X162.56Y-30.48
X162.56Y-33.02
X162.56Y-35.56
X162.56Y-38.1
X162.56Y-40.64
X162.56Y-43.18
X162.56Y-45.72
X162.56Y-48.26
X162.56Y-50.8
X162.56Y-73.66
X162.56Y-76.2
X165.1Y-30.48
X165.1Y-33.02
X165.1Y-35.56
X165.1Y-38.1
X165.1Y-40.64
X165.1Y-43.18
X165.1Y-45.72
X165.1Y-48.26
X165.1Y-50.8
X165.1Y-53.34
X165.1Y-55.88
X165.1Y-58.42
X165.1Y-60.96
X165.1Y-63.5
X165.1Y-66.04
X165.1Y-68.58
X165.1Y-71.12
X165.1Y-73.66
X165.1Y-76.2
X167.64Y-30.48
X167.64Y-33.02
X167.64Y-35.56
X167.64Y-38.1
X167.64Y-40.64
X167.64Y-43.18
X167.64Y-45.72
X167.64Y-58.42
X167.64Y-60.96
X167.64Y-63.5
X167.64Y-66.04
X167.64Y-68.58
X167.64Y-71.12
X167.64Y-73.66
X167.64Y-76.2
X170.18Y-30.48
X170.18Y-33.02
X170.18Y-35.56
X170.18Y-38.1
X170.18Y-40.64
X170.18Y-43.18
X170.18Y-45.72
X170.18Y-58.42
X170.18Y-60.96
X170.18Y-63.5
X170.18Y-66.04
X170.18Y-68.58
X170.18Y-71.12
X170.18Y-73.66
X170.18Y-76.2
X172.72Y-30.48
X172.72Y-33.02
X172.72Y-35.56
X172.72Y-38.1
X172.72Y-40.64
X172.72Y-43.18
X172.72Y-45.72
X172.72Y-58.42
X172.72Y-60.96
X172.72Y-63.5
X172.72Y-66.04
X172.72Y-68.58
X172.72Y-71.12
X172.72Y-73.66
X172.72Y-76.2
T7
X167.93Y-79.935
X167.93Y-86.435
X172.43Y-79.935
X172.43Y-86.435
T8
X83.7Y-75.475
X83.7Y-78.975
X83.7Y-82.475
X83.7Y-85.975
X83.7Y-89.475
X83.7Y-92.975
X83.7Y-96.475
X83.7Y-99.975
X83.7Y-103.475
X83.7Y-106.975
X83.7Y-110.475
X83.7Y-113.975
T9
X88.66Y-41.375
X88.66Y-46.875
X92.86Y-41.375
X92.86Y-46.875
X97.06Y-41.375
X97.06Y-46.875
X101.26Y-41.375
X101.26Y-46.875
X105.46Y-41.375
X105.46Y-46.875
X109.66Y-41.375
X109.66Y-46.875
X113.86Y-41.375
X113.86Y-46.875
X118.06Y-41.375
X118.06Y-46.875
X122.26Y-41.375
X122.26Y-46.875
X126.46Y-41.375
X126.46Y-46.875
X130.66Y-41.375
X130.66Y-46.875
X134.86Y-41.375
X134.86Y-46.875
T10
X80.01Y-31.75
X80.01Y-123.19
X171.45Y-52.07
X171.45Y-123.19
M30
