M48
;GenerationSoftware,Autodesk,EAGLE,9.6.2*%
;CreationDate,2022-10-18T03:01:19Z*%
FMAT,2
ICI,OFF
METRIC,TZ,000.000
T8C0.400
T7C0.813
T6C0.914
T5C1.016
T4C1.575
T3C2.362
T2C2.540
T1C3.000
%
G90
M71
T1
X3810Y-3810
X3810Y67310
X102870Y67310
X102870Y-3810
T2
X53340Y2540
T3
X109220Y2540
T4
X-2540Y2540
T5
X59055Y3810
X57785Y1270
X56515Y3810
X50165Y1270
X48895Y3810
X47625Y1270
X46355Y3810
X45085Y1270
X43815Y3810
X42545Y1270
X41275Y3810
X40005Y1270
X38735Y3810
X37465Y1270
X36195Y3810
X34925Y1270
X102870Y34290
X33655Y3810
X32385Y1270
X31115Y3810
X29845Y1270
X28575Y3810
X27305Y1270
X26035Y3810
X24765Y1270
X23495Y3810
X22225Y1270
X20955Y3810
X19685Y1270
X18415Y3810
X17145Y1270
X15875Y3810
X14605Y1270
X13335Y3810
X12065Y1270
X10795Y3810
X9525Y1270
X8255Y3810
X6985Y1270
X5715Y3810
X102870Y59690
X105410Y59690
X102870Y57150
X105410Y57150
X102870Y54610
X105410Y54610
X102870Y52070
X105410Y52070
X102870Y49530
X105410Y49530
X102870Y46990
X105410Y46990
X102870Y44450
X105410Y44450
X102870Y41910
X105410Y41910
X102870Y39370
X105410Y39370
X102870Y36830
X105410Y36830
X65405Y1270
X105410Y11430
X102870Y11430
X105410Y13970
X102870Y13970
X105410Y16510
X102870Y16510
X105410Y19050
X102870Y19050
X105410Y21590
X102870Y21590
X105410Y24130
X102870Y24130
X105410Y26670
X102870Y26670
X105410Y29210
X102870Y29210
X105410Y31750
X102870Y31750
X105410Y34290
X18990Y67410
X16490Y67410
X11490Y67410
X13990Y67410
X46990Y72390
X46990Y74930
X49530Y72390
X49530Y74930
X52070Y72390
X52070Y74930
X54610Y72390
X54610Y74930
X57150Y72390
X57150Y74930
X59690Y72390
X59690Y74930
X62230Y72390
X62230Y74930
X64770Y72390
X64770Y74930
X67310Y72390
X67310Y74930
X69850Y72390
X69850Y74930
X72390Y72390
X72390Y74930
X74930Y72390
X74930Y74930
X77470Y72390
X77470Y74930
X80010Y72390
X80010Y74930
X82550Y72390
X82550Y74930
X85090Y72390
X85090Y74930
X87630Y72390
X87630Y74930
X90170Y72390
X90170Y74930
X92710Y72390
X92710Y74930
X95250Y72390
X95250Y74930
X1270Y54610
X3810Y54610
X1270Y52070
X3810Y52070
X1270Y49530
X3810Y49530
X1270Y46990
X3810Y46990
X1270Y44450
X3810Y44450
X1270Y41910
X3810Y41910
X1270Y39370
X3810Y39370
X1270Y36830
X3810Y36830
X1270Y34290
X3810Y34290
X1270Y31750
X3810Y31750
X100965Y1270
X99695Y3810
X98425Y1270
X97155Y3810
X95885Y1270
X94615Y3810
X93345Y1270
X92075Y3810
X90805Y1270
X89535Y3810
X88265Y1270
X86995Y3810
X85725Y1270
X84455Y3810
X83185Y1270
X81915Y3810
X80645Y1270
X79375Y3810
X78105Y1270
X76835Y3810
X75565Y1270
X74295Y3810
X73025Y1270
X71755Y3810
X70485Y1270
X69215Y3810
X67945Y1270
X66675Y3810
X64135Y3810
X62865Y1270
X61595Y3810
X60325Y1270
T6
X64770Y64770
X64770Y67310
X62230Y62230
X62230Y64770
X62230Y67310
X49530Y62230
X49530Y64770
X49530Y67310
X54610Y62230
X54610Y64770
X54610Y67310
X52070Y62230
X52070Y64770
X52070Y67310
X57150Y62230
X57150Y64770
X57150Y67310
X59690Y62230
X59690Y64770
X59690Y67310
X64770Y62230
T7
X27940Y70358
X44450Y36830
X27940Y66802
X29210Y59690
X29210Y57150
X26670Y59690
X26670Y57150
X24130Y59690
X24130Y57150
X21590Y59690
X21590Y57150
X19050Y59690
X19050Y57150
X16510Y59690
X13970Y57150
X16510Y57150
X13970Y54610
X16510Y54610
X13970Y52070
X16510Y52070
X13970Y49530
X16510Y49530
X13970Y46990
X16510Y46990
X13970Y44450
X16510Y44450
X13970Y41910
X16510Y41910
X13970Y39370
X16510Y39370
X13970Y36830
X16510Y36830
X13970Y34290
X13970Y31750
X16510Y34290
X16510Y29210
X16510Y31750
X19050Y31750
X19050Y29210
X21590Y31750
X21590Y29210
X24130Y31750
X24130Y29210
X26670Y29210
X26670Y31750
X29210Y29210
X29210Y31750
X31750Y31750
X34290Y29210
X34290Y31750
X36830Y31750
X36830Y29210
X39370Y31750
X39370Y29210
X41910Y29210
X41910Y57150
X44450Y57150
X41910Y54610
X44450Y54610
X41910Y52070
X44450Y52070
X41910Y49530
X44450Y49530
X41910Y46990
X44450Y46990
X41910Y44450
X44450Y44450
X41910Y41910
X44450Y41910
X41910Y39370
X44450Y39370
X41910Y36830
X41910Y34290
X41910Y31750
X44450Y34290
X44450Y31750
X34290Y57150
X34290Y59690
X36830Y57150
X36830Y59690
X39370Y57150
X39370Y59690
X41910Y59690
X31750Y59690
X31750Y57150
X35560Y69596
X35560Y67564
X31750Y29210
T8
X90424Y68072
X89662Y68834
X87376Y69088
X86614Y69850
X84836Y68834
X84074Y70104
X83058Y69342
X82296Y70104
X84836Y63246
X79756Y63246
X80772Y70866
X87884Y62992
X77216Y62484
X87884Y46990
X86106Y46990
X83566Y44450
X47498Y62992
X18034Y34798
X18034Y37084
X38354Y18542
X40894Y18542
X43942Y18542
X32639Y24130
X30480Y27940
X27305Y17780
X26035Y17780
X24765Y17780
X18415Y17018
X18415Y19050
X19685Y17780
X20955Y17780
X22225Y17780
X18415Y24384
X19685Y24384
X20955Y24384
X22225Y24384
X26035Y24384
X24765Y24384
X53594Y41148
X36322Y18542
X71120Y70104
X73660Y70104
X76200Y70104
X78740Y70104
X63500Y34544
X63500Y32004
X69850Y34544
X69850Y32004
X82550Y32004
X82550Y34544
X90170Y32004
X90170Y34544
X97790Y32004
X97790Y34544
X99060Y13970
X33020Y59182
X43434Y59182
X20320Y33020
X96520Y13970
X23495Y24384
X23495Y17780
X22860Y29972
X2540Y12700
X7620Y12700
X24130Y67310
X31750Y64770
X39370Y64770
X44450Y67310
X44450Y64770
X60960Y46990
X55880Y46990
X54610Y57150
X2540Y17272
X2540Y21844
X2540Y24638
X54610Y54610
X7620Y21844
X7620Y17272
X16764Y18288
X15240Y17272
X12954Y17272
X12700Y21844
X15240Y24638
X10160Y17272
X12700Y24638
X9906Y21844
X67310Y12700
X72390Y13970
X87630Y13970
X87630Y18288
X82550Y19050
X82550Y21590
X82550Y26670
X82550Y24130
X94996Y61976
X92202Y61976
X92202Y57150
X92202Y59690
X46736Y33020
X65024Y19304
X63500Y21844
X63500Y24130
X63500Y26670
X69850Y24130
X69850Y26670
X56134Y30480
X105410Y-1270
X100330Y-1270
X100330Y-6350
X105410Y-6350
X6350Y-6350
X1270Y-6350
X1270Y-1524
X6350Y64770
X1270Y64770
X6350Y69850
X1270Y69850
X105156Y64770
X100330Y64770
X100330Y69850
X105410Y69850
X88392Y61976
X74930Y62230
X77470Y41910
X80010Y44450
X82550Y46990
X88392Y52070
X88392Y54610
X5588Y18542
X17018Y22860
X29210Y24130
X27432Y21590
X30480Y12700
X35560Y12700
X46482Y18542
X54356Y18542
X61722Y18542
X29210Y48260
X33020Y48260
X21336Y48260
X26924Y48260
X24130Y40640
X29210Y41910
X33020Y41910
X21336Y41402
X50800Y13970
X53340Y13970
X55880Y13970
X64262Y10160
X55880Y10160
X53340Y10160
X50800Y10160
X50800Y-2540
X53340Y-2540
X55880Y-2540
X64770Y-2540
X21082Y0
X21082Y-2540
X38862Y0
X39116Y-2540
X2540Y5080
X15240Y12700
X81534Y10160
X96774Y10160
X69850Y46990
X62230Y49530
X54610Y49530
X54610Y52070
X67310Y59690
X67310Y61722
X7620Y45720
X7620Y55880
X64770Y52070
X10160Y27940
X2540Y27940
X26670Y34290
X8890Y39370
X97790Y26670
X97790Y24130
X97790Y21590
X49530Y36830
X36830Y41910
X72390Y49530
X74930Y52070
X77470Y54610
X80010Y57150
X82550Y59690
X72390Y59690
X69850Y57150
X67310Y54610
X58420Y44450
X67310Y44450
X64770Y41910
X55880Y43434
X54610Y42418
X52070Y39624
X63500Y36322
X69850Y36322
X7620Y24638
X63500Y29210
X69850Y29210
X82550Y29210
X90170Y29210
X82550Y36322
X90170Y36322
X97790Y29210
X97790Y36322
X85090Y59690
X88392Y59690
X85090Y49530
X88392Y49530
X95504Y63754
X88392Y57150
X85090Y57150
X85090Y54610
X85090Y52070
X93980Y65024
X92964Y65532
X22860Y54356
X22860Y36576
X85598Y18796
X85598Y14478
X70612Y18796
X70612Y14478
X29972Y21844
X29718Y14478
X94996Y59690
X93726Y57150
X92710Y54610
X92202Y52070
X91186Y49530
X90170Y46990
X85598Y44450
X81026Y41910
X60960Y39370
X58674Y37338
X57150Y36830
X55372Y36068
X91186Y67056
M30