G04 EAGLE Gerber RS-274X export*
G75*
%MOMM*%
%FSLAX34Y34*%
%LPD*%
%INSolderpaste Bottom*%
%IPPOS*%
%AMOC8*
5,1,8,0,0,1.08239X$1,22.5*%
G01*
%ADD10R,1.500000X1.300000*%
%ADD11R,1.300000X1.500000*%


D10*
X190500Y85700D03*
X190500Y66700D03*
X190500Y136500D03*
X190500Y117500D03*
X215900Y85700D03*
X215900Y66700D03*
X215900Y136500D03*
X215900Y117500D03*
X241300Y85700D03*
X241300Y66700D03*
X241300Y136500D03*
X241300Y117500D03*
X266700Y85700D03*
X266700Y66700D03*
X266700Y136500D03*
X266700Y117500D03*
X419100Y136500D03*
X419100Y117500D03*
X419100Y85700D03*
X419100Y66700D03*
X444500Y136500D03*
X444500Y117500D03*
X444500Y85700D03*
X444500Y66700D03*
X596900Y85700D03*
X596900Y66700D03*
X596900Y136500D03*
X596900Y117500D03*
X622300Y85700D03*
X622300Y66700D03*
X622300Y136500D03*
X622300Y117500D03*
X469900Y85700D03*
X469900Y66700D03*
X469900Y136500D03*
X469900Y117500D03*
X673100Y85700D03*
X673100Y66700D03*
D11*
X390500Y546100D03*
X371500Y546100D03*
X390500Y469900D03*
X371500Y469900D03*
X390500Y342900D03*
X371500Y342900D03*
X219100Y342900D03*
X238100Y342900D03*
X193700Y393700D03*
X212700Y393700D03*
X193700Y546100D03*
X212700Y546100D03*
X320700Y342900D03*
X339700Y342900D03*
X269900Y546100D03*
X288900Y546100D03*
M02*
