G04 EAGLE Gerber RS-274X export*
G75*
%MOMM*%
%FSLAX34Y34*%
%LPD*%
%INSoldermask Top*%
%IPPOS*%
%AMOC8*
5,1,8,0,0,1.08239X$1,22.5*%
G01*
%ADD10C,1.981200*%
%ADD11C,1.701800*%
%ADD12C,1.625600*%
%ADD13C,2.463800*%
%ADD14C,1.676400*%
%ADD15C,2.641600*%
%ADD16C,1.422400*%
%ADD17R,0.762000X2.133600*%
%ADD18C,1.524000*%
%ADD19C,4.117600*%

G36*
X1066918Y633746D02*
X1066918Y633746D01*
X1067037Y633753D01*
X1067075Y633766D01*
X1067116Y633771D01*
X1067226Y633814D01*
X1067339Y633851D01*
X1067374Y633873D01*
X1067411Y633888D01*
X1067507Y633958D01*
X1067608Y634021D01*
X1067636Y634051D01*
X1067669Y634074D01*
X1067745Y634166D01*
X1067826Y634253D01*
X1067846Y634288D01*
X1067871Y634319D01*
X1067922Y634427D01*
X1067980Y634531D01*
X1067990Y634571D01*
X1068007Y634607D01*
X1068029Y634724D01*
X1068059Y634839D01*
X1068063Y634900D01*
X1068067Y634920D01*
X1068065Y634940D01*
X1068069Y635000D01*
X1068069Y711200D01*
X1068054Y711318D01*
X1068047Y711437D01*
X1068034Y711475D01*
X1068029Y711516D01*
X1067986Y711626D01*
X1067949Y711739D01*
X1067927Y711774D01*
X1067912Y711811D01*
X1067843Y711907D01*
X1067779Y712008D01*
X1067749Y712036D01*
X1067726Y712069D01*
X1067634Y712145D01*
X1067547Y712226D01*
X1067512Y712246D01*
X1067481Y712271D01*
X1067373Y712322D01*
X1067269Y712380D01*
X1067229Y712390D01*
X1067193Y712407D01*
X1067076Y712429D01*
X1066961Y712459D01*
X1066901Y712463D01*
X1066881Y712467D01*
X1066860Y712465D01*
X1066800Y712469D01*
X990600Y712469D01*
X990482Y712454D01*
X990363Y712447D01*
X990325Y712434D01*
X990284Y712429D01*
X990174Y712386D01*
X990061Y712349D01*
X990026Y712327D01*
X989989Y712312D01*
X989893Y712243D01*
X989792Y712179D01*
X989764Y712149D01*
X989731Y712126D01*
X989656Y712034D01*
X989574Y711947D01*
X989554Y711912D01*
X989529Y711881D01*
X989478Y711773D01*
X989420Y711669D01*
X989410Y711629D01*
X989393Y711593D01*
X989371Y711476D01*
X989341Y711361D01*
X989337Y711301D01*
X989333Y711281D01*
X989335Y711260D01*
X989331Y711200D01*
X989331Y635000D01*
X989346Y634882D01*
X989353Y634763D01*
X989366Y634725D01*
X989371Y634684D01*
X989414Y634574D01*
X989451Y634461D01*
X989473Y634426D01*
X989488Y634389D01*
X989558Y634293D01*
X989621Y634192D01*
X989651Y634164D01*
X989674Y634131D01*
X989766Y634056D01*
X989853Y633974D01*
X989888Y633954D01*
X989919Y633929D01*
X990027Y633878D01*
X990131Y633820D01*
X990171Y633810D01*
X990207Y633793D01*
X990324Y633771D01*
X990439Y633741D01*
X990500Y633737D01*
X990520Y633733D01*
X990540Y633735D01*
X990600Y633731D01*
X1066800Y633731D01*
X1066918Y633746D01*
G37*
G36*
X76318Y633746D02*
X76318Y633746D01*
X76437Y633753D01*
X76475Y633766D01*
X76516Y633771D01*
X76626Y633814D01*
X76739Y633851D01*
X76774Y633873D01*
X76811Y633888D01*
X76907Y633958D01*
X77008Y634021D01*
X77036Y634051D01*
X77069Y634074D01*
X77145Y634166D01*
X77226Y634253D01*
X77246Y634288D01*
X77271Y634319D01*
X77322Y634427D01*
X77380Y634531D01*
X77390Y634571D01*
X77407Y634607D01*
X77429Y634724D01*
X77459Y634839D01*
X77463Y634900D01*
X77467Y634920D01*
X77465Y634940D01*
X77469Y635000D01*
X77469Y711200D01*
X77454Y711318D01*
X77447Y711437D01*
X77434Y711475D01*
X77429Y711516D01*
X77386Y711626D01*
X77349Y711739D01*
X77327Y711774D01*
X77312Y711811D01*
X77243Y711907D01*
X77179Y712008D01*
X77149Y712036D01*
X77126Y712069D01*
X77034Y712145D01*
X76947Y712226D01*
X76912Y712246D01*
X76881Y712271D01*
X76773Y712322D01*
X76669Y712380D01*
X76629Y712390D01*
X76593Y712407D01*
X76476Y712429D01*
X76361Y712459D01*
X76301Y712463D01*
X76281Y712467D01*
X76260Y712465D01*
X76200Y712469D01*
X0Y712469D01*
X-118Y712454D01*
X-237Y712447D01*
X-275Y712434D01*
X-316Y712429D01*
X-426Y712386D01*
X-539Y712349D01*
X-574Y712327D01*
X-611Y712312D01*
X-707Y712243D01*
X-808Y712179D01*
X-836Y712149D01*
X-869Y712126D01*
X-945Y712034D01*
X-1026Y711947D01*
X-1046Y711912D01*
X-1071Y711881D01*
X-1122Y711773D01*
X-1180Y711669D01*
X-1190Y711629D01*
X-1207Y711593D01*
X-1229Y711476D01*
X-1259Y711361D01*
X-1263Y711301D01*
X-1267Y711281D01*
X-1265Y711260D01*
X-1269Y711200D01*
X-1269Y635000D01*
X-1254Y634882D01*
X-1247Y634763D01*
X-1234Y634725D01*
X-1229Y634684D01*
X-1186Y634574D01*
X-1149Y634461D01*
X-1127Y634426D01*
X-1112Y634389D01*
X-1043Y634293D01*
X-979Y634192D01*
X-949Y634164D01*
X-926Y634131D01*
X-834Y634056D01*
X-747Y633974D01*
X-712Y633954D01*
X-681Y633929D01*
X-573Y633878D01*
X-469Y633820D01*
X-429Y633810D01*
X-393Y633793D01*
X-276Y633771D01*
X-161Y633741D01*
X-101Y633737D01*
X-81Y633733D01*
X-60Y633735D01*
X0Y633731D01*
X76200Y633731D01*
X76318Y633746D01*
G37*
G36*
X76318Y-77454D02*
X76318Y-77454D01*
X76437Y-77447D01*
X76475Y-77434D01*
X76516Y-77429D01*
X76626Y-77386D01*
X76739Y-77349D01*
X76774Y-77327D01*
X76811Y-77312D01*
X76907Y-77243D01*
X77008Y-77179D01*
X77036Y-77149D01*
X77069Y-77126D01*
X77145Y-77034D01*
X77226Y-76947D01*
X77246Y-76912D01*
X77271Y-76881D01*
X77322Y-76773D01*
X77380Y-76669D01*
X77390Y-76629D01*
X77407Y-76593D01*
X77429Y-76476D01*
X77459Y-76361D01*
X77463Y-76301D01*
X77467Y-76281D01*
X77465Y-76260D01*
X77469Y-76200D01*
X77469Y0D01*
X77454Y118D01*
X77447Y237D01*
X77434Y275D01*
X77429Y316D01*
X77386Y426D01*
X77349Y539D01*
X77327Y574D01*
X77312Y611D01*
X77243Y707D01*
X77179Y808D01*
X77149Y836D01*
X77126Y869D01*
X77034Y945D01*
X76947Y1026D01*
X76912Y1046D01*
X76881Y1071D01*
X76773Y1122D01*
X76669Y1180D01*
X76629Y1190D01*
X76593Y1207D01*
X76476Y1229D01*
X76361Y1259D01*
X76301Y1263D01*
X76281Y1267D01*
X76260Y1265D01*
X76200Y1269D01*
X0Y1269D01*
X-118Y1254D01*
X-237Y1247D01*
X-275Y1234D01*
X-316Y1229D01*
X-426Y1186D01*
X-539Y1149D01*
X-574Y1127D01*
X-611Y1112D01*
X-707Y1043D01*
X-808Y979D01*
X-836Y949D01*
X-869Y926D01*
X-945Y834D01*
X-1026Y747D01*
X-1046Y712D01*
X-1071Y681D01*
X-1122Y573D01*
X-1180Y469D01*
X-1190Y429D01*
X-1207Y393D01*
X-1229Y276D01*
X-1259Y161D01*
X-1263Y101D01*
X-1267Y81D01*
X-1265Y60D01*
X-1269Y0D01*
X-1269Y-76200D01*
X-1254Y-76318D01*
X-1247Y-76437D01*
X-1234Y-76475D01*
X-1229Y-76516D01*
X-1186Y-76626D01*
X-1149Y-76739D01*
X-1127Y-76774D01*
X-1112Y-76811D01*
X-1043Y-76907D01*
X-979Y-77008D01*
X-949Y-77036D01*
X-926Y-77069D01*
X-834Y-77145D01*
X-747Y-77226D01*
X-712Y-77246D01*
X-681Y-77271D01*
X-573Y-77322D01*
X-469Y-77380D01*
X-429Y-77390D01*
X-393Y-77407D01*
X-276Y-77429D01*
X-161Y-77459D01*
X-101Y-77463D01*
X-81Y-77467D01*
X-60Y-77465D01*
X0Y-77469D01*
X76200Y-77469D01*
X76318Y-77454D01*
G37*
G36*
X1066918Y-77454D02*
X1066918Y-77454D01*
X1067037Y-77447D01*
X1067075Y-77434D01*
X1067116Y-77429D01*
X1067226Y-77386D01*
X1067339Y-77349D01*
X1067374Y-77327D01*
X1067411Y-77312D01*
X1067507Y-77243D01*
X1067608Y-77179D01*
X1067636Y-77149D01*
X1067669Y-77126D01*
X1067745Y-77034D01*
X1067826Y-76947D01*
X1067846Y-76912D01*
X1067871Y-76881D01*
X1067922Y-76773D01*
X1067980Y-76669D01*
X1067990Y-76629D01*
X1068007Y-76593D01*
X1068029Y-76476D01*
X1068059Y-76361D01*
X1068063Y-76301D01*
X1068067Y-76281D01*
X1068065Y-76260D01*
X1068069Y-76200D01*
X1068069Y0D01*
X1068054Y118D01*
X1068047Y237D01*
X1068034Y275D01*
X1068029Y316D01*
X1067986Y426D01*
X1067949Y539D01*
X1067927Y574D01*
X1067912Y611D01*
X1067843Y707D01*
X1067779Y808D01*
X1067749Y836D01*
X1067726Y869D01*
X1067634Y945D01*
X1067547Y1026D01*
X1067512Y1046D01*
X1067481Y1071D01*
X1067373Y1122D01*
X1067269Y1180D01*
X1067229Y1190D01*
X1067193Y1207D01*
X1067076Y1229D01*
X1066961Y1259D01*
X1066901Y1263D01*
X1066881Y1267D01*
X1066860Y1265D01*
X1066800Y1269D01*
X990600Y1269D01*
X990482Y1254D01*
X990363Y1247D01*
X990325Y1234D01*
X990284Y1229D01*
X990174Y1186D01*
X990061Y1149D01*
X990026Y1127D01*
X989989Y1112D01*
X989893Y1043D01*
X989792Y979D01*
X989764Y949D01*
X989731Y926D01*
X989656Y834D01*
X989574Y747D01*
X989554Y712D01*
X989529Y681D01*
X989478Y573D01*
X989420Y469D01*
X989410Y429D01*
X989393Y393D01*
X989371Y276D01*
X989341Y161D01*
X989337Y101D01*
X989333Y81D01*
X989335Y60D01*
X989331Y0D01*
X989331Y-76200D01*
X989346Y-76318D01*
X989353Y-76437D01*
X989366Y-76475D01*
X989371Y-76516D01*
X989414Y-76626D01*
X989451Y-76739D01*
X989473Y-76774D01*
X989488Y-76811D01*
X989558Y-76907D01*
X989621Y-77008D01*
X989651Y-77036D01*
X989674Y-77069D01*
X989766Y-77145D01*
X989853Y-77226D01*
X989888Y-77246D01*
X989919Y-77271D01*
X990027Y-77322D01*
X990131Y-77380D01*
X990171Y-77390D01*
X990207Y-77407D01*
X990324Y-77429D01*
X990439Y-77459D01*
X990500Y-77463D01*
X990520Y-77467D01*
X990540Y-77465D01*
X990600Y-77469D01*
X1066800Y-77469D01*
X1066918Y-77454D01*
G37*
D10*
X1054100Y114300D03*
X1028700Y114300D03*
X1054100Y139700D03*
X1028700Y139700D03*
X1054100Y165100D03*
X1028700Y165100D03*
X1054100Y190500D03*
X1028700Y190500D03*
X1054100Y215900D03*
X1028700Y215900D03*
X1054100Y241300D03*
X1028700Y241300D03*
X1054100Y266700D03*
X1028700Y266700D03*
X1054100Y292100D03*
X1028700Y292100D03*
X1054100Y317500D03*
X1028700Y317500D03*
X1054100Y342900D03*
X1028700Y342900D03*
X1054100Y368300D03*
X1028700Y368300D03*
X1054100Y393700D03*
X1028700Y393700D03*
X1054100Y419100D03*
X1028700Y419100D03*
X1054100Y444500D03*
X1028700Y444500D03*
X1054100Y469900D03*
X1028700Y469900D03*
X1054100Y495300D03*
X1028700Y495300D03*
X1054100Y520700D03*
X1028700Y520700D03*
X1054100Y546100D03*
X1028700Y546100D03*
X1054100Y571500D03*
X1028700Y571500D03*
X1054100Y596900D03*
X1028700Y596900D03*
D11*
X279400Y703580D03*
X279400Y668020D03*
D12*
X57150Y38100D03*
X69850Y12700D03*
X82550Y38100D03*
X95250Y12700D03*
X107950Y38100D03*
X120650Y12700D03*
X133350Y38100D03*
X146050Y12700D03*
X158750Y38100D03*
X171450Y12700D03*
X184150Y38100D03*
X196850Y12700D03*
X209550Y38100D03*
X222250Y12700D03*
X234950Y38100D03*
X247650Y12700D03*
X260350Y38100D03*
X273050Y12700D03*
X285750Y38100D03*
X298450Y12700D03*
X311150Y38100D03*
X323850Y12700D03*
X336550Y38100D03*
X349250Y12700D03*
X361950Y38100D03*
X374650Y12700D03*
X387350Y38100D03*
X400050Y12700D03*
X412750Y38100D03*
X425450Y12700D03*
X438150Y38100D03*
X450850Y12700D03*
X463550Y38100D03*
X476250Y12700D03*
X488950Y38100D03*
X501650Y12700D03*
X565150Y38100D03*
X577850Y12700D03*
X590550Y38100D03*
X603250Y12700D03*
X615950Y38100D03*
X628650Y12700D03*
X641350Y38100D03*
X654050Y12700D03*
X666750Y38100D03*
X679450Y12700D03*
X692150Y38100D03*
X704850Y12700D03*
X717550Y38100D03*
X730250Y12700D03*
X742950Y38100D03*
X755650Y12700D03*
X768350Y38100D03*
X781050Y12700D03*
X793750Y38100D03*
X806450Y12700D03*
X819150Y38100D03*
X831850Y12700D03*
X844550Y38100D03*
X857250Y12700D03*
X869950Y38100D03*
X882650Y12700D03*
X895350Y38100D03*
X908050Y12700D03*
X920750Y38100D03*
X933450Y12700D03*
X946150Y38100D03*
X958850Y12700D03*
X971550Y38100D03*
X984250Y12700D03*
X996950Y38100D03*
X1009650Y12700D03*
D13*
X1092200Y25400D03*
D14*
X-25400Y25400D03*
D15*
X533400Y25400D03*
D10*
X38100Y317500D03*
X12700Y317500D03*
X38100Y342900D03*
X12700Y342900D03*
X38100Y368300D03*
X12700Y368300D03*
X38100Y393700D03*
X12700Y393700D03*
X38100Y419100D03*
X12700Y419100D03*
X38100Y444500D03*
X12700Y444500D03*
X38100Y469900D03*
X12700Y469900D03*
X38100Y495300D03*
X12700Y495300D03*
X38100Y520700D03*
X12700Y520700D03*
X38100Y546100D03*
X12700Y546100D03*
X952500Y749300D03*
X952500Y723900D03*
X927100Y749300D03*
X927100Y723900D03*
X901700Y749300D03*
X901700Y723900D03*
X876300Y749300D03*
X876300Y723900D03*
X850900Y749300D03*
X850900Y723900D03*
X825500Y749300D03*
X825500Y723900D03*
X800100Y749300D03*
X800100Y723900D03*
X774700Y749300D03*
X774700Y723900D03*
X749300Y749300D03*
X749300Y723900D03*
X723900Y749300D03*
X723900Y723900D03*
X698500Y749300D03*
X698500Y723900D03*
X673100Y749300D03*
X673100Y723900D03*
X647700Y749300D03*
X647700Y723900D03*
X622300Y749300D03*
X622300Y723900D03*
X596900Y749300D03*
X596900Y723900D03*
X571500Y749300D03*
X571500Y723900D03*
X546100Y749300D03*
X546100Y723900D03*
X520700Y749300D03*
X520700Y723900D03*
X495300Y749300D03*
X495300Y723900D03*
X469900Y749300D03*
X469900Y723900D03*
D16*
X292100Y596900D03*
X292100Y571500D03*
X266700Y596900D03*
X266700Y571500D03*
X241300Y596900D03*
X241300Y571500D03*
X215900Y596900D03*
X215900Y571500D03*
X190500Y596900D03*
X190500Y571500D03*
X165100Y596900D03*
X139700Y571500D03*
X165100Y571500D03*
X139700Y546100D03*
X165100Y546100D03*
X139700Y520700D03*
X165100Y520700D03*
X139700Y495300D03*
X165100Y495300D03*
X139700Y469900D03*
X165100Y469900D03*
X139700Y444500D03*
X165100Y444500D03*
X139700Y419100D03*
X165100Y419100D03*
X139700Y393700D03*
X165100Y393700D03*
X139700Y368300D03*
X165100Y368300D03*
X139700Y342900D03*
X139700Y317500D03*
X165100Y342900D03*
X165100Y292100D03*
X165100Y317500D03*
X190500Y317500D03*
X190500Y292100D03*
X215900Y317500D03*
X215900Y292100D03*
X241300Y317500D03*
X241300Y292100D03*
X266700Y292100D03*
X266700Y317500D03*
X292100Y292100D03*
X292100Y317500D03*
X317500Y292100D03*
X317500Y317500D03*
X342900Y292100D03*
X342900Y317500D03*
X368300Y317500D03*
X368300Y292100D03*
X393700Y317500D03*
X393700Y292100D03*
X419100Y292100D03*
X419100Y571500D03*
X444500Y571500D03*
X419100Y546100D03*
X444500Y546100D03*
X419100Y520700D03*
X444500Y520700D03*
X419100Y495300D03*
X444500Y495300D03*
X419100Y469900D03*
X444500Y469900D03*
X419100Y444500D03*
X444500Y444500D03*
X419100Y419100D03*
X444500Y419100D03*
X419100Y393700D03*
X444500Y393700D03*
X419100Y368300D03*
X444500Y368300D03*
X419100Y342900D03*
X419100Y317500D03*
X444500Y342900D03*
X444500Y317500D03*
X342900Y571500D03*
X342900Y596900D03*
X368300Y571500D03*
X368300Y596900D03*
X393700Y571500D03*
X393700Y596900D03*
X419100Y596900D03*
X317500Y596900D03*
X317500Y571500D03*
D12*
X139900Y674100D03*
X114900Y674100D03*
X164900Y674100D03*
X189900Y674100D03*
D17*
X57150Y102108D03*
X69850Y102108D03*
X82550Y102108D03*
X95250Y102108D03*
X107950Y102108D03*
X120650Y102108D03*
X133350Y102108D03*
X146050Y102108D03*
X146050Y202692D03*
X133350Y202692D03*
X120650Y202692D03*
X107950Y202692D03*
X95250Y202692D03*
X82550Y202692D03*
X69850Y202692D03*
X57150Y202692D03*
X158750Y102108D03*
X171450Y102108D03*
X158750Y202692D03*
X171450Y202692D03*
X285750Y102108D03*
X298450Y102108D03*
X311150Y102108D03*
X323850Y102108D03*
X336550Y102108D03*
X349250Y102108D03*
X361950Y102108D03*
X374650Y102108D03*
X374650Y202692D03*
X361950Y202692D03*
X349250Y202692D03*
X336550Y202692D03*
X323850Y202692D03*
X311150Y202692D03*
X298450Y202692D03*
X285750Y202692D03*
X387350Y102108D03*
X400050Y102108D03*
X387350Y202692D03*
X400050Y202692D03*
X692150Y102108D03*
X704850Y102108D03*
X717550Y102108D03*
X730250Y102108D03*
X742950Y102108D03*
X755650Y102108D03*
X768350Y102108D03*
X781050Y102108D03*
X781050Y202692D03*
X768350Y202692D03*
X755650Y202692D03*
X742950Y202692D03*
X730250Y202692D03*
X717550Y202692D03*
X704850Y202692D03*
X692150Y202692D03*
X793750Y102108D03*
X806450Y102108D03*
X793750Y202692D03*
X806450Y202692D03*
X844550Y102108D03*
X857250Y102108D03*
X869950Y102108D03*
X882650Y102108D03*
X895350Y102108D03*
X908050Y102108D03*
X920750Y102108D03*
X933450Y102108D03*
X933450Y202692D03*
X920750Y202692D03*
X908050Y202692D03*
X895350Y202692D03*
X882650Y202692D03*
X869950Y202692D03*
X857250Y202692D03*
X844550Y202692D03*
X946150Y102108D03*
X958850Y102108D03*
X946150Y202692D03*
X958850Y202692D03*
D16*
X355600Y695960D03*
X355600Y675640D03*
D18*
X647700Y622300D03*
X647700Y647700D03*
X647700Y673100D03*
X622300Y622300D03*
X622300Y647700D03*
X622300Y673100D03*
X495300Y622300D03*
X495300Y647700D03*
X495300Y673100D03*
X546100Y622300D03*
X546100Y647700D03*
X546100Y673100D03*
X520700Y622300D03*
X520700Y647700D03*
X520700Y673100D03*
X571500Y622300D03*
X571500Y647700D03*
X571500Y673100D03*
X596900Y622300D03*
X596900Y647700D03*
X596900Y673100D03*
D19*
X38100Y-38100D03*
X38100Y673100D03*
X1028700Y673100D03*
X1028700Y-38100D03*
M02*
