G04 EAGLE Gerber RS-274X export*
G75*
%MOMM*%
%FSLAX34Y34*%
%LPD*%
%INSolderpaste Top*%
%IPPOS*%
%AMOC8*
5,1,8,0,0,1.08239X$1,22.5*%
G01*
%ADD10R,0.660400X2.032000*%


D10*
X57150Y102108D03*
X69850Y102108D03*
X82550Y102108D03*
X95250Y102108D03*
X107950Y102108D03*
X120650Y102108D03*
X133350Y102108D03*
X146050Y102108D03*
X146050Y202692D03*
X133350Y202692D03*
X120650Y202692D03*
X107950Y202692D03*
X95250Y202692D03*
X82550Y202692D03*
X69850Y202692D03*
X57150Y202692D03*
X158750Y102108D03*
X171450Y102108D03*
X158750Y202692D03*
X171450Y202692D03*
X285750Y102108D03*
X298450Y102108D03*
X311150Y102108D03*
X323850Y102108D03*
X336550Y102108D03*
X349250Y102108D03*
X361950Y102108D03*
X374650Y102108D03*
X374650Y202692D03*
X361950Y202692D03*
X349250Y202692D03*
X336550Y202692D03*
X323850Y202692D03*
X311150Y202692D03*
X298450Y202692D03*
X285750Y202692D03*
X387350Y102108D03*
X400050Y102108D03*
X387350Y202692D03*
X400050Y202692D03*
X692150Y102108D03*
X704850Y102108D03*
X717550Y102108D03*
X730250Y102108D03*
X742950Y102108D03*
X755650Y102108D03*
X768350Y102108D03*
X781050Y102108D03*
X781050Y202692D03*
X768350Y202692D03*
X755650Y202692D03*
X742950Y202692D03*
X730250Y202692D03*
X717550Y202692D03*
X704850Y202692D03*
X692150Y202692D03*
X793750Y102108D03*
X806450Y102108D03*
X793750Y202692D03*
X806450Y202692D03*
X844550Y102108D03*
X857250Y102108D03*
X869950Y102108D03*
X882650Y102108D03*
X895350Y102108D03*
X908050Y102108D03*
X920750Y102108D03*
X933450Y102108D03*
X933450Y202692D03*
X920750Y202692D03*
X908050Y202692D03*
X895350Y202692D03*
X882650Y202692D03*
X869950Y202692D03*
X857250Y202692D03*
X844550Y202692D03*
X946150Y102108D03*
X958850Y102108D03*
X946150Y202692D03*
X958850Y202692D03*
M02*
