G04 #@! TF.GenerationSoftware,KiCad,Pcbnew,8.0.4*
G04 #@! TF.CreationDate,2025-01-12T21:12:32-06:00*
G04 #@! TF.ProjectId,OctoCom,4f63746f-436f-46d2-9e6b-696361645f70,rev?*
G04 #@! TF.SameCoordinates,Original*
G04 #@! TF.FileFunction,Legend,Bot*
G04 #@! TF.FilePolarity,Positive*
%FSLAX46Y46*%
G04 Gerber Fmt 4.6, Leading zero omitted, Abs format (unit mm)*
G04 Created by KiCad (PCBNEW 8.0.4) date 2025-01-12 21:12:32*
%MOMM*%
%LPD*%
G01*
G04 APERTURE LIST*
G04 Aperture macros list*
%AMRoundRect*
0 Rectangle with rounded corners*
0 $1 Rounding radius*
0 $2 $3 $4 $5 $6 $7 $8 $9 X,Y pos of 4 corners*
0 Add a 4 corners polygon primitive as box body*
4,1,4,$2,$3,$4,$5,$6,$7,$8,$9,$2,$3,0*
0 Add four circle primitives for the rounded corners*
1,1,$1+$1,$2,$3*
1,1,$1+$1,$4,$5*
1,1,$1+$1,$6,$7*
1,1,$1+$1,$8,$9*
0 Add four rect primitives between the rounded corners*
20,1,$1+$1,$2,$3,$4,$5,0*
20,1,$1+$1,$4,$5,$6,$7,0*
20,1,$1+$1,$6,$7,$8,$9,0*
20,1,$1+$1,$8,$9,$2,$3,0*%
%AMHorizOval*
0 Thick line with rounded ends*
0 $1 width*
0 $2 $3 position (X,Y) of the first rounded end (center of the circle)*
0 $4 $5 position (X,Y) of the second rounded end (center of the circle)*
0 Add line between two ends*
20,1,$1,$2,$3,$4,$5,0*
0 Add two circle primitives to create the rounded ends*
1,1,$1,$2,$3*
1,1,$1,$4,$5*%
%AMRotRect*
0 Rectangle, with rotation*
0 The origin of the aperture is its center*
0 $1 length*
0 $2 width*
0 $3 Rotation angle, in degrees counterclockwise*
0 Add horizontal line*
21,1,$1,$2,0,0,$3*%
G04 Aperture macros list end*
%ADD10C,0.150000*%
%ADD11C,0.120000*%
%ADD12RoundRect,0.250000X0.475000X-0.337500X0.475000X0.337500X-0.475000X0.337500X-0.475000X-0.337500X0*%
%ADD13RoundRect,0.250000X-0.475000X0.337500X-0.475000X-0.337500X0.475000X-0.337500X0.475000X0.337500X0*%
%ADD14C,1.250000*%
%ADD15C,2.250000*%
%ADD16C,4.000000*%
%ADD17RoundRect,0.100000X0.100000X-0.637500X0.100000X0.637500X-0.100000X0.637500X-0.100000X-0.637500X0*%
%ADD18RoundRect,0.250000X0.625000X-0.400000X0.625000X0.400000X-0.625000X0.400000X-0.625000X-0.400000X0*%
%ADD19RoundRect,0.250000X-0.625000X0.400000X-0.625000X-0.400000X0.625000X-0.400000X0.625000X0.400000X0*%
%ADD20RotRect,1.700000X1.700000X45.000000*%
%ADD21HorizOval,1.700000X0.000000X0.000000X0.000000X0.000000X0*%
%ADD22RotRect,1.700000X1.700000X225.000000*%
%ADD23HorizOval,1.700000X0.000000X0.000000X0.000000X0.000000X0*%
%ADD24R,1.700000X1.700000*%
%ADD25O,1.700000X1.700000*%
%ADD26RoundRect,0.102000X0.754000X0.754000X-0.754000X0.754000X-0.754000X-0.754000X0.754000X-0.754000X0*%
%ADD27C,1.712000*%
%ADD28C,0.800000*%
%ADD29C,6.400000*%
%ADD30R,1.600000X1.600000*%
%ADD31C,1.600000*%
%ADD32O,1.600000X1.600000*%
%ADD33R,2.000000X2.000000*%
%ADD34C,2.000000*%
%ADD35RoundRect,0.100000X-0.100000X0.637500X-0.100000X-0.637500X0.100000X-0.637500X0.100000X0.637500X0*%
%ADD36RoundRect,0.250000X0.337500X0.475000X-0.337500X0.475000X-0.337500X-0.475000X0.337500X-0.475000X0*%
%ADD37RoundRect,0.250000X-0.337500X-0.475000X0.337500X-0.475000X0.337500X0.475000X-0.337500X0.475000X0*%
%ADD38RoundRect,0.150000X-0.150000X0.825000X-0.150000X-0.825000X0.150000X-0.825000X0.150000X0.825000X0*%
G04 APERTURE END LIST*
D10*
X172854579Y-102227142D02*
X172902199Y-102179523D01*
X172902199Y-102179523D02*
X172949818Y-102036666D01*
X172949818Y-102036666D02*
X172949818Y-101941428D01*
X172949818Y-101941428D02*
X172902199Y-101798571D01*
X172902199Y-101798571D02*
X172806960Y-101703333D01*
X172806960Y-101703333D02*
X172711722Y-101655714D01*
X172711722Y-101655714D02*
X172521246Y-101608095D01*
X172521246Y-101608095D02*
X172378389Y-101608095D01*
X172378389Y-101608095D02*
X172187913Y-101655714D01*
X172187913Y-101655714D02*
X172092675Y-101703333D01*
X172092675Y-101703333D02*
X171997437Y-101798571D01*
X171997437Y-101798571D02*
X171949818Y-101941428D01*
X171949818Y-101941428D02*
X171949818Y-102036666D01*
X171949818Y-102036666D02*
X171997437Y-102179523D01*
X171997437Y-102179523D02*
X172045056Y-102227142D01*
X172283151Y-103084285D02*
X172949818Y-103084285D01*
X171902199Y-102846190D02*
X172616484Y-102608095D01*
X172616484Y-102608095D02*
X172616484Y-103227142D01*
X172949818Y-103655714D02*
X172949818Y-103846190D01*
X172949818Y-103846190D02*
X172902199Y-103941428D01*
X172902199Y-103941428D02*
X172854579Y-103989047D01*
X172854579Y-103989047D02*
X172711722Y-104084285D01*
X172711722Y-104084285D02*
X172521246Y-104131904D01*
X172521246Y-104131904D02*
X172140294Y-104131904D01*
X172140294Y-104131904D02*
X172045056Y-104084285D01*
X172045056Y-104084285D02*
X171997437Y-104036666D01*
X171997437Y-104036666D02*
X171949818Y-103941428D01*
X171949818Y-103941428D02*
X171949818Y-103750952D01*
X171949818Y-103750952D02*
X171997437Y-103655714D01*
X171997437Y-103655714D02*
X172045056Y-103608095D01*
X172045056Y-103608095D02*
X172140294Y-103560476D01*
X172140294Y-103560476D02*
X172378389Y-103560476D01*
X172378389Y-103560476D02*
X172473627Y-103608095D01*
X172473627Y-103608095D02*
X172521246Y-103655714D01*
X172521246Y-103655714D02*
X172568865Y-103750952D01*
X172568865Y-103750952D02*
X172568865Y-103941428D01*
X172568865Y-103941428D02*
X172521246Y-104036666D01*
X172521246Y-104036666D02*
X172473627Y-104084285D01*
X172473627Y-104084285D02*
X172378389Y-104131904D01*
X176889580Y-53332142D02*
X176937200Y-53284523D01*
X176937200Y-53284523D02*
X176984819Y-53141666D01*
X176984819Y-53141666D02*
X176984819Y-53046428D01*
X176984819Y-53046428D02*
X176937200Y-52903571D01*
X176937200Y-52903571D02*
X176841961Y-52808333D01*
X176841961Y-52808333D02*
X176746723Y-52760714D01*
X176746723Y-52760714D02*
X176556247Y-52713095D01*
X176556247Y-52713095D02*
X176413390Y-52713095D01*
X176413390Y-52713095D02*
X176222914Y-52760714D01*
X176222914Y-52760714D02*
X176127676Y-52808333D01*
X176127676Y-52808333D02*
X176032438Y-52903571D01*
X176032438Y-52903571D02*
X175984819Y-53046428D01*
X175984819Y-53046428D02*
X175984819Y-53141666D01*
X175984819Y-53141666D02*
X176032438Y-53284523D01*
X176032438Y-53284523D02*
X176080057Y-53332142D01*
X176318152Y-54189285D02*
X176984819Y-54189285D01*
X175937200Y-53951190D02*
X176651485Y-53713095D01*
X176651485Y-53713095D02*
X176651485Y-54332142D01*
X175984819Y-54617857D02*
X175984819Y-55236904D01*
X175984819Y-55236904D02*
X176365771Y-54903571D01*
X176365771Y-54903571D02*
X176365771Y-55046428D01*
X176365771Y-55046428D02*
X176413390Y-55141666D01*
X176413390Y-55141666D02*
X176461009Y-55189285D01*
X176461009Y-55189285D02*
X176556247Y-55236904D01*
X176556247Y-55236904D02*
X176794342Y-55236904D01*
X176794342Y-55236904D02*
X176889580Y-55189285D01*
X176889580Y-55189285D02*
X176937200Y-55141666D01*
X176937200Y-55141666D02*
X176984819Y-55046428D01*
X176984819Y-55046428D02*
X176984819Y-54760714D01*
X176984819Y-54760714D02*
X176937200Y-54665476D01*
X176937200Y-54665476D02*
X176889580Y-54617857D01*
X172564818Y-111791905D02*
X173374341Y-111791905D01*
X173374341Y-111791905D02*
X173469579Y-111839524D01*
X173469579Y-111839524D02*
X173517199Y-111887143D01*
X173517199Y-111887143D02*
X173564818Y-111982381D01*
X173564818Y-111982381D02*
X173564818Y-112172857D01*
X173564818Y-112172857D02*
X173517199Y-112268095D01*
X173517199Y-112268095D02*
X173469579Y-112315714D01*
X173469579Y-112315714D02*
X173374341Y-112363333D01*
X173374341Y-112363333D02*
X172564818Y-112363333D01*
X173564818Y-113363333D02*
X173564818Y-112791905D01*
X173564818Y-113077619D02*
X172564818Y-113077619D01*
X172564818Y-113077619D02*
X172707675Y-112982381D01*
X172707675Y-112982381D02*
X172802913Y-112887143D01*
X172802913Y-112887143D02*
X172850532Y-112791905D01*
X172564818Y-114268095D02*
X172564818Y-113791905D01*
X172564818Y-113791905D02*
X173041008Y-113744286D01*
X173041008Y-113744286D02*
X172993389Y-113791905D01*
X172993389Y-113791905D02*
X172945770Y-113887143D01*
X172945770Y-113887143D02*
X172945770Y-114125238D01*
X172945770Y-114125238D02*
X172993389Y-114220476D01*
X172993389Y-114220476D02*
X173041008Y-114268095D01*
X173041008Y-114268095D02*
X173136246Y-114315714D01*
X173136246Y-114315714D02*
X173374341Y-114315714D01*
X173374341Y-114315714D02*
X173469579Y-114268095D01*
X173469579Y-114268095D02*
X173517199Y-114220476D01*
X173517199Y-114220476D02*
X173564818Y-114125238D01*
X173564818Y-114125238D02*
X173564818Y-113887143D01*
X173564818Y-113887143D02*
X173517199Y-113791905D01*
X173517199Y-113791905D02*
X173469579Y-113744286D01*
X172171904Y-107912819D02*
X171505238Y-107912819D01*
X171505238Y-107912819D02*
X171933809Y-108912819D01*
X170695714Y-108246152D02*
X170695714Y-108912819D01*
X170933809Y-107865200D02*
X171171904Y-108579485D01*
X171171904Y-108579485D02*
X170552857Y-108579485D01*
X170171904Y-108912819D02*
X170171904Y-107912819D01*
X170171904Y-108389009D02*
X169600476Y-108389009D01*
X169600476Y-108912819D02*
X169600476Y-107912819D01*
X168552857Y-108817580D02*
X168600476Y-108865200D01*
X168600476Y-108865200D02*
X168743333Y-108912819D01*
X168743333Y-108912819D02*
X168838571Y-108912819D01*
X168838571Y-108912819D02*
X168981428Y-108865200D01*
X168981428Y-108865200D02*
X169076666Y-108769961D01*
X169076666Y-108769961D02*
X169124285Y-108674723D01*
X169124285Y-108674723D02*
X169171904Y-108484247D01*
X169171904Y-108484247D02*
X169171904Y-108341390D01*
X169171904Y-108341390D02*
X169124285Y-108150914D01*
X169124285Y-108150914D02*
X169076666Y-108055676D01*
X169076666Y-108055676D02*
X168981428Y-107960438D01*
X168981428Y-107960438D02*
X168838571Y-107912819D01*
X168838571Y-107912819D02*
X168743333Y-107912819D01*
X168743333Y-107912819D02*
X168600476Y-107960438D01*
X168600476Y-107960438D02*
X168552857Y-108008057D01*
X168171904Y-108008057D02*
X168124285Y-107960438D01*
X168124285Y-107960438D02*
X168029047Y-107912819D01*
X168029047Y-107912819D02*
X167790952Y-107912819D01*
X167790952Y-107912819D02*
X167695714Y-107960438D01*
X167695714Y-107960438D02*
X167648095Y-108008057D01*
X167648095Y-108008057D02*
X167600476Y-108103295D01*
X167600476Y-108103295D02*
X167600476Y-108198533D01*
X167600476Y-108198533D02*
X167648095Y-108341390D01*
X167648095Y-108341390D02*
X168219523Y-108912819D01*
X168219523Y-108912819D02*
X167600476Y-108912819D01*
X166743333Y-108246152D02*
X166743333Y-108912819D01*
X166981428Y-107865200D02*
X167219523Y-108579485D01*
X167219523Y-108579485D02*
X166600476Y-108579485D01*
X166029047Y-107912819D02*
X165933809Y-107912819D01*
X165933809Y-107912819D02*
X165838571Y-107960438D01*
X165838571Y-107960438D02*
X165790952Y-108008057D01*
X165790952Y-108008057D02*
X165743333Y-108103295D01*
X165743333Y-108103295D02*
X165695714Y-108293771D01*
X165695714Y-108293771D02*
X165695714Y-108531866D01*
X165695714Y-108531866D02*
X165743333Y-108722342D01*
X165743333Y-108722342D02*
X165790952Y-108817580D01*
X165790952Y-108817580D02*
X165838571Y-108865200D01*
X165838571Y-108865200D02*
X165933809Y-108912819D01*
X165933809Y-108912819D02*
X166029047Y-108912819D01*
X166029047Y-108912819D02*
X166124285Y-108865200D01*
X166124285Y-108865200D02*
X166171904Y-108817580D01*
X166171904Y-108817580D02*
X166219523Y-108722342D01*
X166219523Y-108722342D02*
X166267142Y-108531866D01*
X166267142Y-108531866D02*
X166267142Y-108293771D01*
X166267142Y-108293771D02*
X166219523Y-108103295D01*
X166219523Y-108103295D02*
X166171904Y-108008057D01*
X166171904Y-108008057D02*
X166124285Y-107960438D01*
X166124285Y-107960438D02*
X166029047Y-107912819D01*
X170783094Y-61049819D02*
X170783094Y-61859342D01*
X170783094Y-61859342D02*
X170735475Y-61954580D01*
X170735475Y-61954580D02*
X170687856Y-62002200D01*
X170687856Y-62002200D02*
X170592618Y-62049819D01*
X170592618Y-62049819D02*
X170402142Y-62049819D01*
X170402142Y-62049819D02*
X170306904Y-62002200D01*
X170306904Y-62002200D02*
X170259285Y-61954580D01*
X170259285Y-61954580D02*
X170211666Y-61859342D01*
X170211666Y-61859342D02*
X170211666Y-61049819D01*
X169211666Y-62049819D02*
X169783094Y-62049819D01*
X169497380Y-62049819D02*
X169497380Y-61049819D01*
X169497380Y-61049819D02*
X169592618Y-61192676D01*
X169592618Y-61192676D02*
X169687856Y-61287914D01*
X169687856Y-61287914D02*
X169783094Y-61335533D01*
X168830713Y-61145057D02*
X168783094Y-61097438D01*
X168783094Y-61097438D02*
X168687856Y-61049819D01*
X168687856Y-61049819D02*
X168449761Y-61049819D01*
X168449761Y-61049819D02*
X168354523Y-61097438D01*
X168354523Y-61097438D02*
X168306904Y-61145057D01*
X168306904Y-61145057D02*
X168259285Y-61240295D01*
X168259285Y-61240295D02*
X168259285Y-61335533D01*
X168259285Y-61335533D02*
X168306904Y-61478390D01*
X168306904Y-61478390D02*
X168878332Y-62049819D01*
X168878332Y-62049819D02*
X168259285Y-62049819D01*
X174711904Y-56858819D02*
X174045238Y-56858819D01*
X174045238Y-56858819D02*
X174473809Y-57858819D01*
X173235714Y-57192152D02*
X173235714Y-57858819D01*
X173473809Y-56811200D02*
X173711904Y-57525485D01*
X173711904Y-57525485D02*
X173092857Y-57525485D01*
X172711904Y-57858819D02*
X172711904Y-56858819D01*
X172711904Y-57335009D02*
X172140476Y-57335009D01*
X172140476Y-57858819D02*
X172140476Y-56858819D01*
X171092857Y-57763580D02*
X171140476Y-57811200D01*
X171140476Y-57811200D02*
X171283333Y-57858819D01*
X171283333Y-57858819D02*
X171378571Y-57858819D01*
X171378571Y-57858819D02*
X171521428Y-57811200D01*
X171521428Y-57811200D02*
X171616666Y-57715961D01*
X171616666Y-57715961D02*
X171664285Y-57620723D01*
X171664285Y-57620723D02*
X171711904Y-57430247D01*
X171711904Y-57430247D02*
X171711904Y-57287390D01*
X171711904Y-57287390D02*
X171664285Y-57096914D01*
X171664285Y-57096914D02*
X171616666Y-57001676D01*
X171616666Y-57001676D02*
X171521428Y-56906438D01*
X171521428Y-56906438D02*
X171378571Y-56858819D01*
X171378571Y-56858819D02*
X171283333Y-56858819D01*
X171283333Y-56858819D02*
X171140476Y-56906438D01*
X171140476Y-56906438D02*
X171092857Y-56954057D01*
X170711904Y-56954057D02*
X170664285Y-56906438D01*
X170664285Y-56906438D02*
X170569047Y-56858819D01*
X170569047Y-56858819D02*
X170330952Y-56858819D01*
X170330952Y-56858819D02*
X170235714Y-56906438D01*
X170235714Y-56906438D02*
X170188095Y-56954057D01*
X170188095Y-56954057D02*
X170140476Y-57049295D01*
X170140476Y-57049295D02*
X170140476Y-57144533D01*
X170140476Y-57144533D02*
X170188095Y-57287390D01*
X170188095Y-57287390D02*
X170759523Y-57858819D01*
X170759523Y-57858819D02*
X170140476Y-57858819D01*
X169283333Y-57192152D02*
X169283333Y-57858819D01*
X169521428Y-56811200D02*
X169759523Y-57525485D01*
X169759523Y-57525485D02*
X169140476Y-57525485D01*
X168569047Y-56858819D02*
X168473809Y-56858819D01*
X168473809Y-56858819D02*
X168378571Y-56906438D01*
X168378571Y-56906438D02*
X168330952Y-56954057D01*
X168330952Y-56954057D02*
X168283333Y-57049295D01*
X168283333Y-57049295D02*
X168235714Y-57239771D01*
X168235714Y-57239771D02*
X168235714Y-57477866D01*
X168235714Y-57477866D02*
X168283333Y-57668342D01*
X168283333Y-57668342D02*
X168330952Y-57763580D01*
X168330952Y-57763580D02*
X168378571Y-57811200D01*
X168378571Y-57811200D02*
X168473809Y-57858819D01*
X168473809Y-57858819D02*
X168569047Y-57858819D01*
X168569047Y-57858819D02*
X168664285Y-57811200D01*
X168664285Y-57811200D02*
X168711904Y-57763580D01*
X168711904Y-57763580D02*
X168759523Y-57668342D01*
X168759523Y-57668342D02*
X168807142Y-57477866D01*
X168807142Y-57477866D02*
X168807142Y-57239771D01*
X168807142Y-57239771D02*
X168759523Y-57049295D01*
X168759523Y-57049295D02*
X168711904Y-56954057D01*
X168711904Y-56954057D02*
X168664285Y-56906438D01*
X168664285Y-56906438D02*
X168569047Y-56858819D01*
X153677857Y-113484819D02*
X154011190Y-113008628D01*
X154249285Y-113484819D02*
X154249285Y-112484819D01*
X154249285Y-112484819D02*
X153868333Y-112484819D01*
X153868333Y-112484819D02*
X153773095Y-112532438D01*
X153773095Y-112532438D02*
X153725476Y-112580057D01*
X153725476Y-112580057D02*
X153677857Y-112675295D01*
X153677857Y-112675295D02*
X153677857Y-112818152D01*
X153677857Y-112818152D02*
X153725476Y-112913390D01*
X153725476Y-112913390D02*
X153773095Y-112961009D01*
X153773095Y-112961009D02*
X153868333Y-113008628D01*
X153868333Y-113008628D02*
X154249285Y-113008628D01*
X152725476Y-113484819D02*
X153296904Y-113484819D01*
X153011190Y-113484819D02*
X153011190Y-112484819D01*
X153011190Y-112484819D02*
X153106428Y-112627676D01*
X153106428Y-112627676D02*
X153201666Y-112722914D01*
X153201666Y-112722914D02*
X153296904Y-112770533D01*
X151868333Y-112484819D02*
X152058809Y-112484819D01*
X152058809Y-112484819D02*
X152154047Y-112532438D01*
X152154047Y-112532438D02*
X152201666Y-112580057D01*
X152201666Y-112580057D02*
X152296904Y-112722914D01*
X152296904Y-112722914D02*
X152344523Y-112913390D01*
X152344523Y-112913390D02*
X152344523Y-113294342D01*
X152344523Y-113294342D02*
X152296904Y-113389580D01*
X152296904Y-113389580D02*
X152249285Y-113437200D01*
X152249285Y-113437200D02*
X152154047Y-113484819D01*
X152154047Y-113484819D02*
X151963571Y-113484819D01*
X151963571Y-113484819D02*
X151868333Y-113437200D01*
X151868333Y-113437200D02*
X151820714Y-113389580D01*
X151820714Y-113389580D02*
X151773095Y-113294342D01*
X151773095Y-113294342D02*
X151773095Y-113056247D01*
X151773095Y-113056247D02*
X151820714Y-112961009D01*
X151820714Y-112961009D02*
X151868333Y-112913390D01*
X151868333Y-112913390D02*
X151963571Y-112865771D01*
X151963571Y-112865771D02*
X152154047Y-112865771D01*
X152154047Y-112865771D02*
X152249285Y-112913390D01*
X152249285Y-112913390D02*
X152296904Y-112961009D01*
X152296904Y-112961009D02*
X152344523Y-113056247D01*
X160662857Y-112849819D02*
X160996190Y-112373628D01*
X161234285Y-112849819D02*
X161234285Y-111849819D01*
X161234285Y-111849819D02*
X160853333Y-111849819D01*
X160853333Y-111849819D02*
X160758095Y-111897438D01*
X160758095Y-111897438D02*
X160710476Y-111945057D01*
X160710476Y-111945057D02*
X160662857Y-112040295D01*
X160662857Y-112040295D02*
X160662857Y-112183152D01*
X160662857Y-112183152D02*
X160710476Y-112278390D01*
X160710476Y-112278390D02*
X160758095Y-112326009D01*
X160758095Y-112326009D02*
X160853333Y-112373628D01*
X160853333Y-112373628D02*
X161234285Y-112373628D01*
X159710476Y-112849819D02*
X160281904Y-112849819D01*
X159996190Y-112849819D02*
X159996190Y-111849819D01*
X159996190Y-111849819D02*
X160091428Y-111992676D01*
X160091428Y-111992676D02*
X160186666Y-112087914D01*
X160186666Y-112087914D02*
X160281904Y-112135533D01*
X158805714Y-111849819D02*
X159281904Y-111849819D01*
X159281904Y-111849819D02*
X159329523Y-112326009D01*
X159329523Y-112326009D02*
X159281904Y-112278390D01*
X159281904Y-112278390D02*
X159186666Y-112230771D01*
X159186666Y-112230771D02*
X158948571Y-112230771D01*
X158948571Y-112230771D02*
X158853333Y-112278390D01*
X158853333Y-112278390D02*
X158805714Y-112326009D01*
X158805714Y-112326009D02*
X158758095Y-112421247D01*
X158758095Y-112421247D02*
X158758095Y-112659342D01*
X158758095Y-112659342D02*
X158805714Y-112754580D01*
X158805714Y-112754580D02*
X158853333Y-112802200D01*
X158853333Y-112802200D02*
X158948571Y-112849819D01*
X158948571Y-112849819D02*
X159186666Y-112849819D01*
X159186666Y-112849819D02*
X159281904Y-112802200D01*
X159281904Y-112802200D02*
X159329523Y-112754580D01*
X138437857Y-113484819D02*
X138771190Y-113008628D01*
X139009285Y-113484819D02*
X139009285Y-112484819D01*
X139009285Y-112484819D02*
X138628333Y-112484819D01*
X138628333Y-112484819D02*
X138533095Y-112532438D01*
X138533095Y-112532438D02*
X138485476Y-112580057D01*
X138485476Y-112580057D02*
X138437857Y-112675295D01*
X138437857Y-112675295D02*
X138437857Y-112818152D01*
X138437857Y-112818152D02*
X138485476Y-112913390D01*
X138485476Y-112913390D02*
X138533095Y-112961009D01*
X138533095Y-112961009D02*
X138628333Y-113008628D01*
X138628333Y-113008628D02*
X139009285Y-113008628D01*
X137485476Y-113484819D02*
X138056904Y-113484819D01*
X137771190Y-113484819D02*
X137771190Y-112484819D01*
X137771190Y-112484819D02*
X137866428Y-112627676D01*
X137866428Y-112627676D02*
X137961666Y-112722914D01*
X137961666Y-112722914D02*
X138056904Y-112770533D01*
X136628333Y-112818152D02*
X136628333Y-113484819D01*
X136866428Y-112437200D02*
X137104523Y-113151485D01*
X137104523Y-113151485D02*
X136485476Y-113151485D01*
X145422857Y-113484819D02*
X145756190Y-113008628D01*
X145994285Y-113484819D02*
X145994285Y-112484819D01*
X145994285Y-112484819D02*
X145613333Y-112484819D01*
X145613333Y-112484819D02*
X145518095Y-112532438D01*
X145518095Y-112532438D02*
X145470476Y-112580057D01*
X145470476Y-112580057D02*
X145422857Y-112675295D01*
X145422857Y-112675295D02*
X145422857Y-112818152D01*
X145422857Y-112818152D02*
X145470476Y-112913390D01*
X145470476Y-112913390D02*
X145518095Y-112961009D01*
X145518095Y-112961009D02*
X145613333Y-113008628D01*
X145613333Y-113008628D02*
X145994285Y-113008628D01*
X144470476Y-113484819D02*
X145041904Y-113484819D01*
X144756190Y-113484819D02*
X144756190Y-112484819D01*
X144756190Y-112484819D02*
X144851428Y-112627676D01*
X144851428Y-112627676D02*
X144946666Y-112722914D01*
X144946666Y-112722914D02*
X145041904Y-112770533D01*
X144137142Y-112484819D02*
X143518095Y-112484819D01*
X143518095Y-112484819D02*
X143851428Y-112865771D01*
X143851428Y-112865771D02*
X143708571Y-112865771D01*
X143708571Y-112865771D02*
X143613333Y-112913390D01*
X143613333Y-112913390D02*
X143565714Y-112961009D01*
X143565714Y-112961009D02*
X143518095Y-113056247D01*
X143518095Y-113056247D02*
X143518095Y-113294342D01*
X143518095Y-113294342D02*
X143565714Y-113389580D01*
X143565714Y-113389580D02*
X143613333Y-113437200D01*
X143613333Y-113437200D02*
X143708571Y-113484819D01*
X143708571Y-113484819D02*
X143994285Y-113484819D01*
X143994285Y-113484819D02*
X144089523Y-113437200D01*
X144089523Y-113437200D02*
X144137142Y-113389580D01*
X160662857Y-51889819D02*
X160996190Y-51413628D01*
X161234285Y-51889819D02*
X161234285Y-50889819D01*
X161234285Y-50889819D02*
X160853333Y-50889819D01*
X160853333Y-50889819D02*
X160758095Y-50937438D01*
X160758095Y-50937438D02*
X160710476Y-50985057D01*
X160710476Y-50985057D02*
X160662857Y-51080295D01*
X160662857Y-51080295D02*
X160662857Y-51223152D01*
X160662857Y-51223152D02*
X160710476Y-51318390D01*
X160710476Y-51318390D02*
X160758095Y-51366009D01*
X160758095Y-51366009D02*
X160853333Y-51413628D01*
X160853333Y-51413628D02*
X161234285Y-51413628D01*
X159710476Y-51889819D02*
X160281904Y-51889819D01*
X159996190Y-51889819D02*
X159996190Y-50889819D01*
X159996190Y-50889819D02*
X160091428Y-51032676D01*
X160091428Y-51032676D02*
X160186666Y-51127914D01*
X160186666Y-51127914D02*
X160281904Y-51175533D01*
X159329523Y-50985057D02*
X159281904Y-50937438D01*
X159281904Y-50937438D02*
X159186666Y-50889819D01*
X159186666Y-50889819D02*
X158948571Y-50889819D01*
X158948571Y-50889819D02*
X158853333Y-50937438D01*
X158853333Y-50937438D02*
X158805714Y-50985057D01*
X158805714Y-50985057D02*
X158758095Y-51080295D01*
X158758095Y-51080295D02*
X158758095Y-51175533D01*
X158758095Y-51175533D02*
X158805714Y-51318390D01*
X158805714Y-51318390D02*
X159377142Y-51889819D01*
X159377142Y-51889819D02*
X158758095Y-51889819D01*
X153677857Y-51889819D02*
X154011190Y-51413628D01*
X154249285Y-51889819D02*
X154249285Y-50889819D01*
X154249285Y-50889819D02*
X153868333Y-50889819D01*
X153868333Y-50889819D02*
X153773095Y-50937438D01*
X153773095Y-50937438D02*
X153725476Y-50985057D01*
X153725476Y-50985057D02*
X153677857Y-51080295D01*
X153677857Y-51080295D02*
X153677857Y-51223152D01*
X153677857Y-51223152D02*
X153725476Y-51318390D01*
X153725476Y-51318390D02*
X153773095Y-51366009D01*
X153773095Y-51366009D02*
X153868333Y-51413628D01*
X153868333Y-51413628D02*
X154249285Y-51413628D01*
X152725476Y-51889819D02*
X153296904Y-51889819D01*
X153011190Y-51889819D02*
X153011190Y-50889819D01*
X153011190Y-50889819D02*
X153106428Y-51032676D01*
X153106428Y-51032676D02*
X153201666Y-51127914D01*
X153201666Y-51127914D02*
X153296904Y-51175533D01*
X151773095Y-51889819D02*
X152344523Y-51889819D01*
X152058809Y-51889819D02*
X152058809Y-50889819D01*
X152058809Y-50889819D02*
X152154047Y-51032676D01*
X152154047Y-51032676D02*
X152249285Y-51127914D01*
X152249285Y-51127914D02*
X152344523Y-51175533D01*
X145422857Y-51889819D02*
X145756190Y-51413628D01*
X145994285Y-51889819D02*
X145994285Y-50889819D01*
X145994285Y-50889819D02*
X145613333Y-50889819D01*
X145613333Y-50889819D02*
X145518095Y-50937438D01*
X145518095Y-50937438D02*
X145470476Y-50985057D01*
X145470476Y-50985057D02*
X145422857Y-51080295D01*
X145422857Y-51080295D02*
X145422857Y-51223152D01*
X145422857Y-51223152D02*
X145470476Y-51318390D01*
X145470476Y-51318390D02*
X145518095Y-51366009D01*
X145518095Y-51366009D02*
X145613333Y-51413628D01*
X145613333Y-51413628D02*
X145994285Y-51413628D01*
X144470476Y-51889819D02*
X145041904Y-51889819D01*
X144756190Y-51889819D02*
X144756190Y-50889819D01*
X144756190Y-50889819D02*
X144851428Y-51032676D01*
X144851428Y-51032676D02*
X144946666Y-51127914D01*
X144946666Y-51127914D02*
X145041904Y-51175533D01*
X143851428Y-50889819D02*
X143756190Y-50889819D01*
X143756190Y-50889819D02*
X143660952Y-50937438D01*
X143660952Y-50937438D02*
X143613333Y-50985057D01*
X143613333Y-50985057D02*
X143565714Y-51080295D01*
X143565714Y-51080295D02*
X143518095Y-51270771D01*
X143518095Y-51270771D02*
X143518095Y-51508866D01*
X143518095Y-51508866D02*
X143565714Y-51699342D01*
X143565714Y-51699342D02*
X143613333Y-51794580D01*
X143613333Y-51794580D02*
X143660952Y-51842200D01*
X143660952Y-51842200D02*
X143756190Y-51889819D01*
X143756190Y-51889819D02*
X143851428Y-51889819D01*
X143851428Y-51889819D02*
X143946666Y-51842200D01*
X143946666Y-51842200D02*
X143994285Y-51794580D01*
X143994285Y-51794580D02*
X144041904Y-51699342D01*
X144041904Y-51699342D02*
X144089523Y-51508866D01*
X144089523Y-51508866D02*
X144089523Y-51270771D01*
X144089523Y-51270771D02*
X144041904Y-51080295D01*
X144041904Y-51080295D02*
X143994285Y-50985057D01*
X143994285Y-50985057D02*
X143946666Y-50937438D01*
X143946666Y-50937438D02*
X143851428Y-50889819D01*
X137326666Y-51889819D02*
X137659999Y-51413628D01*
X137898094Y-51889819D02*
X137898094Y-50889819D01*
X137898094Y-50889819D02*
X137517142Y-50889819D01*
X137517142Y-50889819D02*
X137421904Y-50937438D01*
X137421904Y-50937438D02*
X137374285Y-50985057D01*
X137374285Y-50985057D02*
X137326666Y-51080295D01*
X137326666Y-51080295D02*
X137326666Y-51223152D01*
X137326666Y-51223152D02*
X137374285Y-51318390D01*
X137374285Y-51318390D02*
X137421904Y-51366009D01*
X137421904Y-51366009D02*
X137517142Y-51413628D01*
X137517142Y-51413628D02*
X137898094Y-51413628D01*
X136850475Y-51889819D02*
X136659999Y-51889819D01*
X136659999Y-51889819D02*
X136564761Y-51842200D01*
X136564761Y-51842200D02*
X136517142Y-51794580D01*
X136517142Y-51794580D02*
X136421904Y-51651723D01*
X136421904Y-51651723D02*
X136374285Y-51461247D01*
X136374285Y-51461247D02*
X136374285Y-51080295D01*
X136374285Y-51080295D02*
X136421904Y-50985057D01*
X136421904Y-50985057D02*
X136469523Y-50937438D01*
X136469523Y-50937438D02*
X136564761Y-50889819D01*
X136564761Y-50889819D02*
X136755237Y-50889819D01*
X136755237Y-50889819D02*
X136850475Y-50937438D01*
X136850475Y-50937438D02*
X136898094Y-50985057D01*
X136898094Y-50985057D02*
X136945713Y-51080295D01*
X136945713Y-51080295D02*
X136945713Y-51318390D01*
X136945713Y-51318390D02*
X136898094Y-51413628D01*
X136898094Y-51413628D02*
X136850475Y-51461247D01*
X136850475Y-51461247D02*
X136755237Y-51508866D01*
X136755237Y-51508866D02*
X136564761Y-51508866D01*
X136564761Y-51508866D02*
X136469523Y-51461247D01*
X136469523Y-51461247D02*
X136421904Y-51413628D01*
X136421904Y-51413628D02*
X136374285Y-51318390D01*
X121451666Y-113484819D02*
X121784999Y-113008628D01*
X122023094Y-113484819D02*
X122023094Y-112484819D01*
X122023094Y-112484819D02*
X121642142Y-112484819D01*
X121642142Y-112484819D02*
X121546904Y-112532438D01*
X121546904Y-112532438D02*
X121499285Y-112580057D01*
X121499285Y-112580057D02*
X121451666Y-112675295D01*
X121451666Y-112675295D02*
X121451666Y-112818152D01*
X121451666Y-112818152D02*
X121499285Y-112913390D01*
X121499285Y-112913390D02*
X121546904Y-112961009D01*
X121546904Y-112961009D02*
X121642142Y-113008628D01*
X121642142Y-113008628D02*
X122023094Y-113008628D01*
X120880237Y-112913390D02*
X120975475Y-112865771D01*
X120975475Y-112865771D02*
X121023094Y-112818152D01*
X121023094Y-112818152D02*
X121070713Y-112722914D01*
X121070713Y-112722914D02*
X121070713Y-112675295D01*
X121070713Y-112675295D02*
X121023094Y-112580057D01*
X121023094Y-112580057D02*
X120975475Y-112532438D01*
X120975475Y-112532438D02*
X120880237Y-112484819D01*
X120880237Y-112484819D02*
X120689761Y-112484819D01*
X120689761Y-112484819D02*
X120594523Y-112532438D01*
X120594523Y-112532438D02*
X120546904Y-112580057D01*
X120546904Y-112580057D02*
X120499285Y-112675295D01*
X120499285Y-112675295D02*
X120499285Y-112722914D01*
X120499285Y-112722914D02*
X120546904Y-112818152D01*
X120546904Y-112818152D02*
X120594523Y-112865771D01*
X120594523Y-112865771D02*
X120689761Y-112913390D01*
X120689761Y-112913390D02*
X120880237Y-112913390D01*
X120880237Y-112913390D02*
X120975475Y-112961009D01*
X120975475Y-112961009D02*
X121023094Y-113008628D01*
X121023094Y-113008628D02*
X121070713Y-113103866D01*
X121070713Y-113103866D02*
X121070713Y-113294342D01*
X121070713Y-113294342D02*
X121023094Y-113389580D01*
X121023094Y-113389580D02*
X120975475Y-113437200D01*
X120975475Y-113437200D02*
X120880237Y-113484819D01*
X120880237Y-113484819D02*
X120689761Y-113484819D01*
X120689761Y-113484819D02*
X120594523Y-113437200D01*
X120594523Y-113437200D02*
X120546904Y-113389580D01*
X120546904Y-113389580D02*
X120499285Y-113294342D01*
X120499285Y-113294342D02*
X120499285Y-113103866D01*
X120499285Y-113103866D02*
X120546904Y-113008628D01*
X120546904Y-113008628D02*
X120594523Y-112961009D01*
X120594523Y-112961009D02*
X120689761Y-112913390D01*
X130341666Y-113484819D02*
X130674999Y-113008628D01*
X130913094Y-113484819D02*
X130913094Y-112484819D01*
X130913094Y-112484819D02*
X130532142Y-112484819D01*
X130532142Y-112484819D02*
X130436904Y-112532438D01*
X130436904Y-112532438D02*
X130389285Y-112580057D01*
X130389285Y-112580057D02*
X130341666Y-112675295D01*
X130341666Y-112675295D02*
X130341666Y-112818152D01*
X130341666Y-112818152D02*
X130389285Y-112913390D01*
X130389285Y-112913390D02*
X130436904Y-112961009D01*
X130436904Y-112961009D02*
X130532142Y-113008628D01*
X130532142Y-113008628D02*
X130913094Y-113008628D01*
X130008332Y-112484819D02*
X129341666Y-112484819D01*
X129341666Y-112484819D02*
X129770237Y-113484819D01*
X102401666Y-113484819D02*
X102734999Y-113008628D01*
X102973094Y-113484819D02*
X102973094Y-112484819D01*
X102973094Y-112484819D02*
X102592142Y-112484819D01*
X102592142Y-112484819D02*
X102496904Y-112532438D01*
X102496904Y-112532438D02*
X102449285Y-112580057D01*
X102449285Y-112580057D02*
X102401666Y-112675295D01*
X102401666Y-112675295D02*
X102401666Y-112818152D01*
X102401666Y-112818152D02*
X102449285Y-112913390D01*
X102449285Y-112913390D02*
X102496904Y-112961009D01*
X102496904Y-112961009D02*
X102592142Y-113008628D01*
X102592142Y-113008628D02*
X102973094Y-113008628D01*
X101544523Y-112484819D02*
X101734999Y-112484819D01*
X101734999Y-112484819D02*
X101830237Y-112532438D01*
X101830237Y-112532438D02*
X101877856Y-112580057D01*
X101877856Y-112580057D02*
X101973094Y-112722914D01*
X101973094Y-112722914D02*
X102020713Y-112913390D01*
X102020713Y-112913390D02*
X102020713Y-113294342D01*
X102020713Y-113294342D02*
X101973094Y-113389580D01*
X101973094Y-113389580D02*
X101925475Y-113437200D01*
X101925475Y-113437200D02*
X101830237Y-113484819D01*
X101830237Y-113484819D02*
X101639761Y-113484819D01*
X101639761Y-113484819D02*
X101544523Y-113437200D01*
X101544523Y-113437200D02*
X101496904Y-113389580D01*
X101496904Y-113389580D02*
X101449285Y-113294342D01*
X101449285Y-113294342D02*
X101449285Y-113056247D01*
X101449285Y-113056247D02*
X101496904Y-112961009D01*
X101496904Y-112961009D02*
X101544523Y-112913390D01*
X101544523Y-112913390D02*
X101639761Y-112865771D01*
X101639761Y-112865771D02*
X101830237Y-112865771D01*
X101830237Y-112865771D02*
X101925475Y-112913390D01*
X101925475Y-112913390D02*
X101973094Y-112961009D01*
X101973094Y-112961009D02*
X102020713Y-113056247D01*
X114466666Y-113484819D02*
X114799999Y-113008628D01*
X115038094Y-113484819D02*
X115038094Y-112484819D01*
X115038094Y-112484819D02*
X114657142Y-112484819D01*
X114657142Y-112484819D02*
X114561904Y-112532438D01*
X114561904Y-112532438D02*
X114514285Y-112580057D01*
X114514285Y-112580057D02*
X114466666Y-112675295D01*
X114466666Y-112675295D02*
X114466666Y-112818152D01*
X114466666Y-112818152D02*
X114514285Y-112913390D01*
X114514285Y-112913390D02*
X114561904Y-112961009D01*
X114561904Y-112961009D02*
X114657142Y-113008628D01*
X114657142Y-113008628D02*
X115038094Y-113008628D01*
X113561904Y-112484819D02*
X114038094Y-112484819D01*
X114038094Y-112484819D02*
X114085713Y-112961009D01*
X114085713Y-112961009D02*
X114038094Y-112913390D01*
X114038094Y-112913390D02*
X113942856Y-112865771D01*
X113942856Y-112865771D02*
X113704761Y-112865771D01*
X113704761Y-112865771D02*
X113609523Y-112913390D01*
X113609523Y-112913390D02*
X113561904Y-112961009D01*
X113561904Y-112961009D02*
X113514285Y-113056247D01*
X113514285Y-113056247D02*
X113514285Y-113294342D01*
X113514285Y-113294342D02*
X113561904Y-113389580D01*
X113561904Y-113389580D02*
X113609523Y-113437200D01*
X113609523Y-113437200D02*
X113704761Y-113484819D01*
X113704761Y-113484819D02*
X113942856Y-113484819D01*
X113942856Y-113484819D02*
X114038094Y-113437200D01*
X114038094Y-113437200D02*
X114085713Y-113389580D01*
X130426666Y-51889819D02*
X130759999Y-51413628D01*
X130998094Y-51889819D02*
X130998094Y-50889819D01*
X130998094Y-50889819D02*
X130617142Y-50889819D01*
X130617142Y-50889819D02*
X130521904Y-50937438D01*
X130521904Y-50937438D02*
X130474285Y-50985057D01*
X130474285Y-50985057D02*
X130426666Y-51080295D01*
X130426666Y-51080295D02*
X130426666Y-51223152D01*
X130426666Y-51223152D02*
X130474285Y-51318390D01*
X130474285Y-51318390D02*
X130521904Y-51366009D01*
X130521904Y-51366009D02*
X130617142Y-51413628D01*
X130617142Y-51413628D02*
X130998094Y-51413628D01*
X129569523Y-51223152D02*
X129569523Y-51889819D01*
X129807618Y-50842200D02*
X130045713Y-51556485D01*
X130045713Y-51556485D02*
X129426666Y-51556485D01*
X121451666Y-51889819D02*
X121784999Y-51413628D01*
X122023094Y-51889819D02*
X122023094Y-50889819D01*
X122023094Y-50889819D02*
X121642142Y-50889819D01*
X121642142Y-50889819D02*
X121546904Y-50937438D01*
X121546904Y-50937438D02*
X121499285Y-50985057D01*
X121499285Y-50985057D02*
X121451666Y-51080295D01*
X121451666Y-51080295D02*
X121451666Y-51223152D01*
X121451666Y-51223152D02*
X121499285Y-51318390D01*
X121499285Y-51318390D02*
X121546904Y-51366009D01*
X121546904Y-51366009D02*
X121642142Y-51413628D01*
X121642142Y-51413628D02*
X122023094Y-51413628D01*
X121118332Y-50889819D02*
X120499285Y-50889819D01*
X120499285Y-50889819D02*
X120832618Y-51270771D01*
X120832618Y-51270771D02*
X120689761Y-51270771D01*
X120689761Y-51270771D02*
X120594523Y-51318390D01*
X120594523Y-51318390D02*
X120546904Y-51366009D01*
X120546904Y-51366009D02*
X120499285Y-51461247D01*
X120499285Y-51461247D02*
X120499285Y-51699342D01*
X120499285Y-51699342D02*
X120546904Y-51794580D01*
X120546904Y-51794580D02*
X120594523Y-51842200D01*
X120594523Y-51842200D02*
X120689761Y-51889819D01*
X120689761Y-51889819D02*
X120975475Y-51889819D01*
X120975475Y-51889819D02*
X121070713Y-51842200D01*
X121070713Y-51842200D02*
X121118332Y-51794580D01*
X114466666Y-51889819D02*
X114799999Y-51413628D01*
X115038094Y-51889819D02*
X115038094Y-50889819D01*
X115038094Y-50889819D02*
X114657142Y-50889819D01*
X114657142Y-50889819D02*
X114561904Y-50937438D01*
X114561904Y-50937438D02*
X114514285Y-50985057D01*
X114514285Y-50985057D02*
X114466666Y-51080295D01*
X114466666Y-51080295D02*
X114466666Y-51223152D01*
X114466666Y-51223152D02*
X114514285Y-51318390D01*
X114514285Y-51318390D02*
X114561904Y-51366009D01*
X114561904Y-51366009D02*
X114657142Y-51413628D01*
X114657142Y-51413628D02*
X115038094Y-51413628D01*
X114085713Y-50985057D02*
X114038094Y-50937438D01*
X114038094Y-50937438D02*
X113942856Y-50889819D01*
X113942856Y-50889819D02*
X113704761Y-50889819D01*
X113704761Y-50889819D02*
X113609523Y-50937438D01*
X113609523Y-50937438D02*
X113561904Y-50985057D01*
X113561904Y-50985057D02*
X113514285Y-51080295D01*
X113514285Y-51080295D02*
X113514285Y-51175533D01*
X113514285Y-51175533D02*
X113561904Y-51318390D01*
X113561904Y-51318390D02*
X114133332Y-51889819D01*
X114133332Y-51889819D02*
X113514285Y-51889819D01*
X102401666Y-51889819D02*
X102734999Y-51413628D01*
X102973094Y-51889819D02*
X102973094Y-50889819D01*
X102973094Y-50889819D02*
X102592142Y-50889819D01*
X102592142Y-50889819D02*
X102496904Y-50937438D01*
X102496904Y-50937438D02*
X102449285Y-50985057D01*
X102449285Y-50985057D02*
X102401666Y-51080295D01*
X102401666Y-51080295D02*
X102401666Y-51223152D01*
X102401666Y-51223152D02*
X102449285Y-51318390D01*
X102449285Y-51318390D02*
X102496904Y-51366009D01*
X102496904Y-51366009D02*
X102592142Y-51413628D01*
X102592142Y-51413628D02*
X102973094Y-51413628D01*
X101449285Y-51889819D02*
X102020713Y-51889819D01*
X101734999Y-51889819D02*
X101734999Y-50889819D01*
X101734999Y-50889819D02*
X101830237Y-51032676D01*
X101830237Y-51032676D02*
X101925475Y-51127914D01*
X101925475Y-51127914D02*
X102020713Y-51175533D01*
X104266904Y-71209819D02*
X104266904Y-72019342D01*
X104266904Y-72019342D02*
X104219285Y-72114580D01*
X104219285Y-72114580D02*
X104171666Y-72162200D01*
X104171666Y-72162200D02*
X104076428Y-72209819D01*
X104076428Y-72209819D02*
X103885952Y-72209819D01*
X103885952Y-72209819D02*
X103790714Y-72162200D01*
X103790714Y-72162200D02*
X103743095Y-72114580D01*
X103743095Y-72114580D02*
X103695476Y-72019342D01*
X103695476Y-72019342D02*
X103695476Y-71209819D01*
X102790714Y-71543152D02*
X102790714Y-72209819D01*
X103028809Y-71162200D02*
X103266904Y-71876485D01*
X103266904Y-71876485D02*
X102647857Y-71876485D01*
X113243809Y-75337200D02*
X113100952Y-75384819D01*
X113100952Y-75384819D02*
X112862857Y-75384819D01*
X112862857Y-75384819D02*
X112767619Y-75337200D01*
X112767619Y-75337200D02*
X112720000Y-75289580D01*
X112720000Y-75289580D02*
X112672381Y-75194342D01*
X112672381Y-75194342D02*
X112672381Y-75099104D01*
X112672381Y-75099104D02*
X112720000Y-75003866D01*
X112720000Y-75003866D02*
X112767619Y-74956247D01*
X112767619Y-74956247D02*
X112862857Y-74908628D01*
X112862857Y-74908628D02*
X113053333Y-74861009D01*
X113053333Y-74861009D02*
X113148571Y-74813390D01*
X113148571Y-74813390D02*
X113196190Y-74765771D01*
X113196190Y-74765771D02*
X113243809Y-74670533D01*
X113243809Y-74670533D02*
X113243809Y-74575295D01*
X113243809Y-74575295D02*
X113196190Y-74480057D01*
X113196190Y-74480057D02*
X113148571Y-74432438D01*
X113148571Y-74432438D02*
X113053333Y-74384819D01*
X113053333Y-74384819D02*
X112815238Y-74384819D01*
X112815238Y-74384819D02*
X112672381Y-74432438D01*
X112243809Y-75384819D02*
X112243809Y-74384819D01*
X112243809Y-74384819D02*
X111862857Y-74384819D01*
X111862857Y-74384819D02*
X111767619Y-74432438D01*
X111767619Y-74432438D02*
X111720000Y-74480057D01*
X111720000Y-74480057D02*
X111672381Y-74575295D01*
X111672381Y-74575295D02*
X111672381Y-74718152D01*
X111672381Y-74718152D02*
X111720000Y-74813390D01*
X111720000Y-74813390D02*
X111767619Y-74861009D01*
X111767619Y-74861009D02*
X111862857Y-74908628D01*
X111862857Y-74908628D02*
X112243809Y-74908628D01*
X111339047Y-74384819D02*
X110720000Y-74384819D01*
X110720000Y-74384819D02*
X111053333Y-74765771D01*
X111053333Y-74765771D02*
X110910476Y-74765771D01*
X110910476Y-74765771D02*
X110815238Y-74813390D01*
X110815238Y-74813390D02*
X110767619Y-74861009D01*
X110767619Y-74861009D02*
X110720000Y-74956247D01*
X110720000Y-74956247D02*
X110720000Y-75194342D01*
X110720000Y-75194342D02*
X110767619Y-75289580D01*
X110767619Y-75289580D02*
X110815238Y-75337200D01*
X110815238Y-75337200D02*
X110910476Y-75384819D01*
X110910476Y-75384819D02*
X111196190Y-75384819D01*
X111196190Y-75384819D02*
X111291428Y-75337200D01*
X111291428Y-75337200D02*
X111339047Y-75289580D01*
X110339047Y-74480057D02*
X110291428Y-74432438D01*
X110291428Y-74432438D02*
X110196190Y-74384819D01*
X110196190Y-74384819D02*
X109958095Y-74384819D01*
X109958095Y-74384819D02*
X109862857Y-74432438D01*
X109862857Y-74432438D02*
X109815238Y-74480057D01*
X109815238Y-74480057D02*
X109767619Y-74575295D01*
X109767619Y-74575295D02*
X109767619Y-74670533D01*
X109767619Y-74670533D02*
X109815238Y-74813390D01*
X109815238Y-74813390D02*
X110386666Y-75384819D01*
X110386666Y-75384819D02*
X109767619Y-75384819D01*
X108910476Y-74718152D02*
X108910476Y-75384819D01*
X109148571Y-74337200D02*
X109386666Y-75051485D01*
X109386666Y-75051485D02*
X108767619Y-75051485D01*
X108481904Y-74384819D02*
X107862857Y-74384819D01*
X107862857Y-74384819D02*
X108196190Y-74765771D01*
X108196190Y-74765771D02*
X108053333Y-74765771D01*
X108053333Y-74765771D02*
X107958095Y-74813390D01*
X107958095Y-74813390D02*
X107910476Y-74861009D01*
X107910476Y-74861009D02*
X107862857Y-74956247D01*
X107862857Y-74956247D02*
X107862857Y-75194342D01*
X107862857Y-75194342D02*
X107910476Y-75289580D01*
X107910476Y-75289580D02*
X107958095Y-75337200D01*
X107958095Y-75337200D02*
X108053333Y-75384819D01*
X108053333Y-75384819D02*
X108339047Y-75384819D01*
X108339047Y-75384819D02*
X108434285Y-75337200D01*
X108434285Y-75337200D02*
X108481904Y-75289580D01*
X107434285Y-74861009D02*
X107100952Y-74861009D01*
X106958095Y-75384819D02*
X107434285Y-75384819D01*
X107434285Y-75384819D02*
X107434285Y-74384819D01*
X107434285Y-74384819D02*
X106958095Y-74384819D01*
X106529523Y-74861009D02*
X106196190Y-74861009D01*
X106053333Y-75384819D02*
X106529523Y-75384819D01*
X106529523Y-75384819D02*
X106529523Y-74384819D01*
X106529523Y-74384819D02*
X106053333Y-74384819D01*
X105434285Y-74908628D02*
X105434285Y-75384819D01*
X105767618Y-74384819D02*
X105434285Y-74908628D01*
X105434285Y-74908628D02*
X105100952Y-74384819D01*
X120816666Y-73609581D02*
X120864285Y-73657201D01*
X120864285Y-73657201D02*
X121007142Y-73704820D01*
X121007142Y-73704820D02*
X121102380Y-73704820D01*
X121102380Y-73704820D02*
X121245237Y-73657201D01*
X121245237Y-73657201D02*
X121340475Y-73561962D01*
X121340475Y-73561962D02*
X121388094Y-73466724D01*
X121388094Y-73466724D02*
X121435713Y-73276248D01*
X121435713Y-73276248D02*
X121435713Y-73133391D01*
X121435713Y-73133391D02*
X121388094Y-72942915D01*
X121388094Y-72942915D02*
X121340475Y-72847677D01*
X121340475Y-72847677D02*
X121245237Y-72752439D01*
X121245237Y-72752439D02*
X121102380Y-72704820D01*
X121102380Y-72704820D02*
X121007142Y-72704820D01*
X121007142Y-72704820D02*
X120864285Y-72752439D01*
X120864285Y-72752439D02*
X120816666Y-72800058D01*
X120245237Y-73133391D02*
X120340475Y-73085772D01*
X120340475Y-73085772D02*
X120388094Y-73038153D01*
X120388094Y-73038153D02*
X120435713Y-72942915D01*
X120435713Y-72942915D02*
X120435713Y-72895296D01*
X120435713Y-72895296D02*
X120388094Y-72800058D01*
X120388094Y-72800058D02*
X120340475Y-72752439D01*
X120340475Y-72752439D02*
X120245237Y-72704820D01*
X120245237Y-72704820D02*
X120054761Y-72704820D01*
X120054761Y-72704820D02*
X119959523Y-72752439D01*
X119959523Y-72752439D02*
X119911904Y-72800058D01*
X119911904Y-72800058D02*
X119864285Y-72895296D01*
X119864285Y-72895296D02*
X119864285Y-72942915D01*
X119864285Y-72942915D02*
X119911904Y-73038153D01*
X119911904Y-73038153D02*
X119959523Y-73085772D01*
X119959523Y-73085772D02*
X120054761Y-73133391D01*
X120054761Y-73133391D02*
X120245237Y-73133391D01*
X120245237Y-73133391D02*
X120340475Y-73181010D01*
X120340475Y-73181010D02*
X120388094Y-73228629D01*
X120388094Y-73228629D02*
X120435713Y-73323867D01*
X120435713Y-73323867D02*
X120435713Y-73514343D01*
X120435713Y-73514343D02*
X120388094Y-73609581D01*
X120388094Y-73609581D02*
X120340475Y-73657201D01*
X120340475Y-73657201D02*
X120245237Y-73704820D01*
X120245237Y-73704820D02*
X120054761Y-73704820D01*
X120054761Y-73704820D02*
X119959523Y-73657201D01*
X119959523Y-73657201D02*
X119911904Y-73609581D01*
X119911904Y-73609581D02*
X119864285Y-73514343D01*
X119864285Y-73514343D02*
X119864285Y-73323867D01*
X119864285Y-73323867D02*
X119911904Y-73228629D01*
X119911904Y-73228629D02*
X119959523Y-73181010D01*
X119959523Y-73181010D02*
X120054761Y-73133391D01*
X110021666Y-81639580D02*
X110069285Y-81687200D01*
X110069285Y-81687200D02*
X110212142Y-81734819D01*
X110212142Y-81734819D02*
X110307380Y-81734819D01*
X110307380Y-81734819D02*
X110450237Y-81687200D01*
X110450237Y-81687200D02*
X110545475Y-81591961D01*
X110545475Y-81591961D02*
X110593094Y-81496723D01*
X110593094Y-81496723D02*
X110640713Y-81306247D01*
X110640713Y-81306247D02*
X110640713Y-81163390D01*
X110640713Y-81163390D02*
X110593094Y-80972914D01*
X110593094Y-80972914D02*
X110545475Y-80877676D01*
X110545475Y-80877676D02*
X110450237Y-80782438D01*
X110450237Y-80782438D02*
X110307380Y-80734819D01*
X110307380Y-80734819D02*
X110212142Y-80734819D01*
X110212142Y-80734819D02*
X110069285Y-80782438D01*
X110069285Y-80782438D02*
X110021666Y-80830057D01*
X109545475Y-81734819D02*
X109354999Y-81734819D01*
X109354999Y-81734819D02*
X109259761Y-81687200D01*
X109259761Y-81687200D02*
X109212142Y-81639580D01*
X109212142Y-81639580D02*
X109116904Y-81496723D01*
X109116904Y-81496723D02*
X109069285Y-81306247D01*
X109069285Y-81306247D02*
X109069285Y-80925295D01*
X109069285Y-80925295D02*
X109116904Y-80830057D01*
X109116904Y-80830057D02*
X109164523Y-80782438D01*
X109164523Y-80782438D02*
X109259761Y-80734819D01*
X109259761Y-80734819D02*
X109450237Y-80734819D01*
X109450237Y-80734819D02*
X109545475Y-80782438D01*
X109545475Y-80782438D02*
X109593094Y-80830057D01*
X109593094Y-80830057D02*
X109640713Y-80925295D01*
X109640713Y-80925295D02*
X109640713Y-81163390D01*
X109640713Y-81163390D02*
X109593094Y-81258628D01*
X109593094Y-81258628D02*
X109545475Y-81306247D01*
X109545475Y-81306247D02*
X109450237Y-81353866D01*
X109450237Y-81353866D02*
X109259761Y-81353866D01*
X109259761Y-81353866D02*
X109164523Y-81306247D01*
X109164523Y-81306247D02*
X109116904Y-81258628D01*
X109116904Y-81258628D02*
X109069285Y-81163390D01*
X115831857Y-90656580D02*
X115879476Y-90704200D01*
X115879476Y-90704200D02*
X116022333Y-90751819D01*
X116022333Y-90751819D02*
X116117571Y-90751819D01*
X116117571Y-90751819D02*
X116260428Y-90704200D01*
X116260428Y-90704200D02*
X116355666Y-90608961D01*
X116355666Y-90608961D02*
X116403285Y-90513723D01*
X116403285Y-90513723D02*
X116450904Y-90323247D01*
X116450904Y-90323247D02*
X116450904Y-90180390D01*
X116450904Y-90180390D02*
X116403285Y-89989914D01*
X116403285Y-89989914D02*
X116355666Y-89894676D01*
X116355666Y-89894676D02*
X116260428Y-89799438D01*
X116260428Y-89799438D02*
X116117571Y-89751819D01*
X116117571Y-89751819D02*
X116022333Y-89751819D01*
X116022333Y-89751819D02*
X115879476Y-89799438D01*
X115879476Y-89799438D02*
X115831857Y-89847057D01*
X114879476Y-90751819D02*
X115450904Y-90751819D01*
X115165190Y-90751819D02*
X115165190Y-89751819D01*
X115165190Y-89751819D02*
X115260428Y-89894676D01*
X115260428Y-89894676D02*
X115355666Y-89989914D01*
X115355666Y-89989914D02*
X115450904Y-90037533D01*
X114498523Y-89847057D02*
X114450904Y-89799438D01*
X114450904Y-89799438D02*
X114355666Y-89751819D01*
X114355666Y-89751819D02*
X114117571Y-89751819D01*
X114117571Y-89751819D02*
X114022333Y-89799438D01*
X114022333Y-89799438D02*
X113974714Y-89847057D01*
X113974714Y-89847057D02*
X113927095Y-89942295D01*
X113927095Y-89942295D02*
X113927095Y-90037533D01*
X113927095Y-90037533D02*
X113974714Y-90180390D01*
X113974714Y-90180390D02*
X114546142Y-90751819D01*
X114546142Y-90751819D02*
X113927095Y-90751819D01*
X135897857Y-77829580D02*
X135945476Y-77877200D01*
X135945476Y-77877200D02*
X136088333Y-77924819D01*
X136088333Y-77924819D02*
X136183571Y-77924819D01*
X136183571Y-77924819D02*
X136326428Y-77877200D01*
X136326428Y-77877200D02*
X136421666Y-77781961D01*
X136421666Y-77781961D02*
X136469285Y-77686723D01*
X136469285Y-77686723D02*
X136516904Y-77496247D01*
X136516904Y-77496247D02*
X136516904Y-77353390D01*
X136516904Y-77353390D02*
X136469285Y-77162914D01*
X136469285Y-77162914D02*
X136421666Y-77067676D01*
X136421666Y-77067676D02*
X136326428Y-76972438D01*
X136326428Y-76972438D02*
X136183571Y-76924819D01*
X136183571Y-76924819D02*
X136088333Y-76924819D01*
X136088333Y-76924819D02*
X135945476Y-76972438D01*
X135945476Y-76972438D02*
X135897857Y-77020057D01*
X134945476Y-77924819D02*
X135516904Y-77924819D01*
X135231190Y-77924819D02*
X135231190Y-76924819D01*
X135231190Y-76924819D02*
X135326428Y-77067676D01*
X135326428Y-77067676D02*
X135421666Y-77162914D01*
X135421666Y-77162914D02*
X135516904Y-77210533D01*
X134374047Y-77353390D02*
X134469285Y-77305771D01*
X134469285Y-77305771D02*
X134516904Y-77258152D01*
X134516904Y-77258152D02*
X134564523Y-77162914D01*
X134564523Y-77162914D02*
X134564523Y-77115295D01*
X134564523Y-77115295D02*
X134516904Y-77020057D01*
X134516904Y-77020057D02*
X134469285Y-76972438D01*
X134469285Y-76972438D02*
X134374047Y-76924819D01*
X134374047Y-76924819D02*
X134183571Y-76924819D01*
X134183571Y-76924819D02*
X134088333Y-76972438D01*
X134088333Y-76972438D02*
X134040714Y-77020057D01*
X134040714Y-77020057D02*
X133993095Y-77115295D01*
X133993095Y-77115295D02*
X133993095Y-77162914D01*
X133993095Y-77162914D02*
X134040714Y-77258152D01*
X134040714Y-77258152D02*
X134088333Y-77305771D01*
X134088333Y-77305771D02*
X134183571Y-77353390D01*
X134183571Y-77353390D02*
X134374047Y-77353390D01*
X134374047Y-77353390D02*
X134469285Y-77401009D01*
X134469285Y-77401009D02*
X134516904Y-77448628D01*
X134516904Y-77448628D02*
X134564523Y-77543866D01*
X134564523Y-77543866D02*
X134564523Y-77734342D01*
X134564523Y-77734342D02*
X134516904Y-77829580D01*
X134516904Y-77829580D02*
X134469285Y-77877200D01*
X134469285Y-77877200D02*
X134374047Y-77924819D01*
X134374047Y-77924819D02*
X134183571Y-77924819D01*
X134183571Y-77924819D02*
X134088333Y-77877200D01*
X134088333Y-77877200D02*
X134040714Y-77829580D01*
X134040714Y-77829580D02*
X133993095Y-77734342D01*
X133993095Y-77734342D02*
X133993095Y-77543866D01*
X133993095Y-77543866D02*
X134040714Y-77448628D01*
X134040714Y-77448628D02*
X134088333Y-77401009D01*
X134088333Y-77401009D02*
X134183571Y-77353390D01*
X166377857Y-84179580D02*
X166425476Y-84227200D01*
X166425476Y-84227200D02*
X166568333Y-84274819D01*
X166568333Y-84274819D02*
X166663571Y-84274819D01*
X166663571Y-84274819D02*
X166806428Y-84227200D01*
X166806428Y-84227200D02*
X166901666Y-84131961D01*
X166901666Y-84131961D02*
X166949285Y-84036723D01*
X166949285Y-84036723D02*
X166996904Y-83846247D01*
X166996904Y-83846247D02*
X166996904Y-83703390D01*
X166996904Y-83703390D02*
X166949285Y-83512914D01*
X166949285Y-83512914D02*
X166901666Y-83417676D01*
X166901666Y-83417676D02*
X166806428Y-83322438D01*
X166806428Y-83322438D02*
X166663571Y-83274819D01*
X166663571Y-83274819D02*
X166568333Y-83274819D01*
X166568333Y-83274819D02*
X166425476Y-83322438D01*
X166425476Y-83322438D02*
X166377857Y-83370057D01*
X165996904Y-83370057D02*
X165949285Y-83322438D01*
X165949285Y-83322438D02*
X165854047Y-83274819D01*
X165854047Y-83274819D02*
X165615952Y-83274819D01*
X165615952Y-83274819D02*
X165520714Y-83322438D01*
X165520714Y-83322438D02*
X165473095Y-83370057D01*
X165473095Y-83370057D02*
X165425476Y-83465295D01*
X165425476Y-83465295D02*
X165425476Y-83560533D01*
X165425476Y-83560533D02*
X165473095Y-83703390D01*
X165473095Y-83703390D02*
X166044523Y-84274819D01*
X166044523Y-84274819D02*
X165425476Y-84274819D01*
X164949285Y-84274819D02*
X164758809Y-84274819D01*
X164758809Y-84274819D02*
X164663571Y-84227200D01*
X164663571Y-84227200D02*
X164615952Y-84179580D01*
X164615952Y-84179580D02*
X164520714Y-84036723D01*
X164520714Y-84036723D02*
X164473095Y-83846247D01*
X164473095Y-83846247D02*
X164473095Y-83465295D01*
X164473095Y-83465295D02*
X164520714Y-83370057D01*
X164520714Y-83370057D02*
X164568333Y-83322438D01*
X164568333Y-83322438D02*
X164663571Y-83274819D01*
X164663571Y-83274819D02*
X164854047Y-83274819D01*
X164854047Y-83274819D02*
X164949285Y-83322438D01*
X164949285Y-83322438D02*
X164996904Y-83370057D01*
X164996904Y-83370057D02*
X165044523Y-83465295D01*
X165044523Y-83465295D02*
X165044523Y-83703390D01*
X165044523Y-83703390D02*
X164996904Y-83798628D01*
X164996904Y-83798628D02*
X164949285Y-83846247D01*
X164949285Y-83846247D02*
X164854047Y-83893866D01*
X164854047Y-83893866D02*
X164663571Y-83893866D01*
X164663571Y-83893866D02*
X164568333Y-83846247D01*
X164568333Y-83846247D02*
X164520714Y-83798628D01*
X164520714Y-83798628D02*
X164473095Y-83703390D01*
X154947857Y-75289580D02*
X154995476Y-75337200D01*
X154995476Y-75337200D02*
X155138333Y-75384819D01*
X155138333Y-75384819D02*
X155233571Y-75384819D01*
X155233571Y-75384819D02*
X155376428Y-75337200D01*
X155376428Y-75337200D02*
X155471666Y-75241961D01*
X155471666Y-75241961D02*
X155519285Y-75146723D01*
X155519285Y-75146723D02*
X155566904Y-74956247D01*
X155566904Y-74956247D02*
X155566904Y-74813390D01*
X155566904Y-74813390D02*
X155519285Y-74622914D01*
X155519285Y-74622914D02*
X155471666Y-74527676D01*
X155471666Y-74527676D02*
X155376428Y-74432438D01*
X155376428Y-74432438D02*
X155233571Y-74384819D01*
X155233571Y-74384819D02*
X155138333Y-74384819D01*
X155138333Y-74384819D02*
X154995476Y-74432438D01*
X154995476Y-74432438D02*
X154947857Y-74480057D01*
X154566904Y-74480057D02*
X154519285Y-74432438D01*
X154519285Y-74432438D02*
X154424047Y-74384819D01*
X154424047Y-74384819D02*
X154185952Y-74384819D01*
X154185952Y-74384819D02*
X154090714Y-74432438D01*
X154090714Y-74432438D02*
X154043095Y-74480057D01*
X154043095Y-74480057D02*
X153995476Y-74575295D01*
X153995476Y-74575295D02*
X153995476Y-74670533D01*
X153995476Y-74670533D02*
X154043095Y-74813390D01*
X154043095Y-74813390D02*
X154614523Y-75384819D01*
X154614523Y-75384819D02*
X153995476Y-75384819D01*
X153138333Y-74718152D02*
X153138333Y-75384819D01*
X153376428Y-74337200D02*
X153614523Y-75051485D01*
X153614523Y-75051485D02*
X152995476Y-75051485D01*
X152407857Y-88116580D02*
X152455476Y-88164200D01*
X152455476Y-88164200D02*
X152598333Y-88211819D01*
X152598333Y-88211819D02*
X152693571Y-88211819D01*
X152693571Y-88211819D02*
X152836428Y-88164200D01*
X152836428Y-88164200D02*
X152931666Y-88068961D01*
X152931666Y-88068961D02*
X152979285Y-87973723D01*
X152979285Y-87973723D02*
X153026904Y-87783247D01*
X153026904Y-87783247D02*
X153026904Y-87640390D01*
X153026904Y-87640390D02*
X152979285Y-87449914D01*
X152979285Y-87449914D02*
X152931666Y-87354676D01*
X152931666Y-87354676D02*
X152836428Y-87259438D01*
X152836428Y-87259438D02*
X152693571Y-87211819D01*
X152693571Y-87211819D02*
X152598333Y-87211819D01*
X152598333Y-87211819D02*
X152455476Y-87259438D01*
X152455476Y-87259438D02*
X152407857Y-87307057D01*
X152026904Y-87307057D02*
X151979285Y-87259438D01*
X151979285Y-87259438D02*
X151884047Y-87211819D01*
X151884047Y-87211819D02*
X151645952Y-87211819D01*
X151645952Y-87211819D02*
X151550714Y-87259438D01*
X151550714Y-87259438D02*
X151503095Y-87307057D01*
X151503095Y-87307057D02*
X151455476Y-87402295D01*
X151455476Y-87402295D02*
X151455476Y-87497533D01*
X151455476Y-87497533D02*
X151503095Y-87640390D01*
X151503095Y-87640390D02*
X152074523Y-88211819D01*
X152074523Y-88211819D02*
X151455476Y-88211819D01*
X150598333Y-87211819D02*
X150788809Y-87211819D01*
X150788809Y-87211819D02*
X150884047Y-87259438D01*
X150884047Y-87259438D02*
X150931666Y-87307057D01*
X150931666Y-87307057D02*
X151026904Y-87449914D01*
X151026904Y-87449914D02*
X151074523Y-87640390D01*
X151074523Y-87640390D02*
X151074523Y-88021342D01*
X151074523Y-88021342D02*
X151026904Y-88116580D01*
X151026904Y-88116580D02*
X150979285Y-88164200D01*
X150979285Y-88164200D02*
X150884047Y-88211819D01*
X150884047Y-88211819D02*
X150693571Y-88211819D01*
X150693571Y-88211819D02*
X150598333Y-88164200D01*
X150598333Y-88164200D02*
X150550714Y-88116580D01*
X150550714Y-88116580D02*
X150503095Y-88021342D01*
X150503095Y-88021342D02*
X150503095Y-87783247D01*
X150503095Y-87783247D02*
X150550714Y-87688009D01*
X150550714Y-87688009D02*
X150598333Y-87640390D01*
X150598333Y-87640390D02*
X150693571Y-87592771D01*
X150693571Y-87592771D02*
X150884047Y-87592771D01*
X150884047Y-87592771D02*
X150979285Y-87640390D01*
X150979285Y-87640390D02*
X151026904Y-87688009D01*
X151026904Y-87688009D02*
X151074523Y-87783247D01*
X117641666Y-77829580D02*
X117689285Y-77877200D01*
X117689285Y-77877200D02*
X117832142Y-77924819D01*
X117832142Y-77924819D02*
X117927380Y-77924819D01*
X117927380Y-77924819D02*
X118070237Y-77877200D01*
X118070237Y-77877200D02*
X118165475Y-77781961D01*
X118165475Y-77781961D02*
X118213094Y-77686723D01*
X118213094Y-77686723D02*
X118260713Y-77496247D01*
X118260713Y-77496247D02*
X118260713Y-77353390D01*
X118260713Y-77353390D02*
X118213094Y-77162914D01*
X118213094Y-77162914D02*
X118165475Y-77067676D01*
X118165475Y-77067676D02*
X118070237Y-76972438D01*
X118070237Y-76972438D02*
X117927380Y-76924819D01*
X117927380Y-76924819D02*
X117832142Y-76924819D01*
X117832142Y-76924819D02*
X117689285Y-76972438D01*
X117689285Y-76972438D02*
X117641666Y-77020057D01*
X116784523Y-76924819D02*
X116974999Y-76924819D01*
X116974999Y-76924819D02*
X117070237Y-76972438D01*
X117070237Y-76972438D02*
X117117856Y-77020057D01*
X117117856Y-77020057D02*
X117213094Y-77162914D01*
X117213094Y-77162914D02*
X117260713Y-77353390D01*
X117260713Y-77353390D02*
X117260713Y-77734342D01*
X117260713Y-77734342D02*
X117213094Y-77829580D01*
X117213094Y-77829580D02*
X117165475Y-77877200D01*
X117165475Y-77877200D02*
X117070237Y-77924819D01*
X117070237Y-77924819D02*
X116879761Y-77924819D01*
X116879761Y-77924819D02*
X116784523Y-77877200D01*
X116784523Y-77877200D02*
X116736904Y-77829580D01*
X116736904Y-77829580D02*
X116689285Y-77734342D01*
X116689285Y-77734342D02*
X116689285Y-77496247D01*
X116689285Y-77496247D02*
X116736904Y-77401009D01*
X116736904Y-77401009D02*
X116784523Y-77353390D01*
X116784523Y-77353390D02*
X116879761Y-77305771D01*
X116879761Y-77305771D02*
X117070237Y-77305771D01*
X117070237Y-77305771D02*
X117165475Y-77353390D01*
X117165475Y-77353390D02*
X117213094Y-77401009D01*
X117213094Y-77401009D02*
X117260713Y-77496247D01*
X134627857Y-87989580D02*
X134675476Y-88037200D01*
X134675476Y-88037200D02*
X134818333Y-88084819D01*
X134818333Y-88084819D02*
X134913571Y-88084819D01*
X134913571Y-88084819D02*
X135056428Y-88037200D01*
X135056428Y-88037200D02*
X135151666Y-87941961D01*
X135151666Y-87941961D02*
X135199285Y-87846723D01*
X135199285Y-87846723D02*
X135246904Y-87656247D01*
X135246904Y-87656247D02*
X135246904Y-87513390D01*
X135246904Y-87513390D02*
X135199285Y-87322914D01*
X135199285Y-87322914D02*
X135151666Y-87227676D01*
X135151666Y-87227676D02*
X135056428Y-87132438D01*
X135056428Y-87132438D02*
X134913571Y-87084819D01*
X134913571Y-87084819D02*
X134818333Y-87084819D01*
X134818333Y-87084819D02*
X134675476Y-87132438D01*
X134675476Y-87132438D02*
X134627857Y-87180057D01*
X133675476Y-88084819D02*
X134246904Y-88084819D01*
X133961190Y-88084819D02*
X133961190Y-87084819D01*
X133961190Y-87084819D02*
X134056428Y-87227676D01*
X134056428Y-87227676D02*
X134151666Y-87322914D01*
X134151666Y-87322914D02*
X134246904Y-87370533D01*
X132818333Y-87418152D02*
X132818333Y-88084819D01*
X133056428Y-87037200D02*
X133294523Y-87751485D01*
X133294523Y-87751485D02*
X132675476Y-87751485D01*
X111251904Y-91529819D02*
X111251904Y-92339342D01*
X111251904Y-92339342D02*
X111204285Y-92434580D01*
X111204285Y-92434580D02*
X111156666Y-92482200D01*
X111156666Y-92482200D02*
X111061428Y-92529819D01*
X111061428Y-92529819D02*
X110870952Y-92529819D01*
X110870952Y-92529819D02*
X110775714Y-92482200D01*
X110775714Y-92482200D02*
X110728095Y-92434580D01*
X110728095Y-92434580D02*
X110680476Y-92339342D01*
X110680476Y-92339342D02*
X110680476Y-91529819D01*
X109775714Y-91529819D02*
X109966190Y-91529819D01*
X109966190Y-91529819D02*
X110061428Y-91577438D01*
X110061428Y-91577438D02*
X110109047Y-91625057D01*
X110109047Y-91625057D02*
X110204285Y-91767914D01*
X110204285Y-91767914D02*
X110251904Y-91958390D01*
X110251904Y-91958390D02*
X110251904Y-92339342D01*
X110251904Y-92339342D02*
X110204285Y-92434580D01*
X110204285Y-92434580D02*
X110156666Y-92482200D01*
X110156666Y-92482200D02*
X110061428Y-92529819D01*
X110061428Y-92529819D02*
X109870952Y-92529819D01*
X109870952Y-92529819D02*
X109775714Y-92482200D01*
X109775714Y-92482200D02*
X109728095Y-92434580D01*
X109728095Y-92434580D02*
X109680476Y-92339342D01*
X109680476Y-92339342D02*
X109680476Y-92101247D01*
X109680476Y-92101247D02*
X109728095Y-92006009D01*
X109728095Y-92006009D02*
X109775714Y-91958390D01*
X109775714Y-91958390D02*
X109870952Y-91910771D01*
X109870952Y-91910771D02*
X110061428Y-91910771D01*
X110061428Y-91910771D02*
X110156666Y-91958390D01*
X110156666Y-91958390D02*
X110204285Y-92006009D01*
X110204285Y-92006009D02*
X110251904Y-92101247D01*
X108163809Y-88037200D02*
X108020952Y-88084819D01*
X108020952Y-88084819D02*
X107782857Y-88084819D01*
X107782857Y-88084819D02*
X107687619Y-88037200D01*
X107687619Y-88037200D02*
X107640000Y-87989580D01*
X107640000Y-87989580D02*
X107592381Y-87894342D01*
X107592381Y-87894342D02*
X107592381Y-87799104D01*
X107592381Y-87799104D02*
X107640000Y-87703866D01*
X107640000Y-87703866D02*
X107687619Y-87656247D01*
X107687619Y-87656247D02*
X107782857Y-87608628D01*
X107782857Y-87608628D02*
X107973333Y-87561009D01*
X107973333Y-87561009D02*
X108068571Y-87513390D01*
X108068571Y-87513390D02*
X108116190Y-87465771D01*
X108116190Y-87465771D02*
X108163809Y-87370533D01*
X108163809Y-87370533D02*
X108163809Y-87275295D01*
X108163809Y-87275295D02*
X108116190Y-87180057D01*
X108116190Y-87180057D02*
X108068571Y-87132438D01*
X108068571Y-87132438D02*
X107973333Y-87084819D01*
X107973333Y-87084819D02*
X107735238Y-87084819D01*
X107735238Y-87084819D02*
X107592381Y-87132438D01*
X107163809Y-88084819D02*
X107163809Y-87084819D01*
X107163809Y-87084819D02*
X106782857Y-87084819D01*
X106782857Y-87084819D02*
X106687619Y-87132438D01*
X106687619Y-87132438D02*
X106640000Y-87180057D01*
X106640000Y-87180057D02*
X106592381Y-87275295D01*
X106592381Y-87275295D02*
X106592381Y-87418152D01*
X106592381Y-87418152D02*
X106640000Y-87513390D01*
X106640000Y-87513390D02*
X106687619Y-87561009D01*
X106687619Y-87561009D02*
X106782857Y-87608628D01*
X106782857Y-87608628D02*
X107163809Y-87608628D01*
X106259047Y-87084819D02*
X105640000Y-87084819D01*
X105640000Y-87084819D02*
X105973333Y-87465771D01*
X105973333Y-87465771D02*
X105830476Y-87465771D01*
X105830476Y-87465771D02*
X105735238Y-87513390D01*
X105735238Y-87513390D02*
X105687619Y-87561009D01*
X105687619Y-87561009D02*
X105640000Y-87656247D01*
X105640000Y-87656247D02*
X105640000Y-87894342D01*
X105640000Y-87894342D02*
X105687619Y-87989580D01*
X105687619Y-87989580D02*
X105735238Y-88037200D01*
X105735238Y-88037200D02*
X105830476Y-88084819D01*
X105830476Y-88084819D02*
X106116190Y-88084819D01*
X106116190Y-88084819D02*
X106211428Y-88037200D01*
X106211428Y-88037200D02*
X106259047Y-87989580D01*
X105259047Y-87180057D02*
X105211428Y-87132438D01*
X105211428Y-87132438D02*
X105116190Y-87084819D01*
X105116190Y-87084819D02*
X104878095Y-87084819D01*
X104878095Y-87084819D02*
X104782857Y-87132438D01*
X104782857Y-87132438D02*
X104735238Y-87180057D01*
X104735238Y-87180057D02*
X104687619Y-87275295D01*
X104687619Y-87275295D02*
X104687619Y-87370533D01*
X104687619Y-87370533D02*
X104735238Y-87513390D01*
X104735238Y-87513390D02*
X105306666Y-88084819D01*
X105306666Y-88084819D02*
X104687619Y-88084819D01*
X103830476Y-87418152D02*
X103830476Y-88084819D01*
X104068571Y-87037200D02*
X104306666Y-87751485D01*
X104306666Y-87751485D02*
X103687619Y-87751485D01*
X103401904Y-87084819D02*
X102782857Y-87084819D01*
X102782857Y-87084819D02*
X103116190Y-87465771D01*
X103116190Y-87465771D02*
X102973333Y-87465771D01*
X102973333Y-87465771D02*
X102878095Y-87513390D01*
X102878095Y-87513390D02*
X102830476Y-87561009D01*
X102830476Y-87561009D02*
X102782857Y-87656247D01*
X102782857Y-87656247D02*
X102782857Y-87894342D01*
X102782857Y-87894342D02*
X102830476Y-87989580D01*
X102830476Y-87989580D02*
X102878095Y-88037200D01*
X102878095Y-88037200D02*
X102973333Y-88084819D01*
X102973333Y-88084819D02*
X103259047Y-88084819D01*
X103259047Y-88084819D02*
X103354285Y-88037200D01*
X103354285Y-88037200D02*
X103401904Y-87989580D01*
X102354285Y-87561009D02*
X102020952Y-87561009D01*
X101878095Y-88084819D02*
X102354285Y-88084819D01*
X102354285Y-88084819D02*
X102354285Y-87084819D01*
X102354285Y-87084819D02*
X101878095Y-87084819D01*
X101449523Y-87561009D02*
X101116190Y-87561009D01*
X100973333Y-88084819D02*
X101449523Y-88084819D01*
X101449523Y-88084819D02*
X101449523Y-87084819D01*
X101449523Y-87084819D02*
X100973333Y-87084819D01*
X100354285Y-87608628D02*
X100354285Y-88084819D01*
X100687618Y-87084819D02*
X100354285Y-87608628D01*
X100354285Y-87608628D02*
X100020952Y-87084819D01*
X166377857Y-81639580D02*
X166425476Y-81687200D01*
X166425476Y-81687200D02*
X166568333Y-81734819D01*
X166568333Y-81734819D02*
X166663571Y-81734819D01*
X166663571Y-81734819D02*
X166806428Y-81687200D01*
X166806428Y-81687200D02*
X166901666Y-81591961D01*
X166901666Y-81591961D02*
X166949285Y-81496723D01*
X166949285Y-81496723D02*
X166996904Y-81306247D01*
X166996904Y-81306247D02*
X166996904Y-81163390D01*
X166996904Y-81163390D02*
X166949285Y-80972914D01*
X166949285Y-80972914D02*
X166901666Y-80877676D01*
X166901666Y-80877676D02*
X166806428Y-80782438D01*
X166806428Y-80782438D02*
X166663571Y-80734819D01*
X166663571Y-80734819D02*
X166568333Y-80734819D01*
X166568333Y-80734819D02*
X166425476Y-80782438D01*
X166425476Y-80782438D02*
X166377857Y-80830057D01*
X165996904Y-80830057D02*
X165949285Y-80782438D01*
X165949285Y-80782438D02*
X165854047Y-80734819D01*
X165854047Y-80734819D02*
X165615952Y-80734819D01*
X165615952Y-80734819D02*
X165520714Y-80782438D01*
X165520714Y-80782438D02*
X165473095Y-80830057D01*
X165473095Y-80830057D02*
X165425476Y-80925295D01*
X165425476Y-80925295D02*
X165425476Y-81020533D01*
X165425476Y-81020533D02*
X165473095Y-81163390D01*
X165473095Y-81163390D02*
X166044523Y-81734819D01*
X166044523Y-81734819D02*
X165425476Y-81734819D01*
X164473095Y-81734819D02*
X165044523Y-81734819D01*
X164758809Y-81734819D02*
X164758809Y-80734819D01*
X164758809Y-80734819D02*
X164854047Y-80877676D01*
X164854047Y-80877676D02*
X164949285Y-80972914D01*
X164949285Y-80972914D02*
X165044523Y-81020533D01*
X134627857Y-90529580D02*
X134675476Y-90577200D01*
X134675476Y-90577200D02*
X134818333Y-90624819D01*
X134818333Y-90624819D02*
X134913571Y-90624819D01*
X134913571Y-90624819D02*
X135056428Y-90577200D01*
X135056428Y-90577200D02*
X135151666Y-90481961D01*
X135151666Y-90481961D02*
X135199285Y-90386723D01*
X135199285Y-90386723D02*
X135246904Y-90196247D01*
X135246904Y-90196247D02*
X135246904Y-90053390D01*
X135246904Y-90053390D02*
X135199285Y-89862914D01*
X135199285Y-89862914D02*
X135151666Y-89767676D01*
X135151666Y-89767676D02*
X135056428Y-89672438D01*
X135056428Y-89672438D02*
X134913571Y-89624819D01*
X134913571Y-89624819D02*
X134818333Y-89624819D01*
X134818333Y-89624819D02*
X134675476Y-89672438D01*
X134675476Y-89672438D02*
X134627857Y-89720057D01*
X133675476Y-90624819D02*
X134246904Y-90624819D01*
X133961190Y-90624819D02*
X133961190Y-89624819D01*
X133961190Y-89624819D02*
X134056428Y-89767676D01*
X134056428Y-89767676D02*
X134151666Y-89862914D01*
X134151666Y-89862914D02*
X134246904Y-89910533D01*
X132818333Y-89624819D02*
X133008809Y-89624819D01*
X133008809Y-89624819D02*
X133104047Y-89672438D01*
X133104047Y-89672438D02*
X133151666Y-89720057D01*
X133151666Y-89720057D02*
X133246904Y-89862914D01*
X133246904Y-89862914D02*
X133294523Y-90053390D01*
X133294523Y-90053390D02*
X133294523Y-90434342D01*
X133294523Y-90434342D02*
X133246904Y-90529580D01*
X133246904Y-90529580D02*
X133199285Y-90577200D01*
X133199285Y-90577200D02*
X133104047Y-90624819D01*
X133104047Y-90624819D02*
X132913571Y-90624819D01*
X132913571Y-90624819D02*
X132818333Y-90577200D01*
X132818333Y-90577200D02*
X132770714Y-90529580D01*
X132770714Y-90529580D02*
X132723095Y-90434342D01*
X132723095Y-90434342D02*
X132723095Y-90196247D01*
X132723095Y-90196247D02*
X132770714Y-90101009D01*
X132770714Y-90101009D02*
X132818333Y-90053390D01*
X132818333Y-90053390D02*
X132913571Y-90005771D01*
X132913571Y-90005771D02*
X133104047Y-90005771D01*
X133104047Y-90005771D02*
X133199285Y-90053390D01*
X133199285Y-90053390D02*
X133246904Y-90101009D01*
X133246904Y-90101009D02*
X133294523Y-90196247D01*
X135897857Y-75289580D02*
X135945476Y-75337200D01*
X135945476Y-75337200D02*
X136088333Y-75384819D01*
X136088333Y-75384819D02*
X136183571Y-75384819D01*
X136183571Y-75384819D02*
X136326428Y-75337200D01*
X136326428Y-75337200D02*
X136421666Y-75241961D01*
X136421666Y-75241961D02*
X136469285Y-75146723D01*
X136469285Y-75146723D02*
X136516904Y-74956247D01*
X136516904Y-74956247D02*
X136516904Y-74813390D01*
X136516904Y-74813390D02*
X136469285Y-74622914D01*
X136469285Y-74622914D02*
X136421666Y-74527676D01*
X136421666Y-74527676D02*
X136326428Y-74432438D01*
X136326428Y-74432438D02*
X136183571Y-74384819D01*
X136183571Y-74384819D02*
X136088333Y-74384819D01*
X136088333Y-74384819D02*
X135945476Y-74432438D01*
X135945476Y-74432438D02*
X135897857Y-74480057D01*
X135516904Y-74480057D02*
X135469285Y-74432438D01*
X135469285Y-74432438D02*
X135374047Y-74384819D01*
X135374047Y-74384819D02*
X135135952Y-74384819D01*
X135135952Y-74384819D02*
X135040714Y-74432438D01*
X135040714Y-74432438D02*
X134993095Y-74480057D01*
X134993095Y-74480057D02*
X134945476Y-74575295D01*
X134945476Y-74575295D02*
X134945476Y-74670533D01*
X134945476Y-74670533D02*
X134993095Y-74813390D01*
X134993095Y-74813390D02*
X135564523Y-75384819D01*
X135564523Y-75384819D02*
X134945476Y-75384819D01*
X134326428Y-74384819D02*
X134231190Y-74384819D01*
X134231190Y-74384819D02*
X134135952Y-74432438D01*
X134135952Y-74432438D02*
X134088333Y-74480057D01*
X134088333Y-74480057D02*
X134040714Y-74575295D01*
X134040714Y-74575295D02*
X133993095Y-74765771D01*
X133993095Y-74765771D02*
X133993095Y-75003866D01*
X133993095Y-75003866D02*
X134040714Y-75194342D01*
X134040714Y-75194342D02*
X134088333Y-75289580D01*
X134088333Y-75289580D02*
X134135952Y-75337200D01*
X134135952Y-75337200D02*
X134231190Y-75384819D01*
X134231190Y-75384819D02*
X134326428Y-75384819D01*
X134326428Y-75384819D02*
X134421666Y-75337200D01*
X134421666Y-75337200D02*
X134469285Y-75289580D01*
X134469285Y-75289580D02*
X134516904Y-75194342D01*
X134516904Y-75194342D02*
X134564523Y-75003866D01*
X134564523Y-75003866D02*
X134564523Y-74765771D01*
X134564523Y-74765771D02*
X134516904Y-74575295D01*
X134516904Y-74575295D02*
X134469285Y-74480057D01*
X134469285Y-74480057D02*
X134421666Y-74432438D01*
X134421666Y-74432438D02*
X134326428Y-74384819D01*
X130182857Y-84179580D02*
X130230476Y-84227200D01*
X130230476Y-84227200D02*
X130373333Y-84274819D01*
X130373333Y-84274819D02*
X130468571Y-84274819D01*
X130468571Y-84274819D02*
X130611428Y-84227200D01*
X130611428Y-84227200D02*
X130706666Y-84131961D01*
X130706666Y-84131961D02*
X130754285Y-84036723D01*
X130754285Y-84036723D02*
X130801904Y-83846247D01*
X130801904Y-83846247D02*
X130801904Y-83703390D01*
X130801904Y-83703390D02*
X130754285Y-83512914D01*
X130754285Y-83512914D02*
X130706666Y-83417676D01*
X130706666Y-83417676D02*
X130611428Y-83322438D01*
X130611428Y-83322438D02*
X130468571Y-83274819D01*
X130468571Y-83274819D02*
X130373333Y-83274819D01*
X130373333Y-83274819D02*
X130230476Y-83322438D01*
X130230476Y-83322438D02*
X130182857Y-83370057D01*
X129230476Y-84274819D02*
X129801904Y-84274819D01*
X129516190Y-84274819D02*
X129516190Y-83274819D01*
X129516190Y-83274819D02*
X129611428Y-83417676D01*
X129611428Y-83417676D02*
X129706666Y-83512914D01*
X129706666Y-83512914D02*
X129801904Y-83560533D01*
X128897142Y-83274819D02*
X128278095Y-83274819D01*
X128278095Y-83274819D02*
X128611428Y-83655771D01*
X128611428Y-83655771D02*
X128468571Y-83655771D01*
X128468571Y-83655771D02*
X128373333Y-83703390D01*
X128373333Y-83703390D02*
X128325714Y-83751009D01*
X128325714Y-83751009D02*
X128278095Y-83846247D01*
X128278095Y-83846247D02*
X128278095Y-84084342D01*
X128278095Y-84084342D02*
X128325714Y-84179580D01*
X128325714Y-84179580D02*
X128373333Y-84227200D01*
X128373333Y-84227200D02*
X128468571Y-84274819D01*
X128468571Y-84274819D02*
X128754285Y-84274819D01*
X128754285Y-84274819D02*
X128849523Y-84227200D01*
X128849523Y-84227200D02*
X128897142Y-84179580D01*
X78464580Y-111752142D02*
X78512200Y-111704523D01*
X78512200Y-111704523D02*
X78559819Y-111561666D01*
X78559819Y-111561666D02*
X78559819Y-111466428D01*
X78559819Y-111466428D02*
X78512200Y-111323571D01*
X78512200Y-111323571D02*
X78416961Y-111228333D01*
X78416961Y-111228333D02*
X78321723Y-111180714D01*
X78321723Y-111180714D02*
X78131247Y-111133095D01*
X78131247Y-111133095D02*
X77988390Y-111133095D01*
X77988390Y-111133095D02*
X77797914Y-111180714D01*
X77797914Y-111180714D02*
X77702676Y-111228333D01*
X77702676Y-111228333D02*
X77607438Y-111323571D01*
X77607438Y-111323571D02*
X77559819Y-111466428D01*
X77559819Y-111466428D02*
X77559819Y-111561666D01*
X77559819Y-111561666D02*
X77607438Y-111704523D01*
X77607438Y-111704523D02*
X77655057Y-111752142D01*
X77893152Y-112609285D02*
X78559819Y-112609285D01*
X77512200Y-112371190D02*
X78226485Y-112133095D01*
X78226485Y-112133095D02*
X78226485Y-112752142D01*
X77559819Y-113561666D02*
X77559819Y-113371190D01*
X77559819Y-113371190D02*
X77607438Y-113275952D01*
X77607438Y-113275952D02*
X77655057Y-113228333D01*
X77655057Y-113228333D02*
X77797914Y-113133095D01*
X77797914Y-113133095D02*
X77988390Y-113085476D01*
X77988390Y-113085476D02*
X78369342Y-113085476D01*
X78369342Y-113085476D02*
X78464580Y-113133095D01*
X78464580Y-113133095D02*
X78512200Y-113180714D01*
X78512200Y-113180714D02*
X78559819Y-113275952D01*
X78559819Y-113275952D02*
X78559819Y-113466428D01*
X78559819Y-113466428D02*
X78512200Y-113561666D01*
X78512200Y-113561666D02*
X78464580Y-113609285D01*
X78464580Y-113609285D02*
X78369342Y-113656904D01*
X78369342Y-113656904D02*
X78131247Y-113656904D01*
X78131247Y-113656904D02*
X78036009Y-113609285D01*
X78036009Y-113609285D02*
X77988390Y-113561666D01*
X77988390Y-113561666D02*
X77940771Y-113466428D01*
X77940771Y-113466428D02*
X77940771Y-113275952D01*
X77940771Y-113275952D02*
X77988390Y-113180714D01*
X77988390Y-113180714D02*
X78036009Y-113133095D01*
X78036009Y-113133095D02*
X78131247Y-113085476D01*
X80613094Y-109182819D02*
X80613094Y-109992342D01*
X80613094Y-109992342D02*
X80565475Y-110087580D01*
X80565475Y-110087580D02*
X80517856Y-110135200D01*
X80517856Y-110135200D02*
X80422618Y-110182819D01*
X80422618Y-110182819D02*
X80232142Y-110182819D01*
X80232142Y-110182819D02*
X80136904Y-110135200D01*
X80136904Y-110135200D02*
X80089285Y-110087580D01*
X80089285Y-110087580D02*
X80041666Y-109992342D01*
X80041666Y-109992342D02*
X80041666Y-109182819D01*
X79041666Y-110182819D02*
X79613094Y-110182819D01*
X79327380Y-110182819D02*
X79327380Y-109182819D01*
X79327380Y-109182819D02*
X79422618Y-109325676D01*
X79422618Y-109325676D02*
X79517856Y-109420914D01*
X79517856Y-109420914D02*
X79613094Y-109468533D01*
X78708332Y-109182819D02*
X78089285Y-109182819D01*
X78089285Y-109182819D02*
X78422618Y-109563771D01*
X78422618Y-109563771D02*
X78279761Y-109563771D01*
X78279761Y-109563771D02*
X78184523Y-109611390D01*
X78184523Y-109611390D02*
X78136904Y-109659009D01*
X78136904Y-109659009D02*
X78089285Y-109754247D01*
X78089285Y-109754247D02*
X78089285Y-109992342D01*
X78089285Y-109992342D02*
X78136904Y-110087580D01*
X78136904Y-110087580D02*
X78184523Y-110135200D01*
X78184523Y-110135200D02*
X78279761Y-110182819D01*
X78279761Y-110182819D02*
X78565475Y-110182819D01*
X78565475Y-110182819D02*
X78660713Y-110135200D01*
X78660713Y-110135200D02*
X78708332Y-110087580D01*
X89796428Y-111849819D02*
X89129762Y-111849819D01*
X89129762Y-111849819D02*
X89558333Y-112849819D01*
X88320238Y-112183152D02*
X88320238Y-112849819D01*
X88558333Y-111802200D02*
X88796428Y-112516485D01*
X88796428Y-112516485D02*
X88177381Y-112516485D01*
X87844047Y-112564104D02*
X87367857Y-112564104D01*
X87939285Y-112849819D02*
X87605952Y-111849819D01*
X87605952Y-111849819D02*
X87272619Y-112849819D01*
X86939285Y-112849819D02*
X86939285Y-111849819D01*
X86939285Y-112326009D02*
X86367857Y-112326009D01*
X86367857Y-112849819D02*
X86367857Y-111849819D01*
X85320238Y-112754580D02*
X85367857Y-112802200D01*
X85367857Y-112802200D02*
X85510714Y-112849819D01*
X85510714Y-112849819D02*
X85605952Y-112849819D01*
X85605952Y-112849819D02*
X85748809Y-112802200D01*
X85748809Y-112802200D02*
X85844047Y-112706961D01*
X85844047Y-112706961D02*
X85891666Y-112611723D01*
X85891666Y-112611723D02*
X85939285Y-112421247D01*
X85939285Y-112421247D02*
X85939285Y-112278390D01*
X85939285Y-112278390D02*
X85891666Y-112087914D01*
X85891666Y-112087914D02*
X85844047Y-111992676D01*
X85844047Y-111992676D02*
X85748809Y-111897438D01*
X85748809Y-111897438D02*
X85605952Y-111849819D01*
X85605952Y-111849819D02*
X85510714Y-111849819D01*
X85510714Y-111849819D02*
X85367857Y-111897438D01*
X85367857Y-111897438D02*
X85320238Y-111945057D01*
X85034523Y-111849819D02*
X84463095Y-111849819D01*
X84748809Y-112849819D02*
X84748809Y-111849819D01*
X83605952Y-112849819D02*
X84177380Y-112849819D01*
X83891666Y-112849819D02*
X83891666Y-111849819D01*
X83891666Y-111849819D02*
X83986904Y-111992676D01*
X83986904Y-111992676D02*
X84082142Y-112087914D01*
X84082142Y-112087914D02*
X84177380Y-112135533D01*
X83224999Y-111945057D02*
X83177380Y-111897438D01*
X83177380Y-111897438D02*
X83082142Y-111849819D01*
X83082142Y-111849819D02*
X82844047Y-111849819D01*
X82844047Y-111849819D02*
X82748809Y-111897438D01*
X82748809Y-111897438D02*
X82701190Y-111945057D01*
X82701190Y-111945057D02*
X82653571Y-112040295D01*
X82653571Y-112040295D02*
X82653571Y-112135533D01*
X82653571Y-112135533D02*
X82701190Y-112278390D01*
X82701190Y-112278390D02*
X83272618Y-112849819D01*
X83272618Y-112849819D02*
X82653571Y-112849819D01*
X81748809Y-111849819D02*
X82224999Y-111849819D01*
X82224999Y-111849819D02*
X82272618Y-112326009D01*
X82272618Y-112326009D02*
X82224999Y-112278390D01*
X82224999Y-112278390D02*
X82129761Y-112230771D01*
X82129761Y-112230771D02*
X81891666Y-112230771D01*
X81891666Y-112230771D02*
X81796428Y-112278390D01*
X81796428Y-112278390D02*
X81748809Y-112326009D01*
X81748809Y-112326009D02*
X81701190Y-112421247D01*
X81701190Y-112421247D02*
X81701190Y-112659342D01*
X81701190Y-112659342D02*
X81748809Y-112754580D01*
X81748809Y-112754580D02*
X81796428Y-112802200D01*
X81796428Y-112802200D02*
X81891666Y-112849819D01*
X81891666Y-112849819D02*
X82129761Y-112849819D01*
X82129761Y-112849819D02*
X82224999Y-112802200D01*
X82224999Y-112802200D02*
X82272618Y-112754580D01*
X154947857Y-77829580D02*
X154995476Y-77877200D01*
X154995476Y-77877200D02*
X155138333Y-77924819D01*
X155138333Y-77924819D02*
X155233571Y-77924819D01*
X155233571Y-77924819D02*
X155376428Y-77877200D01*
X155376428Y-77877200D02*
X155471666Y-77781961D01*
X155471666Y-77781961D02*
X155519285Y-77686723D01*
X155519285Y-77686723D02*
X155566904Y-77496247D01*
X155566904Y-77496247D02*
X155566904Y-77353390D01*
X155566904Y-77353390D02*
X155519285Y-77162914D01*
X155519285Y-77162914D02*
X155471666Y-77067676D01*
X155471666Y-77067676D02*
X155376428Y-76972438D01*
X155376428Y-76972438D02*
X155233571Y-76924819D01*
X155233571Y-76924819D02*
X155138333Y-76924819D01*
X155138333Y-76924819D02*
X154995476Y-76972438D01*
X154995476Y-76972438D02*
X154947857Y-77020057D01*
X154566904Y-77020057D02*
X154519285Y-76972438D01*
X154519285Y-76972438D02*
X154424047Y-76924819D01*
X154424047Y-76924819D02*
X154185952Y-76924819D01*
X154185952Y-76924819D02*
X154090714Y-76972438D01*
X154090714Y-76972438D02*
X154043095Y-77020057D01*
X154043095Y-77020057D02*
X153995476Y-77115295D01*
X153995476Y-77115295D02*
X153995476Y-77210533D01*
X153995476Y-77210533D02*
X154043095Y-77353390D01*
X154043095Y-77353390D02*
X154614523Y-77924819D01*
X154614523Y-77924819D02*
X153995476Y-77924819D01*
X153614523Y-77020057D02*
X153566904Y-76972438D01*
X153566904Y-76972438D02*
X153471666Y-76924819D01*
X153471666Y-76924819D02*
X153233571Y-76924819D01*
X153233571Y-76924819D02*
X153138333Y-76972438D01*
X153138333Y-76972438D02*
X153090714Y-77020057D01*
X153090714Y-77020057D02*
X153043095Y-77115295D01*
X153043095Y-77115295D02*
X153043095Y-77210533D01*
X153043095Y-77210533D02*
X153090714Y-77353390D01*
X153090714Y-77353390D02*
X153662142Y-77924819D01*
X153662142Y-77924819D02*
X153043095Y-77924819D01*
X130301904Y-91529819D02*
X130301904Y-92339342D01*
X130301904Y-92339342D02*
X130254285Y-92434580D01*
X130254285Y-92434580D02*
X130206666Y-92482200D01*
X130206666Y-92482200D02*
X130111428Y-92529819D01*
X130111428Y-92529819D02*
X129920952Y-92529819D01*
X129920952Y-92529819D02*
X129825714Y-92482200D01*
X129825714Y-92482200D02*
X129778095Y-92434580D01*
X129778095Y-92434580D02*
X129730476Y-92339342D01*
X129730476Y-92339342D02*
X129730476Y-91529819D01*
X129349523Y-91529819D02*
X128682857Y-91529819D01*
X128682857Y-91529819D02*
X129111428Y-92529819D01*
X127213809Y-90577200D02*
X127070952Y-90624819D01*
X127070952Y-90624819D02*
X126832857Y-90624819D01*
X126832857Y-90624819D02*
X126737619Y-90577200D01*
X126737619Y-90577200D02*
X126690000Y-90529580D01*
X126690000Y-90529580D02*
X126642381Y-90434342D01*
X126642381Y-90434342D02*
X126642381Y-90339104D01*
X126642381Y-90339104D02*
X126690000Y-90243866D01*
X126690000Y-90243866D02*
X126737619Y-90196247D01*
X126737619Y-90196247D02*
X126832857Y-90148628D01*
X126832857Y-90148628D02*
X127023333Y-90101009D01*
X127023333Y-90101009D02*
X127118571Y-90053390D01*
X127118571Y-90053390D02*
X127166190Y-90005771D01*
X127166190Y-90005771D02*
X127213809Y-89910533D01*
X127213809Y-89910533D02*
X127213809Y-89815295D01*
X127213809Y-89815295D02*
X127166190Y-89720057D01*
X127166190Y-89720057D02*
X127118571Y-89672438D01*
X127118571Y-89672438D02*
X127023333Y-89624819D01*
X127023333Y-89624819D02*
X126785238Y-89624819D01*
X126785238Y-89624819D02*
X126642381Y-89672438D01*
X126213809Y-90624819D02*
X126213809Y-89624819D01*
X126213809Y-89624819D02*
X125832857Y-89624819D01*
X125832857Y-89624819D02*
X125737619Y-89672438D01*
X125737619Y-89672438D02*
X125690000Y-89720057D01*
X125690000Y-89720057D02*
X125642381Y-89815295D01*
X125642381Y-89815295D02*
X125642381Y-89958152D01*
X125642381Y-89958152D02*
X125690000Y-90053390D01*
X125690000Y-90053390D02*
X125737619Y-90101009D01*
X125737619Y-90101009D02*
X125832857Y-90148628D01*
X125832857Y-90148628D02*
X126213809Y-90148628D01*
X125309047Y-89624819D02*
X124690000Y-89624819D01*
X124690000Y-89624819D02*
X125023333Y-90005771D01*
X125023333Y-90005771D02*
X124880476Y-90005771D01*
X124880476Y-90005771D02*
X124785238Y-90053390D01*
X124785238Y-90053390D02*
X124737619Y-90101009D01*
X124737619Y-90101009D02*
X124690000Y-90196247D01*
X124690000Y-90196247D02*
X124690000Y-90434342D01*
X124690000Y-90434342D02*
X124737619Y-90529580D01*
X124737619Y-90529580D02*
X124785238Y-90577200D01*
X124785238Y-90577200D02*
X124880476Y-90624819D01*
X124880476Y-90624819D02*
X125166190Y-90624819D01*
X125166190Y-90624819D02*
X125261428Y-90577200D01*
X125261428Y-90577200D02*
X125309047Y-90529580D01*
X124309047Y-89720057D02*
X124261428Y-89672438D01*
X124261428Y-89672438D02*
X124166190Y-89624819D01*
X124166190Y-89624819D02*
X123928095Y-89624819D01*
X123928095Y-89624819D02*
X123832857Y-89672438D01*
X123832857Y-89672438D02*
X123785238Y-89720057D01*
X123785238Y-89720057D02*
X123737619Y-89815295D01*
X123737619Y-89815295D02*
X123737619Y-89910533D01*
X123737619Y-89910533D02*
X123785238Y-90053390D01*
X123785238Y-90053390D02*
X124356666Y-90624819D01*
X124356666Y-90624819D02*
X123737619Y-90624819D01*
X122880476Y-89958152D02*
X122880476Y-90624819D01*
X123118571Y-89577200D02*
X123356666Y-90291485D01*
X123356666Y-90291485D02*
X122737619Y-90291485D01*
X122451904Y-89624819D02*
X121832857Y-89624819D01*
X121832857Y-89624819D02*
X122166190Y-90005771D01*
X122166190Y-90005771D02*
X122023333Y-90005771D01*
X122023333Y-90005771D02*
X121928095Y-90053390D01*
X121928095Y-90053390D02*
X121880476Y-90101009D01*
X121880476Y-90101009D02*
X121832857Y-90196247D01*
X121832857Y-90196247D02*
X121832857Y-90434342D01*
X121832857Y-90434342D02*
X121880476Y-90529580D01*
X121880476Y-90529580D02*
X121928095Y-90577200D01*
X121928095Y-90577200D02*
X122023333Y-90624819D01*
X122023333Y-90624819D02*
X122309047Y-90624819D01*
X122309047Y-90624819D02*
X122404285Y-90577200D01*
X122404285Y-90577200D02*
X122451904Y-90529580D01*
X121404285Y-90101009D02*
X121070952Y-90101009D01*
X120928095Y-90624819D02*
X121404285Y-90624819D01*
X121404285Y-90624819D02*
X121404285Y-89624819D01*
X121404285Y-89624819D02*
X120928095Y-89624819D01*
X120499523Y-90101009D02*
X120166190Y-90101009D01*
X120023333Y-90624819D02*
X120499523Y-90624819D01*
X120499523Y-90624819D02*
X120499523Y-89624819D01*
X120499523Y-89624819D02*
X120023333Y-89624819D01*
X119404285Y-90148628D02*
X119404285Y-90624819D01*
X119737618Y-89624819D02*
X119404285Y-90148628D01*
X119404285Y-90148628D02*
X119070952Y-89624819D01*
X101766666Y-79734580D02*
X101814285Y-79782200D01*
X101814285Y-79782200D02*
X101957142Y-79829819D01*
X101957142Y-79829819D02*
X102052380Y-79829819D01*
X102052380Y-79829819D02*
X102195237Y-79782200D01*
X102195237Y-79782200D02*
X102290475Y-79686961D01*
X102290475Y-79686961D02*
X102338094Y-79591723D01*
X102338094Y-79591723D02*
X102385713Y-79401247D01*
X102385713Y-79401247D02*
X102385713Y-79258390D01*
X102385713Y-79258390D02*
X102338094Y-79067914D01*
X102338094Y-79067914D02*
X102290475Y-78972676D01*
X102290475Y-78972676D02*
X102195237Y-78877438D01*
X102195237Y-78877438D02*
X102052380Y-78829819D01*
X102052380Y-78829819D02*
X101957142Y-78829819D01*
X101957142Y-78829819D02*
X101814285Y-78877438D01*
X101814285Y-78877438D02*
X101766666Y-78925057D01*
X101433332Y-78829819D02*
X100814285Y-78829819D01*
X100814285Y-78829819D02*
X101147618Y-79210771D01*
X101147618Y-79210771D02*
X101004761Y-79210771D01*
X101004761Y-79210771D02*
X100909523Y-79258390D01*
X100909523Y-79258390D02*
X100861904Y-79306009D01*
X100861904Y-79306009D02*
X100814285Y-79401247D01*
X100814285Y-79401247D02*
X100814285Y-79639342D01*
X100814285Y-79639342D02*
X100861904Y-79734580D01*
X100861904Y-79734580D02*
X100909523Y-79782200D01*
X100909523Y-79782200D02*
X101004761Y-79829819D01*
X101004761Y-79829819D02*
X101290475Y-79829819D01*
X101290475Y-79829819D02*
X101385713Y-79782200D01*
X101385713Y-79782200D02*
X101433332Y-79734580D01*
X128563666Y-71479580D02*
X128611285Y-71527200D01*
X128611285Y-71527200D02*
X128754142Y-71574819D01*
X128754142Y-71574819D02*
X128849380Y-71574819D01*
X128849380Y-71574819D02*
X128992237Y-71527200D01*
X128992237Y-71527200D02*
X129087475Y-71431961D01*
X129087475Y-71431961D02*
X129135094Y-71336723D01*
X129135094Y-71336723D02*
X129182713Y-71146247D01*
X129182713Y-71146247D02*
X129182713Y-71003390D01*
X129182713Y-71003390D02*
X129135094Y-70812914D01*
X129135094Y-70812914D02*
X129087475Y-70717676D01*
X129087475Y-70717676D02*
X128992237Y-70622438D01*
X128992237Y-70622438D02*
X128849380Y-70574819D01*
X128849380Y-70574819D02*
X128754142Y-70574819D01*
X128754142Y-70574819D02*
X128611285Y-70622438D01*
X128611285Y-70622438D02*
X128563666Y-70670057D01*
X128230332Y-70574819D02*
X127563666Y-70574819D01*
X127563666Y-70574819D02*
X127992237Y-71574819D01*
X83192857Y-62179580D02*
X83240476Y-62227200D01*
X83240476Y-62227200D02*
X83383333Y-62274819D01*
X83383333Y-62274819D02*
X83478571Y-62274819D01*
X83478571Y-62274819D02*
X83621428Y-62227200D01*
X83621428Y-62227200D02*
X83716666Y-62131961D01*
X83716666Y-62131961D02*
X83764285Y-62036723D01*
X83764285Y-62036723D02*
X83811904Y-61846247D01*
X83811904Y-61846247D02*
X83811904Y-61703390D01*
X83811904Y-61703390D02*
X83764285Y-61512914D01*
X83764285Y-61512914D02*
X83716666Y-61417676D01*
X83716666Y-61417676D02*
X83621428Y-61322438D01*
X83621428Y-61322438D02*
X83478571Y-61274819D01*
X83478571Y-61274819D02*
X83383333Y-61274819D01*
X83383333Y-61274819D02*
X83240476Y-61322438D01*
X83240476Y-61322438D02*
X83192857Y-61370057D01*
X82335714Y-61608152D02*
X82335714Y-62274819D01*
X82573809Y-61227200D02*
X82811904Y-61941485D01*
X82811904Y-61941485D02*
X82192857Y-61941485D01*
X81383333Y-61608152D02*
X81383333Y-62274819D01*
X81621428Y-61227200D02*
X81859523Y-61941485D01*
X81859523Y-61941485D02*
X81240476Y-61941485D01*
X152407857Y-90529580D02*
X152455476Y-90577200D01*
X152455476Y-90577200D02*
X152598333Y-90624819D01*
X152598333Y-90624819D02*
X152693571Y-90624819D01*
X152693571Y-90624819D02*
X152836428Y-90577200D01*
X152836428Y-90577200D02*
X152931666Y-90481961D01*
X152931666Y-90481961D02*
X152979285Y-90386723D01*
X152979285Y-90386723D02*
X153026904Y-90196247D01*
X153026904Y-90196247D02*
X153026904Y-90053390D01*
X153026904Y-90053390D02*
X152979285Y-89862914D01*
X152979285Y-89862914D02*
X152931666Y-89767676D01*
X152931666Y-89767676D02*
X152836428Y-89672438D01*
X152836428Y-89672438D02*
X152693571Y-89624819D01*
X152693571Y-89624819D02*
X152598333Y-89624819D01*
X152598333Y-89624819D02*
X152455476Y-89672438D01*
X152455476Y-89672438D02*
X152407857Y-89720057D01*
X152026904Y-89720057D02*
X151979285Y-89672438D01*
X151979285Y-89672438D02*
X151884047Y-89624819D01*
X151884047Y-89624819D02*
X151645952Y-89624819D01*
X151645952Y-89624819D02*
X151550714Y-89672438D01*
X151550714Y-89672438D02*
X151503095Y-89720057D01*
X151503095Y-89720057D02*
X151455476Y-89815295D01*
X151455476Y-89815295D02*
X151455476Y-89910533D01*
X151455476Y-89910533D02*
X151503095Y-90053390D01*
X151503095Y-90053390D02*
X152074523Y-90624819D01*
X152074523Y-90624819D02*
X151455476Y-90624819D01*
X150884047Y-90053390D02*
X150979285Y-90005771D01*
X150979285Y-90005771D02*
X151026904Y-89958152D01*
X151026904Y-89958152D02*
X151074523Y-89862914D01*
X151074523Y-89862914D02*
X151074523Y-89815295D01*
X151074523Y-89815295D02*
X151026904Y-89720057D01*
X151026904Y-89720057D02*
X150979285Y-89672438D01*
X150979285Y-89672438D02*
X150884047Y-89624819D01*
X150884047Y-89624819D02*
X150693571Y-89624819D01*
X150693571Y-89624819D02*
X150598333Y-89672438D01*
X150598333Y-89672438D02*
X150550714Y-89720057D01*
X150550714Y-89720057D02*
X150503095Y-89815295D01*
X150503095Y-89815295D02*
X150503095Y-89862914D01*
X150503095Y-89862914D02*
X150550714Y-89958152D01*
X150550714Y-89958152D02*
X150598333Y-90005771D01*
X150598333Y-90005771D02*
X150693571Y-90053390D01*
X150693571Y-90053390D02*
X150884047Y-90053390D01*
X150884047Y-90053390D02*
X150979285Y-90101009D01*
X150979285Y-90101009D02*
X151026904Y-90148628D01*
X151026904Y-90148628D02*
X151074523Y-90243866D01*
X151074523Y-90243866D02*
X151074523Y-90434342D01*
X151074523Y-90434342D02*
X151026904Y-90529580D01*
X151026904Y-90529580D02*
X150979285Y-90577200D01*
X150979285Y-90577200D02*
X150884047Y-90624819D01*
X150884047Y-90624819D02*
X150693571Y-90624819D01*
X150693571Y-90624819D02*
X150598333Y-90577200D01*
X150598333Y-90577200D02*
X150550714Y-90529580D01*
X150550714Y-90529580D02*
X150503095Y-90434342D01*
X150503095Y-90434342D02*
X150503095Y-90243866D01*
X150503095Y-90243866D02*
X150550714Y-90148628D01*
X150550714Y-90148628D02*
X150598333Y-90101009D01*
X150598333Y-90101009D02*
X150693571Y-90053390D01*
X159988094Y-71844819D02*
X159988094Y-72654342D01*
X159988094Y-72654342D02*
X159940475Y-72749580D01*
X159940475Y-72749580D02*
X159892856Y-72797200D01*
X159892856Y-72797200D02*
X159797618Y-72844819D01*
X159797618Y-72844819D02*
X159607142Y-72844819D01*
X159607142Y-72844819D02*
X159511904Y-72797200D01*
X159511904Y-72797200D02*
X159464285Y-72749580D01*
X159464285Y-72749580D02*
X159416666Y-72654342D01*
X159416666Y-72654342D02*
X159416666Y-71844819D01*
X158416666Y-72844819D02*
X158988094Y-72844819D01*
X158702380Y-72844819D02*
X158702380Y-71844819D01*
X158702380Y-71844819D02*
X158797618Y-71987676D01*
X158797618Y-71987676D02*
X158892856Y-72082914D01*
X158892856Y-72082914D02*
X158988094Y-72130533D01*
X157797618Y-71844819D02*
X157702380Y-71844819D01*
X157702380Y-71844819D02*
X157607142Y-71892438D01*
X157607142Y-71892438D02*
X157559523Y-71940057D01*
X157559523Y-71940057D02*
X157511904Y-72035295D01*
X157511904Y-72035295D02*
X157464285Y-72225771D01*
X157464285Y-72225771D02*
X157464285Y-72463866D01*
X157464285Y-72463866D02*
X157511904Y-72654342D01*
X157511904Y-72654342D02*
X157559523Y-72749580D01*
X157559523Y-72749580D02*
X157607142Y-72797200D01*
X157607142Y-72797200D02*
X157702380Y-72844819D01*
X157702380Y-72844819D02*
X157797618Y-72844819D01*
X157797618Y-72844819D02*
X157892856Y-72797200D01*
X157892856Y-72797200D02*
X157940475Y-72749580D01*
X157940475Y-72749580D02*
X157988094Y-72654342D01*
X157988094Y-72654342D02*
X158035713Y-72463866D01*
X158035713Y-72463866D02*
X158035713Y-72225771D01*
X158035713Y-72225771D02*
X157988094Y-72035295D01*
X157988094Y-72035295D02*
X157940475Y-71940057D01*
X157940475Y-71940057D02*
X157892856Y-71892438D01*
X157892856Y-71892438D02*
X157797618Y-71844819D01*
X169123809Y-75337200D02*
X168980952Y-75384819D01*
X168980952Y-75384819D02*
X168742857Y-75384819D01*
X168742857Y-75384819D02*
X168647619Y-75337200D01*
X168647619Y-75337200D02*
X168600000Y-75289580D01*
X168600000Y-75289580D02*
X168552381Y-75194342D01*
X168552381Y-75194342D02*
X168552381Y-75099104D01*
X168552381Y-75099104D02*
X168600000Y-75003866D01*
X168600000Y-75003866D02*
X168647619Y-74956247D01*
X168647619Y-74956247D02*
X168742857Y-74908628D01*
X168742857Y-74908628D02*
X168933333Y-74861009D01*
X168933333Y-74861009D02*
X169028571Y-74813390D01*
X169028571Y-74813390D02*
X169076190Y-74765771D01*
X169076190Y-74765771D02*
X169123809Y-74670533D01*
X169123809Y-74670533D02*
X169123809Y-74575295D01*
X169123809Y-74575295D02*
X169076190Y-74480057D01*
X169076190Y-74480057D02*
X169028571Y-74432438D01*
X169028571Y-74432438D02*
X168933333Y-74384819D01*
X168933333Y-74384819D02*
X168695238Y-74384819D01*
X168695238Y-74384819D02*
X168552381Y-74432438D01*
X168123809Y-75384819D02*
X168123809Y-74384819D01*
X168123809Y-74384819D02*
X167742857Y-74384819D01*
X167742857Y-74384819D02*
X167647619Y-74432438D01*
X167647619Y-74432438D02*
X167600000Y-74480057D01*
X167600000Y-74480057D02*
X167552381Y-74575295D01*
X167552381Y-74575295D02*
X167552381Y-74718152D01*
X167552381Y-74718152D02*
X167600000Y-74813390D01*
X167600000Y-74813390D02*
X167647619Y-74861009D01*
X167647619Y-74861009D02*
X167742857Y-74908628D01*
X167742857Y-74908628D02*
X168123809Y-74908628D01*
X167219047Y-74384819D02*
X166600000Y-74384819D01*
X166600000Y-74384819D02*
X166933333Y-74765771D01*
X166933333Y-74765771D02*
X166790476Y-74765771D01*
X166790476Y-74765771D02*
X166695238Y-74813390D01*
X166695238Y-74813390D02*
X166647619Y-74861009D01*
X166647619Y-74861009D02*
X166600000Y-74956247D01*
X166600000Y-74956247D02*
X166600000Y-75194342D01*
X166600000Y-75194342D02*
X166647619Y-75289580D01*
X166647619Y-75289580D02*
X166695238Y-75337200D01*
X166695238Y-75337200D02*
X166790476Y-75384819D01*
X166790476Y-75384819D02*
X167076190Y-75384819D01*
X167076190Y-75384819D02*
X167171428Y-75337200D01*
X167171428Y-75337200D02*
X167219047Y-75289580D01*
X166219047Y-74480057D02*
X166171428Y-74432438D01*
X166171428Y-74432438D02*
X166076190Y-74384819D01*
X166076190Y-74384819D02*
X165838095Y-74384819D01*
X165838095Y-74384819D02*
X165742857Y-74432438D01*
X165742857Y-74432438D02*
X165695238Y-74480057D01*
X165695238Y-74480057D02*
X165647619Y-74575295D01*
X165647619Y-74575295D02*
X165647619Y-74670533D01*
X165647619Y-74670533D02*
X165695238Y-74813390D01*
X165695238Y-74813390D02*
X166266666Y-75384819D01*
X166266666Y-75384819D02*
X165647619Y-75384819D01*
X164790476Y-74718152D02*
X164790476Y-75384819D01*
X165028571Y-74337200D02*
X165266666Y-75051485D01*
X165266666Y-75051485D02*
X164647619Y-75051485D01*
X164361904Y-74384819D02*
X163742857Y-74384819D01*
X163742857Y-74384819D02*
X164076190Y-74765771D01*
X164076190Y-74765771D02*
X163933333Y-74765771D01*
X163933333Y-74765771D02*
X163838095Y-74813390D01*
X163838095Y-74813390D02*
X163790476Y-74861009D01*
X163790476Y-74861009D02*
X163742857Y-74956247D01*
X163742857Y-74956247D02*
X163742857Y-75194342D01*
X163742857Y-75194342D02*
X163790476Y-75289580D01*
X163790476Y-75289580D02*
X163838095Y-75337200D01*
X163838095Y-75337200D02*
X163933333Y-75384819D01*
X163933333Y-75384819D02*
X164219047Y-75384819D01*
X164219047Y-75384819D02*
X164314285Y-75337200D01*
X164314285Y-75337200D02*
X164361904Y-75289580D01*
X163314285Y-74861009D02*
X162980952Y-74861009D01*
X162838095Y-75384819D02*
X163314285Y-75384819D01*
X163314285Y-75384819D02*
X163314285Y-74384819D01*
X163314285Y-74384819D02*
X162838095Y-74384819D01*
X162409523Y-74861009D02*
X162076190Y-74861009D01*
X161933333Y-75384819D02*
X162409523Y-75384819D01*
X162409523Y-75384819D02*
X162409523Y-74384819D01*
X162409523Y-74384819D02*
X161933333Y-74384819D01*
X161314285Y-74908628D02*
X161314285Y-75384819D01*
X161647618Y-74384819D02*
X161314285Y-74908628D01*
X161314285Y-74908628D02*
X160980952Y-74384819D01*
X110497857Y-94339580D02*
X110545476Y-94387200D01*
X110545476Y-94387200D02*
X110688333Y-94434819D01*
X110688333Y-94434819D02*
X110783571Y-94434819D01*
X110783571Y-94434819D02*
X110926428Y-94387200D01*
X110926428Y-94387200D02*
X111021666Y-94291961D01*
X111021666Y-94291961D02*
X111069285Y-94196723D01*
X111069285Y-94196723D02*
X111116904Y-94006247D01*
X111116904Y-94006247D02*
X111116904Y-93863390D01*
X111116904Y-93863390D02*
X111069285Y-93672914D01*
X111069285Y-93672914D02*
X111021666Y-93577676D01*
X111021666Y-93577676D02*
X110926428Y-93482438D01*
X110926428Y-93482438D02*
X110783571Y-93434819D01*
X110783571Y-93434819D02*
X110688333Y-93434819D01*
X110688333Y-93434819D02*
X110545476Y-93482438D01*
X110545476Y-93482438D02*
X110497857Y-93530057D01*
X109545476Y-94434819D02*
X110116904Y-94434819D01*
X109831190Y-94434819D02*
X109831190Y-93434819D01*
X109831190Y-93434819D02*
X109926428Y-93577676D01*
X109926428Y-93577676D02*
X110021666Y-93672914D01*
X110021666Y-93672914D02*
X110116904Y-93720533D01*
X108593095Y-94434819D02*
X109164523Y-94434819D01*
X108878809Y-94434819D02*
X108878809Y-93434819D01*
X108878809Y-93434819D02*
X108974047Y-93577676D01*
X108974047Y-93577676D02*
X109069285Y-93672914D01*
X109069285Y-93672914D02*
X109164523Y-93720533D01*
X140342857Y-84179580D02*
X140390476Y-84227200D01*
X140390476Y-84227200D02*
X140533333Y-84274819D01*
X140533333Y-84274819D02*
X140628571Y-84274819D01*
X140628571Y-84274819D02*
X140771428Y-84227200D01*
X140771428Y-84227200D02*
X140866666Y-84131961D01*
X140866666Y-84131961D02*
X140914285Y-84036723D01*
X140914285Y-84036723D02*
X140961904Y-83846247D01*
X140961904Y-83846247D02*
X140961904Y-83703390D01*
X140961904Y-83703390D02*
X140914285Y-83512914D01*
X140914285Y-83512914D02*
X140866666Y-83417676D01*
X140866666Y-83417676D02*
X140771428Y-83322438D01*
X140771428Y-83322438D02*
X140628571Y-83274819D01*
X140628571Y-83274819D02*
X140533333Y-83274819D01*
X140533333Y-83274819D02*
X140390476Y-83322438D01*
X140390476Y-83322438D02*
X140342857Y-83370057D01*
X139961904Y-83370057D02*
X139914285Y-83322438D01*
X139914285Y-83322438D02*
X139819047Y-83274819D01*
X139819047Y-83274819D02*
X139580952Y-83274819D01*
X139580952Y-83274819D02*
X139485714Y-83322438D01*
X139485714Y-83322438D02*
X139438095Y-83370057D01*
X139438095Y-83370057D02*
X139390476Y-83465295D01*
X139390476Y-83465295D02*
X139390476Y-83560533D01*
X139390476Y-83560533D02*
X139438095Y-83703390D01*
X139438095Y-83703390D02*
X140009523Y-84274819D01*
X140009523Y-84274819D02*
X139390476Y-84274819D01*
X138485714Y-83274819D02*
X138961904Y-83274819D01*
X138961904Y-83274819D02*
X139009523Y-83751009D01*
X139009523Y-83751009D02*
X138961904Y-83703390D01*
X138961904Y-83703390D02*
X138866666Y-83655771D01*
X138866666Y-83655771D02*
X138628571Y-83655771D01*
X138628571Y-83655771D02*
X138533333Y-83703390D01*
X138533333Y-83703390D02*
X138485714Y-83751009D01*
X138485714Y-83751009D02*
X138438095Y-83846247D01*
X138438095Y-83846247D02*
X138438095Y-84084342D01*
X138438095Y-84084342D02*
X138485714Y-84179580D01*
X138485714Y-84179580D02*
X138533333Y-84227200D01*
X138533333Y-84227200D02*
X138628571Y-84274819D01*
X138628571Y-84274819D02*
X138866666Y-84274819D01*
X138866666Y-84274819D02*
X138961904Y-84227200D01*
X138961904Y-84227200D02*
X139009523Y-84179580D01*
X147327857Y-71479580D02*
X147375476Y-71527200D01*
X147375476Y-71527200D02*
X147518333Y-71574819D01*
X147518333Y-71574819D02*
X147613571Y-71574819D01*
X147613571Y-71574819D02*
X147756428Y-71527200D01*
X147756428Y-71527200D02*
X147851666Y-71431961D01*
X147851666Y-71431961D02*
X147899285Y-71336723D01*
X147899285Y-71336723D02*
X147946904Y-71146247D01*
X147946904Y-71146247D02*
X147946904Y-71003390D01*
X147946904Y-71003390D02*
X147899285Y-70812914D01*
X147899285Y-70812914D02*
X147851666Y-70717676D01*
X147851666Y-70717676D02*
X147756428Y-70622438D01*
X147756428Y-70622438D02*
X147613571Y-70574819D01*
X147613571Y-70574819D02*
X147518333Y-70574819D01*
X147518333Y-70574819D02*
X147375476Y-70622438D01*
X147375476Y-70622438D02*
X147327857Y-70670057D01*
X146375476Y-71574819D02*
X146946904Y-71574819D01*
X146661190Y-71574819D02*
X146661190Y-70574819D01*
X146661190Y-70574819D02*
X146756428Y-70717676D01*
X146756428Y-70717676D02*
X146851666Y-70812914D01*
X146851666Y-70812914D02*
X146946904Y-70860533D01*
X145899285Y-71574819D02*
X145708809Y-71574819D01*
X145708809Y-71574819D02*
X145613571Y-71527200D01*
X145613571Y-71527200D02*
X145565952Y-71479580D01*
X145565952Y-71479580D02*
X145470714Y-71336723D01*
X145470714Y-71336723D02*
X145423095Y-71146247D01*
X145423095Y-71146247D02*
X145423095Y-70765295D01*
X145423095Y-70765295D02*
X145470714Y-70670057D01*
X145470714Y-70670057D02*
X145518333Y-70622438D01*
X145518333Y-70622438D02*
X145613571Y-70574819D01*
X145613571Y-70574819D02*
X145804047Y-70574819D01*
X145804047Y-70574819D02*
X145899285Y-70622438D01*
X145899285Y-70622438D02*
X145946904Y-70670057D01*
X145946904Y-70670057D02*
X145994523Y-70765295D01*
X145994523Y-70765295D02*
X145994523Y-71003390D01*
X145994523Y-71003390D02*
X145946904Y-71098628D01*
X145946904Y-71098628D02*
X145899285Y-71146247D01*
X145899285Y-71146247D02*
X145804047Y-71193866D01*
X145804047Y-71193866D02*
X145613571Y-71193866D01*
X145613571Y-71193866D02*
X145518333Y-71146247D01*
X145518333Y-71146247D02*
X145470714Y-71098628D01*
X145470714Y-71098628D02*
X145423095Y-71003390D01*
X103671666Y-84179580D02*
X103719285Y-84227200D01*
X103719285Y-84227200D02*
X103862142Y-84274819D01*
X103862142Y-84274819D02*
X103957380Y-84274819D01*
X103957380Y-84274819D02*
X104100237Y-84227200D01*
X104100237Y-84227200D02*
X104195475Y-84131961D01*
X104195475Y-84131961D02*
X104243094Y-84036723D01*
X104243094Y-84036723D02*
X104290713Y-83846247D01*
X104290713Y-83846247D02*
X104290713Y-83703390D01*
X104290713Y-83703390D02*
X104243094Y-83512914D01*
X104243094Y-83512914D02*
X104195475Y-83417676D01*
X104195475Y-83417676D02*
X104100237Y-83322438D01*
X104100237Y-83322438D02*
X103957380Y-83274819D01*
X103957380Y-83274819D02*
X103862142Y-83274819D01*
X103862142Y-83274819D02*
X103719285Y-83322438D01*
X103719285Y-83322438D02*
X103671666Y-83370057D01*
X102719285Y-84274819D02*
X103290713Y-84274819D01*
X103004999Y-84274819D02*
X103004999Y-83274819D01*
X103004999Y-83274819D02*
X103100237Y-83417676D01*
X103100237Y-83417676D02*
X103195475Y-83512914D01*
X103195475Y-83512914D02*
X103290713Y-83560533D01*
X140461904Y-72479819D02*
X140461904Y-73289342D01*
X140461904Y-73289342D02*
X140414285Y-73384580D01*
X140414285Y-73384580D02*
X140366666Y-73432200D01*
X140366666Y-73432200D02*
X140271428Y-73479819D01*
X140271428Y-73479819D02*
X140080952Y-73479819D01*
X140080952Y-73479819D02*
X139985714Y-73432200D01*
X139985714Y-73432200D02*
X139938095Y-73384580D01*
X139938095Y-73384580D02*
X139890476Y-73289342D01*
X139890476Y-73289342D02*
X139890476Y-72479819D01*
X139271428Y-72908390D02*
X139366666Y-72860771D01*
X139366666Y-72860771D02*
X139414285Y-72813152D01*
X139414285Y-72813152D02*
X139461904Y-72717914D01*
X139461904Y-72717914D02*
X139461904Y-72670295D01*
X139461904Y-72670295D02*
X139414285Y-72575057D01*
X139414285Y-72575057D02*
X139366666Y-72527438D01*
X139366666Y-72527438D02*
X139271428Y-72479819D01*
X139271428Y-72479819D02*
X139080952Y-72479819D01*
X139080952Y-72479819D02*
X138985714Y-72527438D01*
X138985714Y-72527438D02*
X138938095Y-72575057D01*
X138938095Y-72575057D02*
X138890476Y-72670295D01*
X138890476Y-72670295D02*
X138890476Y-72717914D01*
X138890476Y-72717914D02*
X138938095Y-72813152D01*
X138938095Y-72813152D02*
X138985714Y-72860771D01*
X138985714Y-72860771D02*
X139080952Y-72908390D01*
X139080952Y-72908390D02*
X139271428Y-72908390D01*
X139271428Y-72908390D02*
X139366666Y-72956009D01*
X139366666Y-72956009D02*
X139414285Y-73003628D01*
X139414285Y-73003628D02*
X139461904Y-73098866D01*
X139461904Y-73098866D02*
X139461904Y-73289342D01*
X139461904Y-73289342D02*
X139414285Y-73384580D01*
X139414285Y-73384580D02*
X139366666Y-73432200D01*
X139366666Y-73432200D02*
X139271428Y-73479819D01*
X139271428Y-73479819D02*
X139080952Y-73479819D01*
X139080952Y-73479819D02*
X138985714Y-73432200D01*
X138985714Y-73432200D02*
X138938095Y-73384580D01*
X138938095Y-73384580D02*
X138890476Y-73289342D01*
X138890476Y-73289342D02*
X138890476Y-73098866D01*
X138890476Y-73098866D02*
X138938095Y-73003628D01*
X138938095Y-73003628D02*
X138985714Y-72956009D01*
X138985714Y-72956009D02*
X139080952Y-72908390D01*
X150073809Y-75337200D02*
X149930952Y-75384819D01*
X149930952Y-75384819D02*
X149692857Y-75384819D01*
X149692857Y-75384819D02*
X149597619Y-75337200D01*
X149597619Y-75337200D02*
X149550000Y-75289580D01*
X149550000Y-75289580D02*
X149502381Y-75194342D01*
X149502381Y-75194342D02*
X149502381Y-75099104D01*
X149502381Y-75099104D02*
X149550000Y-75003866D01*
X149550000Y-75003866D02*
X149597619Y-74956247D01*
X149597619Y-74956247D02*
X149692857Y-74908628D01*
X149692857Y-74908628D02*
X149883333Y-74861009D01*
X149883333Y-74861009D02*
X149978571Y-74813390D01*
X149978571Y-74813390D02*
X150026190Y-74765771D01*
X150026190Y-74765771D02*
X150073809Y-74670533D01*
X150073809Y-74670533D02*
X150073809Y-74575295D01*
X150073809Y-74575295D02*
X150026190Y-74480057D01*
X150026190Y-74480057D02*
X149978571Y-74432438D01*
X149978571Y-74432438D02*
X149883333Y-74384819D01*
X149883333Y-74384819D02*
X149645238Y-74384819D01*
X149645238Y-74384819D02*
X149502381Y-74432438D01*
X149073809Y-75384819D02*
X149073809Y-74384819D01*
X149073809Y-74384819D02*
X148692857Y-74384819D01*
X148692857Y-74384819D02*
X148597619Y-74432438D01*
X148597619Y-74432438D02*
X148550000Y-74480057D01*
X148550000Y-74480057D02*
X148502381Y-74575295D01*
X148502381Y-74575295D02*
X148502381Y-74718152D01*
X148502381Y-74718152D02*
X148550000Y-74813390D01*
X148550000Y-74813390D02*
X148597619Y-74861009D01*
X148597619Y-74861009D02*
X148692857Y-74908628D01*
X148692857Y-74908628D02*
X149073809Y-74908628D01*
X148169047Y-74384819D02*
X147550000Y-74384819D01*
X147550000Y-74384819D02*
X147883333Y-74765771D01*
X147883333Y-74765771D02*
X147740476Y-74765771D01*
X147740476Y-74765771D02*
X147645238Y-74813390D01*
X147645238Y-74813390D02*
X147597619Y-74861009D01*
X147597619Y-74861009D02*
X147550000Y-74956247D01*
X147550000Y-74956247D02*
X147550000Y-75194342D01*
X147550000Y-75194342D02*
X147597619Y-75289580D01*
X147597619Y-75289580D02*
X147645238Y-75337200D01*
X147645238Y-75337200D02*
X147740476Y-75384819D01*
X147740476Y-75384819D02*
X148026190Y-75384819D01*
X148026190Y-75384819D02*
X148121428Y-75337200D01*
X148121428Y-75337200D02*
X148169047Y-75289580D01*
X147169047Y-74480057D02*
X147121428Y-74432438D01*
X147121428Y-74432438D02*
X147026190Y-74384819D01*
X147026190Y-74384819D02*
X146788095Y-74384819D01*
X146788095Y-74384819D02*
X146692857Y-74432438D01*
X146692857Y-74432438D02*
X146645238Y-74480057D01*
X146645238Y-74480057D02*
X146597619Y-74575295D01*
X146597619Y-74575295D02*
X146597619Y-74670533D01*
X146597619Y-74670533D02*
X146645238Y-74813390D01*
X146645238Y-74813390D02*
X147216666Y-75384819D01*
X147216666Y-75384819D02*
X146597619Y-75384819D01*
X145740476Y-74718152D02*
X145740476Y-75384819D01*
X145978571Y-74337200D02*
X146216666Y-75051485D01*
X146216666Y-75051485D02*
X145597619Y-75051485D01*
X145311904Y-74384819D02*
X144692857Y-74384819D01*
X144692857Y-74384819D02*
X145026190Y-74765771D01*
X145026190Y-74765771D02*
X144883333Y-74765771D01*
X144883333Y-74765771D02*
X144788095Y-74813390D01*
X144788095Y-74813390D02*
X144740476Y-74861009D01*
X144740476Y-74861009D02*
X144692857Y-74956247D01*
X144692857Y-74956247D02*
X144692857Y-75194342D01*
X144692857Y-75194342D02*
X144740476Y-75289580D01*
X144740476Y-75289580D02*
X144788095Y-75337200D01*
X144788095Y-75337200D02*
X144883333Y-75384819D01*
X144883333Y-75384819D02*
X145169047Y-75384819D01*
X145169047Y-75384819D02*
X145264285Y-75337200D01*
X145264285Y-75337200D02*
X145311904Y-75289580D01*
X144264285Y-74861009D02*
X143930952Y-74861009D01*
X143788095Y-75384819D02*
X144264285Y-75384819D01*
X144264285Y-75384819D02*
X144264285Y-74384819D01*
X144264285Y-74384819D02*
X143788095Y-74384819D01*
X143359523Y-74861009D02*
X143026190Y-74861009D01*
X142883333Y-75384819D02*
X143359523Y-75384819D01*
X143359523Y-75384819D02*
X143359523Y-74384819D01*
X143359523Y-74384819D02*
X142883333Y-74384819D01*
X142264285Y-74908628D02*
X142264285Y-75384819D01*
X142597618Y-74384819D02*
X142264285Y-74908628D01*
X142264285Y-74908628D02*
X141930952Y-74384819D01*
X123316904Y-71209819D02*
X123316904Y-72019342D01*
X123316904Y-72019342D02*
X123269285Y-72114580D01*
X123269285Y-72114580D02*
X123221666Y-72162200D01*
X123221666Y-72162200D02*
X123126428Y-72209819D01*
X123126428Y-72209819D02*
X122935952Y-72209819D01*
X122935952Y-72209819D02*
X122840714Y-72162200D01*
X122840714Y-72162200D02*
X122793095Y-72114580D01*
X122793095Y-72114580D02*
X122745476Y-72019342D01*
X122745476Y-72019342D02*
X122745476Y-71209819D01*
X121793095Y-71209819D02*
X122269285Y-71209819D01*
X122269285Y-71209819D02*
X122316904Y-71686009D01*
X122316904Y-71686009D02*
X122269285Y-71638390D01*
X122269285Y-71638390D02*
X122174047Y-71590771D01*
X122174047Y-71590771D02*
X121935952Y-71590771D01*
X121935952Y-71590771D02*
X121840714Y-71638390D01*
X121840714Y-71638390D02*
X121793095Y-71686009D01*
X121793095Y-71686009D02*
X121745476Y-71781247D01*
X121745476Y-71781247D02*
X121745476Y-72019342D01*
X121745476Y-72019342D02*
X121793095Y-72114580D01*
X121793095Y-72114580D02*
X121840714Y-72162200D01*
X121840714Y-72162200D02*
X121935952Y-72209819D01*
X121935952Y-72209819D02*
X122174047Y-72209819D01*
X122174047Y-72209819D02*
X122269285Y-72162200D01*
X122269285Y-72162200D02*
X122316904Y-72114580D01*
X132293809Y-75337200D02*
X132150952Y-75384819D01*
X132150952Y-75384819D02*
X131912857Y-75384819D01*
X131912857Y-75384819D02*
X131817619Y-75337200D01*
X131817619Y-75337200D02*
X131770000Y-75289580D01*
X131770000Y-75289580D02*
X131722381Y-75194342D01*
X131722381Y-75194342D02*
X131722381Y-75099104D01*
X131722381Y-75099104D02*
X131770000Y-75003866D01*
X131770000Y-75003866D02*
X131817619Y-74956247D01*
X131817619Y-74956247D02*
X131912857Y-74908628D01*
X131912857Y-74908628D02*
X132103333Y-74861009D01*
X132103333Y-74861009D02*
X132198571Y-74813390D01*
X132198571Y-74813390D02*
X132246190Y-74765771D01*
X132246190Y-74765771D02*
X132293809Y-74670533D01*
X132293809Y-74670533D02*
X132293809Y-74575295D01*
X132293809Y-74575295D02*
X132246190Y-74480057D01*
X132246190Y-74480057D02*
X132198571Y-74432438D01*
X132198571Y-74432438D02*
X132103333Y-74384819D01*
X132103333Y-74384819D02*
X131865238Y-74384819D01*
X131865238Y-74384819D02*
X131722381Y-74432438D01*
X131293809Y-75384819D02*
X131293809Y-74384819D01*
X131293809Y-74384819D02*
X130912857Y-74384819D01*
X130912857Y-74384819D02*
X130817619Y-74432438D01*
X130817619Y-74432438D02*
X130770000Y-74480057D01*
X130770000Y-74480057D02*
X130722381Y-74575295D01*
X130722381Y-74575295D02*
X130722381Y-74718152D01*
X130722381Y-74718152D02*
X130770000Y-74813390D01*
X130770000Y-74813390D02*
X130817619Y-74861009D01*
X130817619Y-74861009D02*
X130912857Y-74908628D01*
X130912857Y-74908628D02*
X131293809Y-74908628D01*
X130389047Y-74384819D02*
X129770000Y-74384819D01*
X129770000Y-74384819D02*
X130103333Y-74765771D01*
X130103333Y-74765771D02*
X129960476Y-74765771D01*
X129960476Y-74765771D02*
X129865238Y-74813390D01*
X129865238Y-74813390D02*
X129817619Y-74861009D01*
X129817619Y-74861009D02*
X129770000Y-74956247D01*
X129770000Y-74956247D02*
X129770000Y-75194342D01*
X129770000Y-75194342D02*
X129817619Y-75289580D01*
X129817619Y-75289580D02*
X129865238Y-75337200D01*
X129865238Y-75337200D02*
X129960476Y-75384819D01*
X129960476Y-75384819D02*
X130246190Y-75384819D01*
X130246190Y-75384819D02*
X130341428Y-75337200D01*
X130341428Y-75337200D02*
X130389047Y-75289580D01*
X129389047Y-74480057D02*
X129341428Y-74432438D01*
X129341428Y-74432438D02*
X129246190Y-74384819D01*
X129246190Y-74384819D02*
X129008095Y-74384819D01*
X129008095Y-74384819D02*
X128912857Y-74432438D01*
X128912857Y-74432438D02*
X128865238Y-74480057D01*
X128865238Y-74480057D02*
X128817619Y-74575295D01*
X128817619Y-74575295D02*
X128817619Y-74670533D01*
X128817619Y-74670533D02*
X128865238Y-74813390D01*
X128865238Y-74813390D02*
X129436666Y-75384819D01*
X129436666Y-75384819D02*
X128817619Y-75384819D01*
X127960476Y-74718152D02*
X127960476Y-75384819D01*
X128198571Y-74337200D02*
X128436666Y-75051485D01*
X128436666Y-75051485D02*
X127817619Y-75051485D01*
X127531904Y-74384819D02*
X126912857Y-74384819D01*
X126912857Y-74384819D02*
X127246190Y-74765771D01*
X127246190Y-74765771D02*
X127103333Y-74765771D01*
X127103333Y-74765771D02*
X127008095Y-74813390D01*
X127008095Y-74813390D02*
X126960476Y-74861009D01*
X126960476Y-74861009D02*
X126912857Y-74956247D01*
X126912857Y-74956247D02*
X126912857Y-75194342D01*
X126912857Y-75194342D02*
X126960476Y-75289580D01*
X126960476Y-75289580D02*
X127008095Y-75337200D01*
X127008095Y-75337200D02*
X127103333Y-75384819D01*
X127103333Y-75384819D02*
X127389047Y-75384819D01*
X127389047Y-75384819D02*
X127484285Y-75337200D01*
X127484285Y-75337200D02*
X127531904Y-75289580D01*
X126484285Y-74861009D02*
X126150952Y-74861009D01*
X126008095Y-75384819D02*
X126484285Y-75384819D01*
X126484285Y-75384819D02*
X126484285Y-74384819D01*
X126484285Y-74384819D02*
X126008095Y-74384819D01*
X125579523Y-74861009D02*
X125246190Y-74861009D01*
X125103333Y-75384819D02*
X125579523Y-75384819D01*
X125579523Y-75384819D02*
X125579523Y-74384819D01*
X125579523Y-74384819D02*
X125103333Y-74384819D01*
X124484285Y-74908628D02*
X124484285Y-75384819D01*
X124817618Y-74384819D02*
X124484285Y-74908628D01*
X124484285Y-74908628D02*
X124150952Y-74384819D01*
X83192857Y-95199580D02*
X83240476Y-95247200D01*
X83240476Y-95247200D02*
X83383333Y-95294819D01*
X83383333Y-95294819D02*
X83478571Y-95294819D01*
X83478571Y-95294819D02*
X83621428Y-95247200D01*
X83621428Y-95247200D02*
X83716666Y-95151961D01*
X83716666Y-95151961D02*
X83764285Y-95056723D01*
X83764285Y-95056723D02*
X83811904Y-94866247D01*
X83811904Y-94866247D02*
X83811904Y-94723390D01*
X83811904Y-94723390D02*
X83764285Y-94532914D01*
X83764285Y-94532914D02*
X83716666Y-94437676D01*
X83716666Y-94437676D02*
X83621428Y-94342438D01*
X83621428Y-94342438D02*
X83478571Y-94294819D01*
X83478571Y-94294819D02*
X83383333Y-94294819D01*
X83383333Y-94294819D02*
X83240476Y-94342438D01*
X83240476Y-94342438D02*
X83192857Y-94390057D01*
X82335714Y-94628152D02*
X82335714Y-95294819D01*
X82573809Y-94247200D02*
X82811904Y-94961485D01*
X82811904Y-94961485D02*
X82192857Y-94961485D01*
X81907142Y-94294819D02*
X81240476Y-94294819D01*
X81240476Y-94294819D02*
X81669047Y-95294819D01*
X101766666Y-73609581D02*
X101814285Y-73657201D01*
X101814285Y-73657201D02*
X101957142Y-73704820D01*
X101957142Y-73704820D02*
X102052380Y-73704820D01*
X102052380Y-73704820D02*
X102195237Y-73657201D01*
X102195237Y-73657201D02*
X102290475Y-73561962D01*
X102290475Y-73561962D02*
X102338094Y-73466724D01*
X102338094Y-73466724D02*
X102385713Y-73276248D01*
X102385713Y-73276248D02*
X102385713Y-73133391D01*
X102385713Y-73133391D02*
X102338094Y-72942915D01*
X102338094Y-72942915D02*
X102290475Y-72847677D01*
X102290475Y-72847677D02*
X102195237Y-72752439D01*
X102195237Y-72752439D02*
X102052380Y-72704820D01*
X102052380Y-72704820D02*
X101957142Y-72704820D01*
X101957142Y-72704820D02*
X101814285Y-72752439D01*
X101814285Y-72752439D02*
X101766666Y-72800058D01*
X100909523Y-73038153D02*
X100909523Y-73704820D01*
X101147618Y-72657201D02*
X101385713Y-73371486D01*
X101385713Y-73371486D02*
X100766666Y-73371486D01*
X129547857Y-94339580D02*
X129595476Y-94387200D01*
X129595476Y-94387200D02*
X129738333Y-94434819D01*
X129738333Y-94434819D02*
X129833571Y-94434819D01*
X129833571Y-94434819D02*
X129976428Y-94387200D01*
X129976428Y-94387200D02*
X130071666Y-94291961D01*
X130071666Y-94291961D02*
X130119285Y-94196723D01*
X130119285Y-94196723D02*
X130166904Y-94006247D01*
X130166904Y-94006247D02*
X130166904Y-93863390D01*
X130166904Y-93863390D02*
X130119285Y-93672914D01*
X130119285Y-93672914D02*
X130071666Y-93577676D01*
X130071666Y-93577676D02*
X129976428Y-93482438D01*
X129976428Y-93482438D02*
X129833571Y-93434819D01*
X129833571Y-93434819D02*
X129738333Y-93434819D01*
X129738333Y-93434819D02*
X129595476Y-93482438D01*
X129595476Y-93482438D02*
X129547857Y-93530057D01*
X128595476Y-94434819D02*
X129166904Y-94434819D01*
X128881190Y-94434819D02*
X128881190Y-93434819D01*
X128881190Y-93434819D02*
X128976428Y-93577676D01*
X128976428Y-93577676D02*
X129071666Y-93672914D01*
X129071666Y-93672914D02*
X129166904Y-93720533D01*
X127690714Y-93434819D02*
X128166904Y-93434819D01*
X128166904Y-93434819D02*
X128214523Y-93911009D01*
X128214523Y-93911009D02*
X128166904Y-93863390D01*
X128166904Y-93863390D02*
X128071666Y-93815771D01*
X128071666Y-93815771D02*
X127833571Y-93815771D01*
X127833571Y-93815771D02*
X127738333Y-93863390D01*
X127738333Y-93863390D02*
X127690714Y-93911009D01*
X127690714Y-93911009D02*
X127643095Y-94006247D01*
X127643095Y-94006247D02*
X127643095Y-94244342D01*
X127643095Y-94244342D02*
X127690714Y-94339580D01*
X127690714Y-94339580D02*
X127738333Y-94387200D01*
X127738333Y-94387200D02*
X127833571Y-94434819D01*
X127833571Y-94434819D02*
X128071666Y-94434819D01*
X128071666Y-94434819D02*
X128166904Y-94387200D01*
X128166904Y-94387200D02*
X128214523Y-94339580D01*
X160027857Y-94339580D02*
X160075476Y-94387200D01*
X160075476Y-94387200D02*
X160218333Y-94434819D01*
X160218333Y-94434819D02*
X160313571Y-94434819D01*
X160313571Y-94434819D02*
X160456428Y-94387200D01*
X160456428Y-94387200D02*
X160551666Y-94291961D01*
X160551666Y-94291961D02*
X160599285Y-94196723D01*
X160599285Y-94196723D02*
X160646904Y-94006247D01*
X160646904Y-94006247D02*
X160646904Y-93863390D01*
X160646904Y-93863390D02*
X160599285Y-93672914D01*
X160599285Y-93672914D02*
X160551666Y-93577676D01*
X160551666Y-93577676D02*
X160456428Y-93482438D01*
X160456428Y-93482438D02*
X160313571Y-93434819D01*
X160313571Y-93434819D02*
X160218333Y-93434819D01*
X160218333Y-93434819D02*
X160075476Y-93482438D01*
X160075476Y-93482438D02*
X160027857Y-93530057D01*
X159694523Y-93434819D02*
X159075476Y-93434819D01*
X159075476Y-93434819D02*
X159408809Y-93815771D01*
X159408809Y-93815771D02*
X159265952Y-93815771D01*
X159265952Y-93815771D02*
X159170714Y-93863390D01*
X159170714Y-93863390D02*
X159123095Y-93911009D01*
X159123095Y-93911009D02*
X159075476Y-94006247D01*
X159075476Y-94006247D02*
X159075476Y-94244342D01*
X159075476Y-94244342D02*
X159123095Y-94339580D01*
X159123095Y-94339580D02*
X159170714Y-94387200D01*
X159170714Y-94387200D02*
X159265952Y-94434819D01*
X159265952Y-94434819D02*
X159551666Y-94434819D01*
X159551666Y-94434819D02*
X159646904Y-94387200D01*
X159646904Y-94387200D02*
X159694523Y-94339580D01*
X158123095Y-94434819D02*
X158694523Y-94434819D01*
X158408809Y-94434819D02*
X158408809Y-93434819D01*
X158408809Y-93434819D02*
X158504047Y-93577676D01*
X158504047Y-93577676D02*
X158599285Y-93672914D01*
X158599285Y-93672914D02*
X158694523Y-93720533D01*
X166377857Y-71479580D02*
X166425476Y-71527200D01*
X166425476Y-71527200D02*
X166568333Y-71574819D01*
X166568333Y-71574819D02*
X166663571Y-71574819D01*
X166663571Y-71574819D02*
X166806428Y-71527200D01*
X166806428Y-71527200D02*
X166901666Y-71431961D01*
X166901666Y-71431961D02*
X166949285Y-71336723D01*
X166949285Y-71336723D02*
X166996904Y-71146247D01*
X166996904Y-71146247D02*
X166996904Y-71003390D01*
X166996904Y-71003390D02*
X166949285Y-70812914D01*
X166949285Y-70812914D02*
X166901666Y-70717676D01*
X166901666Y-70717676D02*
X166806428Y-70622438D01*
X166806428Y-70622438D02*
X166663571Y-70574819D01*
X166663571Y-70574819D02*
X166568333Y-70574819D01*
X166568333Y-70574819D02*
X166425476Y-70622438D01*
X166425476Y-70622438D02*
X166377857Y-70670057D01*
X165996904Y-70670057D02*
X165949285Y-70622438D01*
X165949285Y-70622438D02*
X165854047Y-70574819D01*
X165854047Y-70574819D02*
X165615952Y-70574819D01*
X165615952Y-70574819D02*
X165520714Y-70622438D01*
X165520714Y-70622438D02*
X165473095Y-70670057D01*
X165473095Y-70670057D02*
X165425476Y-70765295D01*
X165425476Y-70765295D02*
X165425476Y-70860533D01*
X165425476Y-70860533D02*
X165473095Y-71003390D01*
X165473095Y-71003390D02*
X166044523Y-71574819D01*
X166044523Y-71574819D02*
X165425476Y-71574819D01*
X165092142Y-70574819D02*
X164473095Y-70574819D01*
X164473095Y-70574819D02*
X164806428Y-70955771D01*
X164806428Y-70955771D02*
X164663571Y-70955771D01*
X164663571Y-70955771D02*
X164568333Y-71003390D01*
X164568333Y-71003390D02*
X164520714Y-71051009D01*
X164520714Y-71051009D02*
X164473095Y-71146247D01*
X164473095Y-71146247D02*
X164473095Y-71384342D01*
X164473095Y-71384342D02*
X164520714Y-71479580D01*
X164520714Y-71479580D02*
X164568333Y-71527200D01*
X164568333Y-71527200D02*
X164663571Y-71574819D01*
X164663571Y-71574819D02*
X164949285Y-71574819D01*
X164949285Y-71574819D02*
X165044523Y-71527200D01*
X165044523Y-71527200D02*
X165092142Y-71479580D01*
X171457857Y-87989580D02*
X171505476Y-88037200D01*
X171505476Y-88037200D02*
X171648333Y-88084819D01*
X171648333Y-88084819D02*
X171743571Y-88084819D01*
X171743571Y-88084819D02*
X171886428Y-88037200D01*
X171886428Y-88037200D02*
X171981666Y-87941961D01*
X171981666Y-87941961D02*
X172029285Y-87846723D01*
X172029285Y-87846723D02*
X172076904Y-87656247D01*
X172076904Y-87656247D02*
X172076904Y-87513390D01*
X172076904Y-87513390D02*
X172029285Y-87322914D01*
X172029285Y-87322914D02*
X171981666Y-87227676D01*
X171981666Y-87227676D02*
X171886428Y-87132438D01*
X171886428Y-87132438D02*
X171743571Y-87084819D01*
X171743571Y-87084819D02*
X171648333Y-87084819D01*
X171648333Y-87084819D02*
X171505476Y-87132438D01*
X171505476Y-87132438D02*
X171457857Y-87180057D01*
X171124523Y-87084819D02*
X170505476Y-87084819D01*
X170505476Y-87084819D02*
X170838809Y-87465771D01*
X170838809Y-87465771D02*
X170695952Y-87465771D01*
X170695952Y-87465771D02*
X170600714Y-87513390D01*
X170600714Y-87513390D02*
X170553095Y-87561009D01*
X170553095Y-87561009D02*
X170505476Y-87656247D01*
X170505476Y-87656247D02*
X170505476Y-87894342D01*
X170505476Y-87894342D02*
X170553095Y-87989580D01*
X170553095Y-87989580D02*
X170600714Y-88037200D01*
X170600714Y-88037200D02*
X170695952Y-88084819D01*
X170695952Y-88084819D02*
X170981666Y-88084819D01*
X170981666Y-88084819D02*
X171076904Y-88037200D01*
X171076904Y-88037200D02*
X171124523Y-87989580D01*
X169886428Y-87084819D02*
X169791190Y-87084819D01*
X169791190Y-87084819D02*
X169695952Y-87132438D01*
X169695952Y-87132438D02*
X169648333Y-87180057D01*
X169648333Y-87180057D02*
X169600714Y-87275295D01*
X169600714Y-87275295D02*
X169553095Y-87465771D01*
X169553095Y-87465771D02*
X169553095Y-87703866D01*
X169553095Y-87703866D02*
X169600714Y-87894342D01*
X169600714Y-87894342D02*
X169648333Y-87989580D01*
X169648333Y-87989580D02*
X169695952Y-88037200D01*
X169695952Y-88037200D02*
X169791190Y-88084819D01*
X169791190Y-88084819D02*
X169886428Y-88084819D01*
X169886428Y-88084819D02*
X169981666Y-88037200D01*
X169981666Y-88037200D02*
X170029285Y-87989580D01*
X170029285Y-87989580D02*
X170076904Y-87894342D01*
X170076904Y-87894342D02*
X170124523Y-87703866D01*
X170124523Y-87703866D02*
X170124523Y-87465771D01*
X170124523Y-87465771D02*
X170076904Y-87275295D01*
X170076904Y-87275295D02*
X170029285Y-87180057D01*
X170029285Y-87180057D02*
X169981666Y-87132438D01*
X169981666Y-87132438D02*
X169886428Y-87084819D01*
X93352857Y-72339580D02*
X93400476Y-72387200D01*
X93400476Y-72387200D02*
X93543333Y-72434819D01*
X93543333Y-72434819D02*
X93638571Y-72434819D01*
X93638571Y-72434819D02*
X93781428Y-72387200D01*
X93781428Y-72387200D02*
X93876666Y-72291961D01*
X93876666Y-72291961D02*
X93924285Y-72196723D01*
X93924285Y-72196723D02*
X93971904Y-72006247D01*
X93971904Y-72006247D02*
X93971904Y-71863390D01*
X93971904Y-71863390D02*
X93924285Y-71672914D01*
X93924285Y-71672914D02*
X93876666Y-71577676D01*
X93876666Y-71577676D02*
X93781428Y-71482438D01*
X93781428Y-71482438D02*
X93638571Y-71434819D01*
X93638571Y-71434819D02*
X93543333Y-71434819D01*
X93543333Y-71434819D02*
X93400476Y-71482438D01*
X93400476Y-71482438D02*
X93352857Y-71530057D01*
X92495714Y-71768152D02*
X92495714Y-72434819D01*
X92733809Y-71387200D02*
X92971904Y-72101485D01*
X92971904Y-72101485D02*
X92352857Y-72101485D01*
X91495714Y-71434819D02*
X91971904Y-71434819D01*
X91971904Y-71434819D02*
X92019523Y-71911009D01*
X92019523Y-71911009D02*
X91971904Y-71863390D01*
X91971904Y-71863390D02*
X91876666Y-71815771D01*
X91876666Y-71815771D02*
X91638571Y-71815771D01*
X91638571Y-71815771D02*
X91543333Y-71863390D01*
X91543333Y-71863390D02*
X91495714Y-71911009D01*
X91495714Y-71911009D02*
X91448095Y-72006247D01*
X91448095Y-72006247D02*
X91448095Y-72244342D01*
X91448095Y-72244342D02*
X91495714Y-72339580D01*
X91495714Y-72339580D02*
X91543333Y-72387200D01*
X91543333Y-72387200D02*
X91638571Y-72434819D01*
X91638571Y-72434819D02*
X91876666Y-72434819D01*
X91876666Y-72434819D02*
X91971904Y-72387200D01*
X91971904Y-72387200D02*
X92019523Y-72339580D01*
X148558094Y-91529819D02*
X148558094Y-92339342D01*
X148558094Y-92339342D02*
X148510475Y-92434580D01*
X148510475Y-92434580D02*
X148462856Y-92482200D01*
X148462856Y-92482200D02*
X148367618Y-92529819D01*
X148367618Y-92529819D02*
X148177142Y-92529819D01*
X148177142Y-92529819D02*
X148081904Y-92482200D01*
X148081904Y-92482200D02*
X148034285Y-92434580D01*
X148034285Y-92434580D02*
X147986666Y-92339342D01*
X147986666Y-92339342D02*
X147986666Y-91529819D01*
X146986666Y-92529819D02*
X147558094Y-92529819D01*
X147272380Y-92529819D02*
X147272380Y-91529819D01*
X147272380Y-91529819D02*
X147367618Y-91672676D01*
X147367618Y-91672676D02*
X147462856Y-91767914D01*
X147462856Y-91767914D02*
X147558094Y-91815533D01*
X146034285Y-92529819D02*
X146605713Y-92529819D01*
X146319999Y-92529819D02*
X146319999Y-91529819D01*
X146319999Y-91529819D02*
X146415237Y-91672676D01*
X146415237Y-91672676D02*
X146510475Y-91767914D01*
X146510475Y-91767914D02*
X146605713Y-91815533D01*
X144993809Y-90577200D02*
X144850952Y-90624819D01*
X144850952Y-90624819D02*
X144612857Y-90624819D01*
X144612857Y-90624819D02*
X144517619Y-90577200D01*
X144517619Y-90577200D02*
X144470000Y-90529580D01*
X144470000Y-90529580D02*
X144422381Y-90434342D01*
X144422381Y-90434342D02*
X144422381Y-90339104D01*
X144422381Y-90339104D02*
X144470000Y-90243866D01*
X144470000Y-90243866D02*
X144517619Y-90196247D01*
X144517619Y-90196247D02*
X144612857Y-90148628D01*
X144612857Y-90148628D02*
X144803333Y-90101009D01*
X144803333Y-90101009D02*
X144898571Y-90053390D01*
X144898571Y-90053390D02*
X144946190Y-90005771D01*
X144946190Y-90005771D02*
X144993809Y-89910533D01*
X144993809Y-89910533D02*
X144993809Y-89815295D01*
X144993809Y-89815295D02*
X144946190Y-89720057D01*
X144946190Y-89720057D02*
X144898571Y-89672438D01*
X144898571Y-89672438D02*
X144803333Y-89624819D01*
X144803333Y-89624819D02*
X144565238Y-89624819D01*
X144565238Y-89624819D02*
X144422381Y-89672438D01*
X143993809Y-90624819D02*
X143993809Y-89624819D01*
X143993809Y-89624819D02*
X143612857Y-89624819D01*
X143612857Y-89624819D02*
X143517619Y-89672438D01*
X143517619Y-89672438D02*
X143470000Y-89720057D01*
X143470000Y-89720057D02*
X143422381Y-89815295D01*
X143422381Y-89815295D02*
X143422381Y-89958152D01*
X143422381Y-89958152D02*
X143470000Y-90053390D01*
X143470000Y-90053390D02*
X143517619Y-90101009D01*
X143517619Y-90101009D02*
X143612857Y-90148628D01*
X143612857Y-90148628D02*
X143993809Y-90148628D01*
X143089047Y-89624819D02*
X142470000Y-89624819D01*
X142470000Y-89624819D02*
X142803333Y-90005771D01*
X142803333Y-90005771D02*
X142660476Y-90005771D01*
X142660476Y-90005771D02*
X142565238Y-90053390D01*
X142565238Y-90053390D02*
X142517619Y-90101009D01*
X142517619Y-90101009D02*
X142470000Y-90196247D01*
X142470000Y-90196247D02*
X142470000Y-90434342D01*
X142470000Y-90434342D02*
X142517619Y-90529580D01*
X142517619Y-90529580D02*
X142565238Y-90577200D01*
X142565238Y-90577200D02*
X142660476Y-90624819D01*
X142660476Y-90624819D02*
X142946190Y-90624819D01*
X142946190Y-90624819D02*
X143041428Y-90577200D01*
X143041428Y-90577200D02*
X143089047Y-90529580D01*
X142089047Y-89720057D02*
X142041428Y-89672438D01*
X142041428Y-89672438D02*
X141946190Y-89624819D01*
X141946190Y-89624819D02*
X141708095Y-89624819D01*
X141708095Y-89624819D02*
X141612857Y-89672438D01*
X141612857Y-89672438D02*
X141565238Y-89720057D01*
X141565238Y-89720057D02*
X141517619Y-89815295D01*
X141517619Y-89815295D02*
X141517619Y-89910533D01*
X141517619Y-89910533D02*
X141565238Y-90053390D01*
X141565238Y-90053390D02*
X142136666Y-90624819D01*
X142136666Y-90624819D02*
X141517619Y-90624819D01*
X140660476Y-89958152D02*
X140660476Y-90624819D01*
X140898571Y-89577200D02*
X141136666Y-90291485D01*
X141136666Y-90291485D02*
X140517619Y-90291485D01*
X140231904Y-89624819D02*
X139612857Y-89624819D01*
X139612857Y-89624819D02*
X139946190Y-90005771D01*
X139946190Y-90005771D02*
X139803333Y-90005771D01*
X139803333Y-90005771D02*
X139708095Y-90053390D01*
X139708095Y-90053390D02*
X139660476Y-90101009D01*
X139660476Y-90101009D02*
X139612857Y-90196247D01*
X139612857Y-90196247D02*
X139612857Y-90434342D01*
X139612857Y-90434342D02*
X139660476Y-90529580D01*
X139660476Y-90529580D02*
X139708095Y-90577200D01*
X139708095Y-90577200D02*
X139803333Y-90624819D01*
X139803333Y-90624819D02*
X140089047Y-90624819D01*
X140089047Y-90624819D02*
X140184285Y-90577200D01*
X140184285Y-90577200D02*
X140231904Y-90529580D01*
X139184285Y-90101009D02*
X138850952Y-90101009D01*
X138708095Y-90624819D02*
X139184285Y-90624819D01*
X139184285Y-90624819D02*
X139184285Y-89624819D01*
X139184285Y-89624819D02*
X138708095Y-89624819D01*
X138279523Y-90101009D02*
X137946190Y-90101009D01*
X137803333Y-90624819D02*
X138279523Y-90624819D01*
X138279523Y-90624819D02*
X138279523Y-89624819D01*
X138279523Y-89624819D02*
X137803333Y-89624819D01*
X137184285Y-90148628D02*
X137184285Y-90624819D01*
X137517618Y-89624819D02*
X137184285Y-90148628D01*
X137184285Y-90148628D02*
X136850952Y-89624819D01*
X171457857Y-90529580D02*
X171505476Y-90577200D01*
X171505476Y-90577200D02*
X171648333Y-90624819D01*
X171648333Y-90624819D02*
X171743571Y-90624819D01*
X171743571Y-90624819D02*
X171886428Y-90577200D01*
X171886428Y-90577200D02*
X171981666Y-90481961D01*
X171981666Y-90481961D02*
X172029285Y-90386723D01*
X172029285Y-90386723D02*
X172076904Y-90196247D01*
X172076904Y-90196247D02*
X172076904Y-90053390D01*
X172076904Y-90053390D02*
X172029285Y-89862914D01*
X172029285Y-89862914D02*
X171981666Y-89767676D01*
X171981666Y-89767676D02*
X171886428Y-89672438D01*
X171886428Y-89672438D02*
X171743571Y-89624819D01*
X171743571Y-89624819D02*
X171648333Y-89624819D01*
X171648333Y-89624819D02*
X171505476Y-89672438D01*
X171505476Y-89672438D02*
X171457857Y-89720057D01*
X171124523Y-89624819D02*
X170505476Y-89624819D01*
X170505476Y-89624819D02*
X170838809Y-90005771D01*
X170838809Y-90005771D02*
X170695952Y-90005771D01*
X170695952Y-90005771D02*
X170600714Y-90053390D01*
X170600714Y-90053390D02*
X170553095Y-90101009D01*
X170553095Y-90101009D02*
X170505476Y-90196247D01*
X170505476Y-90196247D02*
X170505476Y-90434342D01*
X170505476Y-90434342D02*
X170553095Y-90529580D01*
X170553095Y-90529580D02*
X170600714Y-90577200D01*
X170600714Y-90577200D02*
X170695952Y-90624819D01*
X170695952Y-90624819D02*
X170981666Y-90624819D01*
X170981666Y-90624819D02*
X171076904Y-90577200D01*
X171076904Y-90577200D02*
X171124523Y-90529580D01*
X170124523Y-89720057D02*
X170076904Y-89672438D01*
X170076904Y-89672438D02*
X169981666Y-89624819D01*
X169981666Y-89624819D02*
X169743571Y-89624819D01*
X169743571Y-89624819D02*
X169648333Y-89672438D01*
X169648333Y-89672438D02*
X169600714Y-89720057D01*
X169600714Y-89720057D02*
X169553095Y-89815295D01*
X169553095Y-89815295D02*
X169553095Y-89910533D01*
X169553095Y-89910533D02*
X169600714Y-90053390D01*
X169600714Y-90053390D02*
X170172142Y-90624819D01*
X170172142Y-90624819D02*
X169553095Y-90624819D01*
X110021666Y-71479580D02*
X110069285Y-71527200D01*
X110069285Y-71527200D02*
X110212142Y-71574819D01*
X110212142Y-71574819D02*
X110307380Y-71574819D01*
X110307380Y-71574819D02*
X110450237Y-71527200D01*
X110450237Y-71527200D02*
X110545475Y-71431961D01*
X110545475Y-71431961D02*
X110593094Y-71336723D01*
X110593094Y-71336723D02*
X110640713Y-71146247D01*
X110640713Y-71146247D02*
X110640713Y-71003390D01*
X110640713Y-71003390D02*
X110593094Y-70812914D01*
X110593094Y-70812914D02*
X110545475Y-70717676D01*
X110545475Y-70717676D02*
X110450237Y-70622438D01*
X110450237Y-70622438D02*
X110307380Y-70574819D01*
X110307380Y-70574819D02*
X110212142Y-70574819D01*
X110212142Y-70574819D02*
X110069285Y-70622438D01*
X110069285Y-70622438D02*
X110021666Y-70670057D01*
X109640713Y-70670057D02*
X109593094Y-70622438D01*
X109593094Y-70622438D02*
X109497856Y-70574819D01*
X109497856Y-70574819D02*
X109259761Y-70574819D01*
X109259761Y-70574819D02*
X109164523Y-70622438D01*
X109164523Y-70622438D02*
X109116904Y-70670057D01*
X109116904Y-70670057D02*
X109069285Y-70765295D01*
X109069285Y-70765295D02*
X109069285Y-70860533D01*
X109069285Y-70860533D02*
X109116904Y-71003390D01*
X109116904Y-71003390D02*
X109688332Y-71574819D01*
X109688332Y-71574819D02*
X109069285Y-71574819D01*
X140977857Y-94339580D02*
X141025476Y-94387200D01*
X141025476Y-94387200D02*
X141168333Y-94434819D01*
X141168333Y-94434819D02*
X141263571Y-94434819D01*
X141263571Y-94434819D02*
X141406428Y-94387200D01*
X141406428Y-94387200D02*
X141501666Y-94291961D01*
X141501666Y-94291961D02*
X141549285Y-94196723D01*
X141549285Y-94196723D02*
X141596904Y-94006247D01*
X141596904Y-94006247D02*
X141596904Y-93863390D01*
X141596904Y-93863390D02*
X141549285Y-93672914D01*
X141549285Y-93672914D02*
X141501666Y-93577676D01*
X141501666Y-93577676D02*
X141406428Y-93482438D01*
X141406428Y-93482438D02*
X141263571Y-93434819D01*
X141263571Y-93434819D02*
X141168333Y-93434819D01*
X141168333Y-93434819D02*
X141025476Y-93482438D01*
X141025476Y-93482438D02*
X140977857Y-93530057D01*
X140596904Y-93530057D02*
X140549285Y-93482438D01*
X140549285Y-93482438D02*
X140454047Y-93434819D01*
X140454047Y-93434819D02*
X140215952Y-93434819D01*
X140215952Y-93434819D02*
X140120714Y-93482438D01*
X140120714Y-93482438D02*
X140073095Y-93530057D01*
X140073095Y-93530057D02*
X140025476Y-93625295D01*
X140025476Y-93625295D02*
X140025476Y-93720533D01*
X140025476Y-93720533D02*
X140073095Y-93863390D01*
X140073095Y-93863390D02*
X140644523Y-94434819D01*
X140644523Y-94434819D02*
X140025476Y-94434819D01*
X139692142Y-93434819D02*
X139025476Y-93434819D01*
X139025476Y-93434819D02*
X139454047Y-94434819D01*
X168243094Y-91529819D02*
X168243094Y-92339342D01*
X168243094Y-92339342D02*
X168195475Y-92434580D01*
X168195475Y-92434580D02*
X168147856Y-92482200D01*
X168147856Y-92482200D02*
X168052618Y-92529819D01*
X168052618Y-92529819D02*
X167862142Y-92529819D01*
X167862142Y-92529819D02*
X167766904Y-92482200D01*
X167766904Y-92482200D02*
X167719285Y-92434580D01*
X167719285Y-92434580D02*
X167671666Y-92339342D01*
X167671666Y-92339342D02*
X167671666Y-91529819D01*
X166671666Y-92529819D02*
X167243094Y-92529819D01*
X166957380Y-92529819D02*
X166957380Y-91529819D01*
X166957380Y-91529819D02*
X167052618Y-91672676D01*
X167052618Y-91672676D02*
X167147856Y-91767914D01*
X167147856Y-91767914D02*
X167243094Y-91815533D01*
X165814523Y-91863152D02*
X165814523Y-92529819D01*
X166052618Y-91482200D02*
X166290713Y-92196485D01*
X166290713Y-92196485D02*
X165671666Y-92196485D01*
X164043809Y-90577200D02*
X163900952Y-90624819D01*
X163900952Y-90624819D02*
X163662857Y-90624819D01*
X163662857Y-90624819D02*
X163567619Y-90577200D01*
X163567619Y-90577200D02*
X163520000Y-90529580D01*
X163520000Y-90529580D02*
X163472381Y-90434342D01*
X163472381Y-90434342D02*
X163472381Y-90339104D01*
X163472381Y-90339104D02*
X163520000Y-90243866D01*
X163520000Y-90243866D02*
X163567619Y-90196247D01*
X163567619Y-90196247D02*
X163662857Y-90148628D01*
X163662857Y-90148628D02*
X163853333Y-90101009D01*
X163853333Y-90101009D02*
X163948571Y-90053390D01*
X163948571Y-90053390D02*
X163996190Y-90005771D01*
X163996190Y-90005771D02*
X164043809Y-89910533D01*
X164043809Y-89910533D02*
X164043809Y-89815295D01*
X164043809Y-89815295D02*
X163996190Y-89720057D01*
X163996190Y-89720057D02*
X163948571Y-89672438D01*
X163948571Y-89672438D02*
X163853333Y-89624819D01*
X163853333Y-89624819D02*
X163615238Y-89624819D01*
X163615238Y-89624819D02*
X163472381Y-89672438D01*
X163043809Y-90624819D02*
X163043809Y-89624819D01*
X163043809Y-89624819D02*
X162662857Y-89624819D01*
X162662857Y-89624819D02*
X162567619Y-89672438D01*
X162567619Y-89672438D02*
X162520000Y-89720057D01*
X162520000Y-89720057D02*
X162472381Y-89815295D01*
X162472381Y-89815295D02*
X162472381Y-89958152D01*
X162472381Y-89958152D02*
X162520000Y-90053390D01*
X162520000Y-90053390D02*
X162567619Y-90101009D01*
X162567619Y-90101009D02*
X162662857Y-90148628D01*
X162662857Y-90148628D02*
X163043809Y-90148628D01*
X162139047Y-89624819D02*
X161520000Y-89624819D01*
X161520000Y-89624819D02*
X161853333Y-90005771D01*
X161853333Y-90005771D02*
X161710476Y-90005771D01*
X161710476Y-90005771D02*
X161615238Y-90053390D01*
X161615238Y-90053390D02*
X161567619Y-90101009D01*
X161567619Y-90101009D02*
X161520000Y-90196247D01*
X161520000Y-90196247D02*
X161520000Y-90434342D01*
X161520000Y-90434342D02*
X161567619Y-90529580D01*
X161567619Y-90529580D02*
X161615238Y-90577200D01*
X161615238Y-90577200D02*
X161710476Y-90624819D01*
X161710476Y-90624819D02*
X161996190Y-90624819D01*
X161996190Y-90624819D02*
X162091428Y-90577200D01*
X162091428Y-90577200D02*
X162139047Y-90529580D01*
X161139047Y-89720057D02*
X161091428Y-89672438D01*
X161091428Y-89672438D02*
X160996190Y-89624819D01*
X160996190Y-89624819D02*
X160758095Y-89624819D01*
X160758095Y-89624819D02*
X160662857Y-89672438D01*
X160662857Y-89672438D02*
X160615238Y-89720057D01*
X160615238Y-89720057D02*
X160567619Y-89815295D01*
X160567619Y-89815295D02*
X160567619Y-89910533D01*
X160567619Y-89910533D02*
X160615238Y-90053390D01*
X160615238Y-90053390D02*
X161186666Y-90624819D01*
X161186666Y-90624819D02*
X160567619Y-90624819D01*
X159710476Y-89958152D02*
X159710476Y-90624819D01*
X159948571Y-89577200D02*
X160186666Y-90291485D01*
X160186666Y-90291485D02*
X159567619Y-90291485D01*
X159281904Y-89624819D02*
X158662857Y-89624819D01*
X158662857Y-89624819D02*
X158996190Y-90005771D01*
X158996190Y-90005771D02*
X158853333Y-90005771D01*
X158853333Y-90005771D02*
X158758095Y-90053390D01*
X158758095Y-90053390D02*
X158710476Y-90101009D01*
X158710476Y-90101009D02*
X158662857Y-90196247D01*
X158662857Y-90196247D02*
X158662857Y-90434342D01*
X158662857Y-90434342D02*
X158710476Y-90529580D01*
X158710476Y-90529580D02*
X158758095Y-90577200D01*
X158758095Y-90577200D02*
X158853333Y-90624819D01*
X158853333Y-90624819D02*
X159139047Y-90624819D01*
X159139047Y-90624819D02*
X159234285Y-90577200D01*
X159234285Y-90577200D02*
X159281904Y-90529580D01*
X158234285Y-90101009D02*
X157900952Y-90101009D01*
X157758095Y-90624819D02*
X158234285Y-90624819D01*
X158234285Y-90624819D02*
X158234285Y-89624819D01*
X158234285Y-89624819D02*
X157758095Y-89624819D01*
X157329523Y-90101009D02*
X156996190Y-90101009D01*
X156853333Y-90624819D02*
X157329523Y-90624819D01*
X157329523Y-90624819D02*
X157329523Y-89624819D01*
X157329523Y-89624819D02*
X156853333Y-89624819D01*
X156234285Y-90148628D02*
X156234285Y-90624819D01*
X156567618Y-89624819D02*
X156234285Y-90148628D01*
X156234285Y-90148628D02*
X155900952Y-89624819D01*
X115831857Y-88116580D02*
X115879476Y-88164200D01*
X115879476Y-88164200D02*
X116022333Y-88211819D01*
X116022333Y-88211819D02*
X116117571Y-88211819D01*
X116117571Y-88211819D02*
X116260428Y-88164200D01*
X116260428Y-88164200D02*
X116355666Y-88068961D01*
X116355666Y-88068961D02*
X116403285Y-87973723D01*
X116403285Y-87973723D02*
X116450904Y-87783247D01*
X116450904Y-87783247D02*
X116450904Y-87640390D01*
X116450904Y-87640390D02*
X116403285Y-87449914D01*
X116403285Y-87449914D02*
X116355666Y-87354676D01*
X116355666Y-87354676D02*
X116260428Y-87259438D01*
X116260428Y-87259438D02*
X116117571Y-87211819D01*
X116117571Y-87211819D02*
X116022333Y-87211819D01*
X116022333Y-87211819D02*
X115879476Y-87259438D01*
X115879476Y-87259438D02*
X115831857Y-87307057D01*
X114879476Y-88211819D02*
X115450904Y-88211819D01*
X115165190Y-88211819D02*
X115165190Y-87211819D01*
X115165190Y-87211819D02*
X115260428Y-87354676D01*
X115260428Y-87354676D02*
X115355666Y-87449914D01*
X115355666Y-87449914D02*
X115450904Y-87497533D01*
X114260428Y-87211819D02*
X114165190Y-87211819D01*
X114165190Y-87211819D02*
X114069952Y-87259438D01*
X114069952Y-87259438D02*
X114022333Y-87307057D01*
X114022333Y-87307057D02*
X113974714Y-87402295D01*
X113974714Y-87402295D02*
X113927095Y-87592771D01*
X113927095Y-87592771D02*
X113927095Y-87830866D01*
X113927095Y-87830866D02*
X113974714Y-88021342D01*
X113974714Y-88021342D02*
X114022333Y-88116580D01*
X114022333Y-88116580D02*
X114069952Y-88164200D01*
X114069952Y-88164200D02*
X114165190Y-88211819D01*
X114165190Y-88211819D02*
X114260428Y-88211819D01*
X114260428Y-88211819D02*
X114355666Y-88164200D01*
X114355666Y-88164200D02*
X114403285Y-88116580D01*
X114403285Y-88116580D02*
X114450904Y-88021342D01*
X114450904Y-88021342D02*
X114498523Y-87830866D01*
X114498523Y-87830866D02*
X114498523Y-87592771D01*
X114498523Y-87592771D02*
X114450904Y-87402295D01*
X114450904Y-87402295D02*
X114403285Y-87307057D01*
X114403285Y-87307057D02*
X114355666Y-87259438D01*
X114355666Y-87259438D02*
X114260428Y-87211819D01*
X140342857Y-81639580D02*
X140390476Y-81687200D01*
X140390476Y-81687200D02*
X140533333Y-81734819D01*
X140533333Y-81734819D02*
X140628571Y-81734819D01*
X140628571Y-81734819D02*
X140771428Y-81687200D01*
X140771428Y-81687200D02*
X140866666Y-81591961D01*
X140866666Y-81591961D02*
X140914285Y-81496723D01*
X140914285Y-81496723D02*
X140961904Y-81306247D01*
X140961904Y-81306247D02*
X140961904Y-81163390D01*
X140961904Y-81163390D02*
X140914285Y-80972914D01*
X140914285Y-80972914D02*
X140866666Y-80877676D01*
X140866666Y-80877676D02*
X140771428Y-80782438D01*
X140771428Y-80782438D02*
X140628571Y-80734819D01*
X140628571Y-80734819D02*
X140533333Y-80734819D01*
X140533333Y-80734819D02*
X140390476Y-80782438D01*
X140390476Y-80782438D02*
X140342857Y-80830057D01*
X139390476Y-81734819D02*
X139961904Y-81734819D01*
X139676190Y-81734819D02*
X139676190Y-80734819D01*
X139676190Y-80734819D02*
X139771428Y-80877676D01*
X139771428Y-80877676D02*
X139866666Y-80972914D01*
X139866666Y-80972914D02*
X139961904Y-81020533D01*
X139057142Y-80734819D02*
X138390476Y-80734819D01*
X138390476Y-80734819D02*
X138819047Y-81734819D01*
X129071666Y-81639580D02*
X129119285Y-81687200D01*
X129119285Y-81687200D02*
X129262142Y-81734819D01*
X129262142Y-81734819D02*
X129357380Y-81734819D01*
X129357380Y-81734819D02*
X129500237Y-81687200D01*
X129500237Y-81687200D02*
X129595475Y-81591961D01*
X129595475Y-81591961D02*
X129643094Y-81496723D01*
X129643094Y-81496723D02*
X129690713Y-81306247D01*
X129690713Y-81306247D02*
X129690713Y-81163390D01*
X129690713Y-81163390D02*
X129643094Y-80972914D01*
X129643094Y-80972914D02*
X129595475Y-80877676D01*
X129595475Y-80877676D02*
X129500237Y-80782438D01*
X129500237Y-80782438D02*
X129357380Y-80734819D01*
X129357380Y-80734819D02*
X129262142Y-80734819D01*
X129262142Y-80734819D02*
X129119285Y-80782438D01*
X129119285Y-80782438D02*
X129071666Y-80830057D01*
X128166904Y-80734819D02*
X128643094Y-80734819D01*
X128643094Y-80734819D02*
X128690713Y-81211009D01*
X128690713Y-81211009D02*
X128643094Y-81163390D01*
X128643094Y-81163390D02*
X128547856Y-81115771D01*
X128547856Y-81115771D02*
X128309761Y-81115771D01*
X128309761Y-81115771D02*
X128214523Y-81163390D01*
X128214523Y-81163390D02*
X128166904Y-81211009D01*
X128166904Y-81211009D02*
X128119285Y-81306247D01*
X128119285Y-81306247D02*
X128119285Y-81544342D01*
X128119285Y-81544342D02*
X128166904Y-81639580D01*
X128166904Y-81639580D02*
X128214523Y-81687200D01*
X128214523Y-81687200D02*
X128309761Y-81734819D01*
X128309761Y-81734819D02*
X128547856Y-81734819D01*
X128547856Y-81734819D02*
X128643094Y-81687200D01*
X128643094Y-81687200D02*
X128690713Y-81639580D01*
D11*
X171550000Y-102608747D02*
X171550000Y-103131253D01*
X170080000Y-102608747D02*
X170080000Y-103131253D01*
X175795000Y-57411253D02*
X175795000Y-56888747D01*
X177265000Y-57411253D02*
X177265000Y-56888747D01*
X172295000Y-112054999D02*
X172294999Y-109855000D01*
X172295000Y-107655001D02*
X172294999Y-109855000D01*
X165525000Y-112054999D02*
X165525001Y-109855000D01*
X165525000Y-107655001D02*
X165525001Y-109855000D01*
X172075000Y-114044999D02*
X171595000Y-114045000D01*
X171835000Y-113715000D01*
X172075000Y-114044999D01*
G36*
X172075000Y-114044999D02*
G01*
X171595000Y-114045000D01*
X171835000Y-113715000D01*
X172075000Y-114044999D01*
G37*
X174615000Y-61339999D02*
X174135000Y-61340000D01*
X174375000Y-61010000D01*
X174615000Y-61339999D01*
G36*
X174615000Y-61339999D02*
G01*
X174135000Y-61340000D01*
X174375000Y-61010000D01*
X174615000Y-61339999D01*
G37*
X168065000Y-54950001D02*
X168065001Y-57150000D01*
X168065000Y-59349999D02*
X168065001Y-57150000D01*
X174835000Y-54950001D02*
X174834999Y-57150000D01*
X174835000Y-59349999D02*
X174834999Y-57150000D01*
X151405000Y-113572936D02*
X151405000Y-115027064D01*
X149585000Y-113572936D02*
X149585000Y-115027064D01*
X163470000Y-113572936D02*
X163470000Y-115027064D01*
X161650000Y-113572936D02*
X161650000Y-115027064D01*
X136165000Y-113572936D02*
X136165000Y-115027064D01*
X134345000Y-113572936D02*
X134345000Y-115027064D01*
X148230000Y-113572936D02*
X148230000Y-115027064D01*
X146410000Y-113572936D02*
X146410000Y-115027064D01*
X161650000Y-50892064D02*
X161650000Y-49437936D01*
X163470000Y-50892064D02*
X163470000Y-49437936D01*
X149585000Y-50892064D02*
X149585000Y-49437936D01*
X151405000Y-50892064D02*
X151405000Y-49437936D01*
X146410000Y-50892064D02*
X146410000Y-49437936D01*
X148230000Y-50892064D02*
X148230000Y-49437936D01*
X134345000Y-50892064D02*
X134345000Y-49437936D01*
X136165000Y-50892064D02*
X136165000Y-49437936D01*
X120290000Y-113572936D02*
X120290000Y-115027064D01*
X118470000Y-113572936D02*
X118470000Y-115027064D01*
X132990000Y-113572936D02*
X132990000Y-115027064D01*
X131170000Y-113572936D02*
X131170000Y-115027064D01*
X105050000Y-113572936D02*
X105050000Y-115027064D01*
X103230000Y-113572936D02*
X103230000Y-115027064D01*
X117115000Y-113572936D02*
X117115000Y-115027064D01*
X115295000Y-113572936D02*
X115295000Y-115027064D01*
X131170000Y-50892064D02*
X131170000Y-49437936D01*
X132990000Y-50892064D02*
X132990000Y-49437936D01*
X118470000Y-50892064D02*
X118470000Y-49437936D01*
X120290000Y-50892064D02*
X120290000Y-49437936D01*
X115295000Y-50892064D02*
X115295000Y-49437936D01*
X117115000Y-50892064D02*
X117115000Y-49437936D01*
X103230000Y-50892064D02*
X103230000Y-49437936D01*
X105050000Y-50892064D02*
X105050000Y-49437936D01*
X104260000Y-73890000D02*
X104259999Y-76200000D01*
X104260000Y-78510000D02*
X104259999Y-76200000D01*
X104535000Y-73890000D02*
X104260000Y-73890000D01*
X104535000Y-78510000D02*
X104260000Y-78510000D01*
X113905000Y-73890000D02*
X114180000Y-73890000D01*
X113905000Y-78510000D02*
X114180000Y-78510000D01*
X114180000Y-73890000D02*
X114180001Y-76200000D01*
X114180000Y-78510000D02*
X114180001Y-76200000D01*
X104535000Y-73300000D02*
X104205000Y-73539999D01*
X104205000Y-73060000D01*
X104535000Y-73300000D01*
G36*
X104535000Y-73300000D02*
G01*
X104205000Y-73539999D01*
X104205000Y-73060000D01*
X104535000Y-73300000D01*
G37*
X120388747Y-74195000D02*
X120911253Y-74195000D01*
X120388747Y-75665000D02*
X120911253Y-75665000D01*
X106418747Y-83085000D02*
X106941253Y-83085000D01*
X106418747Y-84555000D02*
X106941253Y-84555000D01*
X112021253Y-89435000D02*
X111498747Y-89435000D01*
X112021253Y-90905000D02*
X111498747Y-90905000D01*
X138168747Y-76734999D02*
X138691253Y-76734999D01*
X138168747Y-78204999D02*
X138691253Y-78204999D01*
X162298747Y-83085000D02*
X162821253Y-83085000D01*
X162298747Y-84555000D02*
X162821253Y-84555000D01*
X157218747Y-74195000D02*
X157741253Y-74195000D01*
X157218747Y-75665000D02*
X157741253Y-75665000D01*
X148851253Y-86895000D02*
X148328747Y-86895000D01*
X148851253Y-88365000D02*
X148328747Y-88365000D01*
X120388747Y-76735000D02*
X120911253Y-76735000D01*
X120388747Y-78205000D02*
X120911253Y-78205000D01*
X131071253Y-86895000D02*
X130548747Y-86895000D01*
X131071253Y-88365000D02*
X130548747Y-88365000D01*
X99180000Y-86590000D02*
X99179999Y-88900000D01*
X99180000Y-91210000D02*
X99179999Y-88900000D01*
X99455000Y-86590000D02*
X99180000Y-86590000D01*
X99455000Y-91210000D02*
X99180000Y-91210000D01*
X108825000Y-86590000D02*
X109100000Y-86590000D01*
X108825000Y-91210000D02*
X109100000Y-91210000D01*
X109100000Y-86590000D02*
X109100001Y-88900000D01*
X109100000Y-91210000D02*
X109100001Y-88900000D01*
X109155000Y-92040000D02*
X108825000Y-91800000D01*
X109155000Y-91560001D01*
X109155000Y-92040000D01*
G36*
X109155000Y-92040000D02*
G01*
X108825000Y-91800000D01*
X109155000Y-91560001D01*
X109155000Y-92040000D01*
G37*
X162821253Y-80545000D02*
X162298747Y-80545000D01*
X162821253Y-82015000D02*
X162298747Y-82015000D01*
X131071253Y-89435000D02*
X130548747Y-89435000D01*
X131071253Y-90905000D02*
X130548747Y-90905000D01*
X138168747Y-74194999D02*
X138691253Y-74194999D01*
X138168747Y-75664999D02*
X138691253Y-75664999D01*
X125468747Y-83085000D02*
X125991253Y-83085000D01*
X125468747Y-84555000D02*
X125991253Y-84555000D01*
X79275000Y-112133747D02*
X79275000Y-112656253D01*
X80745000Y-112133747D02*
X80745000Y-112656253D01*
X81290000Y-110445000D02*
X81289999Y-112395000D01*
X81290000Y-114345000D02*
X81289999Y-112395000D01*
X90160000Y-110445000D02*
X90160001Y-112395000D01*
X90160000Y-114345000D02*
X90160001Y-112395000D01*
X81355000Y-109695000D02*
X81025000Y-109935000D01*
X81025000Y-109455000D01*
X81355000Y-109695000D01*
G36*
X81355000Y-109695000D02*
G01*
X81025000Y-109935000D01*
X81025000Y-109455000D01*
X81355000Y-109695000D01*
G37*
X157218747Y-76735000D02*
X157741253Y-76735000D01*
X157218747Y-78205000D02*
X157741253Y-78205000D01*
X118230000Y-86590000D02*
X118229999Y-88900000D01*
X118230000Y-91210000D02*
X118229999Y-88900000D01*
X118505000Y-86590000D02*
X118230000Y-86590000D01*
X118505000Y-91210000D02*
X118230000Y-91210000D01*
X127875000Y-86590000D02*
X128150000Y-86590000D01*
X127875000Y-91210000D02*
X128150000Y-91210000D01*
X128150000Y-86590000D02*
X128150001Y-88900000D01*
X128150000Y-91210000D02*
X128150001Y-88900000D01*
X128205000Y-92040000D02*
X127875000Y-91800000D01*
X128205000Y-91560001D01*
X128205000Y-92040000D01*
G36*
X128205000Y-92040000D02*
G01*
X127875000Y-91800000D01*
X128205000Y-91560001D01*
X128205000Y-92040000D01*
G37*
X101338747Y-76735000D02*
X101861253Y-76735000D01*
X101338747Y-78205000D02*
X101861253Y-78205000D01*
X125991253Y-70385000D02*
X125468747Y-70385000D01*
X125991253Y-71855000D02*
X125468747Y-71855000D01*
X82288748Y-62765000D02*
X82811252Y-62765000D01*
X82288748Y-64235000D02*
X82811252Y-64235000D01*
X148851253Y-89435000D02*
X148328747Y-89435000D01*
X148851253Y-90905000D02*
X148328747Y-90905000D01*
X160140000Y-73890000D02*
X160139999Y-76200000D01*
X160140000Y-78510000D02*
X160139999Y-76200000D01*
X160415000Y-73890000D02*
X160140000Y-73890000D01*
X160415000Y-78510000D02*
X160140000Y-78510000D01*
X169785000Y-73890000D02*
X170060000Y-73890000D01*
X169785000Y-78510000D02*
X170060000Y-78510000D01*
X170060000Y-73890000D02*
X170060001Y-76200000D01*
X170060000Y-78510000D02*
X170060001Y-76200000D01*
X160415000Y-73300000D02*
X160085000Y-73539999D01*
X160085000Y-73060000D01*
X160415000Y-73300000D01*
G36*
X160415000Y-73300000D02*
G01*
X160085000Y-73539999D01*
X160085000Y-73060000D01*
X160415000Y-73300000D01*
G37*
X106418747Y-93245000D02*
X106941253Y-93245000D01*
X106418747Y-94715000D02*
X106941253Y-94715000D01*
X143248747Y-83085000D02*
X143771253Y-83085000D01*
X143248747Y-84555000D02*
X143771253Y-84555000D01*
X143771253Y-70384999D02*
X143248747Y-70384999D01*
X143771253Y-71854999D02*
X143248747Y-71854999D01*
X106941253Y-80545000D02*
X106418747Y-80545000D01*
X106941253Y-82015000D02*
X106418747Y-82015000D01*
X141090000Y-73890000D02*
X141089999Y-76200000D01*
X141090000Y-78510000D02*
X141089999Y-76200000D01*
X141365000Y-73890000D02*
X141090000Y-73890000D01*
X141365000Y-78510000D02*
X141090000Y-78510000D01*
X150735000Y-73890000D02*
X151010000Y-73890000D01*
X150735000Y-78510000D02*
X151010000Y-78510000D01*
X151010000Y-73890000D02*
X151010001Y-76200000D01*
X151010000Y-78510000D02*
X151010001Y-76200000D01*
X141365000Y-73300000D02*
X141035000Y-73539999D01*
X141035000Y-73060000D01*
X141365000Y-73300000D01*
G36*
X141365000Y-73300000D02*
G01*
X141035000Y-73539999D01*
X141035000Y-73060000D01*
X141365000Y-73300000D01*
G37*
X123310000Y-73890000D02*
X123309999Y-76200000D01*
X123310000Y-78510000D02*
X123309999Y-76200000D01*
X123585000Y-73890000D02*
X123310000Y-73890000D01*
X123585000Y-78510000D02*
X123310000Y-78510000D01*
X132955000Y-73890000D02*
X133230000Y-73890000D01*
X132955000Y-78510000D02*
X133230000Y-78510000D01*
X133230000Y-73890000D02*
X133230001Y-76200000D01*
X133230000Y-78510000D02*
X133230001Y-76200000D01*
X123585000Y-73300000D02*
X123255000Y-73539999D01*
X123255000Y-73060000D01*
X123585000Y-73300000D01*
G36*
X123585000Y-73300000D02*
G01*
X123255000Y-73539999D01*
X123255000Y-73060000D01*
X123585000Y-73300000D01*
G37*
X82288748Y-95785000D02*
X82811252Y-95785000D01*
X82288748Y-97255000D02*
X82811252Y-97255000D01*
X101338747Y-74195000D02*
X101861253Y-74195000D01*
X101338747Y-75665000D02*
X101861253Y-75665000D01*
X125468747Y-93245000D02*
X125991253Y-93245000D01*
X125468747Y-94715000D02*
X125991253Y-94715000D01*
X162298747Y-93245000D02*
X162821253Y-93245000D01*
X162298747Y-94715000D02*
X162821253Y-94715000D01*
X162821253Y-70385000D02*
X162298747Y-70385000D01*
X162821253Y-71855000D02*
X162298747Y-71855000D01*
X167901253Y-86895000D02*
X167378747Y-86895000D01*
X167901253Y-88365000D02*
X167378747Y-88365000D01*
X92448748Y-72925000D02*
X92971252Y-72925000D01*
X92448748Y-74395000D02*
X92971252Y-74395000D01*
X136010000Y-86590000D02*
X136009999Y-88900000D01*
X136010000Y-91210000D02*
X136009999Y-88900000D01*
X136285000Y-86590000D02*
X136010000Y-86590000D01*
X136285000Y-91210000D02*
X136010000Y-91210000D01*
X145655000Y-86590000D02*
X145930000Y-86590000D01*
X145655000Y-91210000D02*
X145930000Y-91210000D01*
X145930000Y-86590000D02*
X145930001Y-88900000D01*
X145930000Y-91210000D02*
X145930001Y-88900000D01*
X145985000Y-92040000D02*
X145655000Y-91800000D01*
X145985000Y-91560001D01*
X145985000Y-92040000D01*
G36*
X145985000Y-92040000D02*
G01*
X145655000Y-91800000D01*
X145985000Y-91560001D01*
X145985000Y-92040000D01*
G37*
X167901253Y-89435000D02*
X167378747Y-89435000D01*
X167901253Y-90905000D02*
X167378747Y-90905000D01*
X106941253Y-70385000D02*
X106418747Y-70385000D01*
X106941253Y-71855000D02*
X106418747Y-71855000D01*
X143248747Y-93245000D02*
X143771253Y-93245000D01*
X143248747Y-94715000D02*
X143771253Y-94715000D01*
X155060000Y-86590000D02*
X155059999Y-88900000D01*
X155060000Y-91210000D02*
X155059999Y-88900000D01*
X155335000Y-86590000D02*
X155060000Y-86590000D01*
X155335000Y-91210000D02*
X155060000Y-91210000D01*
X164705000Y-86590000D02*
X164980000Y-86590000D01*
X164705000Y-91210000D02*
X164980000Y-91210000D01*
X164980000Y-86590000D02*
X164980001Y-88900000D01*
X164980000Y-91210000D02*
X164980001Y-88900000D01*
X165035000Y-92040000D02*
X164705000Y-91800000D01*
X165035000Y-91560001D01*
X165035000Y-92040000D01*
G36*
X165035000Y-92040000D02*
G01*
X164705000Y-91800000D01*
X165035000Y-91560001D01*
X165035000Y-92040000D01*
G37*
X112021253Y-86895000D02*
X111498747Y-86895000D01*
X112021253Y-88365000D02*
X111498747Y-88365000D01*
X143771253Y-80544999D02*
X143248747Y-80544999D01*
X143771253Y-82014999D02*
X143248747Y-82014999D01*
X125991253Y-80545000D02*
X125468747Y-80545000D01*
X125991253Y-82015000D02*
X125468747Y-82015000D01*
%LPC*%
D12*
X170815000Y-103907500D03*
X170815000Y-101832500D03*
D13*
X176530000Y-56112500D03*
X176530000Y-58187500D03*
D14*
X113300000Y-117000000D03*
X112280000Y-115220000D03*
X111260000Y-117000000D03*
X110240000Y-115220000D03*
X109220000Y-117000000D03*
X108200000Y-115220000D03*
X107180000Y-117000000D03*
X106160000Y-115220000D03*
X116590000Y-110400000D03*
X114300000Y-110400000D03*
X105160000Y-110400000D03*
X102870000Y-110400000D03*
X129050000Y-117000000D03*
X128030000Y-115220000D03*
X127010000Y-117000000D03*
X125990000Y-115220000D03*
X124970000Y-117000000D03*
X123950000Y-115220000D03*
X122930000Y-117000000D03*
X121910000Y-115220000D03*
X132340000Y-110400000D03*
X130050000Y-110400000D03*
X120910000Y-110400000D03*
X118620000Y-110400000D03*
X144800000Y-117000000D03*
X143780000Y-115220000D03*
X142760000Y-117000000D03*
X141740000Y-115220000D03*
X140720000Y-117000000D03*
X139700000Y-115220000D03*
X138680000Y-117000000D03*
X137660000Y-115220000D03*
X148090000Y-110400000D03*
X145800000Y-110400000D03*
X136660000Y-110400000D03*
X134370000Y-110400000D03*
X160550000Y-117000000D03*
X159530000Y-115220000D03*
X158510000Y-117000000D03*
X157490000Y-115220000D03*
X156470000Y-117000000D03*
X155450000Y-115220000D03*
X154430000Y-117000000D03*
X153410000Y-115220000D03*
X163840000Y-110400000D03*
X161550000Y-110400000D03*
X152410000Y-110400000D03*
X150120000Y-110400000D03*
D15*
X101600000Y-116120000D03*
D16*
X103380000Y-119540000D03*
D15*
X125475000Y-109380000D03*
X141225000Y-109380000D03*
D16*
X163320000Y-119540000D03*
D15*
X165100000Y-116140000D03*
D17*
X171835000Y-112717500D03*
X171185000Y-112717500D03*
X170535000Y-112717500D03*
X169885000Y-112717500D03*
X169235000Y-112717500D03*
X168585000Y-112717500D03*
X167935000Y-112717500D03*
X167285000Y-112717500D03*
X166635000Y-112717500D03*
X165985000Y-112717500D03*
X165985000Y-106992500D03*
X166635000Y-106992500D03*
X167285000Y-106992500D03*
X167935000Y-106992500D03*
X168585000Y-106992500D03*
X169235000Y-106992500D03*
X169885000Y-106992500D03*
X170535000Y-106992500D03*
X171185000Y-106992500D03*
X171835000Y-106992500D03*
X174375000Y-54287500D03*
X173725000Y-54287500D03*
X173075000Y-54287500D03*
X172425000Y-54287500D03*
X171775000Y-54287500D03*
X171125000Y-54287500D03*
X170475000Y-54287500D03*
X169825000Y-54287500D03*
X169175000Y-54287500D03*
X168525000Y-54287500D03*
X168525000Y-60012500D03*
X169175000Y-60012500D03*
X169825000Y-60012500D03*
X170475000Y-60012500D03*
X171125000Y-60012500D03*
X171775000Y-60012500D03*
X172425000Y-60012500D03*
X173075000Y-60012500D03*
X173725000Y-60012500D03*
X174375000Y-60012500D03*
D18*
X150495000Y-115850001D03*
X150495000Y-112749999D03*
X162560000Y-115850001D03*
X162560000Y-112749999D03*
X135255000Y-115850001D03*
X135255000Y-112749999D03*
X147320000Y-115850001D03*
X147320000Y-112749999D03*
D19*
X162560000Y-48614999D03*
X162560000Y-51715001D03*
X150495000Y-48614999D03*
X150495000Y-51715001D03*
X147320000Y-48614999D03*
X147320000Y-51715001D03*
X135255000Y-48614999D03*
X135255000Y-51715001D03*
D18*
X119380000Y-115850001D03*
X119380000Y-112749999D03*
X132080000Y-115850001D03*
X132080000Y-112749999D03*
X104140000Y-115850001D03*
X104140000Y-112749999D03*
X116205000Y-115850001D03*
X116205000Y-112749999D03*
D19*
X132080000Y-48615000D03*
X132080000Y-51715000D03*
X119380000Y-48615000D03*
X119380000Y-51715000D03*
X116205000Y-48615000D03*
X116205000Y-51715000D03*
X104140000Y-48615000D03*
X104140000Y-51715000D03*
D20*
X116903821Y-62293821D03*
D21*
X118699872Y-60497770D03*
X118699872Y-64089872D03*
X120495923Y-62293821D03*
D22*
X111685573Y-102809715D03*
D23*
X109889522Y-104605766D03*
X109889522Y-101013664D03*
X108093471Y-102809715D03*
D22*
X139545923Y-102806179D03*
D23*
X137749872Y-104602230D03*
X137749872Y-101010128D03*
X135953821Y-102806179D03*
D24*
X91440000Y-96520000D03*
D25*
X93980000Y-96520000D03*
X91440000Y-99060000D03*
X93980000Y-99060000D03*
X91440000Y-101600000D03*
X93980000Y-101600000D03*
X91440000Y-104140000D03*
X93980000Y-104140000D03*
D20*
X144934077Y-62293822D03*
D21*
X146730128Y-60497771D03*
X146730128Y-64089873D03*
X148526179Y-62293822D03*
D20*
X140443949Y-66783949D03*
D21*
X142240000Y-64987898D03*
X142240000Y-68580000D03*
X144036051Y-66783949D03*
D26*
X82610000Y-47729999D03*
D27*
X85110000Y-47729999D03*
X87610000Y-47729999D03*
X90110000Y-47729999D03*
D20*
X125884077Y-62293821D03*
D21*
X127680128Y-60497770D03*
X127680128Y-64089872D03*
X129476179Y-62293821D03*
D20*
X153733821Y-62293821D03*
D21*
X155529872Y-60497770D03*
X155529872Y-64089872D03*
X157325923Y-62293821D03*
D28*
X171590000Y-49530000D03*
X172292944Y-47832944D03*
X172292944Y-51227056D03*
X173990000Y-47130000D03*
D29*
X173990000Y-49530000D03*
D28*
X173990000Y-51930000D03*
X175687056Y-47832944D03*
X175687056Y-51227056D03*
X176390000Y-49530000D03*
D22*
X124986051Y-98316051D03*
D23*
X123190000Y-100112102D03*
X123190000Y-96520000D03*
X121393949Y-98316051D03*
D22*
X161816051Y-98316051D03*
D23*
X160020000Y-100112102D03*
X160020000Y-96520000D03*
X158223949Y-98316051D03*
D22*
X166306179Y-102806179D03*
D23*
X164510128Y-104602230D03*
X164510128Y-101010128D03*
X162714077Y-102806179D03*
D20*
X103613949Y-66783949D03*
D21*
X105410000Y-64987898D03*
X105410000Y-68580000D03*
X107206051Y-66783949D03*
D20*
X121393949Y-66783949D03*
D21*
X123190000Y-64987898D03*
X123190000Y-68580000D03*
X124986051Y-66783949D03*
D30*
X78740000Y-96520000D03*
D31*
X78740000Y-104140000D03*
X86360000Y-104140000D03*
X86360000Y-96520000D03*
D22*
X144036051Y-98316051D03*
D23*
X142240000Y-100112102D03*
X142240000Y-96520000D03*
X140443949Y-98316051D03*
D20*
X108104077Y-62293821D03*
D21*
X109900128Y-60497770D03*
X109900128Y-64089872D03*
X111696179Y-62293821D03*
D30*
X78740000Y-63500000D03*
D32*
X78740000Y-66040000D03*
X78740000Y-68580000D03*
X78740000Y-71120000D03*
X78740000Y-73660000D03*
X78740000Y-76200000D03*
X78740000Y-78740000D03*
X78740000Y-81280000D03*
X78740000Y-83820000D03*
X78740000Y-86360000D03*
X78740000Y-88900000D03*
X78740000Y-91440000D03*
X86360000Y-91440000D03*
X86360000Y-88900000D03*
X86360000Y-86360000D03*
X86360000Y-83820000D03*
X86360000Y-81280000D03*
X86360000Y-78740000D03*
X86360000Y-76200000D03*
X86360000Y-73660000D03*
X86360000Y-71120000D03*
X86360000Y-68580000D03*
X86360000Y-66040000D03*
X86360000Y-63500000D03*
D28*
X72530000Y-49530000D03*
X73232944Y-47832944D03*
X73232944Y-51227056D03*
X74930000Y-47130000D03*
D29*
X74930000Y-49530000D03*
D28*
X74930000Y-51930000D03*
X76627056Y-47832944D03*
X76627056Y-51227056D03*
X77330000Y-49530000D03*
D20*
X162714077Y-62293821D03*
D21*
X164510128Y-60497770D03*
X164510128Y-64089872D03*
X166306179Y-62293821D03*
D33*
X82630000Y-55880000D03*
D34*
X87630000Y-55880000D03*
D22*
X129476179Y-102806178D03*
D23*
X127680128Y-104602229D03*
X127680128Y-101010127D03*
X125884077Y-102806178D03*
D28*
X171590000Y-120650000D03*
X172292944Y-118952944D03*
X172292944Y-122347056D03*
X173990000Y-118250000D03*
D29*
X173990000Y-120650000D03*
D28*
X173990000Y-123050000D03*
X175687056Y-118952944D03*
X175687056Y-122347056D03*
X176390000Y-120650000D03*
D22*
X102715923Y-102806179D03*
D23*
X100919872Y-104602230D03*
X100919872Y-101010128D03*
X99123821Y-102806179D03*
D22*
X148526179Y-102806179D03*
D23*
X146730128Y-104602230D03*
X146730128Y-101010128D03*
X144934077Y-102806179D03*
D24*
X95235000Y-67310000D03*
D25*
X92695000Y-67310000D03*
X90155001Y-67310000D03*
D28*
X72530000Y-120650000D03*
X73232944Y-118952944D03*
X73232944Y-122347056D03*
X74930000Y-118250000D03*
D29*
X74930000Y-120650000D03*
D28*
X74930000Y-123050000D03*
X76627056Y-118952944D03*
X76627056Y-122347056D03*
X77330000Y-120650000D03*
D22*
X120495923Y-102806179D03*
D23*
X118699872Y-104602230D03*
X118699872Y-101010128D03*
X116903821Y-102806179D03*
D20*
X135953821Y-62293821D03*
D21*
X137749872Y-60497770D03*
X137749872Y-64089872D03*
X139545923Y-62293821D03*
D30*
X88900000Y-73660000D03*
D32*
X88900000Y-76200000D03*
X88900000Y-78740000D03*
X88900000Y-81280000D03*
X88900000Y-83820000D03*
X88900000Y-86360000D03*
X88900000Y-88900000D03*
X88900000Y-91440000D03*
X96520000Y-91440000D03*
X96520000Y-88900000D03*
X96520000Y-86360000D03*
X96520000Y-83820000D03*
X96520000Y-81280000D03*
X96520000Y-78740000D03*
X96520000Y-76200000D03*
X96520000Y-73660000D03*
D20*
X158223949Y-66783949D03*
D21*
X160020000Y-64987898D03*
X160020000Y-68580000D03*
X161816051Y-66783949D03*
D22*
X157325923Y-102806179D03*
D23*
X155529872Y-104602230D03*
X155529872Y-101010128D03*
X153733821Y-102806179D03*
D20*
X99123821Y-62293821D03*
D21*
X100919872Y-60497770D03*
X100919872Y-64089872D03*
X102715923Y-62293821D03*
D24*
X173990000Y-62230000D03*
D25*
X176530000Y-62230000D03*
X173990000Y-64770000D03*
X176530000Y-64770000D03*
X173990000Y-67310000D03*
X176530000Y-67310000D03*
X173990000Y-69850000D03*
X176530000Y-69850000D03*
X173990000Y-72390000D03*
X176530000Y-72390000D03*
X173990000Y-74930000D03*
X176530000Y-74930000D03*
X173990000Y-77470000D03*
X176530000Y-77470000D03*
X173990000Y-80010000D03*
X176530000Y-80010000D03*
X173990000Y-82550000D03*
X176530000Y-82550000D03*
X173990000Y-85090000D03*
X176530000Y-85090000D03*
X173990000Y-87630000D03*
X176530000Y-87630000D03*
X173990000Y-90170000D03*
X176530000Y-90170000D03*
X173990000Y-92710000D03*
X176530000Y-92710000D03*
X173990000Y-95250000D03*
X176530000Y-95250000D03*
X173990000Y-97790000D03*
X176530000Y-97790000D03*
X173990000Y-100330000D03*
X176530000Y-100330000D03*
X173990000Y-102870000D03*
X176530000Y-102870000D03*
X173990000Y-105410000D03*
X176530000Y-105410000D03*
X173990000Y-107950000D03*
X176530000Y-107950000D03*
X173990000Y-110490000D03*
X176530000Y-110490000D03*
D24*
X95250000Y-44450000D03*
D25*
X95250000Y-46990000D03*
D24*
X74930000Y-80010000D03*
D25*
X72390000Y-80010000D03*
X74930000Y-77470000D03*
X72390000Y-77470000D03*
X74930000Y-74930001D03*
X72390000Y-74930000D03*
X74930000Y-72390000D03*
X72390000Y-72390000D03*
X74930000Y-69850000D03*
X72390000Y-69850000D03*
X74930000Y-67310000D03*
X72390000Y-67310000D03*
X74930000Y-64770000D03*
X72390000Y-64770000D03*
X74930000Y-62229999D03*
X72390000Y-62230000D03*
X74930000Y-59690000D03*
X72390000Y-59690000D03*
X74930000Y-57150000D03*
X72390000Y-57150000D03*
D24*
X95235000Y-64770000D03*
D25*
X92695000Y-64770000D03*
X90155001Y-64770000D03*
D24*
X95235000Y-69850000D03*
D25*
X92695000Y-69850000D03*
X90155001Y-69850000D03*
D30*
X91480000Y-53340000D03*
D31*
X93980000Y-53340000D03*
D22*
X107206051Y-98316051D03*
D23*
X105410000Y-100112102D03*
X105410000Y-96520000D03*
X103613949Y-98316051D03*
D35*
X104995000Y-73337500D03*
X105645000Y-73337500D03*
X106295000Y-73337500D03*
X106945000Y-73337500D03*
X107595000Y-73337500D03*
X108245000Y-73337500D03*
X108895000Y-73337500D03*
X109545000Y-73337500D03*
X110195000Y-73337500D03*
X110845000Y-73337500D03*
X111495000Y-73337500D03*
X112145000Y-73337500D03*
X112795000Y-73337500D03*
X113445000Y-73337500D03*
X113445000Y-79062500D03*
X112795000Y-79062500D03*
X112145000Y-79062500D03*
X111495000Y-79062500D03*
X110845000Y-79062500D03*
X110195000Y-79062500D03*
X109545000Y-79062500D03*
X108895000Y-79062500D03*
X108245000Y-79062500D03*
X107595000Y-79062500D03*
X106945000Y-79062500D03*
X106295000Y-79062500D03*
X105645000Y-79062500D03*
X104995000Y-79062500D03*
D36*
X121687500Y-74930000D03*
X119612500Y-74930000D03*
X107717500Y-83820000D03*
X105642500Y-83820000D03*
D37*
X110722500Y-90170000D03*
X112797500Y-90170000D03*
D36*
X139467500Y-77469999D03*
X137392500Y-77469999D03*
X163597500Y-83820000D03*
X161522500Y-83820000D03*
X158517500Y-74930000D03*
X156442500Y-74930000D03*
D37*
X147552500Y-87630000D03*
X149627500Y-87630000D03*
D36*
X121687500Y-77470000D03*
X119612500Y-77470000D03*
D37*
X129772500Y-87630000D03*
X131847500Y-87630000D03*
D17*
X108365000Y-91762500D03*
X107715000Y-91762500D03*
X107065000Y-91762500D03*
X106415000Y-91762500D03*
X105765000Y-91762500D03*
X105115000Y-91762500D03*
X104465000Y-91762500D03*
X103815000Y-91762500D03*
X103165000Y-91762500D03*
X102515000Y-91762500D03*
X101865000Y-91762500D03*
X101215000Y-91762500D03*
X100565000Y-91762500D03*
X99915000Y-91762500D03*
X99915000Y-86037500D03*
X100565000Y-86037500D03*
X101215000Y-86037500D03*
X101865000Y-86037500D03*
X102515000Y-86037500D03*
X103165000Y-86037500D03*
X103815000Y-86037500D03*
X104465000Y-86037500D03*
X105115000Y-86037500D03*
X105765000Y-86037500D03*
X106415000Y-86037500D03*
X107065000Y-86037500D03*
X107715000Y-86037500D03*
X108365000Y-86037500D03*
D37*
X161522500Y-81280000D03*
X163597500Y-81280000D03*
X129772500Y-90170000D03*
X131847500Y-90170000D03*
D36*
X139467500Y-74929999D03*
X137392500Y-74929999D03*
X126767500Y-83820000D03*
X124692500Y-83820000D03*
D12*
X80010000Y-113432500D03*
X80010000Y-111357500D03*
D38*
X81915000Y-109920000D03*
X83185000Y-109920000D03*
X84455000Y-109920000D03*
X85725000Y-109920000D03*
X86995000Y-109920000D03*
X88265000Y-109920000D03*
X89535000Y-109920000D03*
X89535000Y-114870000D03*
X88265000Y-114870000D03*
X86995000Y-114870000D03*
X85725000Y-114870000D03*
X84455000Y-114870000D03*
X83185000Y-114870000D03*
X81915000Y-114870000D03*
D36*
X158517500Y-77470000D03*
X156442500Y-77470000D03*
D17*
X127415000Y-91762500D03*
X126765000Y-91762500D03*
X126115000Y-91762500D03*
X125465000Y-91762500D03*
X124815000Y-91762500D03*
X124165000Y-91762500D03*
X123515000Y-91762500D03*
X122865000Y-91762500D03*
X122215000Y-91762500D03*
X121565000Y-91762500D03*
X120915000Y-91762500D03*
X120265000Y-91762500D03*
X119615000Y-91762500D03*
X118965000Y-91762500D03*
X118965000Y-86037500D03*
X119615000Y-86037500D03*
X120265000Y-86037500D03*
X120915000Y-86037500D03*
X121565000Y-86037500D03*
X122215000Y-86037500D03*
X122865000Y-86037500D03*
X123515000Y-86037500D03*
X124165000Y-86037500D03*
X124815000Y-86037500D03*
X125465000Y-86037500D03*
X126115000Y-86037500D03*
X126765000Y-86037500D03*
X127415000Y-86037500D03*
D36*
X102637500Y-77470000D03*
X100562500Y-77470000D03*
D37*
X124692500Y-71120000D03*
X126767500Y-71120000D03*
D36*
X83587500Y-63500000D03*
X81512500Y-63500000D03*
D37*
X147552500Y-90170000D03*
X149627500Y-90170000D03*
D35*
X160875000Y-73337500D03*
X161525000Y-73337500D03*
X162175000Y-73337500D03*
X162825000Y-73337500D03*
X163475000Y-73337500D03*
X164125000Y-73337500D03*
X164775000Y-73337500D03*
X165425000Y-73337500D03*
X166075000Y-73337500D03*
X166725000Y-73337500D03*
X167375000Y-73337500D03*
X168025000Y-73337500D03*
X168675000Y-73337500D03*
X169325000Y-73337500D03*
X169325000Y-79062500D03*
X168675000Y-79062500D03*
X168025000Y-79062500D03*
X167375000Y-79062500D03*
X166725000Y-79062500D03*
X166075000Y-79062500D03*
X165425000Y-79062500D03*
X164775000Y-79062500D03*
X164125000Y-79062500D03*
X163475000Y-79062500D03*
X162825000Y-79062500D03*
X162175000Y-79062500D03*
X161525000Y-79062500D03*
X160875000Y-79062500D03*
D36*
X107717500Y-93980000D03*
X105642500Y-93980000D03*
X144547500Y-83820000D03*
X142472500Y-83820000D03*
D37*
X142472500Y-71119999D03*
X144547500Y-71119999D03*
X105642500Y-81280000D03*
X107717500Y-81280000D03*
D35*
X141825000Y-73337500D03*
X142475000Y-73337500D03*
X143125000Y-73337500D03*
X143775000Y-73337500D03*
X144425000Y-73337500D03*
X145075000Y-73337500D03*
X145725000Y-73337500D03*
X146375000Y-73337500D03*
X147025000Y-73337500D03*
X147675000Y-73337500D03*
X148325000Y-73337500D03*
X148975000Y-73337500D03*
X149625000Y-73337500D03*
X150275000Y-73337500D03*
X150275000Y-79062500D03*
X149625000Y-79062500D03*
X148975000Y-79062500D03*
X148325000Y-79062500D03*
X147675000Y-79062500D03*
X147025000Y-79062500D03*
X146375000Y-79062500D03*
X145725000Y-79062500D03*
X145075000Y-79062500D03*
X144425000Y-79062500D03*
X143775000Y-79062500D03*
X143125000Y-79062500D03*
X142475000Y-79062500D03*
X141825000Y-79062500D03*
X124045000Y-73337500D03*
X124695000Y-73337500D03*
X125345000Y-73337500D03*
X125995000Y-73337500D03*
X126645000Y-73337500D03*
X127295000Y-73337500D03*
X127945000Y-73337500D03*
X128595000Y-73337500D03*
X129245000Y-73337500D03*
X129895000Y-73337500D03*
X130545000Y-73337500D03*
X131195000Y-73337500D03*
X131845000Y-73337500D03*
X132495000Y-73337500D03*
X132495000Y-79062500D03*
X131845000Y-79062500D03*
X131195000Y-79062500D03*
X130545000Y-79062500D03*
X129895000Y-79062500D03*
X129245000Y-79062500D03*
X128595000Y-79062500D03*
X127945000Y-79062500D03*
X127295000Y-79062500D03*
X126645000Y-79062500D03*
X125995000Y-79062500D03*
X125345000Y-79062500D03*
X124695000Y-79062500D03*
X124045000Y-79062500D03*
D36*
X83587500Y-96520000D03*
X81512500Y-96520000D03*
X102637500Y-74930000D03*
X100562500Y-74930000D03*
X126767500Y-93980000D03*
X124692500Y-93980000D03*
X163597500Y-93980000D03*
X161522500Y-93980000D03*
D37*
X161522500Y-71120000D03*
X163597500Y-71120000D03*
X166602500Y-87630000D03*
X168677500Y-87630000D03*
D36*
X93747500Y-73660000D03*
X91672500Y-73660000D03*
D17*
X145195000Y-91762500D03*
X144545000Y-91762500D03*
X143895000Y-91762500D03*
X143245000Y-91762500D03*
X142595000Y-91762500D03*
X141945000Y-91762500D03*
X141295000Y-91762500D03*
X140645000Y-91762500D03*
X139995000Y-91762500D03*
X139345000Y-91762500D03*
X138695000Y-91762500D03*
X138045000Y-91762500D03*
X137395000Y-91762500D03*
X136745000Y-91762500D03*
X136745000Y-86037500D03*
X137395000Y-86037500D03*
X138045000Y-86037500D03*
X138695000Y-86037500D03*
X139345000Y-86037500D03*
X139995000Y-86037500D03*
X140645000Y-86037500D03*
X141295000Y-86037500D03*
X141945000Y-86037500D03*
X142595000Y-86037500D03*
X143245000Y-86037500D03*
X143895000Y-86037500D03*
X144545000Y-86037500D03*
X145195000Y-86037500D03*
D37*
X166602500Y-90170000D03*
X168677500Y-90170000D03*
X105642500Y-71120000D03*
X107717500Y-71120000D03*
D36*
X144547500Y-93980000D03*
X142472500Y-93980000D03*
D17*
X164245000Y-91762500D03*
X163595000Y-91762500D03*
X162945000Y-91762500D03*
X162295000Y-91762500D03*
X161645000Y-91762500D03*
X160995000Y-91762500D03*
X160345000Y-91762500D03*
X159695000Y-91762500D03*
X159045000Y-91762500D03*
X158395000Y-91762500D03*
X157745000Y-91762500D03*
X157095000Y-91762500D03*
X156445000Y-91762500D03*
X155795000Y-91762500D03*
X155795000Y-86037500D03*
X156445000Y-86037500D03*
X157095000Y-86037500D03*
X157745000Y-86037500D03*
X158395000Y-86037500D03*
X159045000Y-86037500D03*
X159695000Y-86037500D03*
X160345000Y-86037500D03*
X160995000Y-86037500D03*
X161645000Y-86037500D03*
X162295000Y-86037500D03*
X162945000Y-86037500D03*
X163595000Y-86037500D03*
X164245000Y-86037500D03*
D37*
X110722500Y-87630000D03*
X112797500Y-87630000D03*
X142472500Y-81279999D03*
X144547500Y-81279999D03*
X124692500Y-81280000D03*
X126767500Y-81280000D03*
D14*
X153400000Y-47410000D03*
X154420000Y-49190000D03*
X155440000Y-47410000D03*
X156460000Y-49190000D03*
X157480000Y-47410000D03*
X158500000Y-49190000D03*
X159520000Y-47410000D03*
X160540000Y-49190000D03*
X150110000Y-54010000D03*
X152400000Y-54010000D03*
X161540000Y-54010000D03*
X163830000Y-54010000D03*
X137650000Y-47410000D03*
X138670000Y-49190000D03*
X139690000Y-47410000D03*
X140710000Y-49190000D03*
X141730000Y-47410000D03*
X142750000Y-49190000D03*
X143770000Y-47410000D03*
X144790000Y-49190000D03*
X134360000Y-54010000D03*
X136650000Y-54010000D03*
X145790000Y-54010000D03*
X148080000Y-54010000D03*
X121900000Y-47410000D03*
X122920000Y-49190000D03*
X123940000Y-47410000D03*
X124960000Y-49190000D03*
X125980000Y-47410000D03*
X127000000Y-49190000D03*
X128020000Y-47410000D03*
X129040000Y-49190000D03*
X118610000Y-54010000D03*
X120900000Y-54010000D03*
X130040000Y-54010000D03*
X132330000Y-54010000D03*
X106150000Y-47410000D03*
X107170000Y-49190000D03*
X108190000Y-47410000D03*
X109210000Y-49190000D03*
X110230000Y-47410000D03*
X111250000Y-49190000D03*
X112270000Y-47410000D03*
X113290000Y-49190000D03*
X102860000Y-54010000D03*
X105150000Y-54010000D03*
X114290000Y-54010000D03*
X116580000Y-54010000D03*
D15*
X165100000Y-48290000D03*
D16*
X163320000Y-44870000D03*
D15*
X141225000Y-55030000D03*
X125475000Y-55030000D03*
D16*
X103380000Y-44870000D03*
D15*
X101600000Y-48270000D03*
%LPD*%
M02*
