M48
; DRILL file {KiCad 8.0.4} date 2025-01-12T21:12:38-0600
; FORMAT={-:-/ absolute / metric / decimal}
; #@! TF.CreationDate,2025-01-12T21:12:38-06:00
; #@! TF.GenerationSoftware,Kicad,Pcbnew,8.0.4
; #@! TF.FileFunction,Plated,1,4,PTH
FMAT,2
METRIC
; #@! TA.AperFunction,Plated,PTH,ViaDrill
T1C0.300
; #@! TA.AperFunction,Plated,PTH,ComponentDrill
T2C0.500
; #@! TA.AperFunction,Plated,PTH,ComponentDrill
T3C0.800
; #@! TA.AperFunction,Plated,PTH,ComponentDrill
T4C0.890
; #@! TA.AperFunction,Plated,PTH,ComponentDrill
T5C1.000
; #@! TA.AperFunction,Plated,PTH,ComponentDrill
T6C1.570
; #@! TA.AperFunction,Plated,PTH,ComponentDrill
T7C3.200
; #@! TA.AperFunction,Plated,PTH,ComponentDrill
T8C3.250
%
G90
G05
T1
X74.295Y-83.82
X78.613Y-113.919
X78.74Y-59.055
X78.74Y-93.98
X79.248Y-109.728
X80.645Y-96.52
X80.772Y-63.5
X80.772Y-69.088
X80.772Y-77.978
X80.772Y-106.426
X80.772Y-107.95
X80.772Y-109.22
X81.026Y-80.01
X81.534Y-105.156
X82.55Y-71.12
X82.55Y-72.898
X83.82Y-73.66
X83.82Y-78.74
X84.836Y-78.994
X84.836Y-98.552
X90.678Y-87.63
X90.932Y-73.66
X91.186Y-84.074
X91.44Y-91.44
X91.694Y-76.2
X92.202Y-110.998
X92.964Y-112.522
X93.726Y-76.2
X93.726Y-94.742
X93.726Y-110.744
X93.98Y-106.045
X94.742Y-108.712
X96.012Y-77.47
X97.282Y-106.299
X97.79Y-68.58
X98.806Y-83.312
X98.933Y-80.899
X98.933Y-93.345
X99.695Y-98.425
X99.822Y-74.93
X99.822Y-77.47
X99.822Y-90.805
X100.33Y-93.218
X100.457Y-90.297
X101.215Y-90.678
X101.6Y-96.52
X101.981Y-83.566
X102.108Y-90.17
X102.87Y-73.66
X102.87Y-80.772
X104.394Y-87.249
X104.521Y-81.407
X104.775Y-84.836
X105.664Y-117.348
X105.791Y-77.597
X106.045Y-104.14
X106.426Y-86.995
X106.934Y-77.978
X107.061Y-85.09
X107.061Y-90.805
X108.077Y-76.962
X108.458Y-96.774
X108.712Y-54.356
X109.22Y-66.294
X109.474Y-68.326
X109.601Y-86.868
X109.855Y-76.835
X109.982Y-69.723
X109.982Y-77.851
X110.109Y-82.677
X110.109Y-84.963
X110.49Y-97.79
X110.744Y-84.328
X110.998Y-75.565
X111.252Y-80.264
X111.379Y-84.836
X111.379Y-85.979
X111.506Y-90.17
X111.887Y-75.565
X112.014Y-84.201
X112.145Y-81.153
X112.522Y-83.439
X112.522Y-93.98
X112.649Y-85.471
X112.776Y-80.391
X113.03Y-57.785
X113.03Y-64.77
X113.411Y-83.058
X113.538Y-89.916
X114.046Y-71.374
X114.173Y-78.232
X114.3Y-59.69
X114.3Y-97.155
X114.554Y-85.344
X114.681Y-71.882
X114.808Y-91.694
X114.808Y-115.824
X114.935Y-78.486
X115.316Y-86.868
X115.57Y-91.44
X116.014Y-84.264
X116.014Y-105.727
X116.078Y-64.77
X116.078Y-93.98
X116.586Y-83.185
X116.586Y-89.408
X116.776Y-84.01
X116.84Y-93.472
X117.348Y-75.565
X117.475Y-57.785
X117.729Y-74.803
X117.729Y-91.059
X117.856Y-89.535
X118.11Y-90.297
X118.11Y-93.726
X118.364Y-81.788
X118.618Y-83.058
X118.618Y-83.947
X118.618Y-84.836
X118.745Y-76.454
X118.745Y-81.026
X118.872Y-73.66
X118.872Y-74.93
X118.872Y-77.47
X119.634Y-93.98
X119.888Y-89.916
X120.142Y-87.884
X120.65Y-87.249
X120.904Y-77.216
X121.031Y-88.011
X121.158Y-83.3
X121.285Y-81.153
X121.412Y-117.602
X122.174Y-84.582
X122.428Y-73.66
X122.428Y-81.788
X122.555Y-51.435
X123.317Y-84.836
X124.206Y-87.122
X124.714Y-77.978
X125.476Y-86.995
X125.73Y-77.851
X125.73Y-80.264
X125.73Y-84.582
X127.254Y-66.294
X127.254Y-77.978
X128.27Y-85.09
X128.27Y-96.52
X128.397Y-80.391
X128.524Y-67.564
X129.286Y-69.088
X129.54Y-77.47
X129.54Y-99.695
X131.064Y-89.789
X131.064Y-92.71
X132.08Y-64.77
X132.08Y-76.2
X132.08Y-91.44
X132.588Y-87.63
X133.096Y-75.692
X134.366Y-91.44
X134.366Y-92.71
X134.62Y-69.088
X135.255Y-77.47
X135.382Y-85.09
X135.382Y-92.075
X135.382Y-105.41
X136.525Y-68.58
X136.652Y-77.47
X136.652Y-82.042
X136.652Y-83.82
X136.779Y-84.963
X137.16Y-97.79
X137.287Y-74.041
X137.395Y-86.995
X137.668Y-81.026
X138.049Y-85.09
X138.049Y-94.615
X138.695Y-86.995
X139.573Y-69.215
X139.7Y-80.772
X139.7Y-84.709
X140.208Y-77.47
X140.589Y-89.281
X140.97Y-81.153
X140.97Y-83.947
X140.97Y-84.836
X141.097Y-71.628
X141.351Y-76.708
X141.605Y-82.3
X141.859Y-87.122
X142.494Y-77.978
X143.129Y-80.01
X143.383Y-84.963
X143.51Y-87.249
X144.399Y-87.376
X144.526Y-69.342
X144.907Y-75.946
X145.542Y-65.659
X145.542Y-93.091
X145.669Y-76.2
X145.669Y-94.107
X145.669Y-95.504
X146.05Y-91.821
X146.431Y-76.454
X146.685Y-87.63
X146.812Y-71.882
X146.812Y-81.915
X146.939Y-81.026
X146.939Y-84.836
X147.066Y-68.58
X147.066Y-91.694
X147.32Y-83.439
X147.32Y-96.52
X147.574Y-84.201
X147.955Y-82.931
X148.325Y-80.01
X148.59Y-82.296
X148.717Y-90.17
X148.78Y-71.945
X148.971Y-85.09
X149.098Y-83.82
X149.352Y-82.55
X149.352Y-93.98
X149.606Y-70.485
X149.606Y-71.374
X149.606Y-80.264
X149.86Y-67.945
X149.86Y-97.79
X150.241Y-72.009
X150.241Y-86.741
X150.495Y-91.186
X150.876Y-71.374
X151.13Y-86.741
X151.257Y-91.567
X151.384Y-93.98
X151.638Y-71.882
X151.638Y-92.329
X151.892Y-72.644
X152.019Y-86.741
X152.019Y-89.662
X152.019Y-90.551
X152.4Y-82.931
X153.416Y-83.972
X153.416Y-84.785
X153.67Y-83.21
X153.975Y-80.315
X153.975Y-82.448
X154.229Y-84.988
X154.305Y-57.785
X154.559Y-83.007
X154.559Y-92.71
X155.702Y-73.66
X155.702Y-74.93
X155.702Y-77.47
X156.845Y-57.785
X157.226Y-88.392
X157.734Y-77.47
X157.734Y-87.757
X157.988Y-82.804
X158.242Y-80.315
X158.369Y-89.027
X158.75Y-82.042
X158.75Y-83.058
X159.004Y-88.138
X159.131Y-84.582
X159.258Y-73.66
X159.385Y-52.705
X159.385Y-59.055
X160.02Y-80.01
X160.274Y-83.566
X160.325Y-87.02
X160.68Y-84.836
X161.036Y-113.284
X161.29Y-77.851
X162.175Y-78.105
X162.306Y-86.995
X162.56Y-84.582
X162.814Y-80.01
X163.322Y-65.786
X163.83Y-76.2
X164.084Y-78.105
X164.338Y-68.326
X164.897Y-80.112
X165.608Y-51.054
X165.608Y-53.594
X165.608Y-54.61
X165.735Y-67.945
X165.735Y-93.98
X165.862Y-58.166
X166.116Y-105.41
X166.878Y-58.928
X167.132Y-104.394
X167.64Y-54.356
X168.148Y-52.832
X168.275Y-97.155
X168.656Y-91.186
X168.91Y-104.648
X168.91Y-109.474
X169.164Y-58.166
X169.164Y-68.58
X169.164Y-110.236
X169.418Y-51.308
X169.545Y-86.995
X169.926Y-105.41
X170.18Y-63.5
X170.18Y-67.945
X170.434Y-58.674
X170.434Y-110.236
X170.815Y-100.965
X170.942Y-52.07
X171.069Y-68.199
X171.577Y-68.961
X171.704Y-111.252
X171.775Y-58.674
X171.958Y-61.722
X172.466Y-55.88
X174.371Y-55.372
T2
X72.53Y-49.53
X72.53Y-120.65
X73.233Y-47.833
X73.233Y-51.227
X73.233Y-118.953
X73.233Y-122.347
X74.93Y-47.13
X74.93Y-51.93
X74.93Y-118.25
X74.93Y-123.05
X76.627Y-47.833
X76.627Y-51.227
X76.627Y-118.953
X76.627Y-122.347
X77.33Y-49.53
X77.33Y-120.65
X171.59Y-49.53
X171.59Y-120.65
X172.293Y-47.833
X172.293Y-51.227
X172.293Y-118.953
X172.293Y-122.347
X173.99Y-47.13
X173.99Y-51.93
X173.99Y-118.25
X173.99Y-123.05
X175.687Y-47.833
X175.687Y-51.227
X175.687Y-118.953
X175.687Y-122.347
X176.39Y-49.53
X176.39Y-120.65
T3
X78.74Y-63.5
X78.74Y-66.04
X78.74Y-68.58
X78.74Y-71.12
X78.74Y-73.66
X78.74Y-76.2
X78.74Y-78.74
X78.74Y-81.28
X78.74Y-83.82
X78.74Y-86.36
X78.74Y-88.9
X78.74Y-91.44
X78.74Y-96.52
X78.74Y-104.14
X86.36Y-63.5
X86.36Y-66.04
X86.36Y-68.58
X86.36Y-71.12
X86.36Y-73.66
X86.36Y-76.2
X86.36Y-78.74
X86.36Y-81.28
X86.36Y-83.82
X86.36Y-86.36
X86.36Y-88.9
X86.36Y-91.44
X86.36Y-96.52
X86.36Y-104.14
X88.9Y-73.66
X88.9Y-76.2
X88.9Y-78.74
X88.9Y-81.28
X88.9Y-83.82
X88.9Y-86.36
X88.9Y-88.9
X88.9Y-91.44
X91.48Y-53.34
X93.98Y-53.34
X96.52Y-73.66
X96.52Y-76.2
X96.52Y-78.74
X96.52Y-81.28
X96.52Y-83.82
X96.52Y-86.36
X96.52Y-88.9
X96.52Y-91.44
T4
X102.86Y-54.01
X102.87Y-110.4
X105.15Y-54.01
X105.16Y-110.4
X106.15Y-47.41
X106.16Y-115.22
X107.17Y-49.19
X107.18Y-117.0
X108.19Y-47.41
X108.2Y-115.22
X109.21Y-49.19
X109.22Y-117.0
X110.23Y-47.41
X110.24Y-115.22
X111.25Y-49.19
X111.26Y-117.0
X112.27Y-47.41
X112.28Y-115.22
X113.29Y-49.19
X113.3Y-117.0
X114.29Y-54.01
X114.3Y-110.4
X116.58Y-54.01
X116.59Y-110.4
X118.61Y-54.01
X118.62Y-110.4
X120.9Y-54.01
X120.91Y-110.4
X121.9Y-47.41
X121.91Y-115.22
X122.92Y-49.19
X122.93Y-117.0
X123.94Y-47.41
X123.95Y-115.22
X124.96Y-49.19
X124.97Y-117.0
X125.98Y-47.41
X125.99Y-115.22
X127.0Y-49.19
X127.01Y-117.0
X128.02Y-47.41
X128.03Y-115.22
X129.04Y-49.19
X129.05Y-117.0
X130.04Y-54.01
X130.05Y-110.4
X132.33Y-54.01
X132.34Y-110.4
X134.36Y-54.01
X134.37Y-110.4
X136.65Y-54.01
X136.66Y-110.4
X137.65Y-47.41
X137.66Y-115.22
X138.67Y-49.19
X138.68Y-117.0
X139.69Y-47.41
X139.7Y-115.22
X140.71Y-49.19
X140.72Y-117.0
X141.73Y-47.41
X141.74Y-115.22
X142.75Y-49.19
X142.76Y-117.0
X143.77Y-47.41
X143.78Y-115.22
X144.79Y-49.19
X144.8Y-117.0
X145.79Y-54.01
X145.8Y-110.4
X148.08Y-54.01
X148.09Y-110.4
X150.11Y-54.01
X150.12Y-110.4
X152.4Y-54.01
X152.41Y-110.4
X153.4Y-47.41
X153.41Y-115.22
X154.42Y-49.19
X154.43Y-117.0
X155.44Y-47.41
X155.45Y-115.22
X156.46Y-49.19
X156.47Y-117.0
X157.48Y-47.41
X157.49Y-115.22
X158.5Y-49.19
X158.51Y-117.0
X159.52Y-47.41
X159.53Y-115.22
X160.54Y-49.19
X160.55Y-117.0
X161.54Y-54.01
X161.55Y-110.4
X163.83Y-54.01
X163.84Y-110.4
T5
X72.39Y-57.15
X72.39Y-59.69
X72.39Y-62.23
X72.39Y-64.77
X72.39Y-67.31
X72.39Y-69.85
X72.39Y-72.39
X72.39Y-74.93
X72.39Y-77.47
X72.39Y-80.01
X74.93Y-57.15
X74.93Y-59.69
X74.93Y-62.23
X74.93Y-64.77
X74.93Y-67.31
X74.93Y-69.85
X74.93Y-72.39
X74.93Y-74.93
X74.93Y-77.47
X74.93Y-80.01
X82.61Y-47.73
X82.63Y-55.88
X85.11Y-47.73
X87.61Y-47.73
X87.63Y-55.88
X90.11Y-47.73
X90.155Y-64.77
X90.155Y-67.31
X90.155Y-69.85
X91.44Y-96.52
X91.44Y-99.06
X91.44Y-101.6
X91.44Y-104.14
X92.695Y-64.77
X92.695Y-67.31
X92.695Y-69.85
X93.98Y-96.52
X93.98Y-99.06
X93.98Y-101.6
X93.98Y-104.14
X95.235Y-64.77
X95.235Y-67.31
X95.235Y-69.85
X95.25Y-44.45
X95.25Y-46.99
X99.124Y-62.294
X99.124Y-102.806
X100.92Y-60.498
X100.92Y-64.09
X100.92Y-101.01
X100.92Y-104.602
X102.716Y-62.294
X102.716Y-102.806
X103.614Y-66.784
X103.614Y-98.316
X105.41Y-64.988
X105.41Y-68.58
X105.41Y-96.52
X105.41Y-100.112
X107.206Y-66.784
X107.206Y-98.316
X108.093Y-102.81
X108.104Y-62.294
X109.89Y-101.014
X109.89Y-104.606
X109.9Y-60.498
X109.9Y-64.09
X111.686Y-102.81
X111.696Y-62.294
X116.904Y-62.294
X116.904Y-102.806
X118.7Y-60.498
X118.7Y-64.09
X118.7Y-101.01
X118.7Y-104.602
X120.496Y-62.294
X120.496Y-102.806
X121.394Y-66.784
X121.394Y-98.316
X123.19Y-64.988
X123.19Y-68.58
X123.19Y-96.52
X123.19Y-100.112
X124.986Y-66.784
X124.986Y-98.316
X125.884Y-62.294
X125.884Y-102.806
X127.68Y-60.498
X127.68Y-64.09
X127.68Y-101.01
X127.68Y-104.602
X129.476Y-62.294
X129.476Y-102.806
X135.954Y-62.294
X135.954Y-102.806
X137.75Y-60.498
X137.75Y-64.09
X137.75Y-101.01
X137.75Y-104.602
X139.546Y-62.294
X139.546Y-102.806
X140.444Y-66.784
X140.444Y-98.316
X142.24Y-64.988
X142.24Y-68.58
X142.24Y-96.52
X142.24Y-100.112
X144.036Y-66.784
X144.036Y-98.316
X144.934Y-62.294
X144.934Y-102.806
X146.73Y-60.498
X146.73Y-64.09
X146.73Y-101.01
X146.73Y-104.602
X148.526Y-62.294
X148.526Y-102.806
X153.734Y-62.294
X153.734Y-102.806
X155.53Y-60.498
X155.53Y-64.09
X155.53Y-101.01
X155.53Y-104.602
X157.326Y-62.294
X157.326Y-102.806
X158.224Y-66.784
X158.224Y-98.316
X160.02Y-64.988
X160.02Y-68.58
X160.02Y-96.52
X160.02Y-100.112
X161.816Y-66.784
X161.816Y-98.316
X162.714Y-62.294
X162.714Y-102.806
X164.51Y-60.498
X164.51Y-64.09
X164.51Y-101.01
X164.51Y-104.602
X166.306Y-62.294
X166.306Y-102.806
X173.99Y-62.23
X173.99Y-64.77
X173.99Y-67.31
X173.99Y-69.85
X173.99Y-72.39
X173.99Y-74.93
X173.99Y-77.47
X173.99Y-80.01
X173.99Y-82.55
X173.99Y-85.09
X173.99Y-87.63
X173.99Y-90.17
X173.99Y-92.71
X173.99Y-95.25
X173.99Y-97.79
X173.99Y-100.33
X173.99Y-102.87
X173.99Y-105.41
X173.99Y-107.95
X173.99Y-110.49
X176.53Y-62.23
X176.53Y-64.77
X176.53Y-67.31
X176.53Y-69.85
X176.53Y-72.39
X176.53Y-74.93
X176.53Y-77.47
X176.53Y-80.01
X176.53Y-82.55
X176.53Y-85.09
X176.53Y-87.63
X176.53Y-90.17
X176.53Y-92.71
X176.53Y-95.25
X176.53Y-97.79
X176.53Y-100.33
X176.53Y-102.87
X176.53Y-105.41
X176.53Y-107.95
X176.53Y-110.49
T6
X101.6Y-48.27
X101.6Y-116.12
X125.475Y-55.03
X125.475Y-109.38
X141.225Y-55.03
X141.225Y-109.38
X165.1Y-48.29
X165.1Y-116.14
T7
X74.93Y-49.53
X74.93Y-120.65
X173.99Y-49.53
X173.99Y-120.65
T8
X103.38Y-44.87
X103.38Y-119.54
X163.32Y-44.87
X163.32Y-119.54
M30
