G04 #@! TF.GenerationSoftware,KiCad,Pcbnew,8.0.4*
G04 #@! TF.CreationDate,2025-01-12T21:12:32-06:00*
G04 #@! TF.ProjectId,OctoCom,4f63746f-436f-46d2-9e6b-696361645f70,rev?*
G04 #@! TF.SameCoordinates,Original*
G04 #@! TF.FileFunction,Soldermask,Top*
G04 #@! TF.FilePolarity,Negative*
%FSLAX46Y46*%
G04 Gerber Fmt 4.6, Leading zero omitted, Abs format (unit mm)*
G04 Created by KiCad (PCBNEW 8.0.4) date 2025-01-12 21:12:32*
%MOMM*%
%LPD*%
G01*
G04 APERTURE LIST*
G04 Aperture macros list*
%AMRoundRect*
0 Rectangle with rounded corners*
0 $1 Rounding radius*
0 $2 $3 $4 $5 $6 $7 $8 $9 X,Y pos of 4 corners*
0 Add a 4 corners polygon primitive as box body*
4,1,4,$2,$3,$4,$5,$6,$7,$8,$9,$2,$3,0*
0 Add four circle primitives for the rounded corners*
1,1,$1+$1,$2,$3*
1,1,$1+$1,$4,$5*
1,1,$1+$1,$6,$7*
1,1,$1+$1,$8,$9*
0 Add four rect primitives between the rounded corners*
20,1,$1+$1,$2,$3,$4,$5,0*
20,1,$1+$1,$4,$5,$6,$7,0*
20,1,$1+$1,$6,$7,$8,$9,0*
20,1,$1+$1,$8,$9,$2,$3,0*%
%AMHorizOval*
0 Thick line with rounded ends*
0 $1 width*
0 $2 $3 position (X,Y) of the first rounded end (center of the circle)*
0 $4 $5 position (X,Y) of the second rounded end (center of the circle)*
0 Add line between two ends*
20,1,$1,$2,$3,$4,$5,0*
0 Add two circle primitives to create the rounded ends*
1,1,$1,$2,$3*
1,1,$1,$4,$5*%
%AMRotRect*
0 Rectangle, with rotation*
0 The origin of the aperture is its center*
0 $1 length*
0 $2 width*
0 $3 Rotation angle, in degrees counterclockwise*
0 Add horizontal line*
21,1,$1,$2,0,0,$3*%
G04 Aperture macros list end*
%ADD10RoundRect,0.250000X-0.475000X0.337500X-0.475000X-0.337500X0.475000X-0.337500X0.475000X0.337500X0*%
%ADD11RoundRect,0.100000X-0.637500X-0.100000X0.637500X-0.100000X0.637500X0.100000X-0.637500X0.100000X0*%
%ADD12RoundRect,0.250000X-0.625000X0.400000X-0.625000X-0.400000X0.625000X-0.400000X0.625000X0.400000X0*%
%ADD13RoundRect,0.250001X0.624999X-0.462499X0.624999X0.462499X-0.624999X0.462499X-0.624999X-0.462499X0*%
%ADD14C,1.250000*%
%ADD15C,2.250000*%
%ADD16C,4.000000*%
%ADD17RoundRect,0.250000X-0.337500X-0.475000X0.337500X-0.475000X0.337500X0.475000X-0.337500X0.475000X0*%
%ADD18RotRect,1.700000X1.700000X45.000000*%
%ADD19HorizOval,1.700000X0.000000X0.000000X0.000000X0.000000X0*%
%ADD20RotRect,1.700000X1.700000X225.000000*%
%ADD21HorizOval,1.700000X0.000000X0.000000X0.000000X0.000000X0*%
%ADD22R,1.700000X1.700000*%
%ADD23O,1.700000X1.700000*%
%ADD24RoundRect,0.102000X0.754000X0.754000X-0.754000X0.754000X-0.754000X-0.754000X0.754000X-0.754000X0*%
%ADD25C,1.712000*%
%ADD26C,0.800000*%
%ADD27C,6.400000*%
%ADD28R,1.600000X1.600000*%
%ADD29C,1.600000*%
%ADD30O,1.600000X1.600000*%
%ADD31R,2.000000X2.000000*%
%ADD32C,2.000000*%
%ADD33RoundRect,0.250000X0.337500X0.475000X-0.337500X0.475000X-0.337500X-0.475000X0.337500X-0.475000X0*%
%ADD34RoundRect,0.250000X0.475000X-0.337500X0.475000X0.337500X-0.475000X0.337500X-0.475000X-0.337500X0*%
%ADD35RoundRect,0.075000X-0.700000X-0.075000X0.700000X-0.075000X0.700000X0.075000X-0.700000X0.075000X0*%
%ADD36RoundRect,0.075000X-0.075000X-0.700000X0.075000X-0.700000X0.075000X0.700000X-0.075000X0.700000X0*%
G04 APERTURE END LIST*
D10*
X99060000Y-108182500D03*
X99060000Y-110257500D03*
D11*
X90482500Y-106295000D03*
X90482500Y-106945000D03*
X90482500Y-107595000D03*
X90482500Y-108245000D03*
X90482500Y-108895000D03*
X90482500Y-109545000D03*
X90482500Y-110195000D03*
X90482500Y-110845000D03*
X90482500Y-111495000D03*
X90482500Y-112145000D03*
X96207500Y-112145000D03*
X96207500Y-111495000D03*
X96207500Y-110845000D03*
X96207500Y-110195000D03*
X96207500Y-109545000D03*
X96207500Y-108895000D03*
X96207500Y-108245000D03*
X96207500Y-107595000D03*
X96207500Y-106945000D03*
X96207500Y-106295000D03*
D12*
X80010000Y-114019999D03*
X80010000Y-117120001D03*
X82550000Y-114019999D03*
X82550000Y-117120001D03*
X85089999Y-114019999D03*
X85089999Y-117120001D03*
X87630001Y-114019999D03*
X87630001Y-117120001D03*
X90170000Y-114019999D03*
X90170000Y-117120001D03*
X92710000Y-114019999D03*
X92710000Y-117120001D03*
X95250000Y-114019999D03*
X95250000Y-117120001D03*
X97790000Y-114020000D03*
X97790000Y-117120002D03*
D13*
X80009999Y-122137500D03*
X80009999Y-119162500D03*
X82550000Y-122137500D03*
X82550000Y-119162500D03*
X85090000Y-122137500D03*
X85090000Y-119162500D03*
X87630000Y-122137500D03*
X87630000Y-119162500D03*
X90170000Y-122137500D03*
X90170000Y-119162500D03*
X92710001Y-122137500D03*
X92710001Y-119162500D03*
X95250000Y-122137500D03*
X95250000Y-119162500D03*
X97790000Y-122137500D03*
X97790000Y-119162500D03*
D14*
X113300000Y-117000000D03*
X112280000Y-115220000D03*
X111260000Y-117000000D03*
X110240000Y-115220000D03*
X109220000Y-117000000D03*
X108200000Y-115220000D03*
X107180000Y-117000000D03*
X106160000Y-115220000D03*
X116590000Y-110400000D03*
X114300000Y-110400000D03*
X105160000Y-110400000D03*
X102870000Y-110400000D03*
X129050000Y-117000000D03*
X128030000Y-115220000D03*
X127010000Y-117000000D03*
X125990000Y-115220000D03*
X124970000Y-117000000D03*
X123950000Y-115220000D03*
X122930000Y-117000000D03*
X121910000Y-115220000D03*
X132340000Y-110400000D03*
X130050000Y-110400000D03*
X120910000Y-110400000D03*
X118620000Y-110400000D03*
X144800000Y-117000000D03*
X143780000Y-115220000D03*
X142760000Y-117000000D03*
X141740000Y-115220000D03*
X140720000Y-117000000D03*
X139700000Y-115220000D03*
X138680000Y-117000000D03*
X137660000Y-115220000D03*
X148090000Y-110400000D03*
X145800000Y-110400000D03*
X136660000Y-110400000D03*
X134370000Y-110400000D03*
X160550000Y-117000000D03*
X159530000Y-115220000D03*
X158510000Y-117000000D03*
X157490000Y-115220000D03*
X156470000Y-117000000D03*
X155450000Y-115220000D03*
X154430000Y-117000000D03*
X153410000Y-115220000D03*
X163840000Y-110400000D03*
X161550000Y-110400000D03*
X152410000Y-110400000D03*
X150120000Y-110400000D03*
D15*
X101600000Y-116120000D03*
D16*
X103380000Y-119540000D03*
D15*
X125475000Y-109380000D03*
X141225000Y-109380000D03*
D16*
X163320000Y-119540000D03*
D15*
X165100000Y-116140000D03*
D17*
X156442500Y-73660000D03*
X158517500Y-73660000D03*
D18*
X116903821Y-62293821D03*
D19*
X118699872Y-60497770D03*
X118699872Y-64089872D03*
X120495923Y-62293821D03*
D20*
X111685573Y-102809715D03*
D21*
X109889522Y-104605766D03*
X109889522Y-101013664D03*
X108093471Y-102809715D03*
D20*
X139545923Y-102806179D03*
D21*
X137749872Y-104602230D03*
X137749872Y-101010128D03*
X135953821Y-102806179D03*
D22*
X91440000Y-96520000D03*
D23*
X93980000Y-96520000D03*
X91440000Y-99060000D03*
X93980000Y-99060000D03*
X91440000Y-101600000D03*
X93980000Y-101600000D03*
X91440000Y-104140000D03*
X93980000Y-104140000D03*
D18*
X144934077Y-62293822D03*
D19*
X146730128Y-60497771D03*
X146730128Y-64089873D03*
X148526179Y-62293822D03*
D18*
X140443949Y-66783949D03*
D19*
X142240000Y-64987898D03*
X142240000Y-68580000D03*
X144036051Y-66783949D03*
D24*
X82610000Y-47729999D03*
D25*
X85110000Y-47729999D03*
X87610000Y-47729999D03*
X90110000Y-47729999D03*
D18*
X125884077Y-62293821D03*
D19*
X127680128Y-60497770D03*
X127680128Y-64089872D03*
X129476179Y-62293821D03*
D17*
X119612500Y-73660000D03*
X121687500Y-73660000D03*
D18*
X153733821Y-62293821D03*
D19*
X155529872Y-60497770D03*
X155529872Y-64089872D03*
X157325923Y-62293821D03*
D26*
X171590000Y-49530000D03*
X172292944Y-47832944D03*
X172292944Y-51227056D03*
X173990000Y-47130000D03*
D27*
X173990000Y-49530000D03*
D26*
X173990000Y-51930000D03*
X175687056Y-47832944D03*
X175687056Y-51227056D03*
X176390000Y-49530000D03*
D20*
X124986051Y-98316051D03*
D21*
X123190000Y-100112102D03*
X123190000Y-96520000D03*
X121393949Y-98316051D03*
D20*
X161816051Y-98316051D03*
D21*
X160020000Y-100112102D03*
X160020000Y-96520000D03*
X158223949Y-98316051D03*
D20*
X166306179Y-102806179D03*
D21*
X164510128Y-104602230D03*
X164510128Y-101010128D03*
X162714077Y-102806179D03*
D18*
X103613949Y-66783949D03*
D19*
X105410000Y-64987898D03*
X105410000Y-68580000D03*
X107206051Y-66783949D03*
D18*
X121393949Y-66783949D03*
D19*
X123190000Y-64987898D03*
X123190000Y-68580000D03*
X124986051Y-66783949D03*
D28*
X78740000Y-96520000D03*
D29*
X78740000Y-104140000D03*
X86360000Y-104140000D03*
X86360000Y-96520000D03*
D20*
X144036051Y-98316051D03*
D21*
X142240000Y-100112102D03*
X142240000Y-96520000D03*
X140443949Y-98316051D03*
D18*
X108104077Y-62293821D03*
D19*
X109900128Y-60497770D03*
X109900128Y-64089872D03*
X111696179Y-62293821D03*
D28*
X78740000Y-63500000D03*
D30*
X78740000Y-66040000D03*
X78740000Y-68580000D03*
X78740000Y-71120000D03*
X78740000Y-73660000D03*
X78740000Y-76200000D03*
X78740000Y-78740000D03*
X78740000Y-81280000D03*
X78740000Y-83820000D03*
X78740000Y-86360000D03*
X78740000Y-88900000D03*
X78740000Y-91440000D03*
X86360000Y-91440000D03*
X86360000Y-88900000D03*
X86360000Y-86360000D03*
X86360000Y-83820000D03*
X86360000Y-81280000D03*
X86360000Y-78740000D03*
X86360000Y-76200000D03*
X86360000Y-73660000D03*
X86360000Y-71120000D03*
X86360000Y-68580000D03*
X86360000Y-66040000D03*
X86360000Y-63500000D03*
D26*
X72530000Y-49530000D03*
X73232944Y-47832944D03*
X73232944Y-51227056D03*
X74930000Y-47130000D03*
D27*
X74930000Y-49530000D03*
D26*
X74930000Y-51930000D03*
X76627056Y-47832944D03*
X76627056Y-51227056D03*
X77330000Y-49530000D03*
D10*
X139700000Y-81512500D03*
X139700000Y-83587500D03*
D18*
X162714077Y-62293821D03*
D19*
X164510128Y-60497770D03*
X164510128Y-64089872D03*
X166306179Y-62293821D03*
D31*
X82630000Y-55880000D03*
D32*
X87630000Y-55880000D03*
D20*
X129476179Y-102806178D03*
D21*
X127680128Y-104602229D03*
X127680128Y-101010127D03*
X125884077Y-102806178D03*
D26*
X171590000Y-120650000D03*
X172292944Y-118952944D03*
X172292944Y-122347056D03*
X173990000Y-118250000D03*
D27*
X173990000Y-120650000D03*
D26*
X173990000Y-123050000D03*
X175687056Y-118952944D03*
X175687056Y-122347056D03*
X176390000Y-120650000D03*
D20*
X102715923Y-102806179D03*
D21*
X100919872Y-104602230D03*
X100919872Y-101010128D03*
X99123821Y-102806179D03*
D20*
X148526179Y-102806179D03*
D21*
X146730128Y-104602230D03*
X146730128Y-101010128D03*
X144934077Y-102806179D03*
D10*
X102870000Y-81512500D03*
X102870000Y-83587500D03*
D33*
X134387500Y-77470000D03*
X132312500Y-77470000D03*
D22*
X95235000Y-67310000D03*
D23*
X92695000Y-67310000D03*
X90155001Y-67310000D03*
D26*
X72530000Y-120650000D03*
X73232944Y-118952944D03*
X73232944Y-122347056D03*
X74930000Y-118250000D03*
D27*
X74930000Y-120650000D03*
D26*
X74930000Y-123050000D03*
X76627056Y-118952944D03*
X76627056Y-122347056D03*
X77330000Y-120650000D03*
D20*
X120495923Y-102806179D03*
D21*
X118699872Y-104602230D03*
X118699872Y-101010128D03*
X116903821Y-102806179D03*
D34*
X162560000Y-83587500D03*
X162560000Y-81512500D03*
D17*
X113262500Y-93980000D03*
X115337500Y-93980000D03*
D18*
X135953821Y-62293821D03*
D19*
X137749872Y-60497770D03*
X137749872Y-64089872D03*
X139545923Y-62293821D03*
D34*
X125730000Y-83587500D03*
X125730000Y-81512500D03*
D35*
X145455000Y-78800000D03*
X145455000Y-79300000D03*
X145455000Y-79800000D03*
X145455000Y-80300000D03*
X145455000Y-80800000D03*
X145455000Y-81300000D03*
X145455000Y-81800000D03*
X145455000Y-82300000D03*
X145455000Y-82800000D03*
X145455000Y-83300000D03*
X145455000Y-83800000D03*
X145455000Y-84300000D03*
X145455000Y-84800000D03*
X145455000Y-85300000D03*
X145455000Y-85800000D03*
X145455000Y-86300000D03*
D36*
X147380000Y-88225000D03*
X147880000Y-88225000D03*
X148380000Y-88225000D03*
X148880000Y-88225000D03*
X149380000Y-88225000D03*
X149880000Y-88225000D03*
X150380000Y-88225000D03*
X150880000Y-88225000D03*
X151380000Y-88225000D03*
X151880000Y-88225000D03*
X152380000Y-88225000D03*
X152880000Y-88225000D03*
X153380000Y-88225000D03*
X153880000Y-88225000D03*
X154380000Y-88225000D03*
X154880000Y-88225000D03*
D35*
X156805000Y-86300000D03*
X156805000Y-85800000D03*
X156805000Y-85300000D03*
X156805000Y-84800000D03*
X156805000Y-84300000D03*
X156805000Y-83800000D03*
X156805000Y-83300000D03*
X156805000Y-82800000D03*
X156805000Y-82300000D03*
X156805000Y-81800000D03*
X156805000Y-81300000D03*
X156805000Y-80800000D03*
X156805000Y-80300000D03*
X156805000Y-79800000D03*
X156805000Y-79300000D03*
X156805000Y-78800000D03*
D36*
X154880000Y-76875000D03*
X154380000Y-76875000D03*
X153880000Y-76875000D03*
X153380000Y-76875000D03*
X152880000Y-76875000D03*
X152380000Y-76875000D03*
X151880000Y-76875000D03*
X151380000Y-76875000D03*
X150880000Y-76875000D03*
X150380000Y-76875000D03*
X149880000Y-76875000D03*
X149380000Y-76875000D03*
X148880000Y-76875000D03*
X148380000Y-76875000D03*
X147880000Y-76875000D03*
X147380000Y-76875000D03*
D28*
X88900000Y-73660000D03*
D30*
X88900000Y-76200000D03*
X88900000Y-78740000D03*
X88900000Y-81280000D03*
X88900000Y-83820000D03*
X88900000Y-86360000D03*
X88900000Y-88900000D03*
X88900000Y-91440000D03*
X96520000Y-91440000D03*
X96520000Y-88900000D03*
X96520000Y-86360000D03*
X96520000Y-83820000D03*
X96520000Y-81280000D03*
X96520000Y-78740000D03*
X96520000Y-76200000D03*
X96520000Y-73660000D03*
D18*
X158223949Y-66783949D03*
D19*
X160020000Y-64987898D03*
X160020000Y-68580000D03*
X161816051Y-66783949D03*
D20*
X157325923Y-102806179D03*
D21*
X155529872Y-104602230D03*
X155529872Y-101010128D03*
X153733821Y-102806179D03*
D18*
X99123821Y-62293821D03*
D19*
X100919872Y-60497770D03*
X100919872Y-64089872D03*
X102715923Y-62293821D03*
D31*
X129980000Y-80010000D03*
X129980000Y-85090000D03*
X134180000Y-85090000D03*
X134180000Y-80010000D03*
D22*
X173990000Y-62230000D03*
D23*
X176530000Y-62230000D03*
X173990000Y-64770000D03*
X176530000Y-64770000D03*
X173990000Y-67310000D03*
X176530000Y-67310000D03*
X173990000Y-69850000D03*
X176530000Y-69850000D03*
X173990000Y-72390000D03*
X176530000Y-72390000D03*
X173990000Y-74930000D03*
X176530000Y-74930000D03*
X173990000Y-77470000D03*
X176530000Y-77470000D03*
X173990000Y-80010000D03*
X176530000Y-80010000D03*
X173990000Y-82550000D03*
X176530000Y-82550000D03*
X173990000Y-85090000D03*
X176530000Y-85090000D03*
X173990000Y-87630000D03*
X176530000Y-87630000D03*
X173990000Y-90170000D03*
X176530000Y-90170000D03*
X173990000Y-92710000D03*
X176530000Y-92710000D03*
X173990000Y-95250000D03*
X176530000Y-95250000D03*
X173990000Y-97790000D03*
X176530000Y-97790000D03*
X173990000Y-100330000D03*
X176530000Y-100330000D03*
X173990000Y-102870000D03*
X176530000Y-102870000D03*
X173990000Y-105410000D03*
X176530000Y-105410000D03*
X173990000Y-107950000D03*
X176530000Y-107950000D03*
X173990000Y-110490000D03*
X176530000Y-110490000D03*
D22*
X95250000Y-44450000D03*
D23*
X95250000Y-46990000D03*
D22*
X74930000Y-80010000D03*
D23*
X72390000Y-80010000D03*
X74930000Y-77470000D03*
X72390000Y-77470000D03*
X74930000Y-74930001D03*
X72390000Y-74930000D03*
X74930000Y-72390000D03*
X72390000Y-72390000D03*
X74930000Y-69850000D03*
X72390000Y-69850000D03*
X74930000Y-67310000D03*
X72390000Y-67310000D03*
X74930000Y-64770000D03*
X72390000Y-64770000D03*
X74930000Y-62229999D03*
X72390000Y-62230000D03*
X74930000Y-59690000D03*
X72390000Y-59690000D03*
X74930000Y-57150000D03*
X72390000Y-57150000D03*
D22*
X95235000Y-64770000D03*
D23*
X92695000Y-64770000D03*
X90155001Y-64770000D03*
D22*
X95235000Y-69850000D03*
D23*
X92695000Y-69850000D03*
X90155001Y-69850000D03*
D28*
X91480000Y-53340000D03*
D29*
X93980000Y-53340000D03*
D20*
X107206051Y-98316051D03*
D21*
X105410000Y-100112102D03*
X105410000Y-96520000D03*
X103613949Y-98316051D03*
D35*
X108625000Y-78800000D03*
X108625000Y-79300000D03*
X108625000Y-79800000D03*
X108625000Y-80300000D03*
X108625000Y-80800000D03*
X108625000Y-81300000D03*
X108625000Y-81800000D03*
X108625000Y-82300000D03*
X108625000Y-82800000D03*
X108625000Y-83300000D03*
X108625000Y-83800000D03*
X108625000Y-84300000D03*
X108625000Y-84800000D03*
X108625000Y-85300000D03*
X108625000Y-85800000D03*
X108625000Y-86300000D03*
D36*
X110550000Y-88225000D03*
X111050000Y-88225000D03*
X111550000Y-88225000D03*
X112050000Y-88225000D03*
X112550000Y-88225000D03*
X113050000Y-88225000D03*
X113550000Y-88225000D03*
X114050000Y-88225000D03*
X114550000Y-88225000D03*
X115050000Y-88225000D03*
X115550000Y-88225000D03*
X116050000Y-88225000D03*
X116550000Y-88225000D03*
X117050000Y-88225000D03*
X117550000Y-88225000D03*
X118050000Y-88225000D03*
D35*
X119975000Y-86300000D03*
X119975000Y-85800000D03*
X119975000Y-85300000D03*
X119975000Y-84800000D03*
X119975000Y-84300000D03*
X119975000Y-83800000D03*
X119975000Y-83300000D03*
X119975000Y-82800000D03*
X119975000Y-82300000D03*
X119975000Y-81800000D03*
X119975000Y-81300000D03*
X119975000Y-80800000D03*
X119975000Y-80300000D03*
X119975000Y-79800000D03*
X119975000Y-79300000D03*
X119975000Y-78800000D03*
D36*
X118050000Y-76875000D03*
X117550000Y-76875000D03*
X117050000Y-76875000D03*
X116550000Y-76875000D03*
X116050000Y-76875000D03*
X115550000Y-76875000D03*
X115050000Y-76875000D03*
X114550000Y-76875000D03*
X114050000Y-76875000D03*
X113550000Y-76875000D03*
X113050000Y-76875000D03*
X112550000Y-76875000D03*
X112050000Y-76875000D03*
X111550000Y-76875000D03*
X111050000Y-76875000D03*
X110550000Y-76875000D03*
D17*
X150092500Y-93980000D03*
X152167500Y-93980000D03*
D14*
X153400000Y-47410000D03*
X154420000Y-49190000D03*
X155440000Y-47410000D03*
X156460000Y-49190000D03*
X157480000Y-47410000D03*
X158500000Y-49190000D03*
X159520000Y-47410000D03*
X160540000Y-49190000D03*
X150110000Y-54010000D03*
X152400000Y-54010000D03*
X161540000Y-54010000D03*
X163830000Y-54010000D03*
X137650000Y-47410000D03*
X138670000Y-49190000D03*
X139690000Y-47410000D03*
X140710000Y-49190000D03*
X141730000Y-47410000D03*
X142750000Y-49190000D03*
X143770000Y-47410000D03*
X144790000Y-49190000D03*
X134360000Y-54010000D03*
X136650000Y-54010000D03*
X145790000Y-54010000D03*
X148080000Y-54010000D03*
X121900000Y-47410000D03*
X122920000Y-49190000D03*
X123940000Y-47410000D03*
X124960000Y-49190000D03*
X125980000Y-47410000D03*
X127000000Y-49190000D03*
X128020000Y-47410000D03*
X129040000Y-49190000D03*
X118610000Y-54010000D03*
X120900000Y-54010000D03*
X130040000Y-54010000D03*
X132330000Y-54010000D03*
X106150000Y-47410000D03*
X107170000Y-49190000D03*
X108190000Y-47410000D03*
X109210000Y-49190000D03*
X110230000Y-47410000D03*
X111250000Y-49190000D03*
X112270000Y-47410000D03*
X113290000Y-49190000D03*
X102860000Y-54010000D03*
X105150000Y-54010000D03*
X114290000Y-54010000D03*
X116580000Y-54010000D03*
D15*
X165100000Y-48290000D03*
D16*
X163320000Y-44870000D03*
D15*
X141225000Y-55030000D03*
X125475000Y-55030000D03*
D16*
X103380000Y-44870000D03*
D15*
X101600000Y-48270000D03*
M02*
