G04 #@! TF.GenerationSoftware,KiCad,Pcbnew,8.0.4*
G04 #@! TF.CreationDate,2025-01-12T21:12:32-06:00*
G04 #@! TF.ProjectId,OctoCom,4f63746f-436f-46d2-9e6b-696361645f70,rev?*
G04 #@! TF.SameCoordinates,Original*
G04 #@! TF.FileFunction,Paste,Top*
G04 #@! TF.FilePolarity,Positive*
%FSLAX46Y46*%
G04 Gerber Fmt 4.6, Leading zero omitted, Abs format (unit mm)*
G04 Created by KiCad (PCBNEW 8.0.4) date 2025-01-12 21:12:32*
%MOMM*%
%LPD*%
G01*
G04 APERTURE LIST*
G04 Aperture macros list*
%AMRoundRect*
0 Rectangle with rounded corners*
0 $1 Rounding radius*
0 $2 $3 $4 $5 $6 $7 $8 $9 X,Y pos of 4 corners*
0 Add a 4 corners polygon primitive as box body*
4,1,4,$2,$3,$4,$5,$6,$7,$8,$9,$2,$3,0*
0 Add four circle primitives for the rounded corners*
1,1,$1+$1,$2,$3*
1,1,$1+$1,$4,$5*
1,1,$1+$1,$6,$7*
1,1,$1+$1,$8,$9*
0 Add four rect primitives between the rounded corners*
20,1,$1+$1,$2,$3,$4,$5,0*
20,1,$1+$1,$4,$5,$6,$7,0*
20,1,$1+$1,$6,$7,$8,$9,0*
20,1,$1+$1,$8,$9,$2,$3,0*%
G04 Aperture macros list end*
%ADD10RoundRect,0.250000X-0.475000X0.337500X-0.475000X-0.337500X0.475000X-0.337500X0.475000X0.337500X0*%
%ADD11RoundRect,0.100000X-0.637500X-0.100000X0.637500X-0.100000X0.637500X0.100000X-0.637500X0.100000X0*%
%ADD12RoundRect,0.250000X-0.625000X0.400000X-0.625000X-0.400000X0.625000X-0.400000X0.625000X0.400000X0*%
%ADD13RoundRect,0.250001X0.624999X-0.462499X0.624999X0.462499X-0.624999X0.462499X-0.624999X-0.462499X0*%
%ADD14RoundRect,0.250000X-0.337500X-0.475000X0.337500X-0.475000X0.337500X0.475000X-0.337500X0.475000X0*%
%ADD15RoundRect,0.250000X0.337500X0.475000X-0.337500X0.475000X-0.337500X-0.475000X0.337500X-0.475000X0*%
%ADD16RoundRect,0.250000X0.475000X-0.337500X0.475000X0.337500X-0.475000X0.337500X-0.475000X-0.337500X0*%
%ADD17RoundRect,0.075000X-0.700000X-0.075000X0.700000X-0.075000X0.700000X0.075000X-0.700000X0.075000X0*%
%ADD18RoundRect,0.075000X-0.075000X-0.700000X0.075000X-0.700000X0.075000X0.700000X-0.075000X0.700000X0*%
%ADD19R,2.000000X2.000000*%
G04 APERTURE END LIST*
D10*
X99060000Y-108182500D03*
X99060000Y-110257500D03*
D11*
X90482500Y-106295000D03*
X90482500Y-106945000D03*
X90482500Y-107595000D03*
X90482500Y-108245000D03*
X90482500Y-108895000D03*
X90482500Y-109545000D03*
X90482500Y-110195000D03*
X90482500Y-110845000D03*
X90482500Y-111495000D03*
X90482500Y-112145000D03*
X96207500Y-112145000D03*
X96207500Y-111495000D03*
X96207500Y-110845000D03*
X96207500Y-110195000D03*
X96207500Y-109545000D03*
X96207500Y-108895000D03*
X96207500Y-108245000D03*
X96207500Y-107595000D03*
X96207500Y-106945000D03*
X96207500Y-106295000D03*
D12*
X80010000Y-114019999D03*
X80010000Y-117120001D03*
X82550000Y-114019999D03*
X82550000Y-117120001D03*
X85089999Y-114019999D03*
X85089999Y-117120001D03*
X87630001Y-114019999D03*
X87630001Y-117120001D03*
X90170000Y-114019999D03*
X90170000Y-117120001D03*
X92710000Y-114019999D03*
X92710000Y-117120001D03*
X95250000Y-114019999D03*
X95250000Y-117120001D03*
X97790000Y-114020000D03*
X97790000Y-117120002D03*
D13*
X80009999Y-122137500D03*
X80009999Y-119162500D03*
X82550000Y-122137500D03*
X82550000Y-119162500D03*
X85090000Y-122137500D03*
X85090000Y-119162500D03*
X87630000Y-122137500D03*
X87630000Y-119162500D03*
X90170000Y-122137500D03*
X90170000Y-119162500D03*
X92710001Y-122137500D03*
X92710001Y-119162500D03*
X95250000Y-122137500D03*
X95250000Y-119162500D03*
X97790000Y-122137500D03*
X97790000Y-119162500D03*
D14*
X156442500Y-73660000D03*
X158517500Y-73660000D03*
X119612500Y-73660000D03*
X121687500Y-73660000D03*
D10*
X139700000Y-81512500D03*
X139700000Y-83587500D03*
X102870000Y-81512500D03*
X102870000Y-83587500D03*
D15*
X134387500Y-77470000D03*
X132312500Y-77470000D03*
D16*
X162560000Y-83587500D03*
X162560000Y-81512500D03*
D14*
X113262500Y-93980000D03*
X115337500Y-93980000D03*
D16*
X125730000Y-83587500D03*
X125730000Y-81512500D03*
D17*
X145455000Y-78800000D03*
X145455000Y-79300000D03*
X145455000Y-79800000D03*
X145455000Y-80300000D03*
X145455000Y-80800000D03*
X145455000Y-81300000D03*
X145455000Y-81800000D03*
X145455000Y-82300000D03*
X145455000Y-82800000D03*
X145455000Y-83300000D03*
X145455000Y-83800000D03*
X145455000Y-84300000D03*
X145455000Y-84800000D03*
X145455000Y-85300000D03*
X145455000Y-85800000D03*
X145455000Y-86300000D03*
D18*
X147380000Y-88225000D03*
X147880000Y-88225000D03*
X148380000Y-88225000D03*
X148880000Y-88225000D03*
X149380000Y-88225000D03*
X149880000Y-88225000D03*
X150380000Y-88225000D03*
X150880000Y-88225000D03*
X151380000Y-88225000D03*
X151880000Y-88225000D03*
X152380000Y-88225000D03*
X152880000Y-88225000D03*
X153380000Y-88225000D03*
X153880000Y-88225000D03*
X154380000Y-88225000D03*
X154880000Y-88225000D03*
D17*
X156805000Y-86300000D03*
X156805000Y-85800000D03*
X156805000Y-85300000D03*
X156805000Y-84800000D03*
X156805000Y-84300000D03*
X156805000Y-83800000D03*
X156805000Y-83300000D03*
X156805000Y-82800000D03*
X156805000Y-82300000D03*
X156805000Y-81800000D03*
X156805000Y-81300000D03*
X156805000Y-80800000D03*
X156805000Y-80300000D03*
X156805000Y-79800000D03*
X156805000Y-79300000D03*
X156805000Y-78800000D03*
D18*
X154880000Y-76875000D03*
X154380000Y-76875000D03*
X153880000Y-76875000D03*
X153380000Y-76875000D03*
X152880000Y-76875000D03*
X152380000Y-76875000D03*
X151880000Y-76875000D03*
X151380000Y-76875000D03*
X150880000Y-76875000D03*
X150380000Y-76875000D03*
X149880000Y-76875000D03*
X149380000Y-76875000D03*
X148880000Y-76875000D03*
X148380000Y-76875000D03*
X147880000Y-76875000D03*
X147380000Y-76875000D03*
D19*
X129980000Y-80010000D03*
X129980000Y-85090000D03*
X134180000Y-85090000D03*
X134180000Y-80010000D03*
D17*
X108625000Y-78800000D03*
X108625000Y-79300000D03*
X108625000Y-79800000D03*
X108625000Y-80300000D03*
X108625000Y-80800000D03*
X108625000Y-81300000D03*
X108625000Y-81800000D03*
X108625000Y-82300000D03*
X108625000Y-82800000D03*
X108625000Y-83300000D03*
X108625000Y-83800000D03*
X108625000Y-84300000D03*
X108625000Y-84800000D03*
X108625000Y-85300000D03*
X108625000Y-85800000D03*
X108625000Y-86300000D03*
D18*
X110550000Y-88225000D03*
X111050000Y-88225000D03*
X111550000Y-88225000D03*
X112050000Y-88225000D03*
X112550000Y-88225000D03*
X113050000Y-88225000D03*
X113550000Y-88225000D03*
X114050000Y-88225000D03*
X114550000Y-88225000D03*
X115050000Y-88225000D03*
X115550000Y-88225000D03*
X116050000Y-88225000D03*
X116550000Y-88225000D03*
X117050000Y-88225000D03*
X117550000Y-88225000D03*
X118050000Y-88225000D03*
D17*
X119975000Y-86300000D03*
X119975000Y-85800000D03*
X119975000Y-85300000D03*
X119975000Y-84800000D03*
X119975000Y-84300000D03*
X119975000Y-83800000D03*
X119975000Y-83300000D03*
X119975000Y-82800000D03*
X119975000Y-82300000D03*
X119975000Y-81800000D03*
X119975000Y-81300000D03*
X119975000Y-80800000D03*
X119975000Y-80300000D03*
X119975000Y-79800000D03*
X119975000Y-79300000D03*
X119975000Y-78800000D03*
D18*
X118050000Y-76875000D03*
X117550000Y-76875000D03*
X117050000Y-76875000D03*
X116550000Y-76875000D03*
X116050000Y-76875000D03*
X115550000Y-76875000D03*
X115050000Y-76875000D03*
X114550000Y-76875000D03*
X114050000Y-76875000D03*
X113550000Y-76875000D03*
X113050000Y-76875000D03*
X112550000Y-76875000D03*
X112050000Y-76875000D03*
X111550000Y-76875000D03*
X111050000Y-76875000D03*
X110550000Y-76875000D03*
D14*
X150092500Y-93980000D03*
X152167500Y-93980000D03*
M02*
