%TF.GenerationSoftware,KiCad,Pcbnew,8.0.4*%
%TF.CreationDate,2025-01-12T21:12:40-06:00*%
%TF.ProjectId,OctoCom,4f63746f-436f-46d2-9e6b-696361645f70,rev?*%
%TF.SameCoordinates,Original*%
%TF.FileFunction,Drillmap*%
%TF.FilePolarity,Positive*%
%FSLAX45Y45*%
G04 Gerber Fmt 4.5, Leading zero omitted, Abs format (unit mm)*
G04 Created by KiCad (PCBNEW 8.0.4) date 2025-01-12 21:12:40*
%MOMM*%
%LPD*%
G01*
G04 APERTURE LIST*
%ADD10C,0.050000*%
%ADD11C,0.200000*%
G04 APERTURE END LIST*
D10*
X17780000Y-4064000D02*
X17780000Y-12446000D01*
X17780000Y-12446000D02*
X7112000Y-12446000D01*
X7112000Y-12446000D02*
X7112000Y-4064000D01*
X7112000Y-4064000D02*
X17780000Y-4064000D01*
D11*
X7370277Y-12759984D02*
X7370277Y-12559984D01*
X7370277Y-12559984D02*
X7417896Y-12559984D01*
X7417896Y-12559984D02*
X7446467Y-12569508D01*
X7446467Y-12569508D02*
X7465515Y-12588555D01*
X7465515Y-12588555D02*
X7475039Y-12607603D01*
X7475039Y-12607603D02*
X7484562Y-12645698D01*
X7484562Y-12645698D02*
X7484562Y-12674269D01*
X7484562Y-12674269D02*
X7475039Y-12712365D01*
X7475039Y-12712365D02*
X7465515Y-12731412D01*
X7465515Y-12731412D02*
X7446467Y-12750460D01*
X7446467Y-12750460D02*
X7417896Y-12759984D01*
X7417896Y-12759984D02*
X7370277Y-12759984D01*
X7570277Y-12759984D02*
X7570277Y-12626650D01*
X7570277Y-12664746D02*
X7579801Y-12645698D01*
X7579801Y-12645698D02*
X7589324Y-12636174D01*
X7589324Y-12636174D02*
X7608372Y-12626650D01*
X7608372Y-12626650D02*
X7627420Y-12626650D01*
X7694086Y-12759984D02*
X7694086Y-12626650D01*
X7694086Y-12559984D02*
X7684562Y-12569508D01*
X7684562Y-12569508D02*
X7694086Y-12579031D01*
X7694086Y-12579031D02*
X7703610Y-12569508D01*
X7703610Y-12569508D02*
X7694086Y-12559984D01*
X7694086Y-12559984D02*
X7694086Y-12579031D01*
X7817896Y-12759984D02*
X7798848Y-12750460D01*
X7798848Y-12750460D02*
X7789324Y-12731412D01*
X7789324Y-12731412D02*
X7789324Y-12559984D01*
X7922658Y-12759984D02*
X7903610Y-12750460D01*
X7903610Y-12750460D02*
X7894086Y-12731412D01*
X7894086Y-12731412D02*
X7894086Y-12559984D01*
X8151229Y-12759984D02*
X8151229Y-12559984D01*
X8151229Y-12559984D02*
X8217896Y-12702841D01*
X8217896Y-12702841D02*
X8284562Y-12559984D01*
X8284562Y-12559984D02*
X8284562Y-12759984D01*
X8465515Y-12759984D02*
X8465515Y-12655222D01*
X8465515Y-12655222D02*
X8455991Y-12636174D01*
X8455991Y-12636174D02*
X8436944Y-12626650D01*
X8436944Y-12626650D02*
X8398848Y-12626650D01*
X8398848Y-12626650D02*
X8379801Y-12636174D01*
X8465515Y-12750460D02*
X8446467Y-12759984D01*
X8446467Y-12759984D02*
X8398848Y-12759984D01*
X8398848Y-12759984D02*
X8379801Y-12750460D01*
X8379801Y-12750460D02*
X8370277Y-12731412D01*
X8370277Y-12731412D02*
X8370277Y-12712365D01*
X8370277Y-12712365D02*
X8379801Y-12693317D01*
X8379801Y-12693317D02*
X8398848Y-12683793D01*
X8398848Y-12683793D02*
X8446467Y-12683793D01*
X8446467Y-12683793D02*
X8465515Y-12674269D01*
X8560753Y-12626650D02*
X8560753Y-12826650D01*
X8560753Y-12636174D02*
X8579801Y-12626650D01*
X8579801Y-12626650D02*
X8617896Y-12626650D01*
X8617896Y-12626650D02*
X8636944Y-12636174D01*
X8636944Y-12636174D02*
X8646467Y-12645698D01*
X8646467Y-12645698D02*
X8655991Y-12664746D01*
X8655991Y-12664746D02*
X8655991Y-12721888D01*
X8655991Y-12721888D02*
X8646467Y-12740936D01*
X8646467Y-12740936D02*
X8636944Y-12750460D01*
X8636944Y-12750460D02*
X8617896Y-12759984D01*
X8617896Y-12759984D02*
X8579801Y-12759984D01*
X8579801Y-12759984D02*
X8560753Y-12750460D01*
X8741705Y-12740936D02*
X8751229Y-12750460D01*
X8751229Y-12750460D02*
X8741705Y-12759984D01*
X8741705Y-12759984D02*
X8732182Y-12750460D01*
X8732182Y-12750460D02*
X8741705Y-12740936D01*
X8741705Y-12740936D02*
X8741705Y-12759984D01*
X8741705Y-12636174D02*
X8751229Y-12645698D01*
X8751229Y-12645698D02*
X8741705Y-12655222D01*
X8741705Y-12655222D02*
X8732182Y-12645698D01*
X8732182Y-12645698D02*
X8741705Y-12636174D01*
X8741705Y-12636174D02*
X8741705Y-12655222D01*
M02*
