M48
; DRILL file {KiCad 8.0.4} date 2024-09-22T21:35:39-0500
; FORMAT={-:-/ absolute / metric / decimal}
; #@! TF.CreationDate,2024-09-22T21:35:39-05:00
; #@! TF.GenerationSoftware,Kicad,Pcbnew,8.0.4
; #@! TF.FileFunction,Plated,1,2,PTH
FMAT,2
METRIC
; #@! TA.AperFunction,Plated,PTH,ViaDrill
T1C0.300
; #@! TA.AperFunction,Plated,PTH,ComponentDrill
T2C0.500
; #@! TA.AperFunction,Plated,PTH,ComponentDrill
T3C0.700
; #@! TA.AperFunction,Plated,PTH,ComponentDrill
T4C0.800
; #@! TA.AperFunction,Plated,PTH,ComponentDrill
T5C0.900
; #@! TA.AperFunction,Plated,PTH,ComponentDrill
T6C1.000
; #@! TA.AperFunction,Plated,PTH,ComponentDrill
T7C3.200
%
G90
G05
T1
X78.74Y-101.6
X81.28Y-86.995
X81.28Y-95.885
X81.28Y-111.125
X82.55Y-95.885
X83.185Y-86.995
X84.455Y-101.6
X85.09Y-86.995
X86.36Y-95.885
X86.995Y-86.995
X86.995Y-90.805
X87.63Y-102.87
X87.63Y-114.935
X88.265Y-86.995
X88.265Y-92.075
X89.535Y-95.25
X90.17Y-86.995
X90.17Y-90.805
X91.44Y-86.36
X91.44Y-110.49
X92.075Y-115.57
X92.075Y-118.745
X92.71Y-86.995
X93.345Y-109.855
X93.345Y-115.57
X93.345Y-118.745
X94.615Y-109.855
X94.615Y-115.57
X94.615Y-118.745
X95.885Y-109.855
X95.885Y-115.57
X95.885Y-118.745
X97.155Y-109.855
X97.155Y-115.57
X97.155Y-118.745
X98.425Y-109.855
X98.425Y-115.57
X98.425Y-118.745
X99.695Y-109.855
X99.695Y-115.57
X99.695Y-118.745
X100.33Y-95.885
X100.965Y-109.855
X100.965Y-115.57
X100.965Y-118.745
X102.235Y-109.855
X102.235Y-115.57
X102.235Y-118.745
X103.505Y-85.725
X103.505Y-109.855
X103.505Y-115.57
X103.505Y-118.745
X104.14Y-38.1
X104.14Y-94.615
X104.14Y-100.965
X104.775Y-109.855
X104.775Y-115.57
X104.775Y-118.745
X105.41Y-81.915
X106.045Y-48.895
X106.045Y-101.6
X106.045Y-109.855
X106.045Y-115.57
X106.045Y-118.745
X107.315Y-76.2
X107.315Y-109.855
X107.315Y-115.57
X107.315Y-118.745
X107.95Y-81.915
X107.95Y-92.075
X107.95Y-102.235
X108.585Y-109.855
X108.585Y-115.57
X108.585Y-118.745
X109.22Y-48.895
X109.22Y-55.245
X109.22Y-77.47
X109.22Y-92.075
X109.22Y-95.885
X109.855Y-71.12
X109.855Y-85.09
X109.855Y-86.995
X109.855Y-95.25
X109.855Y-96.52
X109.855Y-97.79
X109.855Y-102.87
X109.855Y-109.855
X109.855Y-115.57
X109.855Y-118.745
X110.49Y-90.17
X110.49Y-93.345
X110.49Y-94.615
X111.125Y-76.835
X111.125Y-93.98
X111.125Y-95.25
X111.125Y-101.6
X111.125Y-109.855
X111.125Y-115.57
X111.125Y-118.745
X111.76Y-48.895
X111.76Y-55.245
X111.76Y-75.565
X111.76Y-79.375
X111.76Y-81.915
X111.76Y-86.995
X111.76Y-90.17
X112.395Y-82.55
X112.395Y-83.82
X112.395Y-109.855
X113.03Y-32.385
X113.03Y-76.835
X113.03Y-111.76
X113.03Y-115.57
X113.03Y-118.745
X113.665Y-74.93
X113.665Y-83.82
X113.665Y-85.09
X113.665Y-89.535
X113.665Y-95.25
X114.3Y-48.895
X114.3Y-55.245
X114.3Y-83.185
X114.3Y-97.79
X114.935Y-32.385
X114.935Y-77.47
X114.935Y-88.9
X115.57Y-75.565
X115.57Y-78.105
X115.57Y-85.725
X115.57Y-88.265
X115.57Y-95.25
X115.57Y-111.76
X116.205Y-72.39
X116.205Y-74.93
X116.84Y-40.005
X116.84Y-55.245
X116.84Y-74.295
X116.84Y-84.455
X116.84Y-93.345
X116.84Y-114.935
X117.475Y-48.895
X117.475Y-83.82
X117.475Y-86.36
X117.475Y-88.9
X117.475Y-104.775
X118.11Y-90.17
X118.745Y-37.465
X118.745Y-70.485
X118.745Y-76.2
X118.745Y-80.01
X118.745Y-88.265
X119.38Y-55.245
X119.38Y-92.075
X119.38Y-105.41
X120.015Y-33.02
X120.015Y-48.895
X120.015Y-72.39
X120.65Y-125.095
X121.285Y-48.895
X121.285Y-106.045
X121.285Y-115.57
X121.92Y-55.245
X121.92Y-74.93
X121.92Y-82.55
X121.92Y-111.76
X123.19Y-33.02
X123.19Y-48.895
X123.19Y-78.105
X123.19Y-118.745
X123.825Y-83.82
X124.46Y-88.9
X125.095Y-48.895
X125.095Y-83.82
X125.095Y-87.61
X125.73Y-36.195
X125.73Y-78.105
X125.73Y-86.995
X125.73Y-118.11
X125.73Y-125.095
X126.365Y-83.82
X126.365Y-86.36
X126.365Y-104.775
X126.365Y-118.745
X127.635Y-83.82
X127.635Y-100.965
X128.27Y-78.105
X128.27Y-108.585
X128.27Y-117.475
X128.27Y-118.745
X128.905Y-99.695
X128.905Y-104.775
X130.175Y-98.425
X130.81Y-108.585
X130.81Y-116.84
X130.81Y-118.745
X131.445Y-104.775
X132.715Y-92.71
X132.715Y-114.935
X132.715Y-125.095
X133.35Y-108.585
X133.35Y-116.205
X133.985Y-114.935
X134.62Y-79.375
X135.255Y-125.095
X135.89Y-88.265
X135.89Y-108.585
X135.89Y-114.935
X136.525Y-92.71
X138.43Y-108.585
X138.43Y-116.205
X139.7Y-38.1
X139.7Y-40.64
X140.335Y-74.295
X140.97Y-73.66
X140.97Y-116.205
X141.605Y-74.295
X142.24Y-74.93
X142.24Y-92.71
X144.145Y-107.95
X144.78Y-38.735
X144.78Y-48.26
X144.78Y-55.245
X144.78Y-72.39
X144.78Y-79.375
X144.78Y-81.28
X145.415Y-74.93
X147.32Y-48.895
X147.32Y-55.245
X147.32Y-76.2
X148.59Y-33.02
X149.225Y-121.92
X149.225Y-125.73
X149.86Y-48.895
X149.86Y-55.245
X150.495Y-32.385
X152.4Y-48.895
X152.4Y-55.245
X153.035Y-33.655
X153.67Y-40.005
X153.67Y-41.91
X154.305Y-68.58
X154.305Y-71.12
X154.305Y-73.66
X154.305Y-76.835
X154.305Y-79.375
X154.305Y-80.645
X154.305Y-82.55
X154.305Y-84.455
X154.305Y-106.68
X154.305Y-109.22
X154.305Y-112.395
X154.305Y-116.205
X154.94Y-37.465
X154.94Y-55.245
X155.575Y-33.02
X155.575Y-48.895
X156.845Y-48.895
X157.48Y-55.245
X158.115Y-44.45
X158.115Y-124.46
X158.75Y-33.02
X158.75Y-48.895
X158.75Y-113.03
X158.75Y-114.935
X161.29Y-36.195
X161.29Y-77.47
X161.925Y-83.185
X161.925Y-113.03
X162.56Y-63.5
X162.56Y-99.06
X162.56Y-118.11
X163.195Y-77.47
X163.195Y-113.03
X164.465Y-77.47
X164.465Y-113.03
X165.1Y-63.5
X165.1Y-99.06
X165.735Y-78.105
X165.735Y-113.665
X167.005Y-85.09
X167.005Y-120.65
X167.64Y-98.425
X168.275Y-62.23
X168.275Y-85.09
X169.545Y-76.835
X169.545Y-112.395
X170.18Y-79.375
X170.18Y-114.935
X170.18Y-118.11
T2
X77.61Y-31.75
X77.61Y-123.19
X78.313Y-30.053
X78.313Y-33.447
X78.313Y-121.493
X78.313Y-124.887
X80.01Y-29.35
X80.01Y-34.15
X80.01Y-120.79
X80.01Y-125.59
X81.707Y-30.053
X81.707Y-33.447
X81.707Y-121.493
X81.707Y-124.887
X82.41Y-31.75
X82.41Y-123.19
X169.05Y-52.07
X169.05Y-123.19
X169.753Y-50.373
X169.753Y-53.767
X169.753Y-121.493
X169.753Y-124.887
X171.45Y-49.67
X171.45Y-54.47
X171.45Y-120.79
X171.45Y-125.59
X173.147Y-50.373
X173.147Y-53.767
X173.147Y-121.493
X173.147Y-124.887
X173.85Y-52.07
X173.85Y-123.19
T3
X80.01Y-63.5
X80.01Y-68.58
X80.01Y-73.66
X80.01Y-78.74
X80.01Y-93.98
X80.01Y-99.06
X87.63Y-63.5
X87.63Y-68.58
X87.63Y-73.66
X87.63Y-78.74
X87.63Y-93.98
X87.63Y-99.06
T4
X77.47Y-81.36
X77.47Y-86.36
X80.01Y-81.28
X80.01Y-88.9
X82.55Y-81.28
X82.55Y-88.9
X85.09Y-88.9
X85.09Y-81.28
X87.63Y-81.28
X87.63Y-88.9
X90.17Y-81.28
X90.17Y-88.9
X92.71Y-81.28
X92.71Y-88.9
X95.25Y-81.28
X95.25Y-88.9
X97.83Y-76.2
X99.06Y-83.82
X99.06Y-88.82
X100.33Y-76.2
X104.14Y-43.18
X104.14Y-48.18
X106.68Y-43.1
X106.68Y-50.72
X106.68Y-53.34
X109.22Y-40.64
X109.22Y-43.1
X109.22Y-50.72
X111.68Y-53.34
X111.76Y-50.72
X111.76Y-43.1
X111.76Y-99.06
X111.84Y-71.12
X114.22Y-40.64
X114.3Y-43.1
X114.3Y-50.72
X114.3Y-53.34
X115.57Y-102.87
X115.57Y-107.87
X116.76Y-99.06
X116.84Y-43.1
X116.84Y-50.72
X116.84Y-71.12
X118.11Y-102.87
X118.11Y-110.49
X119.3Y-53.34
X119.38Y-43.1
X119.38Y-50.72
X120.65Y-102.87
X120.65Y-110.49
X121.92Y-43.1
X121.92Y-50.72
X123.19Y-110.49
X123.19Y-102.87
X124.46Y-43.1
X124.46Y-50.72
X125.73Y-102.87
X125.73Y-110.49
X128.27Y-102.87
X128.27Y-110.49
X129.54Y-83.9
X129.54Y-88.9
X130.81Y-102.87
X130.81Y-110.49
X133.35Y-102.87
X133.35Y-110.49
X135.89Y-102.87
X135.89Y-110.49
X139.7Y-43.22
X139.7Y-48.22
X142.24Y-43.18
X142.24Y-50.8
X142.24Y-53.34
X144.78Y-40.64
X144.78Y-43.18
X144.78Y-50.8
X147.24Y-53.34
X147.32Y-50.8
X147.32Y-43.18
X149.78Y-40.64
X149.85Y-66.04
X149.85Y-71.04
X149.85Y-73.66
X149.85Y-78.66
X149.85Y-101.6
X149.85Y-106.6
X149.85Y-109.22
X149.85Y-114.22
X149.86Y-43.18
X149.86Y-50.8
X149.86Y-53.34
X152.4Y-43.18
X152.4Y-50.8
X152.4Y-66.04
X152.4Y-68.58
X152.4Y-71.12
X152.4Y-73.66
X152.4Y-76.2
X152.4Y-78.74
X152.4Y-81.28
X152.4Y-83.82
X152.4Y-101.6
X152.4Y-104.14
X152.4Y-106.68
X152.4Y-109.22
X152.4Y-111.76
X152.4Y-114.3
X152.4Y-116.84
X152.4Y-119.38
X154.86Y-53.34
X154.94Y-43.18
X154.94Y-50.8
X154.97Y-63.485
X154.97Y-99.045
X157.48Y-43.18
X157.48Y-50.8
X159.97Y-63.485
X159.97Y-99.045
X160.02Y-43.18
X160.02Y-66.04
X160.02Y-68.58
X160.02Y-71.12
X160.02Y-73.66
X160.02Y-76.2
X160.02Y-78.74
X160.02Y-81.28
X160.02Y-83.82
X160.02Y-101.6
X160.02Y-104.14
X160.02Y-106.68
X160.02Y-109.22
X160.02Y-111.76
X160.02Y-114.3
X160.02Y-116.84
X160.02Y-119.38
X160.02Y-50.8
X162.55Y-68.58
X162.55Y-73.58
X162.55Y-104.14
X162.55Y-109.14
T5
X77.47Y-60.96
X77.47Y-63.5
X77.47Y-66.04
X77.47Y-68.58
X77.47Y-71.12
X77.47Y-73.66
X77.47Y-76.2
X77.47Y-78.74
X77.47Y-91.44
X77.47Y-93.98
X77.47Y-96.52
X77.47Y-99.06
T6
X80.01Y-105.41
X80.01Y-107.95
X82.55Y-105.41
X82.55Y-107.95
X85.09Y-107.95
X85.09Y-105.41
X87.63Y-105.41
X87.63Y-107.95
X87.69Y-38.84
X90.19Y-38.84
X92.69Y-38.84
X92.71Y-105.41
X92.71Y-107.95
X92.71Y-120.65
X92.71Y-123.19
X92.79Y-68.58
X95.19Y-38.84
X95.25Y-105.41
X95.25Y-107.95
X95.25Y-120.65
X95.25Y-123.19
X97.79Y-107.95
X97.79Y-68.58
X97.79Y-105.41
X97.79Y-120.65
X97.79Y-123.19
X99.06Y-38.1
X99.06Y-40.64
X100.33Y-120.65
X100.33Y-105.41
X100.33Y-107.95
X100.33Y-123.19
X101.6Y-38.1
X101.6Y-40.64
X102.87Y-105.41
X102.87Y-107.95
X102.87Y-123.19
X102.87Y-120.65
X105.41Y-105.41
X105.41Y-107.95
X105.41Y-120.65
X105.41Y-123.19
X106.68Y-35.56
X107.95Y-105.41
X107.95Y-107.95
X107.95Y-120.65
X107.95Y-123.19
X109.22Y-35.56
X110.49Y-105.41
X110.49Y-120.65
X110.49Y-123.19
X110.49Y-107.95
X111.76Y-35.56
X113.03Y-123.19
X113.03Y-120.65
X115.57Y-120.65
X115.57Y-123.19
X116.84Y-35.56
X118.11Y-120.65
X118.11Y-123.19
X119.38Y-35.56
X120.65Y-120.65
X120.65Y-123.19
X121.92Y-35.56
X123.19Y-120.65
X123.19Y-123.19
X124.46Y-73.66
X124.46Y-76.2
X125.73Y-120.65
X125.73Y-123.19
X127.0Y-38.1
X127.0Y-40.64
X127.0Y-73.66
X127.0Y-76.2
X128.27Y-120.65
X128.27Y-123.19
X129.54Y-38.1
X129.54Y-40.64
X129.54Y-73.66
X129.54Y-76.2
X130.81Y-120.65
X130.81Y-123.19
X132.08Y-73.66
X132.08Y-76.2
X133.35Y-120.65
X133.35Y-123.19
X134.62Y-38.1
X134.62Y-40.64
X134.62Y-73.66
X134.62Y-76.2
X135.89Y-123.19
X135.89Y-120.65
X137.16Y-38.1
X137.16Y-40.64
X138.43Y-120.65
X138.43Y-123.19
X140.97Y-120.65
X140.97Y-123.19
X142.24Y-35.56
X144.78Y-35.56
X147.32Y-35.56
X152.4Y-35.56
X154.94Y-35.56
X157.48Y-35.56
X162.56Y-38.1
X162.56Y-40.64
X162.56Y-58.42
X162.56Y-60.96
X162.56Y-86.36
X162.56Y-88.9
X162.56Y-93.98
X162.56Y-96.52
X162.56Y-121.92
X162.56Y-124.46
X165.1Y-38.1
X165.1Y-40.64
X165.1Y-58.42
X165.1Y-60.96
X165.1Y-86.36
X165.1Y-88.9
X165.1Y-93.98
X165.1Y-96.52
X165.1Y-121.92
X165.1Y-124.46
X167.64Y-66.04
X167.64Y-68.58
X167.64Y-71.12
X167.64Y-76.2
X167.64Y-78.74
X167.64Y-81.28
X167.64Y-101.6
X167.64Y-104.14
X167.64Y-106.68
X167.64Y-111.76
X167.64Y-114.3
X167.64Y-116.84
T7
X80.01Y-31.75
X80.01Y-123.19
X171.45Y-52.07
X171.45Y-123.19
M30
