G04 #@! TF.GenerationSoftware,KiCad,Pcbnew,8.0.4*
G04 #@! TF.CreationDate,2024-09-22T21:35:36-05:00*
G04 #@! TF.ProjectId,QuadCom_8b,51756164-436f-46d5-9f38-622e6b696361,rev?*
G04 #@! TF.SameCoordinates,Original*
G04 #@! TF.FileFunction,Soldermask,Top*
G04 #@! TF.FilePolarity,Negative*
%FSLAX46Y46*%
G04 Gerber Fmt 4.6, Leading zero omitted, Abs format (unit mm)*
G04 Created by KiCad (PCBNEW 8.0.4) date 2024-09-22 21:35:36*
%MOMM*%
%LPD*%
G01*
G04 APERTURE LIST*
G04 Aperture macros list*
%AMRoundRect*
0 Rectangle with rounded corners*
0 $1 Rounding radius*
0 $2 $3 $4 $5 $6 $7 $8 $9 X,Y pos of 4 corners*
0 Add a 4 corners polygon primitive as box body*
4,1,4,$2,$3,$4,$5,$6,$7,$8,$9,$2,$3,0*
0 Add four circle primitives for the rounded corners*
1,1,$1+$1,$2,$3*
1,1,$1+$1,$4,$5*
1,1,$1+$1,$6,$7*
1,1,$1+$1,$8,$9*
0 Add four rect primitives between the rounded corners*
20,1,$1+$1,$2,$3,$4,$5,0*
20,1,$1+$1,$4,$5,$6,$7,0*
20,1,$1+$1,$6,$7,$8,$9,0*
20,1,$1+$1,$8,$9,$2,$3,0*%
G04 Aperture macros list end*
%ADD10C,0.800000*%
%ADD11C,6.400000*%
%ADD12R,1.700000X1.700000*%
%ADD13O,1.700000X1.700000*%
%ADD14R,1.600000X1.600000*%
%ADD15O,1.600000X1.600000*%
%ADD16C,1.400000*%
%ADD17O,1.400000X1.400000*%
%ADD18C,1.600000*%
%ADD19RoundRect,0.250000X-0.600000X0.600000X-0.600000X-0.600000X0.600000X-0.600000X0.600000X0.600000X0*%
%ADD20C,1.700000*%
%ADD21R,1.800000X1.800000*%
%ADD22C,1.800000*%
%ADD23R,3.480000X1.846667*%
%ADD24R,2.000000X2.000000*%
%ADD25C,2.000000*%
%ADD26R,1.846667X3.480000*%
%ADD27RoundRect,0.102000X0.754000X0.754000X-0.754000X0.754000X-0.754000X-0.754000X0.754000X-0.754000X0*%
%ADD28C,1.712000*%
%ADD29RoundRect,0.075000X0.075000X-0.700000X0.075000X0.700000X-0.075000X0.700000X-0.075000X-0.700000X0*%
%ADD30RoundRect,0.075000X0.700000X-0.075000X0.700000X0.075000X-0.700000X0.075000X-0.700000X-0.075000X0*%
G04 APERTURE END LIST*
D10*
X169050000Y-52070000D03*
X169752944Y-50372944D03*
X169752944Y-53767056D03*
X171450000Y-49670000D03*
D11*
X171450000Y-52070000D03*
D10*
X171450000Y-54470000D03*
X173147056Y-50372944D03*
X173147056Y-53767056D03*
X173850000Y-52070000D03*
D12*
X167640000Y-66040000D03*
D13*
X167640000Y-68580000D03*
X167640000Y-71120000D03*
D12*
X99060000Y-38100000D03*
D13*
X101600000Y-38100000D03*
X99060000Y-40640000D03*
X101600000Y-40640000D03*
D14*
X80010000Y-88900000D03*
D15*
X82550000Y-88900000D03*
X85089999Y-88900000D03*
X87630000Y-88900000D03*
X90170000Y-88900000D03*
X92710000Y-88900000D03*
X95250000Y-88900000D03*
X95250000Y-81280000D03*
X92710000Y-81280000D03*
X90170000Y-81280000D03*
X87630000Y-81280000D03*
X85090000Y-81280000D03*
X82550000Y-81280000D03*
X80010000Y-81280000D03*
D16*
X87630000Y-68580000D03*
D17*
X80010000Y-68580000D03*
D12*
X116840000Y-35560000D03*
D13*
X119380000Y-35560000D03*
X121919999Y-35560000D03*
D18*
X129540000Y-88900000D03*
X129540000Y-83900000D03*
X162550000Y-104140000D03*
X162550000Y-109140000D03*
X115570000Y-102870000D03*
X115570000Y-107870000D03*
D19*
X134620000Y-73660000D03*
D20*
X134620000Y-76200000D03*
X132080000Y-73660000D03*
X132080000Y-76200000D03*
X129540000Y-73660000D03*
X129540000Y-76200000D03*
X127000000Y-73660000D03*
X127000000Y-76200000D03*
X124460000Y-73660000D03*
X124460000Y-76200000D03*
D10*
X169050000Y-123190000D03*
X169752944Y-121492944D03*
X169752944Y-124887056D03*
X171450000Y-120790000D03*
D11*
X171450000Y-123190000D03*
D10*
X171450000Y-125590000D03*
X173147056Y-121492944D03*
X173147056Y-124887056D03*
X173850000Y-123190000D03*
D14*
X152400000Y-101600000D03*
D15*
X152400000Y-104140000D03*
X152400000Y-106679999D03*
X152400000Y-109220000D03*
X152400000Y-111760000D03*
X152400000Y-114300000D03*
X152400000Y-116840000D03*
X152400000Y-119380001D03*
X160020000Y-119380000D03*
X160020000Y-116840000D03*
X160020000Y-114300000D03*
X160020000Y-111760000D03*
X160020000Y-109220000D03*
X160020000Y-106680000D03*
X160020000Y-104140000D03*
X160020000Y-101600000D03*
D21*
X77470000Y-91440000D03*
D22*
X77470000Y-93980000D03*
D12*
X167640000Y-101600000D03*
D13*
X167640000Y-104140000D03*
X167640000Y-106680000D03*
D18*
X111680000Y-53340000D03*
X106680000Y-53340000D03*
D12*
X92710000Y-107950000D03*
D13*
X92710000Y-105410000D03*
X95250000Y-107950000D03*
X95250000Y-105410000D03*
X97789999Y-107950000D03*
X97790000Y-105410000D03*
X100330000Y-107950000D03*
X100330000Y-105410000D03*
X102870000Y-107950000D03*
X102870000Y-105410000D03*
X105410000Y-107950000D03*
X105410000Y-105410000D03*
X107950000Y-107950000D03*
X107950000Y-105410000D03*
X110490001Y-107950000D03*
X110490000Y-105410000D03*
D12*
X152400000Y-35560000D03*
D13*
X154940000Y-35560000D03*
X157479999Y-35560000D03*
D21*
X77470000Y-66040000D03*
D22*
X77470000Y-68580000D03*
D23*
X173377500Y-117300001D03*
X173377500Y-114530000D03*
X173377500Y-111760000D03*
X173377500Y-108990000D03*
X173377500Y-106219999D03*
D14*
X118110000Y-110490000D03*
D15*
X120650000Y-110490000D03*
X123189999Y-110490000D03*
X125730000Y-110490000D03*
X128270000Y-110490000D03*
X130810000Y-110490000D03*
X133350000Y-110490000D03*
X135890001Y-110490000D03*
X135890000Y-102870000D03*
X133350000Y-102870000D03*
X130810000Y-102870000D03*
X128270000Y-102870000D03*
X125730000Y-102870000D03*
X123190000Y-102870000D03*
X120650000Y-102870000D03*
X118110000Y-102870000D03*
D12*
X106680000Y-35560000D03*
D13*
X109220000Y-35560000D03*
X111759999Y-35560000D03*
D24*
X92790000Y-68580000D03*
D25*
X97790000Y-68580000D03*
D26*
X122380001Y-29822500D03*
X119610000Y-29822500D03*
X116840000Y-29822500D03*
X114070000Y-29822500D03*
X111299999Y-29822500D03*
D18*
X162550000Y-68580000D03*
X162550000Y-73580000D03*
D21*
X77470000Y-60960000D03*
D22*
X77470000Y-63500000D03*
D16*
X87630000Y-78740000D03*
D17*
X80010000Y-78740000D03*
D16*
X87630000Y-63500000D03*
D17*
X80010000Y-63500000D03*
D21*
X77470000Y-76200000D03*
D22*
X77470000Y-78740000D03*
D12*
X165100000Y-93980000D03*
D13*
X165100000Y-96520000D03*
X162560000Y-93980000D03*
X162560000Y-96520000D03*
D10*
X77610000Y-123190000D03*
X78312944Y-121492944D03*
X78312944Y-124887056D03*
X80010000Y-120790000D03*
D11*
X80010000Y-123190000D03*
D10*
X80010000Y-125590000D03*
X81707056Y-121492944D03*
X81707056Y-124887056D03*
X82410000Y-123190000D03*
D18*
X147240000Y-53340000D03*
X142240000Y-53340000D03*
D12*
X80010000Y-107950000D03*
D13*
X80010000Y-105410000D03*
X82550000Y-107950000D03*
X82550000Y-105410000D03*
X85089999Y-107950000D03*
X85090000Y-105410000D03*
X87630000Y-107950000D03*
X87630000Y-105410000D03*
D12*
X134620000Y-38100000D03*
D13*
X137160000Y-38100000D03*
X134620000Y-40640000D03*
X137160000Y-40640000D03*
D18*
X149850000Y-71040000D03*
X149850000Y-66040000D03*
D12*
X165100000Y-121920000D03*
D13*
X165100000Y-124460000D03*
X162560000Y-121920000D03*
X162560000Y-124460000D03*
D12*
X167640000Y-111760000D03*
D13*
X167640000Y-114300000D03*
X167640000Y-116840000D03*
D12*
X127000000Y-38100000D03*
D13*
X129540000Y-38100000D03*
X127000000Y-40640000D03*
X129540000Y-40640000D03*
D27*
X87690000Y-38839999D03*
D28*
X90190000Y-38839999D03*
X92690000Y-38839999D03*
X95190000Y-38839999D03*
D18*
X104140000Y-48180000D03*
X104140000Y-43180000D03*
D12*
X142240000Y-35560000D03*
D13*
X144780000Y-35560000D03*
X147319999Y-35560000D03*
D18*
X154970000Y-99045000D03*
X159970000Y-99045000D03*
D14*
X142240000Y-50800000D03*
D15*
X144780000Y-50800000D03*
X147319999Y-50800000D03*
X149860000Y-50800000D03*
X152400000Y-50800000D03*
X154940000Y-50800000D03*
X157480000Y-50800000D03*
X160020001Y-50800000D03*
X160020000Y-43180000D03*
X157480000Y-43180000D03*
X154940000Y-43180000D03*
X152400000Y-43180000D03*
X149860000Y-43180000D03*
X147320000Y-43180000D03*
X144780000Y-43180000D03*
X142240000Y-43180000D03*
D12*
X162560000Y-38100000D03*
D13*
X165100000Y-38100000D03*
X162560000Y-40640000D03*
X165100000Y-40640000D03*
D18*
X139700000Y-48220000D03*
X139700000Y-43220000D03*
X119300000Y-53340000D03*
X114300000Y-53340000D03*
D16*
X87630000Y-73660000D03*
D17*
X80010000Y-73660000D03*
D14*
X97830000Y-76200000D03*
D18*
X100330000Y-76200000D03*
D12*
X167640000Y-76200000D03*
D13*
X167640000Y-78740000D03*
X167640000Y-81280000D03*
D26*
X157940001Y-29822500D03*
X155170000Y-29822500D03*
X152400000Y-29822500D03*
X149630000Y-29822500D03*
X146859999Y-29822500D03*
D18*
X109220000Y-40640000D03*
X114220000Y-40640000D03*
X154860000Y-53340000D03*
X149860000Y-53340000D03*
D12*
X165100000Y-86360000D03*
D13*
X165100000Y-88900000D03*
X162560000Y-86360000D03*
X162560000Y-88900000D03*
D16*
X87630000Y-99060000D03*
D17*
X80010000Y-99060000D03*
D14*
X152400000Y-66040000D03*
D15*
X152400000Y-68580000D03*
X152400000Y-71119999D03*
X152400000Y-73660000D03*
X152400000Y-76200000D03*
X152400000Y-78740000D03*
X152400000Y-81280000D03*
X152400000Y-83820001D03*
X160020000Y-83820000D03*
X160020000Y-81280000D03*
X160020000Y-78740000D03*
X160020000Y-76200000D03*
X160020000Y-73660000D03*
X160020000Y-71120000D03*
X160020000Y-68580000D03*
X160020000Y-66040000D03*
D12*
X140970000Y-120650000D03*
D13*
X140970000Y-123190000D03*
X138430000Y-120650000D03*
X138430000Y-123190000D03*
X135890001Y-120650000D03*
X135890000Y-123190000D03*
X133350000Y-120650000D03*
X133350000Y-123190000D03*
X130810000Y-120650000D03*
X130810000Y-123190000D03*
X128270000Y-120650000D03*
X128270000Y-123190000D03*
X125730000Y-120650000D03*
X125730000Y-123190000D03*
X123189999Y-120650000D03*
X123190000Y-123190000D03*
X120650000Y-120650000D03*
X120650000Y-123190000D03*
X118110000Y-120650000D03*
X118110000Y-123190000D03*
X115570000Y-120650000D03*
X115570000Y-123190000D03*
X113030001Y-120650000D03*
X113030000Y-123190000D03*
X110490000Y-120650000D03*
X110490000Y-123190000D03*
X107950000Y-120650000D03*
X107950000Y-123190000D03*
X105410000Y-120650000D03*
X105410000Y-123190000D03*
X102870001Y-120650000D03*
X102870000Y-123190000D03*
X100329999Y-120650000D03*
X100330000Y-123190000D03*
X97790000Y-120650000D03*
X97790000Y-123190000D03*
X95250000Y-120650000D03*
X95250000Y-123190000D03*
X92710000Y-120650000D03*
X92710000Y-123190000D03*
D21*
X77470000Y-96520000D03*
D22*
X77470000Y-99060000D03*
D18*
X149850000Y-106600000D03*
X149850000Y-101600000D03*
X149850000Y-114220000D03*
X149850000Y-109220000D03*
D29*
X110550001Y-92035000D03*
X111050000Y-92035000D03*
X111550000Y-92035000D03*
X112050000Y-92035000D03*
X112550000Y-92035000D03*
X113050001Y-92035000D03*
X113550000Y-92035000D03*
X114050000Y-92035000D03*
X114550000Y-92035000D03*
X115050000Y-92035000D03*
X115549999Y-92035000D03*
X116050000Y-92035000D03*
X116550000Y-92035000D03*
X117050000Y-92035000D03*
X117550000Y-92035000D03*
X118049999Y-92035000D03*
D30*
X119975000Y-90109999D03*
X119975000Y-89610000D03*
X119975000Y-89110000D03*
X119975000Y-88610000D03*
X119975000Y-88110000D03*
X119975000Y-87609999D03*
X119975000Y-87110000D03*
X119975000Y-86610000D03*
X119975000Y-86110000D03*
X119975000Y-85610000D03*
X119975000Y-85110001D03*
X119975000Y-84610000D03*
X119975000Y-84110000D03*
X119975000Y-83610000D03*
X119975000Y-83110000D03*
X119975000Y-82610001D03*
D29*
X118049999Y-80685000D03*
X117550000Y-80685000D03*
X117050000Y-80685000D03*
X116550000Y-80685000D03*
X116050000Y-80685000D03*
X115549999Y-80685000D03*
X115050000Y-80685000D03*
X114550000Y-80685000D03*
X114050000Y-80685000D03*
X113550000Y-80685000D03*
X113050001Y-80685000D03*
X112550000Y-80685000D03*
X112050000Y-80685000D03*
X111550000Y-80685000D03*
X111050000Y-80685000D03*
X110550001Y-80685000D03*
D30*
X108625000Y-82610001D03*
X108625000Y-83110000D03*
X108625000Y-83610000D03*
X108625000Y-84110000D03*
X108625000Y-84610000D03*
X108625000Y-85110001D03*
X108625000Y-85610000D03*
X108625000Y-86110000D03*
X108625000Y-86610000D03*
X108625000Y-87110000D03*
X108625000Y-87609999D03*
X108625000Y-88110000D03*
X108625000Y-88610000D03*
X108625000Y-89110000D03*
X108625000Y-89610000D03*
X108625000Y-90109999D03*
D14*
X106680000Y-50720000D03*
D15*
X109220000Y-50720000D03*
X111759999Y-50720000D03*
X114300000Y-50720000D03*
X116840000Y-50720000D03*
X119380000Y-50720000D03*
X121920000Y-50720000D03*
X124460001Y-50720000D03*
X124460000Y-43100000D03*
X121920000Y-43100000D03*
X119380000Y-43100000D03*
X116840000Y-43100000D03*
X114300000Y-43100000D03*
X111760000Y-43100000D03*
X109220000Y-43100000D03*
X106680000Y-43100000D03*
D18*
X111760000Y-99060000D03*
X116760000Y-99060000D03*
D12*
X165100000Y-58420000D03*
D13*
X165100000Y-60960000D03*
X162560000Y-58420000D03*
X162560000Y-60960000D03*
D21*
X77470000Y-71120000D03*
D22*
X77470000Y-73660000D03*
D18*
X99060000Y-83820000D03*
X99060000Y-88820000D03*
D16*
X87630000Y-93980000D03*
D17*
X80010000Y-93980000D03*
D18*
X144780000Y-40640000D03*
X149780000Y-40640000D03*
D10*
X77610000Y-31750000D03*
X78312944Y-30052944D03*
X78312944Y-33447056D03*
X80010000Y-29350000D03*
D11*
X80010000Y-31750000D03*
D10*
X80010000Y-34150000D03*
X81707056Y-30052944D03*
X81707056Y-33447056D03*
X82410000Y-31750000D03*
D18*
X154970000Y-63485000D03*
X159970000Y-63485000D03*
D23*
X173377500Y-81740001D03*
X173377500Y-78970000D03*
X173377500Y-76200000D03*
X173377500Y-73430000D03*
X173377500Y-70659999D03*
D18*
X77470000Y-81360000D03*
X77470000Y-86360000D03*
X116840000Y-71120000D03*
X111840000Y-71120000D03*
X149850000Y-78660000D03*
X149850000Y-73660000D03*
M02*
