%TF.GenerationSoftware,KiCad,Pcbnew,8.0.4*%
%TF.CreationDate,2024-09-22T21:38:44-05:00*%
%TF.ProjectId,Exp8b,45787038-622e-46b6-9963-61645f706362,rev?*%
%TF.SameCoordinates,Original*%
%TF.FileFunction,Drillmap*%
%TF.FilePolarity,Positive*%
%FSLAX45Y45*%
G04 Gerber Fmt 4.5, Leading zero omitted, Abs format (unit mm)*
G04 Created by KiCad (PCBNEW 8.0.4) date 2024-09-22 21:38:44*
%MOMM*%
%LPD*%
G01*
G04 APERTURE LIST*
%ADD10C,0.100000*%
%ADD11C,0.200000*%
G04 APERTURE END LIST*
D10*
X9398000Y-5080000D02*
G75*
G02*
X9144000Y-4826000I0J254000D01*
G01*
X9144000Y-4064000D02*
X5080000Y-4064000D01*
X9144000Y-4826000D02*
X9144000Y-4064000D01*
X15748000Y-13970000D02*
X5080000Y-13970000D01*
X15748000Y-5080000D02*
X15748000Y-13970000D01*
X5080000Y-13970000D02*
X5080000Y-4064000D01*
X9398000Y-5080000D02*
X15748000Y-5080000D01*
D11*
X5335777Y-14286484D02*
X5335777Y-14086484D01*
X5335777Y-14086484D02*
X5383396Y-14086484D01*
X5383396Y-14086484D02*
X5411967Y-14096008D01*
X5411967Y-14096008D02*
X5431015Y-14115055D01*
X5431015Y-14115055D02*
X5440539Y-14134103D01*
X5440539Y-14134103D02*
X5450063Y-14172198D01*
X5450063Y-14172198D02*
X5450063Y-14200769D01*
X5450063Y-14200769D02*
X5440539Y-14238865D01*
X5440539Y-14238865D02*
X5431015Y-14257912D01*
X5431015Y-14257912D02*
X5411967Y-14276960D01*
X5411967Y-14276960D02*
X5383396Y-14286484D01*
X5383396Y-14286484D02*
X5335777Y-14286484D01*
X5535777Y-14286484D02*
X5535777Y-14153150D01*
X5535777Y-14191246D02*
X5545301Y-14172198D01*
X5545301Y-14172198D02*
X5554824Y-14162674D01*
X5554824Y-14162674D02*
X5573872Y-14153150D01*
X5573872Y-14153150D02*
X5592920Y-14153150D01*
X5659586Y-14286484D02*
X5659586Y-14153150D01*
X5659586Y-14086484D02*
X5650062Y-14096008D01*
X5650062Y-14096008D02*
X5659586Y-14105531D01*
X5659586Y-14105531D02*
X5669110Y-14096008D01*
X5669110Y-14096008D02*
X5659586Y-14086484D01*
X5659586Y-14086484D02*
X5659586Y-14105531D01*
X5783396Y-14286484D02*
X5764348Y-14276960D01*
X5764348Y-14276960D02*
X5754824Y-14257912D01*
X5754824Y-14257912D02*
X5754824Y-14086484D01*
X5888158Y-14286484D02*
X5869110Y-14276960D01*
X5869110Y-14276960D02*
X5859586Y-14257912D01*
X5859586Y-14257912D02*
X5859586Y-14086484D01*
X6116729Y-14286484D02*
X6116729Y-14086484D01*
X6116729Y-14086484D02*
X6183396Y-14229341D01*
X6183396Y-14229341D02*
X6250062Y-14086484D01*
X6250062Y-14086484D02*
X6250062Y-14286484D01*
X6431015Y-14286484D02*
X6431015Y-14181722D01*
X6431015Y-14181722D02*
X6421491Y-14162674D01*
X6421491Y-14162674D02*
X6402443Y-14153150D01*
X6402443Y-14153150D02*
X6364348Y-14153150D01*
X6364348Y-14153150D02*
X6345301Y-14162674D01*
X6431015Y-14276960D02*
X6411967Y-14286484D01*
X6411967Y-14286484D02*
X6364348Y-14286484D01*
X6364348Y-14286484D02*
X6345301Y-14276960D01*
X6345301Y-14276960D02*
X6335777Y-14257912D01*
X6335777Y-14257912D02*
X6335777Y-14238865D01*
X6335777Y-14238865D02*
X6345301Y-14219817D01*
X6345301Y-14219817D02*
X6364348Y-14210293D01*
X6364348Y-14210293D02*
X6411967Y-14210293D01*
X6411967Y-14210293D02*
X6431015Y-14200769D01*
X6526253Y-14153150D02*
X6526253Y-14353150D01*
X6526253Y-14162674D02*
X6545301Y-14153150D01*
X6545301Y-14153150D02*
X6583396Y-14153150D01*
X6583396Y-14153150D02*
X6602443Y-14162674D01*
X6602443Y-14162674D02*
X6611967Y-14172198D01*
X6611967Y-14172198D02*
X6621491Y-14191246D01*
X6621491Y-14191246D02*
X6621491Y-14248388D01*
X6621491Y-14248388D02*
X6611967Y-14267436D01*
X6611967Y-14267436D02*
X6602443Y-14276960D01*
X6602443Y-14276960D02*
X6583396Y-14286484D01*
X6583396Y-14286484D02*
X6545301Y-14286484D01*
X6545301Y-14286484D02*
X6526253Y-14276960D01*
X6707205Y-14267436D02*
X6716729Y-14276960D01*
X6716729Y-14276960D02*
X6707205Y-14286484D01*
X6707205Y-14286484D02*
X6697682Y-14276960D01*
X6697682Y-14276960D02*
X6707205Y-14267436D01*
X6707205Y-14267436D02*
X6707205Y-14286484D01*
X6707205Y-14162674D02*
X6716729Y-14172198D01*
X6716729Y-14172198D02*
X6707205Y-14181722D01*
X6707205Y-14181722D02*
X6697682Y-14172198D01*
X6697682Y-14172198D02*
X6707205Y-14162674D01*
X6707205Y-14162674D02*
X6707205Y-14181722D01*
M02*
