M48
; DRILL file {KiCad 8.0.4} date 2024-09-22T21:38:43-0500
; FORMAT={-:-/ absolute / metric / decimal}
; #@! TF.CreationDate,2024-09-22T21:38:43-05:00
; #@! TF.GenerationSoftware,Kicad,Pcbnew,8.0.4
; #@! TF.FileFunction,Plated,1,2,PTH
FMAT,2
METRIC
; #@! TA.AperFunction,Plated,PTH,ViaDrill
T1C0.300
; #@! TA.AperFunction,Plated,PTH,ComponentDrill
T2C0.500
; #@! TA.AperFunction,Plated,PTH,ComponentDrill
T3C0.700
; #@! TA.AperFunction,Plated,PTH,ComponentDrill
T4C0.750
; #@! TA.AperFunction,Plated,PTH,ComponentDrill
T5C0.800
; #@! TA.AperFunction,Plated,PTH,ComponentDrill
T6C1.000
; #@! TA.AperFunction,Plated,PTH,ComponentDrill
T7C3.200
%
G90
G05
T1
X54.61Y-97.155
X55.245Y-95.25
X56.515Y-78.74
X56.515Y-81.28
X56.515Y-83.185
X56.515Y-84.455
X57.15Y-87.63
X57.785Y-71.755
X57.785Y-86.36
X57.785Y-90.17
X58.42Y-85.725
X59.055Y-71.755
X59.69Y-72.39
X59.69Y-85.725
X60.325Y-73.025
X60.325Y-74.295
X60.325Y-106.045
X60.96Y-84.455
X61.595Y-104.775
X62.23Y-83.185
X62.865Y-114.935
X63.5Y-92.71
X63.5Y-102.87
X63.5Y-133.35
X64.135Y-75.565
X64.135Y-79.375
X64.135Y-81.28
X64.135Y-85.725
X64.77Y-91.44
X65.405Y-84.455
X65.405Y-100.965
X65.405Y-123.825
X65.405Y-125.095
X65.405Y-126.365
X66.675Y-83.185
X66.675Y-94.615
X67.31Y-90.17
X67.31Y-91.44
X67.945Y-94.615
X67.945Y-100.965
X68.58Y-81.28
X69.85Y-130.175
X70.485Y-53.34
X70.485Y-57.15
X70.485Y-75.565
X70.485Y-79.375
X70.485Y-100.965
X71.12Y-95.25
X71.12Y-107.95
X71.755Y-107.315
X71.755Y-127.0
X72.39Y-106.68
X72.39Y-130.175
X73.025Y-86.36
X73.025Y-91.44
X73.025Y-92.71
X73.025Y-106.045
X73.66Y-105.41
X73.66Y-126.365
X74.295Y-108.585
X74.93Y-130.175
X75.565Y-108.585
X75.565Y-113.03
X75.565Y-120.015
X76.835Y-84.455
X76.835Y-86.995
X76.835Y-111.76
X77.47Y-83.185
X77.47Y-85.09
X77.47Y-108.585
X77.47Y-130.175
X78.105Y-86.995
X79.375Y-109.22
X79.375Y-110.49
X79.375Y-113.03
X80.01Y-76.835
X80.01Y-78.105
X80.01Y-91.44
X80.01Y-92.71
X80.01Y-105.41
X80.01Y-120.65
X81.28Y-76.2
X81.915Y-81.28
X82.55Y-83.185
X82.55Y-84.455
X82.55Y-123.19
X83.185Y-77.47
X83.185Y-91.44
X83.82Y-113.03
X84.455Y-83.82
X84.455Y-133.985
X85.09Y-53.34
X85.09Y-108.585
X85.09Y-118.745
X85.725Y-78.74
X85.725Y-90.805
X85.725Y-93.345
X85.725Y-127.635
X86.36Y-107.95
X86.36Y-133.35
X86.995Y-93.345
X86.995Y-109.22
X87.63Y-118.745
X87.63Y-127.0
X88.265Y-80.01
X88.265Y-132.715
X88.9Y-79.375
X88.9Y-109.855
X90.17Y-118.745
X90.17Y-132.08
X91.44Y-81.28
X91.44Y-88.265
X91.44Y-107.95
X91.44Y-130.81
X91.694Y-133.604
X92.075Y-67.31
X92.075Y-71.12
X92.075Y-82.55
X92.075Y-106.045
X92.71Y-118.745
X92.71Y-127.0
X92.71Y-129.54
X92.964Y-132.334
X93.345Y-107.315
X93.345Y-128.905
X93.98Y-108.585
X93.98Y-128.27
X94.234Y-131.064
X94.234Y-133.604
X94.615Y-76.2
X94.615Y-83.185
X95.25Y-57.15
X95.25Y-106.045
X95.25Y-118.745
X95.504Y-129.794
X95.504Y-132.334
X95.885Y-83.82
X96.52Y-85.09
X96.52Y-107.95
X96.774Y-131.064
X96.774Y-133.604
X97.79Y-90.805
X97.79Y-106.045
X98.044Y-132.334
X98.425Y-59.055
X98.425Y-73.025
X98.425Y-109.22
X99.06Y-85.725
X99.314Y-131.064
X99.314Y-133.604
X99.695Y-106.045
X100.33Y-73.025
X100.33Y-81.28
X100.33Y-109.855
X100.33Y-127.635
X100.584Y-132.334
X101.6Y-85.725
X101.6Y-93.98
X101.6Y-106.045
X101.6Y-109.22
X101.6Y-123.19
X101.6Y-125.73
X101.854Y-133.604
X102.87Y-74.295
X102.87Y-81.915
X103.124Y-132.588
X104.14Y-90.805
X104.394Y-133.858
X104.775Y-123.19
X105.41Y-74.295
X105.41Y-81.915
X105.41Y-132.842
X106.045Y-86.36
X106.045Y-90.805
X106.68Y-134.112
X107.315Y-87.63
X107.315Y-90.805
X107.315Y-128.27
X107.95Y-74.295
X107.95Y-81.915
X107.95Y-107.315
X108.585Y-90.805
X109.22Y-107.95
X109.22Y-121.285
X109.855Y-93.98
X109.855Y-109.22
X109.855Y-123.19
X110.49Y-74.295
X110.49Y-87.63
X110.49Y-105.41
X111.125Y-93.98
X111.76Y-108.585
X111.76Y-123.19
X112.395Y-93.98
X113.03Y-74.295
X113.03Y-81.28
X113.03Y-107.315
X113.03Y-108.585
X113.03Y-120.65
X113.665Y-90.805
X113.665Y-93.98
X113.665Y-106.68
X114.3Y-107.95
X115.57Y-74.295
X115.57Y-78.105
X115.57Y-95.885
X116.205Y-102.87
X116.84Y-106.045
X116.84Y-123.19
X117.475Y-92.71
X117.475Y-93.98
X117.475Y-108.585
X118.11Y-92.075
X118.11Y-93.345
X118.11Y-137.795
X118.745Y-75.565
X118.745Y-91.44
X118.745Y-108.585
X118.745Y-109.855
X119.38Y-84.455
X119.38Y-123.19
X120.015Y-107.95
X121.285Y-89.535
X122.555Y-86.995
X122.555Y-133.985
X123.19Y-88.265
X123.19Y-97.155
X123.825Y-85.09
X124.46Y-107.315
X124.46Y-123.19
X125.73Y-104.14
X126.365Y-82.55
X126.365Y-90.17
X126.365Y-111.125
X127.0Y-102.87
X127.0Y-111.76
X127.635Y-86.995
X127.635Y-90.17
X127.635Y-104.14
X127.635Y-107.315
X127.635Y-121.285
X128.27Y-128.905
X128.905Y-80.01
X128.905Y-90.17
X128.905Y-95.25
X129.54Y-85.09
X129.54Y-123.19
X130.175Y-86.995
X130.175Y-90.17
X130.175Y-107.315
X130.81Y-98.425
X131.445Y-77.47
X131.445Y-90.17
X131.445Y-95.25
X132.08Y-82.55
X132.08Y-85.09
X132.08Y-99.695
X132.715Y-86.995
X132.715Y-90.17
X132.715Y-121.92
X133.35Y-98.425
X133.35Y-107.315
X133.35Y-109.855
X133.35Y-128.905
X133.985Y-74.93
X133.985Y-90.17
X133.985Y-95.25
X134.62Y-80.01
X134.62Y-85.09
X134.62Y-97.79
X134.62Y-123.19
X135.255Y-86.995
X135.255Y-90.17
X135.89Y-99.06
X136.525Y-90.805
X136.525Y-130.81
X137.16Y-59.055
X137.16Y-61.595
X137.16Y-77.47
X137.16Y-85.09
X137.16Y-100.33
X137.795Y-86.995
X137.795Y-90.805
X137.795Y-121.285
X138.43Y-103.505
X139.065Y-90.805
X139.7Y-94.615
X139.7Y-123.19
X139.7Y-137.795
X140.335Y-59.055
X140.335Y-100.33
X140.335Y-107.315
X140.97Y-90.805
X142.24Y-102.87
X142.875Y-59.055
X142.875Y-94.615
X142.875Y-109.855
X143.51Y-90.805
X143.51Y-114.935
X143.51Y-120.65
X143.51Y-123.19
X144.78Y-95.25
X144.78Y-100.33
X145.415Y-93.345
X145.415Y-107.315
X146.05Y-74.295
X146.05Y-75.565
X146.05Y-76.835
X146.05Y-78.105
X146.05Y-79.375
X146.05Y-80.645
X146.05Y-81.915
X146.05Y-83.185
X146.05Y-84.455
X146.05Y-85.725
X146.05Y-86.995
X146.05Y-90.805
X147.32Y-94.615
X147.32Y-100.33
X147.32Y-107.315
X147.32Y-113.665
X147.32Y-123.19
X147.955Y-93.345
X149.225Y-114.3
X149.86Y-93.345
X149.86Y-94.615
X149.86Y-100.33
X149.86Y-116.205
X149.86Y-120.65
X151.13Y-104.14
X151.765Y-102.235
X152.4Y-97.155
T2
X52.21Y-44.45
X52.21Y-64.77
X52.21Y-135.89
X52.913Y-42.753
X52.913Y-46.147
X52.913Y-63.073
X52.913Y-66.467
X52.913Y-134.193
X52.913Y-137.587
X54.61Y-42.05
X54.61Y-46.85
X54.61Y-62.37
X54.61Y-67.17
X54.61Y-133.49
X54.61Y-138.29
X56.307Y-42.753
X56.307Y-46.147
X56.307Y-63.073
X56.307Y-66.467
X56.307Y-134.193
X56.307Y-137.587
X57.01Y-44.45
X57.01Y-64.77
X57.01Y-135.89
X143.65Y-64.77
X143.65Y-135.89
X144.353Y-63.073
X144.353Y-66.467
X144.353Y-134.193
X144.353Y-137.587
X146.05Y-62.37
X146.05Y-67.17
X146.05Y-133.49
X146.05Y-138.29
X147.747Y-63.073
X147.747Y-66.467
X147.747Y-134.193
X147.747Y-137.587
X148.45Y-64.77
X148.45Y-135.89
X151.27Y-64.77
X151.27Y-135.89
X151.973Y-63.073
X151.973Y-66.467
X151.973Y-134.193
X151.973Y-137.587
X153.67Y-62.37
X153.67Y-67.17
X153.67Y-133.49
X153.67Y-138.29
X155.367Y-63.073
X155.367Y-66.467
X155.367Y-134.193
X155.367Y-137.587
X156.07Y-64.77
X156.07Y-135.89
T3
X58.42Y-88.9
X58.42Y-96.52
X60.96Y-88.9
X60.96Y-96.52
X81.28Y-104.14
X81.28Y-111.76
X99.06Y-76.2
X99.06Y-83.82
X101.6Y-76.2
X101.6Y-83.82
X104.14Y-76.2
X104.14Y-83.82
X106.68Y-76.2
X106.68Y-83.82
X109.22Y-76.2
X109.22Y-83.82
X111.76Y-76.2
X111.76Y-83.82
X114.3Y-76.2
X114.3Y-83.82
X116.84Y-76.2
X116.84Y-83.82
T4
X76.2Y-104.14
X76.2Y-105.41
X76.2Y-106.68
T5
X63.5Y-88.9
X63.5Y-96.52
X66.04Y-88.9
X66.04Y-96.52
X68.58Y-88.9
X68.58Y-96.52
X71.12Y-88.9
X71.12Y-96.52
X73.66Y-88.9
X73.66Y-96.52
X76.2Y-88.9
X76.2Y-96.52
X78.74Y-88.9
X78.74Y-96.52
X81.28Y-96.52
X81.28Y-88.9
X83.82Y-88.9
X83.82Y-96.52
X86.36Y-88.9
X86.36Y-96.52
X86.36Y-104.14
X86.36Y-111.76
X88.9Y-88.94
X88.9Y-93.94
X88.9Y-104.14
X88.9Y-111.76
X91.44Y-104.14
X91.44Y-111.76
X93.98Y-104.14
X93.98Y-111.76
X96.52Y-88.9
X96.52Y-96.52
X96.52Y-111.76
X96.52Y-104.14
X99.06Y-63.5
X99.06Y-88.9
X99.06Y-96.52
X99.06Y-104.14
X99.06Y-111.76
X99.06Y-71.12
X101.6Y-88.9
X101.6Y-96.52
X101.6Y-104.14
X101.6Y-111.76
X101.6Y-63.5
X101.6Y-71.12
X104.14Y-88.9
X104.14Y-96.52
X104.14Y-106.76
X104.14Y-111.76
X104.14Y-119.38
X104.14Y-127.0
X104.14Y-63.5
X104.14Y-71.12
X106.68Y-104.14
X106.68Y-88.9
X106.68Y-96.52
X106.68Y-111.76
X106.68Y-119.38
X106.68Y-127.0
X106.68Y-63.5
X106.68Y-71.12
X109.22Y-88.9
X109.22Y-96.52
X109.22Y-104.14
X109.22Y-111.76
X109.22Y-119.38
X109.22Y-127.0
X109.22Y-63.5
X109.22Y-71.12
X111.76Y-88.9
X111.76Y-96.52
X111.76Y-104.14
X111.76Y-111.76
X111.76Y-119.38
X111.76Y-127.0
X111.76Y-71.12
X111.76Y-63.5
X114.3Y-96.52
X114.3Y-104.14
X114.3Y-111.76
X114.3Y-127.0
X114.3Y-63.5
X114.3Y-71.12
X114.3Y-88.9
X114.3Y-119.38
X116.84Y-88.9
X116.84Y-96.52
X116.84Y-104.14
X116.84Y-111.76
X116.84Y-119.38
X116.84Y-127.0
X116.84Y-63.5
X116.84Y-71.12
X119.38Y-88.9
X119.38Y-96.52
X119.38Y-111.76
X119.38Y-119.38
X119.38Y-127.0
X119.38Y-104.14
X121.92Y-91.52
X121.92Y-96.52
X121.92Y-104.14
X121.92Y-111.76
X121.92Y-122.0
X121.92Y-127.0
X124.46Y-88.9
X124.46Y-96.52
X124.46Y-104.14
X124.46Y-111.76
X124.46Y-119.38
X124.46Y-127.0
X127.0Y-88.9
X127.0Y-96.52
X127.0Y-119.38
X127.0Y-127.0
X129.54Y-88.9
X129.54Y-104.14
X129.54Y-119.38
X129.54Y-96.52
X129.54Y-111.76
X129.54Y-127.0
X132.08Y-88.9
X132.08Y-96.52
X132.08Y-104.14
X132.08Y-111.76
X132.08Y-119.38
X132.08Y-127.0
X134.62Y-88.9
X134.62Y-96.52
X134.62Y-104.14
X134.62Y-111.76
X134.62Y-119.38
X134.62Y-127.0
X137.16Y-88.9
X137.16Y-96.52
X137.16Y-104.14
X137.16Y-111.76
X137.16Y-119.38
X137.16Y-127.0
X139.7Y-88.9
X139.7Y-96.52
X139.7Y-104.14
X139.7Y-111.76
X139.7Y-119.38
X139.7Y-127.0
X142.24Y-96.52
X142.24Y-111.76
X142.24Y-127.0
X142.24Y-88.9
X142.24Y-104.14
X142.24Y-119.38
X144.78Y-88.9
X144.78Y-96.52
X144.78Y-104.14
X144.78Y-111.76
X144.78Y-119.38
X144.78Y-127.0
X147.32Y-88.9
X147.32Y-96.52
X147.32Y-104.14
X147.32Y-111.76
X147.32Y-119.38
X147.32Y-127.0
X149.86Y-91.52
X149.86Y-96.52
X149.86Y-106.76
X149.86Y-111.76
X149.86Y-122.0
X149.86Y-127.0
X152.44Y-129.54
X154.94Y-129.54
T6
X52.075Y-69.845
X52.075Y-72.385
X52.075Y-74.925
X52.075Y-77.465
X52.075Y-80.005
X52.075Y-82.545
X52.075Y-85.085
X52.075Y-87.625
X52.075Y-90.165
X52.075Y-92.705
X54.615Y-69.845
X54.615Y-72.385
X54.615Y-74.925
X54.615Y-77.465
X54.615Y-80.005
X54.615Y-82.545
X54.615Y-85.085
X54.615Y-87.625
X54.615Y-90.165
X54.615Y-92.705
X67.31Y-135.89
X67.31Y-138.43
X67.37Y-50.8
X69.85Y-135.89
X69.85Y-138.43
X69.87Y-50.8
X72.37Y-50.8
X72.39Y-135.89
X72.39Y-138.43
X74.87Y-50.8
X74.93Y-135.89
X74.93Y-138.43
X77.47Y-138.43
X77.47Y-135.89
X78.74Y-119.38
X78.74Y-121.92
X80.01Y-135.89
X80.01Y-138.43
X81.28Y-119.38
X81.28Y-121.92
X82.55Y-135.89
X82.55Y-138.43
X83.82Y-58.328
X83.82Y-63.328
X83.82Y-119.38
X83.82Y-121.92
X85.09Y-135.89
X85.09Y-138.43
X86.36Y-119.38
X86.36Y-121.92
X87.63Y-138.43
X87.63Y-135.89
X88.9Y-119.38
X88.9Y-121.92
X90.17Y-135.89
X90.17Y-138.43
X91.44Y-119.38
X91.44Y-121.92
X92.71Y-135.89
X92.71Y-138.43
X93.98Y-121.92
X93.98Y-119.38
X95.25Y-135.89
X95.25Y-138.43
X96.52Y-119.38
X96.52Y-121.92
X97.79Y-135.89
X97.79Y-138.43
X99.06Y-119.38
X99.06Y-121.92
X100.33Y-135.89
X100.33Y-138.43
X102.87Y-54.61
X102.87Y-57.15
X102.87Y-135.89
X102.87Y-138.43
X105.41Y-54.61
X105.41Y-57.15
X105.41Y-135.89
X105.41Y-138.43
X107.95Y-57.15
X107.95Y-54.61
X107.95Y-135.89
X107.95Y-138.43
X110.49Y-54.61
X110.49Y-57.15
X110.49Y-138.43
X110.49Y-135.89
X113.03Y-54.61
X113.03Y-57.15
X113.03Y-135.89
X113.03Y-138.43
X115.57Y-54.61
X115.57Y-57.15
X115.57Y-135.89
X115.57Y-138.43
X118.11Y-54.61
X118.11Y-57.15
X120.65Y-54.61
X120.65Y-57.15
X123.19Y-54.61
X123.19Y-57.15
X125.73Y-54.61
X125.73Y-57.15
X128.27Y-54.61
X128.27Y-57.15
X130.81Y-57.15
X130.81Y-54.61
X133.35Y-54.61
X133.35Y-57.15
X135.89Y-54.61
X135.89Y-57.15
X138.43Y-54.61
X138.43Y-57.15
X140.97Y-57.15
X140.97Y-54.61
X143.51Y-54.61
X143.51Y-57.15
X146.05Y-54.61
X146.05Y-57.15
X148.59Y-54.61
X148.59Y-57.15
X151.13Y-54.61
X151.13Y-57.15
X153.67Y-74.93
X153.67Y-77.47
X153.67Y-80.01
X153.67Y-82.55
X153.67Y-85.09
X153.67Y-87.63
X153.67Y-90.17
X153.67Y-92.71
X153.67Y-95.25
X153.67Y-97.79
X153.67Y-100.33
X153.67Y-102.87
X153.67Y-105.41
X153.67Y-107.95
X153.67Y-110.49
X153.67Y-113.03
X153.67Y-115.57
X153.67Y-118.11
X153.67Y-120.65
X153.67Y-123.19
X156.21Y-74.93
X156.21Y-77.47
X156.21Y-80.01
X156.21Y-82.55
X156.21Y-85.09
X156.21Y-87.63
X156.21Y-90.17
X156.21Y-92.71
X156.21Y-95.25
X156.21Y-97.79
X156.21Y-100.33
X156.21Y-102.87
X156.21Y-105.41
X156.21Y-107.95
X156.21Y-110.49
X156.21Y-113.03
X156.21Y-115.57
X156.21Y-118.11
X156.21Y-120.65
X156.21Y-123.19
T7
X54.61Y-44.45
X54.61Y-64.77
X54.61Y-135.89
X146.05Y-64.77
X146.05Y-135.89
X153.67Y-64.77
X153.67Y-135.89
M30
